G04 #@! TF.GenerationSoftware,KiCad,Pcbnew,(5.99.0-12762-g961c127ebe)*
G04 #@! TF.CreationDate,2021-11-23T00:18:37+09:00*
G04 #@! TF.ProjectId,plate4,706c6174-6534-42e6-9b69-6361645f7063,rev?*
G04 #@! TF.SameCoordinates,Original*
G04 #@! TF.FileFunction,Soldermask,Bot*
G04 #@! TF.FilePolarity,Negative*
%FSLAX46Y46*%
G04 Gerber Fmt 4.6, Leading zero omitted, Abs format (unit mm)*
G04 Created by KiCad (PCBNEW (5.99.0-12762-g961c127ebe)) date 2021-11-23 00:18:37*
%MOMM*%
%LPD*%
G01*
G04 APERTURE LIST*
G04 APERTURE END LIST*
G36*
X299509921Y-37734202D02*
G01*
X299556414Y-37787858D01*
X299567800Y-37840200D01*
X299567800Y-91725701D01*
X299547798Y-91793822D01*
X299494142Y-91840315D01*
X299441800Y-91851701D01*
X296071762Y-91851701D01*
X296061899Y-91852479D01*
X295303556Y-91972852D01*
X295284993Y-91978879D01*
X294606695Y-92323777D01*
X294590753Y-92335362D01*
X294064742Y-92862516D01*
X294002467Y-92896608D01*
X293931646Y-92891620D01*
X293874764Y-92849135D01*
X293849881Y-92782642D01*
X293849550Y-92773517D01*
X293849550Y-82752201D01*
X293869552Y-82684080D01*
X293923208Y-82637587D01*
X293975550Y-82626201D01*
X294831435Y-82626201D01*
X294846674Y-82621726D01*
X294847879Y-82620336D01*
X294849550Y-82612653D01*
X294849550Y-68644316D01*
X294845075Y-68629077D01*
X294843685Y-68627872D01*
X294836002Y-68626201D01*
X293975550Y-68626201D01*
X293907429Y-68606199D01*
X293860936Y-68552543D01*
X293849550Y-68500201D01*
X293849550Y-60206315D01*
X293845075Y-60191076D01*
X293843685Y-60189871D01*
X293836002Y-60188200D01*
X292594300Y-60188200D01*
X292526179Y-60168198D01*
X292479686Y-60114542D01*
X292468300Y-60062200D01*
X292468300Y-59119316D01*
X292463825Y-59104077D01*
X292462435Y-59102872D01*
X292454752Y-59101201D01*
X278486414Y-59101201D01*
X278471175Y-59105676D01*
X278469970Y-59107066D01*
X278468299Y-59114749D01*
X278468299Y-73083086D01*
X278472774Y-73098325D01*
X278474164Y-73099530D01*
X278481847Y-73101201D01*
X280723550Y-73101201D01*
X280791671Y-73121203D01*
X280838164Y-73174859D01*
X280849550Y-73227201D01*
X280849550Y-78019528D01*
X280829548Y-78087649D01*
X280775892Y-78134142D01*
X280723648Y-78145528D01*
X273418300Y-78151201D01*
X259436414Y-78151201D01*
X259421175Y-78155676D01*
X259419970Y-78157066D01*
X259418299Y-78164749D01*
X259418299Y-92133086D01*
X259422774Y-92148325D01*
X259424164Y-92149530D01*
X259431847Y-92151201D01*
X262760550Y-92151201D01*
X262828671Y-92171203D01*
X262875164Y-92224859D01*
X262886550Y-92277201D01*
X262886550Y-94133086D01*
X262891025Y-94148325D01*
X262892415Y-94149530D01*
X262900098Y-94151201D01*
X269868435Y-94151201D01*
X269883674Y-94146726D01*
X269884879Y-94145336D01*
X269886550Y-94137653D01*
X269886550Y-92277201D01*
X269906552Y-92209080D01*
X269960208Y-92162587D01*
X270012550Y-92151201D01*
X286636550Y-92151201D01*
X286704671Y-92171203D01*
X286751164Y-92224859D01*
X286762550Y-92277201D01*
X286762550Y-94133086D01*
X286767025Y-94148325D01*
X286768415Y-94149530D01*
X286776098Y-94151201D01*
X293452035Y-94151201D01*
X293520156Y-94171203D01*
X293566649Y-94224859D01*
X293576465Y-94297032D01*
X293569369Y-94341558D01*
X293569366Y-94361243D01*
X293689254Y-95114682D01*
X293695255Y-95133178D01*
X294040301Y-95812939D01*
X294051821Y-95828834D01*
X294590764Y-96368654D01*
X294606674Y-96380217D01*
X295284989Y-96725416D01*
X295303565Y-96731450D01*
X296061899Y-96851823D01*
X296071762Y-96852601D01*
X299441800Y-96852601D01*
X299509921Y-96872603D01*
X299556414Y-96926259D01*
X299567800Y-96978601D01*
X299567800Y-132462201D01*
X299547798Y-132530322D01*
X299494142Y-132576815D01*
X299441800Y-132588201D01*
X14319796Y-132588201D01*
X14251675Y-132568199D01*
X14205182Y-132514543D01*
X14193796Y-132462204D01*
X14193739Y-130233086D01*
X18912049Y-130233086D01*
X18916524Y-130248325D01*
X18917914Y-130249530D01*
X18925597Y-130251201D01*
X32893935Y-130251201D01*
X32909174Y-130246726D01*
X32910379Y-130245336D01*
X32912050Y-130237653D01*
X32912050Y-130233086D01*
X40343300Y-130233086D01*
X40347775Y-130248325D01*
X40349165Y-130249530D01*
X40356848Y-130251201D01*
X56706435Y-130251201D01*
X56721674Y-130246726D01*
X56722879Y-130245336D01*
X56724550Y-130237653D01*
X56724550Y-130233086D01*
X59393300Y-130233086D01*
X59397775Y-130248325D01*
X59399165Y-130249530D01*
X59406848Y-130251201D01*
X91581435Y-130251201D01*
X91596674Y-130246726D01*
X91597879Y-130245336D01*
X91599550Y-130237653D01*
X91599550Y-130233086D01*
X99874550Y-130233086D01*
X99879025Y-130248325D01*
X99880415Y-130249530D01*
X99888098Y-130251201D01*
X113856435Y-130251201D01*
X113871674Y-130246726D01*
X113872879Y-130245336D01*
X113874550Y-130237653D01*
X113874550Y-130233086D01*
X137974550Y-130233086D01*
X137979025Y-130248325D01*
X137980415Y-130249530D01*
X137988098Y-130251201D01*
X154337685Y-130251201D01*
X154352924Y-130246726D01*
X154354129Y-130245336D01*
X154355800Y-130237653D01*
X154355800Y-130233086D01*
X180837050Y-130233086D01*
X180841525Y-130248325D01*
X180842915Y-130249530D01*
X180850598Y-130251201D01*
X194818935Y-130251201D01*
X194834174Y-130246726D01*
X194835379Y-130245336D01*
X194837050Y-130237653D01*
X194837050Y-129377201D01*
X194857052Y-129309080D01*
X194910708Y-129262587D01*
X194963050Y-129251201D01*
X198331435Y-129251201D01*
X198346674Y-129246726D01*
X198347879Y-129245336D01*
X198349550Y-129237653D01*
X198349550Y-123061627D01*
X202382367Y-123061627D01*
X202502254Y-123815145D01*
X202508251Y-123833636D01*
X202852300Y-124511881D01*
X202863826Y-124527789D01*
X203402751Y-125067688D01*
X203418697Y-125079271D01*
X204097990Y-125424424D01*
X204116559Y-125430447D01*
X204543267Y-125498053D01*
X204607419Y-125528469D01*
X204644942Y-125588739D01*
X204649550Y-125622501D01*
X204649550Y-130233086D01*
X204654025Y-130248325D01*
X204655415Y-130249530D01*
X204663098Y-130251201D01*
X221012685Y-130251201D01*
X221027924Y-130246726D01*
X221029129Y-130245336D01*
X221030800Y-130237653D01*
X221030800Y-130233086D01*
X226080800Y-130233086D01*
X226085275Y-130248325D01*
X226086665Y-130249530D01*
X226094348Y-130251201D01*
X240062685Y-130251201D01*
X240077924Y-130246726D01*
X240079129Y-130245336D01*
X240080800Y-130237653D01*
X240080800Y-130233086D01*
X245130799Y-130233086D01*
X245135274Y-130248325D01*
X245136664Y-130249530D01*
X245144347Y-130251201D01*
X259112685Y-130251201D01*
X259127924Y-130246726D01*
X259129129Y-130245336D01*
X259130800Y-130237653D01*
X259130800Y-130233086D01*
X264180799Y-130233086D01*
X264185274Y-130248325D01*
X264186664Y-130249530D01*
X264194347Y-130251201D01*
X278162685Y-130251201D01*
X278177924Y-130246726D01*
X278179129Y-130245336D01*
X278180800Y-130237653D01*
X278180800Y-130233086D01*
X283230800Y-130233086D01*
X283235275Y-130248325D01*
X283236665Y-130249530D01*
X283244348Y-130251201D01*
X297212685Y-130251201D01*
X297227924Y-130246726D01*
X297229129Y-130245336D01*
X297230800Y-130237653D01*
X297230800Y-116269316D01*
X297226325Y-116254077D01*
X297224935Y-116252872D01*
X297217252Y-116251201D01*
X283248915Y-116251201D01*
X283233676Y-116255676D01*
X283232471Y-116257066D01*
X283230800Y-116264749D01*
X283230800Y-130233086D01*
X278180800Y-130233086D01*
X278180800Y-116269316D01*
X278176325Y-116254077D01*
X278174935Y-116252872D01*
X278167252Y-116251201D01*
X264198914Y-116251201D01*
X264183675Y-116255676D01*
X264182470Y-116257066D01*
X264180799Y-116264749D01*
X264180799Y-130233086D01*
X259130800Y-130233086D01*
X259130800Y-116269316D01*
X259126325Y-116254077D01*
X259124935Y-116252872D01*
X259117252Y-116251201D01*
X245148914Y-116251201D01*
X245133675Y-116255676D01*
X245132470Y-116257066D01*
X245130799Y-116264749D01*
X245130799Y-130233086D01*
X240080800Y-130233086D01*
X240080800Y-116269316D01*
X240076325Y-116254077D01*
X240074935Y-116252872D01*
X240067252Y-116251201D01*
X226098915Y-116251201D01*
X226083676Y-116255676D01*
X226082471Y-116257066D01*
X226080800Y-116264749D01*
X226080800Y-130233086D01*
X221030800Y-130233086D01*
X221030800Y-116269316D01*
X221026325Y-116254077D01*
X221024935Y-116252872D01*
X221017252Y-116251201D01*
X204667665Y-116251201D01*
X204652426Y-116255676D01*
X204651221Y-116257066D01*
X204649550Y-116264749D01*
X204649550Y-120481061D01*
X204629548Y-120549182D01*
X204575892Y-120595675D01*
X204543278Y-120605507D01*
X204116602Y-120673147D01*
X204097958Y-120679211D01*
X203418614Y-121025705D01*
X203402802Y-121037194D01*
X202863883Y-121575723D01*
X202852277Y-121591735D01*
X202508228Y-122271355D01*
X202502257Y-122289783D01*
X202382369Y-123041934D01*
X202382367Y-123061627D01*
X198349550Y-123061627D01*
X198349550Y-115269316D01*
X198345075Y-115254077D01*
X198343685Y-115252872D01*
X198336002Y-115251201D01*
X191617665Y-115251201D01*
X191602426Y-115255676D01*
X191601221Y-115257066D01*
X191599550Y-115264749D01*
X191599550Y-116125201D01*
X191579548Y-116193322D01*
X191525892Y-116239815D01*
X191473550Y-116251201D01*
X180855165Y-116251201D01*
X180839926Y-116255676D01*
X180838721Y-116257066D01*
X180837050Y-116264749D01*
X180837050Y-130233086D01*
X154355800Y-130233086D01*
X154355800Y-129233086D01*
X163030800Y-129233086D01*
X163035275Y-129248325D01*
X163036665Y-129249530D01*
X163044348Y-129251201D01*
X169762685Y-129251201D01*
X169777924Y-129246726D01*
X169779129Y-129245336D01*
X169780800Y-129237653D01*
X169780800Y-115269316D01*
X169776325Y-115254077D01*
X169774935Y-115252872D01*
X169767252Y-115251201D01*
X163048915Y-115251201D01*
X163033676Y-115255676D01*
X163032471Y-115257066D01*
X163030800Y-115264749D01*
X163030800Y-129233086D01*
X154355800Y-129233086D01*
X154355800Y-116269316D01*
X154351325Y-116254077D01*
X154349935Y-116252872D01*
X154342252Y-116251201D01*
X137992665Y-116251201D01*
X137977426Y-116255676D01*
X137976221Y-116257066D01*
X137974550Y-116264749D01*
X137974550Y-130233086D01*
X113874550Y-130233086D01*
X113874550Y-129233086D01*
X124930800Y-129233086D01*
X124935275Y-129248325D01*
X124936665Y-129249530D01*
X124944348Y-129251201D01*
X131662685Y-129251201D01*
X131677924Y-129246726D01*
X131679129Y-129245336D01*
X131680800Y-129237653D01*
X131680800Y-115269316D01*
X131676325Y-115254077D01*
X131674935Y-115252872D01*
X131667252Y-115251201D01*
X124948915Y-115251201D01*
X124933676Y-115255676D01*
X124932471Y-115257066D01*
X124930800Y-115264749D01*
X124930800Y-129233086D01*
X113874550Y-129233086D01*
X113874550Y-116269316D01*
X113870075Y-116254077D01*
X113868685Y-116252872D01*
X113861002Y-116251201D01*
X99892665Y-116251201D01*
X99877426Y-116255676D01*
X99876221Y-116257066D01*
X99874550Y-116264749D01*
X99874550Y-130233086D01*
X91599550Y-130233086D01*
X91599550Y-129377201D01*
X91619552Y-129309080D01*
X91673208Y-129262587D01*
X91725550Y-129251201D01*
X98331435Y-129251201D01*
X98346674Y-129246726D01*
X98347879Y-129245336D01*
X98349550Y-129237653D01*
X98349550Y-115269316D01*
X98345075Y-115254077D01*
X98343685Y-115252872D01*
X98336002Y-115251201D01*
X91617665Y-115251201D01*
X91602426Y-115255676D01*
X91601221Y-115257066D01*
X91599550Y-115264749D01*
X91599550Y-116125201D01*
X91579548Y-116193322D01*
X91525892Y-116239815D01*
X91473550Y-116251201D01*
X59411415Y-116251201D01*
X59396176Y-116255676D01*
X59394971Y-116257066D01*
X59393300Y-116264749D01*
X59393300Y-130233086D01*
X56724550Y-130233086D01*
X56724550Y-116269316D01*
X56720075Y-116254077D01*
X56718685Y-116252872D01*
X56711002Y-116251201D01*
X40361415Y-116251201D01*
X40346176Y-116255676D01*
X40344971Y-116257066D01*
X40343300Y-116264749D01*
X40343300Y-130233086D01*
X32912050Y-130233086D01*
X32912050Y-116269316D01*
X32907575Y-116254077D01*
X32906185Y-116252872D01*
X32898502Y-116251201D01*
X18930164Y-116251201D01*
X18914925Y-116255676D01*
X18913720Y-116257066D01*
X18912049Y-116264749D01*
X18912049Y-130233086D01*
X14193739Y-130233086D01*
X14193251Y-111183086D01*
X16530799Y-111183086D01*
X16535274Y-111198325D01*
X16536664Y-111199530D01*
X16544347Y-111201201D01*
X17616799Y-111201201D01*
X17684920Y-111221203D01*
X17731413Y-111274859D01*
X17742799Y-111327201D01*
X17742799Y-112183086D01*
X17747274Y-112198325D01*
X17748664Y-112199530D01*
X17756347Y-112201201D01*
X24474685Y-112201201D01*
X24489924Y-112196726D01*
X24491129Y-112195336D01*
X24492800Y-112187653D01*
X24492800Y-111327201D01*
X24512802Y-111259080D01*
X24566458Y-111212587D01*
X24618800Y-111201201D01*
X41492800Y-111201201D01*
X41560921Y-111221203D01*
X41607414Y-111274859D01*
X41618800Y-111327201D01*
X41618800Y-112183086D01*
X41623275Y-112198325D01*
X41624665Y-112199530D01*
X41632348Y-112201201D01*
X48350685Y-112201201D01*
X48365924Y-112196726D01*
X48367129Y-112195336D01*
X48368800Y-112187653D01*
X48368800Y-111327201D01*
X48388802Y-111259080D01*
X48442458Y-111212587D01*
X48494800Y-111201201D01*
X49562685Y-111201201D01*
X49577924Y-111196726D01*
X49579129Y-111195336D01*
X49580800Y-111187653D01*
X49580800Y-111183086D01*
X54630800Y-111183086D01*
X54635275Y-111198325D01*
X54636665Y-111199530D01*
X54644348Y-111201201D01*
X68612685Y-111201201D01*
X68627924Y-111196726D01*
X68629129Y-111195336D01*
X68630800Y-111187653D01*
X68630800Y-111183086D01*
X73680800Y-111183086D01*
X73685275Y-111198325D01*
X73686665Y-111199530D01*
X73694348Y-111201201D01*
X87662685Y-111201201D01*
X87677924Y-111196726D01*
X87679129Y-111195336D01*
X87680800Y-111187653D01*
X87680800Y-111183086D01*
X92730800Y-111183086D01*
X92735275Y-111198325D01*
X92736665Y-111199530D01*
X92744348Y-111201201D01*
X106712685Y-111201201D01*
X106727924Y-111196726D01*
X106729129Y-111195336D01*
X106730800Y-111187653D01*
X106730800Y-111183086D01*
X111780800Y-111183086D01*
X111785275Y-111198325D01*
X111786665Y-111199530D01*
X111794348Y-111201201D01*
X125762685Y-111201201D01*
X125777924Y-111196726D01*
X125779129Y-111195336D01*
X125780800Y-111187653D01*
X125780800Y-111183086D01*
X130830800Y-111183086D01*
X130835275Y-111198325D01*
X130836665Y-111199530D01*
X130844348Y-111201201D01*
X144812684Y-111201201D01*
X144827923Y-111196726D01*
X144829128Y-111195336D01*
X144830799Y-111187653D01*
X144830799Y-111183086D01*
X149880800Y-111183086D01*
X149885275Y-111198325D01*
X149886665Y-111199530D01*
X149894348Y-111201201D01*
X163862685Y-111201201D01*
X163877924Y-111196726D01*
X163879129Y-111195336D01*
X163880800Y-111187653D01*
X163880800Y-111183086D01*
X168930800Y-111183086D01*
X168935275Y-111198325D01*
X168936665Y-111199530D01*
X168944348Y-111201201D01*
X182912685Y-111201201D01*
X182927924Y-111196726D01*
X182929129Y-111195336D01*
X182930800Y-111187653D01*
X182930800Y-111183086D01*
X187980800Y-111183086D01*
X187985275Y-111198325D01*
X187986665Y-111199530D01*
X187994348Y-111201201D01*
X201962685Y-111201201D01*
X201977924Y-111196726D01*
X201979129Y-111195336D01*
X201980800Y-111187653D01*
X201980800Y-111183086D01*
X207030800Y-111183086D01*
X207035275Y-111198325D01*
X207036665Y-111199530D01*
X207044348Y-111201201D01*
X221012685Y-111201201D01*
X221027924Y-111196726D01*
X221029129Y-111195336D01*
X221030800Y-111187653D01*
X221030800Y-111183086D01*
X226080800Y-111183086D01*
X226085275Y-111198325D01*
X226086665Y-111199530D01*
X226094348Y-111201201D01*
X240062685Y-111201201D01*
X240077924Y-111196726D01*
X240079129Y-111195336D01*
X240080800Y-111187653D01*
X240080800Y-111183086D01*
X245130799Y-111183086D01*
X245135274Y-111198325D01*
X245136664Y-111199530D01*
X245144347Y-111201201D01*
X259112685Y-111201201D01*
X259127924Y-111196726D01*
X259129129Y-111195336D01*
X259130800Y-111187653D01*
X259130800Y-111183086D01*
X264180799Y-111183086D01*
X264185274Y-111198325D01*
X264186664Y-111199530D01*
X264194347Y-111201201D01*
X265266800Y-111201201D01*
X265334921Y-111221203D01*
X265381414Y-111274859D01*
X265392800Y-111327201D01*
X265392800Y-112183086D01*
X265397275Y-112198325D01*
X265398665Y-112199530D01*
X265406348Y-112201201D01*
X272124684Y-112201201D01*
X272139923Y-112196726D01*
X272141128Y-112195336D01*
X272142799Y-112187653D01*
X272142799Y-111327201D01*
X272162801Y-111259080D01*
X272216457Y-111212587D01*
X272268799Y-111201201D01*
X289142800Y-111201201D01*
X289210921Y-111221203D01*
X289257414Y-111274859D01*
X289268800Y-111327201D01*
X289268800Y-112183086D01*
X289273275Y-112198325D01*
X289274665Y-112199530D01*
X289282348Y-112201201D01*
X296000685Y-112201201D01*
X296015924Y-112196726D01*
X296017129Y-112195336D01*
X296018800Y-112187653D01*
X296018800Y-111327201D01*
X296038802Y-111259080D01*
X296092458Y-111212587D01*
X296144800Y-111201201D01*
X297212684Y-111201201D01*
X297227923Y-111196726D01*
X297229128Y-111195336D01*
X297230799Y-111187653D01*
X297230799Y-97219316D01*
X297226324Y-97204077D01*
X297224934Y-97202872D01*
X297217251Y-97201201D01*
X264198914Y-97201201D01*
X264183675Y-97205676D01*
X264182470Y-97207066D01*
X264180799Y-97214749D01*
X264180799Y-111183086D01*
X259130800Y-111183086D01*
X259130800Y-97219316D01*
X259126325Y-97204077D01*
X259124935Y-97202872D01*
X259117252Y-97201201D01*
X245148914Y-97201201D01*
X245133675Y-97205676D01*
X245132470Y-97207066D01*
X245130799Y-97214749D01*
X245130799Y-111183086D01*
X240080800Y-111183086D01*
X240080800Y-97219316D01*
X240076325Y-97204077D01*
X240074935Y-97202872D01*
X240067252Y-97201201D01*
X226098915Y-97201201D01*
X226083676Y-97205676D01*
X226082471Y-97207066D01*
X226080800Y-97214749D01*
X226080800Y-111183086D01*
X221030800Y-111183086D01*
X221030800Y-97219316D01*
X221026325Y-97204077D01*
X221024935Y-97202872D01*
X221017252Y-97201201D01*
X207048915Y-97201201D01*
X207033676Y-97205676D01*
X207032471Y-97207066D01*
X207030800Y-97214749D01*
X207030800Y-111183086D01*
X201980800Y-111183086D01*
X201980800Y-97219316D01*
X201976325Y-97204077D01*
X201974935Y-97202872D01*
X201967252Y-97201201D01*
X187998915Y-97201201D01*
X187983676Y-97205676D01*
X187982471Y-97207066D01*
X187980800Y-97214749D01*
X187980800Y-111183086D01*
X182930800Y-111183086D01*
X182930800Y-97219316D01*
X182926325Y-97204077D01*
X182924935Y-97202872D01*
X182917252Y-97201201D01*
X168948915Y-97201201D01*
X168933676Y-97205676D01*
X168932471Y-97207066D01*
X168930800Y-97214749D01*
X168930800Y-111183086D01*
X163880800Y-111183086D01*
X163880800Y-97219316D01*
X163876325Y-97204077D01*
X163874935Y-97202872D01*
X163867252Y-97201201D01*
X149898915Y-97201201D01*
X149883676Y-97205676D01*
X149882471Y-97207066D01*
X149880800Y-97214749D01*
X149880800Y-111183086D01*
X144830799Y-111183086D01*
X144830799Y-97219316D01*
X144826324Y-97204077D01*
X144824934Y-97202872D01*
X144817251Y-97201201D01*
X130848915Y-97201201D01*
X130833676Y-97205676D01*
X130832471Y-97207066D01*
X130830800Y-97214749D01*
X130830800Y-111183086D01*
X125780800Y-111183086D01*
X125780800Y-97219316D01*
X125776325Y-97204077D01*
X125774935Y-97202872D01*
X125767252Y-97201201D01*
X111798915Y-97201201D01*
X111783676Y-97205676D01*
X111782471Y-97207066D01*
X111780800Y-97214749D01*
X111780800Y-111183086D01*
X106730800Y-111183086D01*
X106730800Y-97219316D01*
X106726325Y-97204077D01*
X106724935Y-97202872D01*
X106717252Y-97201201D01*
X92748915Y-97201201D01*
X92733676Y-97205676D01*
X92732471Y-97207066D01*
X92730800Y-97214749D01*
X92730800Y-111183086D01*
X87680800Y-111183086D01*
X87680800Y-97219316D01*
X87676325Y-97204077D01*
X87674935Y-97202872D01*
X87667252Y-97201201D01*
X73698915Y-97201201D01*
X73683676Y-97205676D01*
X73682471Y-97207066D01*
X73680800Y-97214749D01*
X73680800Y-111183086D01*
X68630800Y-111183086D01*
X68630800Y-97219316D01*
X68626325Y-97204077D01*
X68624935Y-97202872D01*
X68617252Y-97201201D01*
X54648915Y-97201201D01*
X54633676Y-97205676D01*
X54632471Y-97207066D01*
X54630800Y-97214749D01*
X54630800Y-111183086D01*
X49580800Y-111183086D01*
X49580800Y-97219316D01*
X49576325Y-97204077D01*
X49574935Y-97202872D01*
X49567252Y-97201201D01*
X16548914Y-97201201D01*
X16533675Y-97205676D01*
X16532470Y-97207066D01*
X16530799Y-97214749D01*
X16530799Y-111183086D01*
X14193251Y-111183086D01*
X14192887Y-96978604D01*
X14212887Y-96910483D01*
X14266542Y-96863989D01*
X14318887Y-96852601D01*
X17688136Y-96852601D01*
X17698005Y-96851823D01*
X18456406Y-96731451D01*
X18474997Y-96725412D01*
X19153216Y-96380222D01*
X19169138Y-96368645D01*
X19707718Y-95828790D01*
X19719173Y-95813007D01*
X20065722Y-95133223D01*
X20071773Y-95114622D01*
X20191290Y-94362716D01*
X20191293Y-94343083D01*
X20071773Y-93589400D01*
X20065711Y-93570761D01*
X19719168Y-92891282D01*
X19707730Y-92875521D01*
X19199856Y-92366167D01*
X19165922Y-92303805D01*
X19171090Y-92232997D01*
X19213719Y-92176223D01*
X19280275Y-92151509D01*
X19289081Y-92151201D01*
X37656435Y-92151201D01*
X37671674Y-92146726D01*
X37672879Y-92145336D01*
X37674550Y-92137653D01*
X37674550Y-92133086D01*
X49868300Y-92133086D01*
X49872775Y-92148325D01*
X49874165Y-92149530D01*
X49881848Y-92151201D01*
X63850185Y-92151201D01*
X63865424Y-92146726D01*
X63866629Y-92145336D01*
X63868300Y-92137653D01*
X63868300Y-92133086D01*
X68918300Y-92133086D01*
X68922775Y-92148325D01*
X68924165Y-92149530D01*
X68931848Y-92151201D01*
X82900185Y-92151201D01*
X82915424Y-92146726D01*
X82916629Y-92145336D01*
X82918300Y-92137653D01*
X82918300Y-92133086D01*
X87968300Y-92133086D01*
X87972775Y-92148325D01*
X87974165Y-92149530D01*
X87981848Y-92151201D01*
X101950185Y-92151201D01*
X101965424Y-92146726D01*
X101966629Y-92145336D01*
X101968300Y-92137653D01*
X101968300Y-92133086D01*
X107018300Y-92133086D01*
X107022775Y-92148325D01*
X107024165Y-92149530D01*
X107031848Y-92151201D01*
X121000185Y-92151201D01*
X121015424Y-92146726D01*
X121016629Y-92145336D01*
X121018300Y-92137653D01*
X121018300Y-92133086D01*
X126068300Y-92133086D01*
X126072775Y-92148325D01*
X126074165Y-92149530D01*
X126081848Y-92151201D01*
X140050185Y-92151201D01*
X140065424Y-92146726D01*
X140066629Y-92145336D01*
X140068300Y-92137653D01*
X140068300Y-86188449D01*
X140088302Y-86120328D01*
X140141958Y-86073835D01*
X140212232Y-86063731D01*
X140276812Y-86093225D01*
X140306462Y-86131041D01*
X140553288Y-86613286D01*
X140564812Y-86629092D01*
X141104838Y-87167559D01*
X141120554Y-87178974D01*
X141798957Y-87525582D01*
X141817607Y-87531658D01*
X142570980Y-87651341D01*
X142590620Y-87651341D01*
X143343993Y-87531658D01*
X143362643Y-87525582D01*
X144041046Y-87178974D01*
X144056762Y-87167559D01*
X144596711Y-86629170D01*
X144608331Y-86613173D01*
X144879942Y-86078007D01*
X144928609Y-86026314D01*
X144997496Y-86009138D01*
X145064734Y-86031933D01*
X145108975Y-86087460D01*
X145118300Y-86135031D01*
X145118300Y-92133086D01*
X145122775Y-92148325D01*
X145124165Y-92149530D01*
X145131848Y-92151201D01*
X159100185Y-92151201D01*
X159115424Y-92146726D01*
X159116629Y-92145336D01*
X159118300Y-92137653D01*
X159118300Y-92133086D01*
X164168300Y-92133086D01*
X164172775Y-92148325D01*
X164174165Y-92149530D01*
X164181848Y-92151201D01*
X178150185Y-92151201D01*
X178165424Y-92146726D01*
X178166629Y-92145336D01*
X178168300Y-92137653D01*
X178168300Y-92133086D01*
X183218300Y-92133086D01*
X183222775Y-92148325D01*
X183224165Y-92149530D01*
X183231848Y-92151201D01*
X197200185Y-92151201D01*
X197215424Y-92146726D01*
X197216629Y-92145336D01*
X197218300Y-92137653D01*
X197218300Y-92133086D01*
X202268300Y-92133086D01*
X202272775Y-92148325D01*
X202274165Y-92149530D01*
X202281848Y-92151201D01*
X216250185Y-92151201D01*
X216265424Y-92146726D01*
X216266629Y-92145336D01*
X216268300Y-92137653D01*
X216268300Y-92133086D01*
X221318300Y-92133086D01*
X221322775Y-92148325D01*
X221324165Y-92149530D01*
X221331848Y-92151201D01*
X235300185Y-92151201D01*
X235315424Y-92146726D01*
X235316629Y-92145336D01*
X235318300Y-92137653D01*
X235318300Y-92133086D01*
X240368300Y-92133086D01*
X240372775Y-92148325D01*
X240374165Y-92149530D01*
X240381848Y-92151201D01*
X254350185Y-92151201D01*
X254365424Y-92146726D01*
X254366629Y-92145336D01*
X254368300Y-92137653D01*
X254368300Y-78169316D01*
X254363825Y-78154077D01*
X254362435Y-78152872D01*
X254354752Y-78151201D01*
X240386415Y-78151201D01*
X240371176Y-78155676D01*
X240369971Y-78157066D01*
X240368300Y-78164749D01*
X240368300Y-92133086D01*
X235318300Y-92133086D01*
X235318300Y-78169316D01*
X235313825Y-78154077D01*
X235312435Y-78152872D01*
X235304752Y-78151201D01*
X221336415Y-78151201D01*
X221321176Y-78155676D01*
X221319971Y-78157066D01*
X221318300Y-78164749D01*
X221318300Y-92133086D01*
X216268300Y-92133086D01*
X216268300Y-78169316D01*
X216263825Y-78154077D01*
X216262435Y-78152872D01*
X216254752Y-78151201D01*
X202286415Y-78151201D01*
X202271176Y-78155676D01*
X202269971Y-78157066D01*
X202268300Y-78164749D01*
X202268300Y-92133086D01*
X197218300Y-92133086D01*
X197218300Y-78169316D01*
X197213825Y-78154077D01*
X197212435Y-78152872D01*
X197204752Y-78151201D01*
X183236415Y-78151201D01*
X183221176Y-78155676D01*
X183219971Y-78157066D01*
X183218300Y-78164749D01*
X183218300Y-92133086D01*
X178168300Y-92133086D01*
X178168300Y-78169316D01*
X178163825Y-78154077D01*
X178162435Y-78152872D01*
X178154752Y-78151201D01*
X164186415Y-78151201D01*
X164171176Y-78155676D01*
X164169971Y-78157066D01*
X164168300Y-78164749D01*
X164168300Y-92133086D01*
X159118300Y-92133086D01*
X159118300Y-78169316D01*
X159113825Y-78154077D01*
X159112435Y-78152872D01*
X159104752Y-78151201D01*
X145136415Y-78151201D01*
X145121176Y-78155676D01*
X145119971Y-78157066D01*
X145118300Y-78164749D01*
X145118300Y-84168366D01*
X145098298Y-84236487D01*
X145044642Y-84282980D01*
X144974368Y-84293084D01*
X144909788Y-84263590D01*
X144880002Y-84225508D01*
X144608301Y-83691546D01*
X144596781Y-83675679D01*
X144056827Y-83135530D01*
X144040945Y-83123994D01*
X143362675Y-82778816D01*
X143343961Y-82772760D01*
X142590485Y-82654816D01*
X142571115Y-82654816D01*
X141817639Y-82772760D01*
X141798925Y-82778816D01*
X141120655Y-83123994D01*
X141104773Y-83135530D01*
X140564745Y-83675753D01*
X140553316Y-83691438D01*
X140306402Y-84172610D01*
X140257506Y-84224085D01*
X140188542Y-84240953D01*
X140121406Y-84217859D01*
X140077414Y-84162135D01*
X140068300Y-84115085D01*
X140068300Y-78169316D01*
X140063825Y-78154077D01*
X140062435Y-78152872D01*
X140054752Y-78151201D01*
X126086415Y-78151201D01*
X126071176Y-78155676D01*
X126069971Y-78157066D01*
X126068300Y-78164749D01*
X126068300Y-92133086D01*
X121018300Y-92133086D01*
X121018300Y-78169316D01*
X121013825Y-78154077D01*
X121012435Y-78152872D01*
X121004752Y-78151201D01*
X107036415Y-78151201D01*
X107021176Y-78155676D01*
X107019971Y-78157066D01*
X107018300Y-78164749D01*
X107018300Y-92133086D01*
X101968300Y-92133086D01*
X101968300Y-78169316D01*
X101963825Y-78154077D01*
X101962435Y-78152872D01*
X101954752Y-78151201D01*
X87986415Y-78151201D01*
X87971176Y-78155676D01*
X87969971Y-78157066D01*
X87968300Y-78164749D01*
X87968300Y-92133086D01*
X82918300Y-92133086D01*
X82918300Y-78169316D01*
X82913825Y-78154077D01*
X82912435Y-78152872D01*
X82904752Y-78151201D01*
X68936415Y-78151201D01*
X68921176Y-78155676D01*
X68919971Y-78157066D01*
X68918300Y-78164749D01*
X68918300Y-92133086D01*
X63868300Y-92133086D01*
X63868300Y-78169316D01*
X63863825Y-78154077D01*
X63862435Y-78152872D01*
X63854752Y-78151201D01*
X49886415Y-78151201D01*
X49871176Y-78155676D01*
X49869971Y-78157066D01*
X49868300Y-78164749D01*
X49868300Y-92133086D01*
X37674550Y-92133086D01*
X37674550Y-78169316D01*
X37670075Y-78154077D01*
X37668685Y-78152872D01*
X37661002Y-78151201D01*
X18930164Y-78151201D01*
X18914925Y-78155676D01*
X18913720Y-78157066D01*
X18912049Y-78164749D01*
X18912049Y-91995709D01*
X18892047Y-92063830D01*
X18838391Y-92110323D01*
X18768117Y-92120427D01*
X18728935Y-92108021D01*
X18474980Y-91978877D01*
X18456427Y-91972851D01*
X17699390Y-91852482D01*
X17689505Y-91851701D01*
X14318886Y-91851701D01*
X14250765Y-91831699D01*
X14204272Y-91778043D01*
X14192886Y-91725699D01*
X14193201Y-73083086D01*
X21293299Y-73083086D01*
X21297774Y-73098325D01*
X21299164Y-73099530D01*
X21306847Y-73101201D01*
X35275185Y-73101201D01*
X35290424Y-73096726D01*
X35291629Y-73095336D01*
X35293300Y-73087653D01*
X35293300Y-73083086D01*
X45105800Y-73083086D01*
X45110275Y-73098325D01*
X45111665Y-73099530D01*
X45119348Y-73101201D01*
X59087685Y-73101201D01*
X59102924Y-73096726D01*
X59104129Y-73095336D01*
X59105800Y-73087653D01*
X59105800Y-73083086D01*
X64155800Y-73083086D01*
X64160275Y-73098325D01*
X64161665Y-73099530D01*
X64169348Y-73101201D01*
X78137685Y-73101201D01*
X78152924Y-73096726D01*
X78154129Y-73095336D01*
X78155800Y-73087653D01*
X78155800Y-73083086D01*
X83205800Y-73083086D01*
X83210275Y-73098325D01*
X83211665Y-73099530D01*
X83219348Y-73101201D01*
X97187685Y-73101201D01*
X97202924Y-73096726D01*
X97204129Y-73095336D01*
X97205800Y-73087653D01*
X97205800Y-73083086D01*
X102255800Y-73083086D01*
X102260275Y-73098325D01*
X102261665Y-73099530D01*
X102269348Y-73101201D01*
X116237685Y-73101201D01*
X116252924Y-73096726D01*
X116254129Y-73095336D01*
X116255800Y-73087653D01*
X116255800Y-73083086D01*
X121305800Y-73083086D01*
X121310275Y-73098325D01*
X121311665Y-73099530D01*
X121319348Y-73101201D01*
X135287685Y-73101201D01*
X135302924Y-73096726D01*
X135304129Y-73095336D01*
X135305800Y-73087653D01*
X135305800Y-73083086D01*
X140355800Y-73083086D01*
X140360275Y-73098325D01*
X140361665Y-73099530D01*
X140369348Y-73101201D01*
X154337685Y-73101201D01*
X154352924Y-73096726D01*
X154354129Y-73095336D01*
X154355800Y-73087653D01*
X154355800Y-73083086D01*
X159405800Y-73083086D01*
X159410275Y-73098325D01*
X159411665Y-73099530D01*
X159419348Y-73101201D01*
X173387685Y-73101201D01*
X173402924Y-73096726D01*
X173404129Y-73095336D01*
X173405800Y-73087653D01*
X173405800Y-73083086D01*
X178455800Y-73083086D01*
X178460275Y-73098325D01*
X178461665Y-73099530D01*
X178469348Y-73101201D01*
X192437685Y-73101201D01*
X192452924Y-73096726D01*
X192454129Y-73095336D01*
X192455800Y-73087653D01*
X192455800Y-73083086D01*
X197505800Y-73083086D01*
X197510275Y-73098325D01*
X197511665Y-73099530D01*
X197519348Y-73101201D01*
X211487685Y-73101201D01*
X211502924Y-73096726D01*
X211504129Y-73095336D01*
X211505800Y-73087653D01*
X211505800Y-73083086D01*
X216555800Y-73083086D01*
X216560275Y-73098325D01*
X216561665Y-73099530D01*
X216569348Y-73101201D01*
X230537685Y-73101201D01*
X230552924Y-73096726D01*
X230554129Y-73095336D01*
X230555800Y-73087653D01*
X230555800Y-73083086D01*
X235605799Y-73083086D01*
X235610274Y-73098325D01*
X235611664Y-73099530D01*
X235619347Y-73101201D01*
X249587685Y-73101201D01*
X249602924Y-73096726D01*
X249604129Y-73095336D01*
X249605800Y-73087653D01*
X249605800Y-73083086D01*
X254655799Y-73083086D01*
X254660274Y-73098325D01*
X254661664Y-73099530D01*
X254669347Y-73101201D01*
X268637685Y-73101201D01*
X268652924Y-73096726D01*
X268654129Y-73095336D01*
X268655800Y-73087653D01*
X268655800Y-65743037D01*
X271931337Y-65743037D01*
X271931342Y-65762561D01*
X272050248Y-66514878D01*
X272056317Y-66533556D01*
X272402312Y-67211900D01*
X272413779Y-67227691D01*
X272952753Y-67767542D01*
X272968694Y-67779121D01*
X273648034Y-68124346D01*
X273666509Y-68130355D01*
X274419890Y-68251014D01*
X274439708Y-68251012D01*
X275192100Y-68130355D01*
X275210556Y-68124350D01*
X275889909Y-67779119D01*
X275905845Y-67767544D01*
X276444821Y-67227691D01*
X276456288Y-67211900D01*
X276802302Y-66533518D01*
X276808358Y-66514923D01*
X276928232Y-65762637D01*
X276928236Y-65742964D01*
X276808355Y-64988289D01*
X276802297Y-64969671D01*
X276456289Y-64291201D01*
X276444819Y-64275409D01*
X275905848Y-63735659D01*
X275889907Y-63724081D01*
X275210602Y-63378873D01*
X275192049Y-63372854D01*
X274439594Y-63253553D01*
X274420004Y-63253551D01*
X273666558Y-63372855D01*
X273647992Y-63378876D01*
X272968692Y-63724081D01*
X272952751Y-63735659D01*
X272413781Y-64275409D01*
X272402311Y-64291201D01*
X272056321Y-64969634D01*
X272050251Y-64988333D01*
X271931337Y-65743037D01*
X268655800Y-65743037D01*
X268655800Y-59119316D01*
X268651325Y-59104077D01*
X268649935Y-59102872D01*
X268642252Y-59101201D01*
X254673914Y-59101201D01*
X254658675Y-59105676D01*
X254657470Y-59107066D01*
X254655799Y-59114749D01*
X254655799Y-73083086D01*
X249605800Y-73083086D01*
X249605800Y-59119316D01*
X249601325Y-59104077D01*
X249599935Y-59102872D01*
X249592252Y-59101201D01*
X235623914Y-59101201D01*
X235608675Y-59105676D01*
X235607470Y-59107066D01*
X235605799Y-59114749D01*
X235605799Y-73083086D01*
X230555800Y-73083086D01*
X230555800Y-59119316D01*
X230551325Y-59104077D01*
X230549935Y-59102872D01*
X230542252Y-59101201D01*
X216573915Y-59101201D01*
X216558676Y-59105676D01*
X216557471Y-59107066D01*
X216555800Y-59114749D01*
X216555800Y-73083086D01*
X211505800Y-73083086D01*
X211505800Y-59119316D01*
X211501325Y-59104077D01*
X211499935Y-59102872D01*
X211492252Y-59101201D01*
X197523915Y-59101201D01*
X197508676Y-59105676D01*
X197507471Y-59107066D01*
X197505800Y-59114749D01*
X197505800Y-73083086D01*
X192455800Y-73083086D01*
X192455800Y-59119316D01*
X192451325Y-59104077D01*
X192449935Y-59102872D01*
X192442252Y-59101201D01*
X178473915Y-59101201D01*
X178458676Y-59105676D01*
X178457471Y-59107066D01*
X178455800Y-59114749D01*
X178455800Y-73083086D01*
X173405800Y-73083086D01*
X173405800Y-59119316D01*
X173401325Y-59104077D01*
X173399935Y-59102872D01*
X173392252Y-59101201D01*
X159423915Y-59101201D01*
X159408676Y-59105676D01*
X159407471Y-59107066D01*
X159405800Y-59114749D01*
X159405800Y-73083086D01*
X154355800Y-73083086D01*
X154355800Y-59119316D01*
X154351325Y-59104077D01*
X154349935Y-59102872D01*
X154342252Y-59101201D01*
X140373915Y-59101201D01*
X140358676Y-59105676D01*
X140357471Y-59107066D01*
X140355800Y-59114749D01*
X140355800Y-73083086D01*
X135305800Y-73083086D01*
X135305800Y-59119316D01*
X135301325Y-59104077D01*
X135299935Y-59102872D01*
X135292252Y-59101201D01*
X121323915Y-59101201D01*
X121308676Y-59105676D01*
X121307471Y-59107066D01*
X121305800Y-59114749D01*
X121305800Y-73083086D01*
X116255800Y-73083086D01*
X116255800Y-59119316D01*
X116251325Y-59104077D01*
X116249935Y-59102872D01*
X116242252Y-59101201D01*
X102273915Y-59101201D01*
X102258676Y-59105676D01*
X102257471Y-59107066D01*
X102255800Y-59114749D01*
X102255800Y-73083086D01*
X97205800Y-73083086D01*
X97205800Y-59119316D01*
X97201325Y-59104077D01*
X97199935Y-59102872D01*
X97192252Y-59101201D01*
X83223915Y-59101201D01*
X83208676Y-59105676D01*
X83207471Y-59107066D01*
X83205800Y-59114749D01*
X83205800Y-73083086D01*
X78155800Y-73083086D01*
X78155800Y-59119316D01*
X78151325Y-59104077D01*
X78149935Y-59102872D01*
X78142252Y-59101201D01*
X64173915Y-59101201D01*
X64158676Y-59105676D01*
X64157471Y-59107066D01*
X64155800Y-59114749D01*
X64155800Y-73083086D01*
X59105800Y-73083086D01*
X59105800Y-59119316D01*
X59101325Y-59104077D01*
X59099935Y-59102872D01*
X59092252Y-59101201D01*
X45123915Y-59101201D01*
X45108676Y-59105676D01*
X45107471Y-59107066D01*
X45105800Y-59114749D01*
X45105800Y-73083086D01*
X35293300Y-73083086D01*
X35293300Y-65742985D01*
X37082255Y-65742985D01*
X37082260Y-65762612D01*
X37201850Y-66514946D01*
X37207879Y-66533504D01*
X37552991Y-67211837D01*
X37564533Y-67227732D01*
X38104476Y-67767578D01*
X38120349Y-67779105D01*
X38798620Y-68124332D01*
X38817126Y-68130358D01*
X39570602Y-68251016D01*
X39590398Y-68251016D01*
X40343873Y-68130358D01*
X40362379Y-68124332D01*
X41040579Y-67779141D01*
X41056562Y-67767505D01*
X41593816Y-67227618D01*
X41605152Y-67212017D01*
X41953045Y-66533583D01*
X41959166Y-66514839D01*
X42078642Y-65762606D01*
X42078646Y-65742995D01*
X41959163Y-64988371D01*
X41953040Y-64969605D01*
X41605155Y-64291090D01*
X41593812Y-64275480D01*
X41056554Y-63735687D01*
X41040588Y-63724064D01*
X40362426Y-63378892D01*
X40343817Y-63372851D01*
X39590290Y-63253550D01*
X39570710Y-63253550D01*
X38817182Y-63372851D01*
X38798573Y-63378892D01*
X38120345Y-63724098D01*
X38104480Y-63735617D01*
X37564531Y-64275371D01*
X37552992Y-64291261D01*
X37207886Y-64969680D01*
X37201851Y-64988274D01*
X37082255Y-65742985D01*
X35293300Y-65742985D01*
X35293300Y-59119316D01*
X35288825Y-59104077D01*
X35287435Y-59102872D01*
X35279752Y-59101201D01*
X21311414Y-59101201D01*
X21296175Y-59105676D01*
X21294970Y-59107066D01*
X21293299Y-59114749D01*
X21293299Y-73083086D01*
X14193201Y-73083086D01*
X14193523Y-54033085D01*
X16530800Y-54033085D01*
X16535275Y-54048324D01*
X16536665Y-54049529D01*
X16544348Y-54051200D01*
X30512684Y-54051200D01*
X30527923Y-54046725D01*
X30529128Y-54045335D01*
X30530799Y-54037652D01*
X30530799Y-54033085D01*
X35580800Y-54033085D01*
X35585275Y-54048324D01*
X35586665Y-54049529D01*
X35594348Y-54051200D01*
X49562685Y-54051200D01*
X49577924Y-54046725D01*
X49579129Y-54045335D01*
X49580800Y-54037652D01*
X49580800Y-54033085D01*
X54630800Y-54033085D01*
X54635275Y-54048324D01*
X54636665Y-54049529D01*
X54644348Y-54051200D01*
X68612685Y-54051200D01*
X68627924Y-54046725D01*
X68629129Y-54045335D01*
X68630800Y-54037652D01*
X68630800Y-54033085D01*
X73680800Y-54033085D01*
X73685275Y-54048324D01*
X73686665Y-54049529D01*
X73694348Y-54051200D01*
X87662685Y-54051200D01*
X87677924Y-54046725D01*
X87679129Y-54045335D01*
X87680800Y-54037652D01*
X87680800Y-54033085D01*
X92730800Y-54033085D01*
X92735275Y-54048324D01*
X92736665Y-54049529D01*
X92744348Y-54051200D01*
X106712685Y-54051200D01*
X106727924Y-54046725D01*
X106729129Y-54045335D01*
X106730800Y-54037652D01*
X106730800Y-54033085D01*
X111780800Y-54033085D01*
X111785275Y-54048324D01*
X111786665Y-54049529D01*
X111794348Y-54051200D01*
X125762685Y-54051200D01*
X125777924Y-54046725D01*
X125779129Y-54045335D01*
X125780800Y-54037652D01*
X125780800Y-54033085D01*
X130830800Y-54033085D01*
X130835275Y-54048324D01*
X130836665Y-54049529D01*
X130844348Y-54051200D01*
X144812684Y-54051200D01*
X144827923Y-54046725D01*
X144829128Y-54045335D01*
X144830799Y-54037652D01*
X144830799Y-54033085D01*
X149880800Y-54033085D01*
X149885275Y-54048324D01*
X149886665Y-54049529D01*
X149894348Y-54051200D01*
X163862685Y-54051200D01*
X163877924Y-54046725D01*
X163879129Y-54045335D01*
X163880800Y-54037652D01*
X163880800Y-54033085D01*
X168930800Y-54033085D01*
X168935275Y-54048324D01*
X168936665Y-54049529D01*
X168944348Y-54051200D01*
X182912685Y-54051200D01*
X182927924Y-54046725D01*
X182929129Y-54045335D01*
X182930800Y-54037652D01*
X182930800Y-54033085D01*
X187980800Y-54033085D01*
X187985275Y-54048324D01*
X187986665Y-54049529D01*
X187994348Y-54051200D01*
X201962685Y-54051200D01*
X201977924Y-54046725D01*
X201979129Y-54045335D01*
X201980800Y-54037652D01*
X201980800Y-54033085D01*
X207030800Y-54033085D01*
X207035275Y-54048324D01*
X207036665Y-54049529D01*
X207044348Y-54051200D01*
X221012685Y-54051200D01*
X221027924Y-54046725D01*
X221029129Y-54045335D01*
X221030800Y-54037652D01*
X221030800Y-54033085D01*
X226080800Y-54033085D01*
X226085275Y-54048324D01*
X226086665Y-54049529D01*
X226094348Y-54051200D01*
X240062685Y-54051200D01*
X240077924Y-54046725D01*
X240079129Y-54045335D01*
X240080800Y-54037652D01*
X240080800Y-54033085D01*
X245130799Y-54033085D01*
X245135274Y-54048324D01*
X245136664Y-54049529D01*
X245144347Y-54051200D01*
X259112685Y-54051200D01*
X259127924Y-54046725D01*
X259129129Y-54045335D01*
X259130800Y-54037652D01*
X259130800Y-54033086D01*
X264180811Y-54033086D01*
X264185286Y-54048325D01*
X264186676Y-54049530D01*
X264194359Y-54051201D01*
X265141720Y-54051201D01*
X265209841Y-54071203D01*
X265256334Y-54124859D01*
X265267720Y-54177196D01*
X265267798Y-56033084D01*
X265272274Y-56048325D01*
X265273666Y-56049531D01*
X265281343Y-56051201D01*
X272249685Y-56051201D01*
X272264924Y-56046726D01*
X272266129Y-56045336D01*
X272267800Y-56037653D01*
X272267800Y-54177201D01*
X272287802Y-54109080D01*
X272341458Y-54062587D01*
X272393800Y-54051201D01*
X273705800Y-54051200D01*
X289017867Y-54051200D01*
X289085988Y-54071202D01*
X289132481Y-54124858D01*
X289143867Y-54177205D01*
X289143801Y-56033086D01*
X289148275Y-56048325D01*
X289149665Y-56049530D01*
X289157347Y-56051201D01*
X296125685Y-56051201D01*
X296140924Y-56046726D01*
X296142129Y-56045336D01*
X296143800Y-56037653D01*
X296143800Y-54177201D01*
X296163802Y-54109080D01*
X296217458Y-54062587D01*
X296269800Y-54051201D01*
X297212698Y-54051201D01*
X297227937Y-54046726D01*
X297229142Y-54045336D01*
X297230813Y-54037653D01*
X297230813Y-40069316D01*
X297226338Y-40054077D01*
X297224948Y-40052872D01*
X297217265Y-40051201D01*
X264198926Y-40051201D01*
X264183687Y-40055676D01*
X264182482Y-40057066D01*
X264180811Y-40064749D01*
X264180811Y-54033086D01*
X259130800Y-54033086D01*
X259130800Y-40069316D01*
X259126325Y-40054077D01*
X259124935Y-40052872D01*
X259117252Y-40051201D01*
X245148914Y-40051201D01*
X245133675Y-40055676D01*
X245132470Y-40057066D01*
X245130799Y-40064749D01*
X245130799Y-54033085D01*
X240080800Y-54033085D01*
X240080800Y-40069316D01*
X240076325Y-40054077D01*
X240074935Y-40052872D01*
X240067252Y-40051201D01*
X226098915Y-40051201D01*
X226083676Y-40055676D01*
X226082471Y-40057066D01*
X226080800Y-40064749D01*
X226080800Y-54033085D01*
X221030800Y-54033085D01*
X221030800Y-40069316D01*
X221026325Y-40054077D01*
X221024935Y-40052872D01*
X221017252Y-40051201D01*
X207048915Y-40051201D01*
X207033676Y-40055676D01*
X207032471Y-40057066D01*
X207030800Y-40064749D01*
X207030800Y-54033085D01*
X201980800Y-54033085D01*
X201980800Y-40069316D01*
X201976325Y-40054077D01*
X201974935Y-40052872D01*
X201967252Y-40051201D01*
X187998915Y-40051201D01*
X187983676Y-40055676D01*
X187982471Y-40057066D01*
X187980800Y-40064749D01*
X187980800Y-54033085D01*
X182930800Y-54033085D01*
X182930800Y-40069316D01*
X182926325Y-40054077D01*
X182924935Y-40052872D01*
X182917252Y-40051201D01*
X168948915Y-40051201D01*
X168933676Y-40055676D01*
X168932471Y-40057066D01*
X168930800Y-40064749D01*
X168930800Y-54033085D01*
X163880800Y-54033085D01*
X163880800Y-40069316D01*
X163876325Y-40054077D01*
X163874935Y-40052872D01*
X163867252Y-40051201D01*
X149898915Y-40051201D01*
X149883676Y-40055676D01*
X149882471Y-40057066D01*
X149880800Y-40064749D01*
X149880800Y-54033085D01*
X144830799Y-54033085D01*
X144830799Y-40069316D01*
X144826324Y-40054077D01*
X144824934Y-40052872D01*
X144817251Y-40051201D01*
X130848915Y-40051201D01*
X130833676Y-40055676D01*
X130832471Y-40057066D01*
X130830800Y-40064749D01*
X130830800Y-54033085D01*
X125780800Y-54033085D01*
X125780800Y-40069316D01*
X125776325Y-40054077D01*
X125774935Y-40052872D01*
X125767252Y-40051201D01*
X111798915Y-40051201D01*
X111783676Y-40055676D01*
X111782471Y-40057066D01*
X111780800Y-40064749D01*
X111780800Y-54033085D01*
X106730800Y-54033085D01*
X106730800Y-40069316D01*
X106726325Y-40054077D01*
X106724935Y-40052872D01*
X106717252Y-40051201D01*
X92748915Y-40051201D01*
X92733676Y-40055676D01*
X92732471Y-40057066D01*
X92730800Y-40064749D01*
X92730800Y-54033085D01*
X87680800Y-54033085D01*
X87680800Y-40069316D01*
X87676325Y-40054077D01*
X87674935Y-40052872D01*
X87667252Y-40051201D01*
X73698915Y-40051201D01*
X73683676Y-40055676D01*
X73682471Y-40057066D01*
X73680800Y-40064749D01*
X73680800Y-54033085D01*
X68630800Y-54033085D01*
X68630800Y-40069316D01*
X68626325Y-40054077D01*
X68624935Y-40052872D01*
X68617252Y-40051201D01*
X54648915Y-40051201D01*
X54633676Y-40055676D01*
X54632471Y-40057066D01*
X54630800Y-40064749D01*
X54630800Y-54033085D01*
X49580800Y-54033085D01*
X49580800Y-40069316D01*
X49576325Y-40054077D01*
X49574935Y-40052872D01*
X49567252Y-40051201D01*
X35598915Y-40051201D01*
X35583676Y-40055676D01*
X35582471Y-40057066D01*
X35580800Y-40064749D01*
X35580800Y-54033085D01*
X30530799Y-54033085D01*
X30530799Y-40069316D01*
X30526324Y-40054077D01*
X30524934Y-40052872D01*
X30517251Y-40051201D01*
X16548915Y-40051201D01*
X16533676Y-40055676D01*
X16532471Y-40057066D01*
X16530800Y-40064749D01*
X16530800Y-54033085D01*
X14193523Y-54033085D01*
X14193797Y-37840198D01*
X14213800Y-37772077D01*
X14267457Y-37725585D01*
X14319797Y-37714200D01*
X299441800Y-37714200D01*
X299509921Y-37734202D01*
G37*
M02*
