G04 #@! TF.GenerationSoftware,KiCad,Pcbnew,(5.99.0-12762-g961c127ebe)*
G04 #@! TF.CreationDate,2021-11-23T00:18:37+09:00*
G04 #@! TF.ProjectId,plate4,706c6174-6534-42e6-9b69-6361645f7063,rev?*
G04 #@! TF.SameCoordinates,Original*
G04 #@! TF.FileFunction,Profile,NP*
%FSLAX46Y46*%
G04 Gerber Fmt 4.6, Leading zero omitted, Abs format (unit mm)*
G04 Created by KiCad (PCBNEW (5.99.0-12762-g961c127ebe)) date 2021-11-23 00:18:37*
%MOMM*%
%LPD*%
G01*
G04 APERTURE LIST*
G04 #@! TA.AperFunction,Profile*
%ADD10C,0.200000*%
G04 #@! TD*
G04 APERTURE END LIST*
D10*
X269886550Y-94151201D02*
X269886550Y-92151201D01*
X262886550Y-94151201D02*
X269886550Y-94151201D01*
X262886550Y-92151201D02*
X262886550Y-94151201D01*
X259418299Y-92151201D02*
X262886550Y-92151201D01*
X259418299Y-78151201D02*
X259418299Y-92151201D01*
X273418300Y-78151201D02*
X259418299Y-78151201D01*
X280849550Y-78145430D02*
X273418300Y-78151201D01*
X280849550Y-73101201D02*
X280849550Y-78145430D01*
X278468299Y-73101201D02*
X280849550Y-73101201D01*
X278468299Y-59101201D02*
X278468299Y-73101201D01*
X292468300Y-59101201D02*
X278468299Y-59101201D01*
X292468300Y-60188200D02*
X292468300Y-59101201D01*
X293849550Y-60188200D02*
X292468300Y-60188200D01*
X293849550Y-68626201D02*
X293849550Y-60188200D01*
X294849550Y-68626201D02*
X293849550Y-68626201D01*
X294849550Y-82626201D02*
X294849550Y-68626201D01*
X293849550Y-82626201D02*
X294849550Y-82626201D01*
X293849550Y-93266989D02*
X293849550Y-82626201D01*
X294044800Y-92882501D02*
X293849550Y-93266989D01*
X294597800Y-92328300D02*
X294044800Y-92882501D01*
X295293800Y-91974401D02*
X294597800Y-92328300D01*
X296066800Y-91851701D02*
X295293800Y-91974401D01*
X299567800Y-91851701D02*
X296066800Y-91851701D01*
X299567800Y-37714200D02*
X299567800Y-91851701D01*
X14193799Y-37714200D02*
X299567800Y-37714200D01*
X14192884Y-91851701D02*
X14193799Y-37714200D01*
X17694479Y-91851701D02*
X14192884Y-91851701D01*
X18466179Y-91974401D02*
X17694479Y-91851701D01*
X19162099Y-92328300D02*
X18466179Y-91974401D01*
X19714690Y-92882501D02*
X19162099Y-92328300D01*
X20070219Y-93579600D02*
X19714690Y-92882501D01*
X20192850Y-94352900D02*
X20070219Y-93579600D01*
X20070219Y-95124401D02*
X20192850Y-94352900D01*
X19714690Y-95821801D02*
X20070219Y-95124401D01*
X19162099Y-96375701D02*
X19714690Y-95821801D01*
X18466179Y-96729900D02*
X19162099Y-96375701D01*
X17693100Y-96852601D02*
X18466179Y-96729900D01*
X14192884Y-96852601D02*
X17693100Y-96852601D01*
X14193799Y-132588201D02*
X14192884Y-96852601D01*
X299567800Y-132588201D02*
X14193799Y-132588201D01*
X299567800Y-96852601D02*
X299567800Y-132588201D01*
X296066800Y-96852601D02*
X299567800Y-96852601D01*
X295293800Y-96729900D02*
X296066800Y-96852601D01*
X294597800Y-96375701D02*
X295293800Y-96729900D01*
X294044800Y-95821801D02*
X294597800Y-96375701D01*
X293690800Y-95124401D02*
X294044800Y-95821801D01*
X293567800Y-94351400D02*
X293690800Y-95124401D01*
X293599705Y-94151201D02*
X293567800Y-94351400D01*
X286762550Y-94151201D02*
X293599705Y-94151201D01*
X286762550Y-92151201D02*
X286762550Y-94151201D01*
X269886550Y-92151201D02*
X286762550Y-92151201D01*
X297230813Y-40051201D02*
X264180811Y-40051201D01*
X297230813Y-54051201D02*
X297230813Y-40051201D01*
X296143800Y-54051201D02*
X297230813Y-54051201D01*
X296143800Y-56051201D02*
X296143800Y-54051201D01*
X289143800Y-56051201D02*
X296143800Y-56051201D01*
X289143872Y-54051200D02*
X289143800Y-56051201D01*
X273705800Y-54051200D02*
X289143872Y-54051200D01*
X272267800Y-54051201D02*
X273705800Y-54051200D01*
X272267800Y-56051201D02*
X272267800Y-54051201D01*
X265267799Y-56051201D02*
X272267800Y-56051201D01*
X265267715Y-54051201D02*
X265267799Y-56051201D01*
X264180811Y-54051201D02*
X265267715Y-54051201D01*
X264180811Y-40051201D02*
X264180811Y-54051201D01*
X297230799Y-97201201D02*
X264180799Y-97201201D01*
X297230799Y-111201201D02*
X297230799Y-97201201D01*
X296018800Y-111201201D02*
X297230799Y-111201201D01*
X296018800Y-112201201D02*
X296018800Y-111201201D01*
X289268800Y-112201201D02*
X296018800Y-112201201D01*
X289268800Y-111201201D02*
X289268800Y-112201201D01*
X272142799Y-111201201D02*
X289268800Y-111201201D01*
X272142799Y-112201201D02*
X272142799Y-111201201D01*
X265392800Y-112201201D02*
X272142799Y-112201201D01*
X265392800Y-111201201D02*
X265392800Y-112201201D01*
X264180799Y-111201201D02*
X265392800Y-111201201D01*
X264180799Y-97201201D02*
X264180799Y-111201201D01*
X37674550Y-92151201D02*
X37674550Y-78151201D01*
X18912049Y-92151201D02*
X37674550Y-92151201D01*
X18912049Y-78151201D02*
X18912049Y-92151201D01*
X37674550Y-78151201D02*
X18912049Y-78151201D01*
X41618800Y-111201201D02*
X41618800Y-112201201D01*
X24492800Y-111201201D02*
X41618800Y-111201201D01*
X24492800Y-112201201D02*
X24492800Y-111201201D01*
X17742799Y-112201201D02*
X24492800Y-112201201D01*
X17742799Y-111201201D02*
X17742799Y-112201201D01*
X16530799Y-111201201D02*
X17742799Y-111201201D01*
X16530799Y-97201201D02*
X16530799Y-111201201D01*
X49580800Y-97201201D02*
X16530799Y-97201201D01*
X49580800Y-111201201D02*
X49580800Y-97201201D01*
X48368800Y-111201201D02*
X49580800Y-111201201D01*
X48368800Y-112201201D02*
X48368800Y-111201201D01*
X41618800Y-112201201D02*
X48368800Y-112201201D01*
X191599550Y-116251201D02*
X180837050Y-116251201D01*
X191599550Y-115251201D02*
X191599550Y-116251201D01*
X198349550Y-115251201D02*
X191599550Y-115251201D01*
X198349550Y-129251201D02*
X198349550Y-115251201D01*
X194837050Y-129251201D02*
X198349550Y-129251201D01*
X194837050Y-130251201D02*
X194837050Y-129251201D01*
X180837050Y-130251201D02*
X194837050Y-130251201D01*
X180837050Y-116251201D02*
X180837050Y-130251201D01*
X154355800Y-116251201D02*
X137974550Y-116251201D01*
X154355800Y-130251201D02*
X154355800Y-116251201D01*
X137974550Y-130251201D02*
X154355800Y-130251201D01*
X137974550Y-116251201D02*
X137974550Y-130251201D01*
X56724550Y-130251201D02*
X56724550Y-116251201D01*
X40343300Y-130251201D02*
X56724550Y-130251201D01*
X40343300Y-116251201D02*
X40343300Y-130251201D01*
X56724550Y-116251201D02*
X40343300Y-116251201D01*
X18912049Y-116251201D02*
X18912049Y-130251201D01*
X32912050Y-116251201D02*
X18912049Y-116251201D01*
X32912050Y-130251201D02*
X32912050Y-116251201D01*
X18912049Y-130251201D02*
X32912050Y-130251201D01*
X259130800Y-97201201D02*
X245130799Y-97201201D01*
X259130800Y-111201201D02*
X259130800Y-97201201D01*
X245130799Y-111201201D02*
X259130800Y-111201201D01*
X245130799Y-97201201D02*
X245130799Y-111201201D01*
X254655799Y-59101201D02*
X254655799Y-73101201D01*
X268655800Y-59101201D02*
X254655799Y-59101201D01*
X268655800Y-73101201D02*
X268655800Y-59101201D01*
X254655799Y-73101201D02*
X268655800Y-73101201D01*
X240368300Y-78151201D02*
X240368300Y-92151201D01*
X254368300Y-78151201D02*
X240368300Y-78151201D01*
X254368300Y-92151201D02*
X254368300Y-78151201D01*
X240368300Y-92151201D02*
X254368300Y-92151201D01*
X240080800Y-97201201D02*
X226080800Y-97201201D01*
X240080800Y-111201201D02*
X240080800Y-97201201D01*
X226080800Y-111201201D02*
X240080800Y-111201201D01*
X226080800Y-97201201D02*
X226080800Y-111201201D01*
X131680800Y-129251201D02*
X131680800Y-115251201D01*
X124930800Y-129251201D02*
X131680800Y-129251201D01*
X124930800Y-115251201D02*
X124930800Y-129251201D01*
X131680800Y-115251201D02*
X124930800Y-115251201D01*
X91599550Y-116251201D02*
X59393300Y-116251201D01*
X91599550Y-115251201D02*
X91599550Y-116251201D01*
X98349550Y-115251201D02*
X91599550Y-115251201D01*
X98349550Y-129251201D02*
X98349550Y-115251201D01*
X91599550Y-129251201D02*
X98349550Y-129251201D01*
X91599550Y-130251201D02*
X91599550Y-129251201D01*
X59393300Y-130251201D02*
X91599550Y-130251201D01*
X59393300Y-116251201D02*
X59393300Y-130251201D01*
X163030800Y-115251201D02*
X163030800Y-129251201D01*
X169780800Y-115251201D02*
X163030800Y-115251201D01*
X169780800Y-129251201D02*
X169780800Y-115251201D01*
X163030800Y-129251201D02*
X169780800Y-129251201D01*
X274429799Y-63252000D02*
X273656800Y-63374400D01*
X275201800Y-63374400D02*
X274429799Y-63252000D01*
X275898799Y-63728600D02*
X275201800Y-63374400D01*
X276451800Y-64282400D02*
X275898799Y-63728600D01*
X276806800Y-64978500D02*
X276451800Y-64282400D01*
X276929799Y-65752800D02*
X276806800Y-64978500D01*
X276806800Y-66524700D02*
X276929799Y-65752800D01*
X276451800Y-67220700D02*
X276806800Y-66524700D01*
X275898799Y-67774601D02*
X276451800Y-67220700D01*
X275201800Y-68128800D02*
X275898799Y-67774601D01*
X274429799Y-68252601D02*
X275201800Y-68128800D01*
X273656800Y-68128800D02*
X274429799Y-68252601D01*
X272959800Y-67774601D02*
X273656800Y-68128800D01*
X272406800Y-67220700D02*
X272959800Y-67774601D01*
X272051800Y-66524700D02*
X272406800Y-67220700D01*
X271929799Y-65752800D02*
X272051800Y-66524700D01*
X272051800Y-64978500D02*
X271929799Y-65752800D01*
X272406800Y-64282400D02*
X272051800Y-64978500D01*
X272959800Y-63728600D02*
X272406800Y-64282400D01*
X273656800Y-63374400D02*
X272959800Y-63728600D01*
X39580500Y-63252000D02*
X38807399Y-63374400D01*
X40353600Y-63374400D02*
X39580500Y-63252000D01*
X41049500Y-63728600D02*
X40353600Y-63374400D01*
X41600700Y-64282400D02*
X41049500Y-63728600D01*
X41957600Y-64978500D02*
X41600700Y-64282400D01*
X42080199Y-65752800D02*
X41957600Y-64978500D01*
X41957600Y-66524700D02*
X42080199Y-65752800D01*
X41600700Y-67220700D02*
X41957600Y-66524700D01*
X41049500Y-67774601D02*
X41600700Y-67220700D01*
X40353600Y-68128800D02*
X41049500Y-67774601D01*
X39580500Y-68252601D02*
X40353600Y-68128800D01*
X38807399Y-68128800D02*
X39580500Y-68252601D01*
X38111500Y-67774601D02*
X38807399Y-68128800D01*
X37557500Y-67220700D02*
X38111500Y-67774601D01*
X37203400Y-66524700D02*
X37557500Y-67220700D01*
X37080700Y-65752800D02*
X37203400Y-66524700D01*
X37203400Y-64978500D02*
X37080700Y-65752800D01*
X37557500Y-64282400D02*
X37203400Y-64978500D01*
X38111500Y-63728600D02*
X37557500Y-64282400D01*
X38807399Y-63374400D02*
X38111500Y-63728600D01*
X204649550Y-116251201D02*
X204649550Y-120588660D01*
X221030800Y-116251201D02*
X204649550Y-116251201D01*
X221030800Y-130251201D02*
X221030800Y-116251201D01*
X204649550Y-130251201D02*
X221030800Y-130251201D01*
X204649550Y-125514892D02*
X204649550Y-130251201D01*
X204106800Y-125428901D02*
X204649550Y-125514892D01*
X203409800Y-125074750D02*
X204106800Y-125428901D01*
X202856800Y-124520751D02*
X203409800Y-125074750D01*
X202503800Y-123824861D02*
X202856800Y-124520751D01*
X202380800Y-123051781D02*
X202503800Y-123824861D01*
X202503800Y-122280101D02*
X202380800Y-123051781D01*
X202856800Y-121582801D02*
X202503800Y-122280101D01*
X203409800Y-121030201D02*
X202856800Y-121582801D01*
X204106800Y-120674701D02*
X203409800Y-121030201D01*
X204649550Y-120588660D02*
X204106800Y-120674701D01*
X142580800Y-82653300D02*
X141807800Y-82774300D01*
X143353800Y-82774300D02*
X142580800Y-82653300D01*
X144049800Y-83128501D02*
X143353800Y-82774300D01*
X144603800Y-83682700D02*
X144049800Y-83128501D01*
X144957800Y-84378401D02*
X144603800Y-83682700D01*
X145081800Y-85153101D02*
X144957800Y-84378401D01*
X144957800Y-85924600D02*
X145081800Y-85153101D01*
X144603800Y-86622101D02*
X144957800Y-85924600D01*
X144049800Y-87174501D02*
X144603800Y-86622101D01*
X143353800Y-87530100D02*
X144049800Y-87174501D01*
X142580800Y-87652901D02*
X143353800Y-87530100D01*
X141807800Y-87530100D02*
X142580800Y-87652901D01*
X141111800Y-87174501D02*
X141807800Y-87530100D01*
X140557800Y-86622101D02*
X141111800Y-87174501D01*
X140200800Y-85924600D02*
X140557800Y-86622101D01*
X140080800Y-85153101D02*
X140200800Y-85924600D01*
X140200800Y-84378401D02*
X140080800Y-85153101D01*
X140557800Y-83682700D02*
X140200800Y-84378401D01*
X141111800Y-83128501D02*
X140557800Y-83682700D01*
X141807800Y-82774300D02*
X141111800Y-83128501D01*
X240080800Y-130251201D02*
X240080800Y-116251201D01*
X226080800Y-130251201D02*
X240080800Y-130251201D01*
X226080800Y-116251201D02*
X226080800Y-130251201D01*
X240080800Y-116251201D02*
X226080800Y-116251201D01*
X297230800Y-116251201D02*
X283230800Y-116251201D01*
X297230800Y-130251201D02*
X297230800Y-116251201D01*
X283230800Y-130251201D02*
X297230800Y-130251201D01*
X283230800Y-116251201D02*
X283230800Y-130251201D01*
X264180799Y-116251201D02*
X264180799Y-130251201D01*
X278180800Y-116251201D02*
X264180799Y-116251201D01*
X278180800Y-130251201D02*
X278180800Y-116251201D01*
X264180799Y-130251201D02*
X278180800Y-130251201D01*
X245130799Y-116251201D02*
X245130799Y-130251201D01*
X259130800Y-116251201D02*
X245130799Y-116251201D01*
X259130800Y-130251201D02*
X259130800Y-116251201D01*
X245130799Y-130251201D02*
X259130800Y-130251201D01*
X99874550Y-116251201D02*
X99874550Y-130251201D01*
X113874550Y-116251201D02*
X99874550Y-116251201D01*
X113874550Y-130251201D02*
X113874550Y-116251201D01*
X99874550Y-130251201D02*
X113874550Y-130251201D01*
X178455800Y-59101201D02*
X178455800Y-73101201D01*
X192455800Y-59101201D02*
X178455800Y-59101201D01*
X192455800Y-73101201D02*
X192455800Y-59101201D01*
X178455800Y-73101201D02*
X192455800Y-73101201D01*
X235605799Y-59101201D02*
X235605799Y-73101201D01*
X249605800Y-59101201D02*
X235605799Y-59101201D01*
X249605800Y-73101201D02*
X249605800Y-59101201D01*
X235605799Y-73101201D02*
X249605800Y-73101201D01*
X240080800Y-40051201D02*
X226080800Y-40051201D01*
X240080800Y-54051200D02*
X240080800Y-40051201D01*
X226080800Y-54051200D02*
X240080800Y-54051200D01*
X226080800Y-40051201D02*
X226080800Y-54051200D01*
X135305800Y-59101201D02*
X121305800Y-59101201D01*
X135305800Y-73101201D02*
X135305800Y-59101201D01*
X121305800Y-73101201D02*
X135305800Y-73101201D01*
X121305800Y-59101201D02*
X121305800Y-73101201D01*
X92730800Y-40051201D02*
X92730800Y-54051200D01*
X106730800Y-40051201D02*
X92730800Y-40051201D01*
X106730800Y-54051200D02*
X106730800Y-40051201D01*
X92730800Y-54051200D02*
X106730800Y-54051200D01*
X149880800Y-40051201D02*
X149880800Y-54051200D01*
X163880800Y-40051201D02*
X149880800Y-40051201D01*
X163880800Y-54051200D02*
X163880800Y-40051201D01*
X149880800Y-54051200D02*
X163880800Y-54051200D01*
X154355800Y-59101201D02*
X140355800Y-59101201D01*
X154355800Y-73101201D02*
X154355800Y-59101201D01*
X140355800Y-73101201D02*
X154355800Y-73101201D01*
X140355800Y-59101201D02*
X140355800Y-73101201D01*
X130830800Y-40051201D02*
X130830800Y-54051200D01*
X144830799Y-40051201D02*
X130830800Y-40051201D01*
X144830799Y-54051200D02*
X144830799Y-40051201D01*
X130830800Y-54051200D02*
X144830799Y-54051200D01*
X116255800Y-59101201D02*
X102255800Y-59101201D01*
X116255800Y-73101201D02*
X116255800Y-59101201D01*
X102255800Y-73101201D02*
X116255800Y-73101201D01*
X102255800Y-59101201D02*
X102255800Y-73101201D01*
X145118300Y-78151201D02*
X145118300Y-92151201D01*
X159118300Y-78151201D02*
X145118300Y-78151201D01*
X159118300Y-92151201D02*
X159118300Y-78151201D01*
X145118300Y-92151201D02*
X159118300Y-92151201D01*
X87968300Y-78151201D02*
X87968300Y-92151201D01*
X101968300Y-78151201D02*
X87968300Y-78151201D01*
X101968300Y-92151201D02*
X101968300Y-78151201D01*
X87968300Y-92151201D02*
X101968300Y-92151201D01*
X83205800Y-59101201D02*
X83205800Y-73101201D01*
X97205800Y-59101201D02*
X83205800Y-59101201D01*
X97205800Y-73101201D02*
X97205800Y-59101201D01*
X83205800Y-73101201D02*
X97205800Y-73101201D01*
X207030800Y-40051201D02*
X207030800Y-54051200D01*
X221030800Y-40051201D02*
X207030800Y-40051201D01*
X221030800Y-54051200D02*
X221030800Y-40051201D01*
X207030800Y-54051200D02*
X221030800Y-54051200D01*
X82918300Y-78151201D02*
X68918300Y-78151201D01*
X82918300Y-92151201D02*
X82918300Y-78151201D01*
X68918300Y-92151201D02*
X82918300Y-92151201D01*
X68918300Y-78151201D02*
X68918300Y-92151201D01*
X201980800Y-40051201D02*
X187980800Y-40051201D01*
X201980800Y-54051200D02*
X201980800Y-40051201D01*
X187980800Y-54051200D02*
X201980800Y-54051200D01*
X187980800Y-40051201D02*
X187980800Y-54051200D01*
X87680800Y-111201201D02*
X87680800Y-97201201D01*
X73680800Y-111201201D02*
X87680800Y-111201201D01*
X73680800Y-97201201D02*
X73680800Y-111201201D01*
X87680800Y-97201201D02*
X73680800Y-97201201D01*
X182930800Y-54051200D02*
X182930800Y-40051201D01*
X168930800Y-54051200D02*
X182930800Y-54051200D01*
X168930800Y-40051201D02*
X168930800Y-54051200D01*
X182930800Y-40051201D02*
X168930800Y-40051201D01*
X230555800Y-59101201D02*
X216555800Y-59101201D01*
X230555800Y-73101201D02*
X230555800Y-59101201D01*
X216555800Y-73101201D02*
X230555800Y-73101201D01*
X216555800Y-59101201D02*
X216555800Y-73101201D01*
X63868300Y-78151201D02*
X49868300Y-78151201D01*
X63868300Y-92151201D02*
X63868300Y-78151201D01*
X49868300Y-92151201D02*
X63868300Y-92151201D01*
X49868300Y-78151201D02*
X49868300Y-92151201D01*
X87680800Y-40051201D02*
X73680800Y-40051201D01*
X87680800Y-54051200D02*
X87680800Y-40051201D01*
X73680800Y-54051200D02*
X87680800Y-54051200D01*
X73680800Y-40051201D02*
X73680800Y-54051200D01*
X107018300Y-78151201D02*
X107018300Y-92151201D01*
X121018300Y-78151201D02*
X107018300Y-78151201D01*
X121018300Y-92151201D02*
X121018300Y-78151201D01*
X107018300Y-92151201D02*
X121018300Y-92151201D01*
X126068300Y-78151201D02*
X126068300Y-92151201D01*
X140068300Y-78151201D02*
X126068300Y-78151201D01*
X140068300Y-92151201D02*
X140068300Y-78151201D01*
X126068300Y-92151201D02*
X140068300Y-92151201D01*
X125780800Y-40051201D02*
X111780800Y-40051201D01*
X125780800Y-54051200D02*
X125780800Y-40051201D01*
X111780800Y-54051200D02*
X125780800Y-54051200D01*
X111780800Y-40051201D02*
X111780800Y-54051200D01*
X144830799Y-111201201D02*
X144830799Y-97201201D01*
X130830800Y-111201201D02*
X144830799Y-111201201D01*
X130830800Y-97201201D02*
X130830800Y-111201201D01*
X144830799Y-97201201D02*
X130830800Y-97201201D01*
X92730800Y-97201201D02*
X92730800Y-111201201D01*
X106730800Y-97201201D02*
X92730800Y-97201201D01*
X106730800Y-111201201D02*
X106730800Y-97201201D01*
X92730800Y-111201201D02*
X106730800Y-111201201D01*
X125780800Y-97201201D02*
X111780800Y-97201201D01*
X125780800Y-111201201D02*
X125780800Y-97201201D01*
X111780800Y-111201201D02*
X125780800Y-111201201D01*
X111780800Y-97201201D02*
X111780800Y-111201201D01*
X68630800Y-54051200D02*
X68630800Y-40051201D01*
X54630800Y-54051200D02*
X68630800Y-54051200D01*
X54630800Y-40051201D02*
X54630800Y-54051200D01*
X68630800Y-40051201D02*
X54630800Y-40051201D01*
X64155800Y-59101201D02*
X64155800Y-73101201D01*
X78155800Y-59101201D02*
X64155800Y-59101201D01*
X78155800Y-73101201D02*
X78155800Y-59101201D01*
X64155800Y-73101201D02*
X78155800Y-73101201D01*
X59105800Y-59101201D02*
X45105800Y-59101201D01*
X59105800Y-73101201D02*
X59105800Y-59101201D01*
X45105800Y-73101201D02*
X59105800Y-73101201D01*
X45105800Y-59101201D02*
X45105800Y-73101201D01*
X30530799Y-40051201D02*
X16530800Y-40051201D01*
X30530799Y-54051200D02*
X30530799Y-40051201D01*
X16530800Y-54051200D02*
X30530799Y-54051200D01*
X16530800Y-40051201D02*
X16530800Y-54051200D01*
X49580800Y-40051201D02*
X35580800Y-40051201D01*
X49580800Y-54051200D02*
X49580800Y-40051201D01*
X35580800Y-54051200D02*
X49580800Y-54051200D01*
X35580800Y-40051201D02*
X35580800Y-54051200D01*
X35293300Y-73101201D02*
X35293300Y-59101201D01*
X21293299Y-73101201D02*
X35293300Y-73101201D01*
X21293299Y-59101201D02*
X21293299Y-73101201D01*
X35293300Y-59101201D02*
X21293299Y-59101201D01*
X211505800Y-59101201D02*
X197505800Y-59101201D01*
X211505800Y-73101201D02*
X211505800Y-59101201D01*
X197505800Y-73101201D02*
X211505800Y-73101201D01*
X197505800Y-59101201D02*
X197505800Y-73101201D01*
X173405800Y-59101201D02*
X159405800Y-59101201D01*
X173405800Y-73101201D02*
X173405800Y-59101201D01*
X159405800Y-73101201D02*
X173405800Y-73101201D01*
X159405800Y-59101201D02*
X159405800Y-73101201D01*
X245130799Y-40051201D02*
X245130799Y-54051200D01*
X259130800Y-40051201D02*
X245130799Y-40051201D01*
X259130800Y-54051200D02*
X259130800Y-40051201D01*
X245130799Y-54051200D02*
X259130800Y-54051200D01*
X201980800Y-111201201D02*
X201980800Y-97201201D01*
X187980800Y-111201201D02*
X201980800Y-111201201D01*
X187980800Y-97201201D02*
X187980800Y-111201201D01*
X201980800Y-97201201D02*
X187980800Y-97201201D01*
X235318300Y-78151201D02*
X221318300Y-78151201D01*
X235318300Y-92151201D02*
X235318300Y-78151201D01*
X221318300Y-92151201D02*
X235318300Y-92151201D01*
X221318300Y-78151201D02*
X221318300Y-92151201D01*
X197218300Y-92151201D02*
X197218300Y-78151201D01*
X183218300Y-92151201D02*
X197218300Y-92151201D01*
X183218300Y-78151201D02*
X183218300Y-92151201D01*
X197218300Y-78151201D02*
X183218300Y-78151201D01*
X163880800Y-97201201D02*
X149880800Y-97201201D01*
X163880800Y-111201201D02*
X163880800Y-97201201D01*
X149880800Y-111201201D02*
X163880800Y-111201201D01*
X149880800Y-97201201D02*
X149880800Y-111201201D01*
X168930800Y-97201201D02*
X168930800Y-111201201D01*
X182930800Y-97201201D02*
X168930800Y-97201201D01*
X182930800Y-111201201D02*
X182930800Y-97201201D01*
X168930800Y-111201201D02*
X182930800Y-111201201D01*
X216268300Y-78151201D02*
X202268300Y-78151201D01*
X216268300Y-92151201D02*
X216268300Y-78151201D01*
X202268300Y-92151201D02*
X216268300Y-92151201D01*
X202268300Y-78151201D02*
X202268300Y-92151201D01*
X207030800Y-97201201D02*
X207030800Y-111201201D01*
X221030800Y-97201201D02*
X207030800Y-97201201D01*
X221030800Y-111201201D02*
X221030800Y-97201201D01*
X207030800Y-111201201D02*
X221030800Y-111201201D01*
X178168300Y-78151201D02*
X164168300Y-78151201D01*
X178168300Y-92151201D02*
X178168300Y-78151201D01*
X164168300Y-92151201D02*
X178168300Y-92151201D01*
X164168300Y-78151201D02*
X164168300Y-92151201D01*
X54630800Y-97201201D02*
X54630800Y-111201201D01*
X68630800Y-97201201D02*
X54630800Y-97201201D01*
X68630800Y-111201201D02*
X68630800Y-97201201D01*
X54630800Y-111201201D02*
X68630800Y-111201201D01*
M02*
