G04 #@! TF.GenerationSoftware,KiCad,Pcbnew,(5.1.10)-1*
G04 #@! TF.CreationDate,2021-11-22T23:52:00+09:00*
G04 #@! TF.ProjectId,Plate1,506c6174-6531-42e6-9b69-6361645f7063,rev?*
G04 #@! TF.SameCoordinates,Original*
G04 #@! TF.FileFunction,Profile,NP*
%FSLAX46Y46*%
G04 Gerber Fmt 4.6, Leading zero omitted, Abs format (unit mm)*
G04 Created by KiCad (PCBNEW (5.1.10)-1) date 2021-11-22 23:52:00*
%MOMM*%
%LPD*%
G01*
G04 APERTURE LIST*
G04 #@! TA.AperFunction,Profile*
%ADD10C,0.200000*%
G04 #@! TD*
G04 APERTURE END LIST*
D10*
X59487001Y-16337000D02*
X73487001Y-16337000D01*
X130924501Y-40437001D02*
X130924501Y-54437001D01*
X149687001Y-2337001D02*
X135687001Y-2337001D01*
X59487001Y-2337001D02*
X59487001Y-16337000D01*
X230937001Y-16337000D02*
X244937001Y-16337000D01*
X230937001Y-2337001D02*
X230937001Y-16337000D01*
X130924501Y-54437001D02*
X144924501Y-54437001D01*
X135687001Y-2337001D02*
X135687001Y-16337000D01*
X244937001Y-2337001D02*
X230937001Y-2337001D01*
X144924501Y-54437001D02*
X144924501Y-40437001D01*
X97587001Y-2337001D02*
X97587001Y-16337000D01*
X258766001Y-26014400D02*
X258213001Y-26568200D01*
X144924501Y-40437001D02*
X130924501Y-40437001D01*
X259463001Y-25660200D02*
X258766001Y-26014400D01*
X262258001Y-26568200D02*
X261705000Y-26014400D01*
X135687001Y-16337000D02*
X149687001Y-16337000D01*
X260236000Y-25537800D02*
X259463001Y-25660200D01*
X73487001Y-16337000D02*
X73487001Y-2337001D01*
X261008001Y-25660200D02*
X260236000Y-25537800D01*
X261705000Y-26014400D02*
X261008001Y-25660200D01*
X244937001Y-16337000D02*
X244937001Y-2337001D01*
X149687001Y-16337000D02*
X149687001Y-2337001D01*
X73487001Y-2337001D02*
X59487001Y-2337001D01*
X3499300Y-59138401D02*
X4272381Y-59015700D01*
X259224501Y-40437001D02*
X245224501Y-40437001D01*
X5999050Y-56638700D02*
X5876421Y-55865400D01*
X279374001Y-56637200D02*
X279497001Y-57410201D01*
X278274501Y-22474001D02*
X278274501Y-21387000D01*
X279851001Y-55168301D02*
X279655751Y-55552789D01*
X280655751Y-30912001D02*
X279655751Y-30912001D01*
X279405906Y-56437001D02*
X279374001Y-56637200D01*
X255692751Y-54437001D02*
X272568751Y-54437001D01*
X266655751Y-40431230D02*
X259224501Y-40437001D01*
X280655751Y-44912001D02*
X280655751Y-30912001D01*
X279655751Y-22474001D02*
X278274501Y-22474001D01*
X255692751Y-56437001D02*
X255692751Y-54437001D01*
X281873001Y-54137501D02*
X281100001Y-54260201D01*
X272568751Y-54437001D02*
X272568751Y-56437001D01*
X285374001Y-59138401D02*
X285374001Y-94874001D01*
X281873001Y-59138401D02*
X285374001Y-59138401D01*
X278274501Y-21387000D02*
X264274501Y-21387000D01*
X159212001Y-35387001D02*
X159212001Y-21387000D01*
X248692751Y-56437001D02*
X255692751Y-56437001D01*
X280404001Y-58661501D02*
X281100001Y-59015700D01*
X264274501Y-35387001D02*
X266655751Y-35387001D01*
X5520891Y-58107601D02*
X5876421Y-57410201D01*
X4968301Y-54614100D02*
X4272381Y-54260201D01*
X202074501Y-40437001D02*
X188074501Y-40437001D01*
X279851001Y-58107601D02*
X280404001Y-58661501D01*
X245224501Y-40437001D02*
X245224501Y-54437001D01*
X279655751Y-44912001D02*
X280655751Y-44912001D01*
X188074501Y-40437001D02*
X188074501Y-54437001D01*
X3500680Y-54137501D02*
X-915Y-54137501D01*
X0Y-94874001D02*
X-915Y-59138401D01*
X279497001Y-57410201D02*
X279851001Y-58107601D01*
X279655751Y-55552789D02*
X279655751Y-44912001D01*
X4272381Y-54260201D02*
X3500680Y-54137501D01*
X272568751Y-56437001D02*
X279405906Y-56437001D01*
X264274501Y-21387000D02*
X264274501Y-35387001D01*
X280404001Y-54614100D02*
X279851001Y-55168301D01*
X285374001Y-54137501D02*
X281873001Y-54137501D01*
X285374001Y0D02*
X285374001Y-54137501D01*
X5876421Y-57410201D02*
X5999050Y-56638700D01*
X159212001Y-21387000D02*
X145212001Y-21387000D01*
X0Y0D02*
X285374001Y0D01*
X202074501Y-54437001D02*
X202074501Y-40437001D01*
X285374001Y-94874001D02*
X0Y-94874001D01*
X-915Y-59138401D02*
X3499300Y-59138401D01*
X188074501Y-54437001D02*
X202074501Y-54437001D01*
X281100001Y-54260201D02*
X280404001Y-54614100D01*
X281100001Y-59015700D02*
X281873001Y-59138401D01*
X245224501Y-54437001D02*
X248692751Y-54437001D01*
X248692751Y-54437001D02*
X248692751Y-56437001D01*
X4968301Y-58661501D02*
X5520891Y-58107601D01*
X5520891Y-55168301D02*
X4968301Y-54614100D01*
X4272381Y-59015700D02*
X4968301Y-58661501D01*
X5876421Y-55865400D02*
X5520891Y-55168301D01*
X279655751Y-30912001D02*
X279655751Y-22474001D01*
X-915Y-54137501D02*
X0Y0D01*
X145212001Y-35387001D02*
X159212001Y-35387001D01*
X266655751Y-35387001D02*
X266655751Y-40431230D01*
X112849501Y-91537001D02*
X112849501Y-76537001D01*
X105817751Y-76537001D02*
X105817751Y-91537001D01*
X27406900Y-26568200D02*
X26855701Y-26014400D01*
X27406900Y-29506500D02*
X27763801Y-28810500D01*
X129856001Y-49460301D02*
X130410001Y-48907901D01*
X26159800Y-30414600D02*
X26855701Y-30060401D01*
X23363701Y-29506500D02*
X23917701Y-30060401D01*
X25386701Y-30538401D02*
X26159800Y-30414600D01*
X112849501Y-76537001D02*
X105817751Y-76537001D01*
X4718251Y-78537001D02*
X4718251Y-92537001D01*
X240462001Y-35387001D02*
X254462001Y-35387001D01*
X23009601Y-28810500D02*
X23363701Y-29506500D01*
X27763801Y-27264300D02*
X27406900Y-26568200D01*
X23917701Y-30060401D02*
X24613600Y-30414600D01*
X26159800Y-25660200D02*
X25386701Y-25537800D01*
X130410001Y-48907901D02*
X130764001Y-48210400D01*
X4718251Y-92537001D02*
X18718251Y-92537001D01*
X22886900Y-28038600D02*
X23009601Y-28810500D01*
X240462001Y-21387000D02*
X240462001Y-35387001D01*
X105817751Y-91537001D02*
X112849501Y-91537001D01*
X27763801Y-28810500D02*
X27886400Y-28038600D01*
X230649501Y-73487001D02*
X230649501Y-59487001D01*
X27886400Y-28038600D02*
X27763801Y-27264300D01*
X25386701Y-25537800D02*
X24613600Y-25660200D01*
X23917701Y-26014400D02*
X23363701Y-26568200D01*
X216649501Y-59487001D02*
X216649501Y-73487001D01*
X254462001Y-35387001D02*
X254462001Y-21387000D01*
X26855701Y-30060401D02*
X27406900Y-29506500D01*
X18718251Y-92537001D02*
X18718251Y-78537001D01*
X130764001Y-48210400D02*
X130888001Y-47438901D01*
X225887001Y-16337000D02*
X225887001Y-2337001D01*
X211887001Y-16337000D02*
X225887001Y-16337000D01*
X88062001Y-21387000D02*
X88062001Y-35387001D01*
X24613600Y-30414600D02*
X25386701Y-30538401D01*
X88062001Y-35387001D02*
X102062001Y-35387001D01*
X211887001Y-2337001D02*
X211887001Y-16337000D01*
X216649501Y-73487001D02*
X230649501Y-73487001D01*
X230649501Y-59487001D02*
X216649501Y-59487001D01*
X23363701Y-26568200D02*
X23009601Y-27264300D01*
X102062001Y-21387000D02*
X88062001Y-21387000D01*
X102062001Y-35387001D02*
X102062001Y-21387000D01*
X23009601Y-27264300D02*
X22886900Y-28038600D01*
X18718251Y-78537001D02*
X4718251Y-78537001D01*
X254462001Y-21387000D02*
X240462001Y-21387000D01*
X24613600Y-25660200D02*
X23917701Y-26014400D01*
X26855701Y-26014400D02*
X26159800Y-25660200D01*
X258074001Y-18337001D02*
X258074001Y-16337001D01*
X274950073Y-16337000D02*
X274950001Y-18337001D01*
X262258001Y-29506500D02*
X262613001Y-28810500D01*
X246167751Y-75487001D02*
X246167751Y-73487001D01*
X235699501Y-73487001D02*
X239167751Y-73487001D01*
X275893251Y-59487001D02*
X235699501Y-59487001D01*
X262774338Y-75487001D02*
X270043751Y-75487001D01*
X258074001Y-16337001D02*
X259512001Y-16337000D01*
X275893251Y-73487001D02*
X275893251Y-59487001D01*
X259224501Y-92537001D02*
X259224501Y-78537001D01*
X270043751Y-73487001D02*
X275893251Y-73487001D01*
X270043751Y-75487001D02*
X270043751Y-73487001D01*
X261705000Y-30060401D02*
X262258001Y-29506500D01*
X249987012Y-16337001D02*
X251073916Y-16337001D01*
X249987012Y-2337001D02*
X249987012Y-16337001D01*
X283037014Y-16337001D02*
X283037014Y-2337001D01*
X274950001Y-18337001D02*
X281950001Y-18337001D01*
X259224501Y-78537001D02*
X242843251Y-78537001D01*
X242843251Y-92537001D02*
X259224501Y-92537001D01*
X262613001Y-28810500D02*
X262736000Y-28038600D01*
X261008001Y-30414600D02*
X261705000Y-30060401D01*
X260236000Y-30538401D02*
X261008001Y-30414600D01*
X257858001Y-27264300D02*
X257736000Y-28038600D01*
X240174501Y-40437001D02*
X226174501Y-40437001D01*
X235699501Y-59487001D02*
X235699501Y-73487001D01*
X259512001Y-16337000D02*
X274950073Y-16337000D01*
X257736000Y-28038600D02*
X257858001Y-28810500D01*
X239167751Y-75487001D02*
X246167751Y-75487001D01*
X239167751Y-73487001D02*
X239167751Y-75487001D01*
X281950001Y-16337001D02*
X283037014Y-16337001D01*
X259463001Y-30414600D02*
X260236000Y-30538401D01*
X262736000Y-28038600D02*
X262613001Y-27264300D01*
X251073916Y-16337001D02*
X251074001Y-18337001D01*
X246167751Y-73487001D02*
X262774338Y-73487001D01*
X281950001Y-18337001D02*
X281950001Y-16337001D01*
X251074001Y-18337001D02*
X258074001Y-18337001D01*
X262613001Y-27264300D02*
X262258001Y-26568200D01*
X258213001Y-29506500D02*
X258766001Y-30060401D01*
X283037014Y-2337001D02*
X249987012Y-2337001D01*
X258213001Y-26568200D02*
X257858001Y-27264300D01*
X240174501Y-54437001D02*
X240174501Y-40437001D01*
X257858001Y-28810500D02*
X258213001Y-29506500D01*
X262774338Y-73487001D02*
X262774338Y-75487001D01*
X242843251Y-78537001D02*
X242843251Y-92537001D01*
X258766001Y-30060401D02*
X259463001Y-30414600D01*
X226174501Y-54437001D02*
X240174501Y-54437001D01*
X154737001Y-2337001D02*
X154737001Y-16337000D01*
X36682002Y-73492004D02*
X36682002Y-73487100D01*
X168737001Y-2337001D02*
X154737001Y-2337001D01*
X4718251Y-59487001D02*
X4718251Y-75487001D01*
X154737001Y-16337000D02*
X168737001Y-16337000D01*
X4718251Y-75487001D02*
X12805250Y-75487001D01*
X36681251Y-73492004D02*
X36682002Y-73492004D01*
X40149500Y-59487001D02*
X4718251Y-59487001D01*
X36682002Y-73487100D02*
X36812001Y-73487100D01*
X36681251Y-75487001D02*
X36681251Y-73492004D01*
X29722307Y-75487001D02*
X36681251Y-75487001D01*
X21387001Y-16337000D02*
X35387001Y-16337000D01*
X35387001Y-2337001D02*
X21387001Y-2337001D01*
X12805250Y-75487001D02*
X12805250Y-73487001D01*
X36812001Y-73487100D02*
X36812001Y-73487001D01*
X69012001Y-21387000D02*
X69012001Y-35387001D01*
X12805250Y-73487001D02*
X29722307Y-73487001D01*
X21387001Y-2337001D02*
X21387001Y-16337000D01*
X36812001Y-73487001D02*
X40149500Y-73487001D01*
X35387001Y-16337000D02*
X35387001Y-2337001D01*
X168737001Y-16337000D02*
X168737001Y-2337001D01*
X29722307Y-73487001D02*
X29722307Y-75487001D01*
X40149500Y-73487001D02*
X40149500Y-59487001D01*
X190168251Y-92537001D02*
X190168251Y-83291401D01*
X173787001Y-92537001D02*
X190168251Y-92537001D01*
X173787001Y-78537001D02*
X173787001Y-92537001D01*
X190168251Y-78537001D02*
X173787001Y-78537001D01*
X202362001Y-35387001D02*
X216362001Y-35387001D01*
X49674501Y-40437001D02*
X35674501Y-40437001D01*
X140162001Y-21387000D02*
X126162001Y-21387000D01*
X202362001Y-21387000D02*
X202362001Y-35387001D01*
X49674501Y-54437001D02*
X49674501Y-40437001D01*
X35674501Y-54437001D02*
X49674501Y-54437001D01*
X35674501Y-40437001D02*
X35674501Y-54437001D01*
X183312001Y-21387000D02*
X183312001Y-35387001D01*
X197312001Y-21387000D02*
X183312001Y-21387000D01*
X54437001Y-2337001D02*
X40437001Y-2337001D01*
X126162001Y-21387000D02*
X126162001Y-35387001D01*
X40437001Y-16337000D02*
X54437001Y-16337000D01*
X140162001Y-35387001D02*
X140162001Y-21387000D01*
X126162001Y-35387001D02*
X140162001Y-35387001D01*
X183312001Y-35387001D02*
X197312001Y-35387001D01*
X197312001Y-35387001D02*
X197312001Y-21387000D01*
X54437001Y-16337000D02*
X54437001Y-2337001D01*
X40437001Y-2337001D02*
X40437001Y-16337000D01*
X211599501Y-73487001D02*
X211599501Y-59487001D01*
X211599501Y-59487001D02*
X197599501Y-59487001D01*
X207124501Y-40437001D02*
X207124501Y-54437001D01*
X216362001Y-35387001D02*
X216362001Y-21387000D01*
X216362001Y-21387000D02*
X202362001Y-21387000D01*
X126364001Y-48907901D02*
X126918001Y-49460301D01*
X126007001Y-48210400D02*
X126364001Y-48907901D01*
X125887001Y-47438901D02*
X126007001Y-48210400D01*
X128387001Y-44939100D02*
X127614001Y-45060100D01*
X90155751Y-78537001D02*
X69012001Y-78537001D01*
X130888001Y-47438901D02*
X130764001Y-46664201D01*
X126007001Y-46664201D02*
X125887001Y-47438901D01*
X126364001Y-45968500D02*
X126007001Y-46664201D01*
X126918001Y-45414301D02*
X126364001Y-45968500D01*
X129160001Y-45060100D02*
X128387001Y-44939100D01*
X129856001Y-45414301D02*
X129160001Y-45060100D01*
X130410001Y-45968500D02*
X129856001Y-45414301D01*
X78537001Y-16337000D02*
X92537001Y-16337000D01*
X114255751Y-78537001D02*
X114255751Y-92537001D01*
X125874501Y-54437001D02*
X125874501Y-40437001D01*
X136693751Y-76537001D02*
X129693751Y-76537001D01*
X106824501Y-54437001D02*
X106824501Y-40437001D01*
X78249501Y-73487001D02*
X78249501Y-59487001D01*
X92537001Y-16337000D02*
X92537001Y-2337001D01*
X135399501Y-91537001D02*
X136693751Y-91537001D01*
X130764001Y-46664201D02*
X130410001Y-45968500D01*
X92824501Y-40437001D02*
X92824501Y-54437001D01*
X106824501Y-40437001D02*
X92824501Y-40437001D01*
X111874501Y-40437001D02*
X111874501Y-54437001D01*
X92824501Y-54437001D02*
X106824501Y-54437001D01*
X125874501Y-40437001D02*
X111874501Y-40437001D01*
X111874501Y-54437001D02*
X125874501Y-54437001D01*
X78249501Y-59487001D02*
X64249501Y-59487001D01*
X64249501Y-59487001D02*
X64249501Y-73487001D01*
X90155751Y-92537001D02*
X90155751Y-78537001D01*
X226174501Y-40437001D02*
X226174501Y-54437001D01*
X69012001Y-92537001D02*
X90155751Y-92537001D01*
X92537001Y-2337001D02*
X78537001Y-2337001D01*
X136693751Y-91537001D02*
X136693751Y-76537001D01*
X135399501Y-92537001D02*
X135399501Y-91537001D01*
X129693751Y-76537001D02*
X129693751Y-78537001D01*
X69012001Y-78537001D02*
X69012001Y-92537001D01*
X114255751Y-92537001D02*
X135399501Y-92537001D01*
X78537001Y-2337001D02*
X78537001Y-16337000D01*
X64249501Y-73487001D02*
X78249501Y-73487001D01*
X129160001Y-49815900D02*
X129856001Y-49460301D01*
X129693751Y-78537001D02*
X114255751Y-78537001D01*
X128387001Y-49938701D02*
X129160001Y-49815900D01*
X127614001Y-49815900D02*
X128387001Y-49938701D01*
X126918001Y-49460301D02*
X127614001Y-49815900D01*
X127614001Y-45060100D02*
X126918001Y-45414301D01*
X2337001Y-16337000D02*
X16337000Y-16337000D01*
X97587001Y-16337000D02*
X111587001Y-16337000D01*
X235412001Y-21387000D02*
X221412001Y-21387000D01*
X235412001Y-35387001D02*
X235412001Y-21387000D01*
X221412001Y-35387001D02*
X235412001Y-35387001D01*
X59199501Y-73487001D02*
X59199501Y-59487001D01*
X68724501Y-54437001D02*
X68724501Y-40437001D01*
X54724501Y-40437001D02*
X54724501Y-54437001D01*
X221412001Y-21387000D02*
X221412001Y-35387001D01*
X16337000Y-2337001D02*
X2337001Y-2337001D01*
X154449501Y-59487001D02*
X140449501Y-59487001D01*
X154449501Y-73487001D02*
X154449501Y-59487001D01*
X45199501Y-59487001D02*
X45199501Y-73487001D01*
X140449501Y-73487001D02*
X154449501Y-73487001D01*
X140449501Y-59487001D02*
X140449501Y-73487001D01*
X54724501Y-54437001D02*
X68724501Y-54437001D01*
X2337001Y-2337001D02*
X2337001Y-16337000D01*
X59199501Y-59487001D02*
X45199501Y-59487001D01*
X45199501Y-73487001D02*
X59199501Y-73487001D01*
X16337000Y-16337000D02*
X16337000Y-2337001D01*
X68724501Y-40437001D02*
X54724501Y-40437001D01*
X111587001Y-2337001D02*
X97587001Y-2337001D01*
X111587001Y-16337000D02*
X111587001Y-2337001D01*
X49962001Y-35387001D02*
X63962001Y-35387001D01*
X49962001Y-21387000D02*
X49962001Y-35387001D01*
X190168251Y-83291401D02*
X190168251Y-78537001D01*
X63962001Y-21387000D02*
X49962001Y-21387000D01*
X21099501Y-21387000D02*
X7099501Y-21387000D01*
X4718251Y-54437001D02*
X23480751Y-54437001D01*
X166355751Y-78537001D02*
X152355751Y-78537001D01*
X206837001Y-2337001D02*
X192837001Y-2337001D01*
X152355751Y-92537001D02*
X166355751Y-92537001D01*
X187787001Y-2337001D02*
X173787001Y-2337001D01*
X166355751Y-92537001D02*
X166355751Y-78537001D01*
X152355751Y-78537001D02*
X152355751Y-92537001D01*
X178262001Y-21387000D02*
X164262001Y-21387000D01*
X163974501Y-54437001D02*
X163974501Y-40437001D01*
X149974501Y-40437001D02*
X149974501Y-54437001D01*
X213980751Y-78537001D02*
X195218251Y-78537001D01*
X173787001Y-2337001D02*
X173787001Y-16337000D01*
X164262001Y-35387001D02*
X178262001Y-35387001D01*
X173499501Y-73487001D02*
X173499501Y-59487001D01*
X187787001Y-16337000D02*
X187787001Y-2337001D01*
X192837001Y-2337001D02*
X192837001Y-16337000D01*
X44912001Y-35387001D02*
X44912001Y-21387000D01*
X30912000Y-35387001D02*
X44912001Y-35387001D01*
X163974501Y-40437001D02*
X149974501Y-40437001D01*
X178262001Y-35387001D02*
X178262001Y-21387000D01*
X192837001Y-16337000D02*
X206837001Y-16337000D01*
X30912000Y-21387000D02*
X30912000Y-35387001D01*
X195218251Y-92537001D02*
X213980751Y-92537001D01*
X159499501Y-73487001D02*
X173499501Y-73487001D01*
X195218251Y-78537001D02*
X195218251Y-92537001D01*
X173787001Y-16337000D02*
X187787001Y-16337000D01*
X159499501Y-59487001D02*
X159499501Y-73487001D01*
X173499501Y-59487001D02*
X159499501Y-59487001D01*
X225887001Y-2337001D02*
X211887001Y-2337001D01*
X44912001Y-21387000D02*
X30912000Y-21387000D01*
X42530751Y-78537001D02*
X26149500Y-78537001D01*
X149974501Y-54437001D02*
X163974501Y-54437001D01*
X23480751Y-54437001D02*
X23480751Y-40437001D01*
X4718251Y-40437001D02*
X4718251Y-54437001D01*
X23480751Y-40437001D02*
X4718251Y-40437001D01*
X213980751Y-92537001D02*
X213980751Y-78537001D01*
X164262001Y-21387000D02*
X164262001Y-35387001D01*
X206837001Y-16337000D02*
X206837001Y-2337001D01*
X26149500Y-92537001D02*
X42530751Y-92537001D01*
X42530751Y-92537001D02*
X42530751Y-78537001D01*
X26149500Y-78537001D02*
X26149500Y-92537001D01*
X145212001Y-21387000D02*
X145212001Y-35387001D01*
X21099501Y-35387001D02*
X21099501Y-21387000D01*
X7099501Y-35387001D02*
X21099501Y-35387001D01*
X7099501Y-21387000D02*
X7099501Y-35387001D01*
X97299501Y-59487001D02*
X83299501Y-59487001D01*
X183024501Y-40437001D02*
X169024501Y-40437001D01*
X150949501Y-91537001D02*
X150949501Y-76537001D01*
X97299501Y-73487001D02*
X97299501Y-59487001D01*
X221124501Y-40437001D02*
X207124501Y-40437001D01*
X102349501Y-73487001D02*
X116349501Y-73487001D01*
X192549501Y-59487001D02*
X178549501Y-59487001D01*
X169024501Y-54437001D02*
X183024501Y-54437001D01*
X178549501Y-73487001D02*
X192549501Y-73487001D01*
X116349501Y-59487001D02*
X102349501Y-59487001D01*
X178549501Y-59487001D02*
X178549501Y-73487001D01*
X221124501Y-54437001D02*
X221124501Y-40437001D01*
X143949501Y-76537001D02*
X143949501Y-91537001D01*
X207124501Y-54437001D02*
X221124501Y-54437001D01*
X116349501Y-73487001D02*
X116349501Y-59487001D01*
X183024501Y-54437001D02*
X183024501Y-40437001D01*
X83299501Y-73487001D02*
X97299501Y-73487001D01*
X102349501Y-59487001D02*
X102349501Y-73487001D01*
X83299501Y-59487001D02*
X83299501Y-73487001D01*
X169024501Y-40437001D02*
X169024501Y-54437001D01*
X150949501Y-76537001D02*
X143949501Y-76537001D01*
X192549501Y-73487001D02*
X192549501Y-59487001D01*
X143949501Y-91537001D02*
X150949501Y-91537001D01*
X237793251Y-92537001D02*
X237793251Y-78537001D01*
X219030751Y-78537001D02*
X219030751Y-92537001D01*
X87774501Y-40437001D02*
X73774501Y-40437001D01*
X107112001Y-21387000D02*
X107112001Y-35387001D01*
X121112001Y-35387001D02*
X121112001Y-21387000D01*
X107112001Y-35387001D02*
X121112001Y-35387001D01*
X280655751Y-78537001D02*
X266655751Y-78537001D01*
X266655751Y-92537001D02*
X280655751Y-92537001D01*
X280655751Y-92537001D02*
X280655751Y-78537001D01*
X266655751Y-78537001D02*
X266655751Y-92537001D01*
X135399501Y-73487001D02*
X135399501Y-59487001D01*
X83012001Y-21387000D02*
X69012001Y-21387000D01*
X73774501Y-40437001D02*
X73774501Y-54437001D01*
X83012001Y-35387001D02*
X83012001Y-21387000D01*
X69012001Y-35387001D02*
X83012001Y-35387001D01*
X135399501Y-59487001D02*
X121399501Y-59487001D01*
X237793251Y-78537001D02*
X219030751Y-78537001D01*
X219030751Y-92537001D02*
X237793251Y-92537001D01*
X121399501Y-73487001D02*
X135399501Y-73487001D01*
X121399501Y-59487001D02*
X121399501Y-73487001D01*
X121112001Y-21387000D02*
X107112001Y-21387000D01*
X87774501Y-54437001D02*
X87774501Y-40437001D01*
X73774501Y-54437001D02*
X87774501Y-54437001D01*
X130637000Y-16337000D02*
X130637000Y-2337001D01*
X197599501Y-59487001D02*
X197599501Y-73487001D01*
X63962001Y-35387001D02*
X63962001Y-21387000D01*
X47580751Y-78537001D02*
X47580751Y-92537001D01*
X66343251Y-78537001D02*
X47580751Y-78537001D01*
X66343251Y-92537001D02*
X66343251Y-78537001D01*
X47580751Y-92537001D02*
X66343251Y-92537001D01*
X116637001Y-16337000D02*
X130637000Y-16337000D01*
X116637001Y-2337001D02*
X116637001Y-16337000D01*
X130637000Y-2337001D02*
X116637001Y-2337001D01*
X197599501Y-73487001D02*
X211599501Y-73487001D01*
M02*
