G04 #@! TF.GenerationSoftware,KiCad,Pcbnew,(5.1.6)-1*
G04 #@! TF.CreationDate,2021-02-08T15:22:01+09:00*
G04 #@! TF.ProjectId,Joker60-NoArrows,4a6f6b65-7236-4302-9d4e-6f4172726f77,pre-Alpha*
G04 #@! TF.SameCoordinates,Original*
G04 #@! TF.FileFunction,Paste,Top*
G04 #@! TF.FilePolarity,Positive*
%FSLAX46Y46*%
G04 Gerber Fmt 4.6, Leading zero omitted, Abs format (unit mm)*
G04 Created by KiCad (PCBNEW (5.1.6)-1) date 2021-02-08 15:22:01*
%MOMM*%
%LPD*%
G01*
G04 APERTURE LIST*
%ADD10R,0.400000X0.750000*%
%ADD11R,1.475000X0.300000*%
%ADD12R,0.900000X0.800000*%
%ADD13R,1.800000X1.100000*%
%ADD14R,0.650000X1.060000*%
G04 APERTURE END LIST*
G36*
G01*
X254970800Y-162084400D02*
X255670800Y-162084400D01*
G75*
G02*
X255920800Y-162334400I0J-250000D01*
G01*
X255920800Y-162834400D01*
G75*
G02*
X255670800Y-163084400I-250000J0D01*
G01*
X254970800Y-163084400D01*
G75*
G02*
X254720800Y-162834400I0J250000D01*
G01*
X254720800Y-162334400D01*
G75*
G02*
X254970800Y-162084400I250000J0D01*
G01*
G37*
G36*
G01*
X254970800Y-158784400D02*
X255670800Y-158784400D01*
G75*
G02*
X255920800Y-159034400I0J-250000D01*
G01*
X255920800Y-159534400D01*
G75*
G02*
X255670800Y-159784400I-250000J0D01*
G01*
X254970800Y-159784400D01*
G75*
G02*
X254720800Y-159534400I0J250000D01*
G01*
X254720800Y-159034400D01*
G75*
G02*
X254970800Y-158784400I250000J0D01*
G01*
G37*
G36*
G01*
X163784800Y-162846400D02*
X164484800Y-162846400D01*
G75*
G02*
X164734800Y-163096400I0J-250000D01*
G01*
X164734800Y-163596400D01*
G75*
G02*
X164484800Y-163846400I-250000J0D01*
G01*
X163784800Y-163846400D01*
G75*
G02*
X163534800Y-163596400I0J250000D01*
G01*
X163534800Y-163096400D01*
G75*
G02*
X163784800Y-162846400I250000J0D01*
G01*
G37*
G36*
G01*
X163784800Y-159546400D02*
X164484800Y-159546400D01*
G75*
G02*
X164734800Y-159796400I0J-250000D01*
G01*
X164734800Y-160296400D01*
G75*
G02*
X164484800Y-160546400I-250000J0D01*
G01*
X163784800Y-160546400D01*
G75*
G02*
X163534800Y-160296400I0J250000D01*
G01*
X163534800Y-159796400D01*
G75*
G02*
X163784800Y-159546400I250000J0D01*
G01*
G37*
G36*
G01*
X93007350Y-105934645D02*
X93707350Y-105934645D01*
G75*
G02*
X93957350Y-106184645I0J-250000D01*
G01*
X93957350Y-106684645D01*
G75*
G02*
X93707350Y-106934645I-250000J0D01*
G01*
X93007350Y-106934645D01*
G75*
G02*
X92757350Y-106684645I0J250000D01*
G01*
X92757350Y-106184645D01*
G75*
G02*
X93007350Y-105934645I250000J0D01*
G01*
G37*
G36*
G01*
X93007350Y-102634645D02*
X93707350Y-102634645D01*
G75*
G02*
X93957350Y-102884645I0J-250000D01*
G01*
X93957350Y-103384645D01*
G75*
G02*
X93707350Y-103634645I-250000J0D01*
G01*
X93007350Y-103634645D01*
G75*
G02*
X92757350Y-103384645I0J250000D01*
G01*
X92757350Y-102884645D01*
G75*
G02*
X93007350Y-102634645I250000J0D01*
G01*
G37*
G36*
G01*
X182936400Y-162135200D02*
X183636400Y-162135200D01*
G75*
G02*
X183886400Y-162385200I0J-250000D01*
G01*
X183886400Y-162885200D01*
G75*
G02*
X183636400Y-163135200I-250000J0D01*
G01*
X182936400Y-163135200D01*
G75*
G02*
X182686400Y-162885200I0J250000D01*
G01*
X182686400Y-162385200D01*
G75*
G02*
X182936400Y-162135200I250000J0D01*
G01*
G37*
G36*
G01*
X182936400Y-158835200D02*
X183636400Y-158835200D01*
G75*
G02*
X183886400Y-159085200I0J-250000D01*
G01*
X183886400Y-159585200D01*
G75*
G02*
X183636400Y-159835200I-250000J0D01*
G01*
X182936400Y-159835200D01*
G75*
G02*
X182686400Y-159585200I0J250000D01*
G01*
X182686400Y-159085200D01*
G75*
G02*
X182936400Y-158835200I250000J0D01*
G01*
G37*
G36*
G01*
X203040150Y-162866205D02*
X203740150Y-162866205D01*
G75*
G02*
X203990150Y-163116205I0J-250000D01*
G01*
X203990150Y-163616205D01*
G75*
G02*
X203740150Y-163866205I-250000J0D01*
G01*
X203040150Y-163866205D01*
G75*
G02*
X202790150Y-163616205I0J250000D01*
G01*
X202790150Y-163116205D01*
G75*
G02*
X203040150Y-162866205I250000J0D01*
G01*
G37*
G36*
G01*
X203040150Y-159566205D02*
X203740150Y-159566205D01*
G75*
G02*
X203990150Y-159816205I0J-250000D01*
G01*
X203990150Y-160316205D01*
G75*
G02*
X203740150Y-160566205I-250000J0D01*
G01*
X203040150Y-160566205D01*
G75*
G02*
X202790150Y-160316205I0J250000D01*
G01*
X202790150Y-159816205D01*
G75*
G02*
X203040150Y-159566205I250000J0D01*
G01*
G37*
G36*
G01*
X285988930Y-162767145D02*
X286688930Y-162767145D01*
G75*
G02*
X286938930Y-163017145I0J-250000D01*
G01*
X286938930Y-163517145D01*
G75*
G02*
X286688930Y-163767145I-250000J0D01*
G01*
X285988930Y-163767145D01*
G75*
G02*
X285738930Y-163517145I0J250000D01*
G01*
X285738930Y-163017145D01*
G75*
G02*
X285988930Y-162767145I250000J0D01*
G01*
G37*
G36*
G01*
X285988930Y-159467145D02*
X286688930Y-159467145D01*
G75*
G02*
X286938930Y-159717145I0J-250000D01*
G01*
X286938930Y-160217145D01*
G75*
G02*
X286688930Y-160467145I-250000J0D01*
G01*
X285988930Y-160467145D01*
G75*
G02*
X285738930Y-160217145I0J250000D01*
G01*
X285738930Y-159717145D01*
G75*
G02*
X285988930Y-159467145I250000J0D01*
G01*
G37*
D10*
X335476250Y-101676125D03*
X335476250Y-99826125D03*
G36*
G01*
X336376250Y-99451125D02*
X336576250Y-99451125D01*
G75*
G02*
X336676250Y-99551125I0J-100000D01*
G01*
X336676250Y-100101125D01*
G75*
G02*
X336576250Y-100201125I-100000J0D01*
G01*
X336376250Y-100201125D01*
G75*
G02*
X336276250Y-100101125I0J100000D01*
G01*
X336276250Y-99551125D01*
G75*
G02*
X336376250Y-99451125I100000J0D01*
G01*
G37*
X336476250Y-101676125D03*
G36*
G01*
X325104250Y-132641125D02*
X326354250Y-132641125D01*
G75*
G02*
X326604250Y-132891125I0J-250000D01*
G01*
X326604250Y-133816125D01*
G75*
G02*
X326354250Y-134066125I-250000J0D01*
G01*
X325104250Y-134066125D01*
G75*
G02*
X324854250Y-133816125I0J250000D01*
G01*
X324854250Y-132891125D01*
G75*
G02*
X325104250Y-132641125I250000J0D01*
G01*
G37*
G36*
G01*
X325104250Y-129666125D02*
X326354250Y-129666125D01*
G75*
G02*
X326604250Y-129916125I0J-250000D01*
G01*
X326604250Y-130841125D01*
G75*
G02*
X326354250Y-131091125I-250000J0D01*
G01*
X325104250Y-131091125D01*
G75*
G02*
X324854250Y-130841125I0J250000D01*
G01*
X324854250Y-129916125D01*
G75*
G02*
X325104250Y-129666125I250000J0D01*
G01*
G37*
G36*
G01*
X322694250Y-133068125D02*
X322694250Y-130918125D01*
G75*
G02*
X322944250Y-130668125I250000J0D01*
G01*
X323694250Y-130668125D01*
G75*
G02*
X323944250Y-130918125I0J-250000D01*
G01*
X323944250Y-133068125D01*
G75*
G02*
X323694250Y-133318125I-250000J0D01*
G01*
X322944250Y-133318125D01*
G75*
G02*
X322694250Y-133068125I0J250000D01*
G01*
G37*
G36*
G01*
X319894250Y-133068125D02*
X319894250Y-130918125D01*
G75*
G02*
X320144250Y-130668125I250000J0D01*
G01*
X320894250Y-130668125D01*
G75*
G02*
X321144250Y-130918125I0J-250000D01*
G01*
X321144250Y-133068125D01*
G75*
G02*
X320894250Y-133318125I-250000J0D01*
G01*
X320144250Y-133318125D01*
G75*
G02*
X319894250Y-133068125I0J250000D01*
G01*
G37*
G36*
G01*
X321469250Y-128742875D02*
X321469250Y-129655375D01*
G75*
G02*
X321225500Y-129899125I-243750J0D01*
G01*
X320738000Y-129899125D01*
G75*
G02*
X320494250Y-129655375I0J243750D01*
G01*
X320494250Y-128742875D01*
G75*
G02*
X320738000Y-128499125I243750J0D01*
G01*
X321225500Y-128499125D01*
G75*
G02*
X321469250Y-128742875I0J-243750D01*
G01*
G37*
G36*
G01*
X323344250Y-128742875D02*
X323344250Y-129655375D01*
G75*
G02*
X323100500Y-129899125I-243750J0D01*
G01*
X322613000Y-129899125D01*
G75*
G02*
X322369250Y-129655375I0J243750D01*
G01*
X322369250Y-128742875D01*
G75*
G02*
X322613000Y-128499125I243750J0D01*
G01*
X323100500Y-128499125D01*
G75*
G02*
X323344250Y-128742875I0J-243750D01*
G01*
G37*
G36*
G01*
X321469250Y-134354651D02*
X321469250Y-135267151D01*
G75*
G02*
X321225500Y-135510901I-243750J0D01*
G01*
X320738000Y-135510901D01*
G75*
G02*
X320494250Y-135267151I0J243750D01*
G01*
X320494250Y-134354651D01*
G75*
G02*
X320738000Y-134110901I243750J0D01*
G01*
X321225500Y-134110901D01*
G75*
G02*
X321469250Y-134354651I0J-243750D01*
G01*
G37*
G36*
G01*
X323344250Y-134354651D02*
X323344250Y-135267151D01*
G75*
G02*
X323100500Y-135510901I-243750J0D01*
G01*
X322613000Y-135510901D01*
G75*
G02*
X322369250Y-135267151I0J243750D01*
G01*
X322369250Y-134354651D01*
G75*
G02*
X322613000Y-134110901I243750J0D01*
G01*
X323100500Y-134110901D01*
G75*
G02*
X323344250Y-134354651I0J-243750D01*
G01*
G37*
G36*
G01*
X310730250Y-139750125D02*
X310730250Y-141000125D01*
G75*
G02*
X310480250Y-141250125I-250000J0D01*
G01*
X309555250Y-141250125D01*
G75*
G02*
X309305250Y-141000125I0J250000D01*
G01*
X309305250Y-139750125D01*
G75*
G02*
X309555250Y-139500125I250000J0D01*
G01*
X310480250Y-139500125D01*
G75*
G02*
X310730250Y-139750125I0J-250000D01*
G01*
G37*
G36*
G01*
X313705250Y-139750125D02*
X313705250Y-141000125D01*
G75*
G02*
X313455250Y-141250125I-250000J0D01*
G01*
X312530250Y-141250125D01*
G75*
G02*
X312280250Y-141000125I0J250000D01*
G01*
X312280250Y-139750125D01*
G75*
G02*
X312530250Y-139500125I250000J0D01*
G01*
X313455250Y-139500125D01*
G75*
G02*
X313705250Y-139750125I0J-250000D01*
G01*
G37*
G36*
G01*
X307824500Y-141295125D02*
X307312000Y-141295125D01*
G75*
G02*
X307093250Y-141076375I0J218750D01*
G01*
X307093250Y-140638875D01*
G75*
G02*
X307312000Y-140420125I218750J0D01*
G01*
X307824500Y-140420125D01*
G75*
G02*
X308043250Y-140638875I0J-218750D01*
G01*
X308043250Y-141076375D01*
G75*
G02*
X307824500Y-141295125I-218750J0D01*
G01*
G37*
G36*
G01*
X307824500Y-142870125D02*
X307312000Y-142870125D01*
G75*
G02*
X307093250Y-142651375I0J218750D01*
G01*
X307093250Y-142213875D01*
G75*
G02*
X307312000Y-141995125I218750J0D01*
G01*
X307824500Y-141995125D01*
G75*
G02*
X308043250Y-142213875I0J-218750D01*
G01*
X308043250Y-142651375D01*
G75*
G02*
X307824500Y-142870125I-218750J0D01*
G01*
G37*
G36*
G01*
X341276250Y-88653125D02*
X341276250Y-89803125D01*
G75*
G02*
X341126250Y-89953125I-150000J0D01*
G01*
X340826250Y-89953125D01*
G75*
G02*
X340676250Y-89803125I0J150000D01*
G01*
X340676250Y-88653125D01*
G75*
G02*
X340826250Y-88503125I150000J0D01*
G01*
X341126250Y-88503125D01*
G75*
G02*
X341276250Y-88653125I0J-150000D01*
G01*
G37*
G36*
G01*
X339626250Y-88578125D02*
X339626250Y-89878125D01*
G75*
G02*
X339551250Y-89953125I-75000J0D01*
G01*
X339401250Y-89953125D01*
G75*
G02*
X339326250Y-89878125I0J75000D01*
G01*
X339326250Y-88578125D01*
G75*
G02*
X339401250Y-88503125I75000J0D01*
G01*
X339551250Y-88503125D01*
G75*
G02*
X339626250Y-88578125I0J-75000D01*
G01*
G37*
G36*
G01*
X339126250Y-88578125D02*
X339126250Y-89878125D01*
G75*
G02*
X339051250Y-89953125I-75000J0D01*
G01*
X338901250Y-89953125D01*
G75*
G02*
X338826250Y-89878125I0J75000D01*
G01*
X338826250Y-88578125D01*
G75*
G02*
X338901250Y-88503125I75000J0D01*
G01*
X339051250Y-88503125D01*
G75*
G02*
X339126250Y-88578125I0J-75000D01*
G01*
G37*
G36*
G01*
X338626250Y-88578125D02*
X338626250Y-89878125D01*
G75*
G02*
X338551250Y-89953125I-75000J0D01*
G01*
X338401250Y-89953125D01*
G75*
G02*
X338326250Y-89878125I0J75000D01*
G01*
X338326250Y-88578125D01*
G75*
G02*
X338401250Y-88503125I75000J0D01*
G01*
X338551250Y-88503125D01*
G75*
G02*
X338626250Y-88578125I0J-75000D01*
G01*
G37*
G36*
G01*
X338130250Y-88578125D02*
X338130250Y-89878125D01*
G75*
G02*
X338055250Y-89953125I-75000J0D01*
G01*
X337905250Y-89953125D01*
G75*
G02*
X337830250Y-89878125I0J75000D01*
G01*
X337830250Y-88578125D01*
G75*
G02*
X337905250Y-88503125I75000J0D01*
G01*
X338055250Y-88503125D01*
G75*
G02*
X338130250Y-88578125I0J-75000D01*
G01*
G37*
G36*
G01*
X336126250Y-88578125D02*
X336126250Y-89878125D01*
G75*
G02*
X336051250Y-89953125I-75000J0D01*
G01*
X335901250Y-89953125D01*
G75*
G02*
X335826250Y-89878125I0J75000D01*
G01*
X335826250Y-88578125D01*
G75*
G02*
X335901250Y-88503125I75000J0D01*
G01*
X336051250Y-88503125D01*
G75*
G02*
X336126250Y-88578125I0J-75000D01*
G01*
G37*
G36*
G01*
X336626250Y-88578125D02*
X336626250Y-89878125D01*
G75*
G02*
X336551250Y-89953125I-75000J0D01*
G01*
X336401250Y-89953125D01*
G75*
G02*
X336326250Y-89878125I0J75000D01*
G01*
X336326250Y-88578125D01*
G75*
G02*
X336401250Y-88503125I75000J0D01*
G01*
X336551250Y-88503125D01*
G75*
G02*
X336626250Y-88578125I0J-75000D01*
G01*
G37*
G36*
G01*
X337126250Y-88578125D02*
X337126250Y-89878125D01*
G75*
G02*
X337051250Y-89953125I-75000J0D01*
G01*
X336901250Y-89953125D01*
G75*
G02*
X336826250Y-89878125I0J75000D01*
G01*
X336826250Y-88578125D01*
G75*
G02*
X336901250Y-88503125I75000J0D01*
G01*
X337051250Y-88503125D01*
G75*
G02*
X337126250Y-88578125I0J-75000D01*
G01*
G37*
G36*
G01*
X337626250Y-88578125D02*
X337626250Y-89878125D01*
G75*
G02*
X337551250Y-89953125I-75000J0D01*
G01*
X337401250Y-89953125D01*
G75*
G02*
X337326250Y-89878125I0J75000D01*
G01*
X337326250Y-88578125D01*
G75*
G02*
X337401250Y-88503125I75000J0D01*
G01*
X337551250Y-88503125D01*
G75*
G02*
X337626250Y-88578125I0J-75000D01*
G01*
G37*
G36*
G01*
X340476250Y-88653125D02*
X340476250Y-89803125D01*
G75*
G02*
X340326250Y-89953125I-150000J0D01*
G01*
X340026250Y-89953125D01*
G75*
G02*
X339876250Y-89803125I0J150000D01*
G01*
X339876250Y-88653125D01*
G75*
G02*
X340026250Y-88503125I150000J0D01*
G01*
X340326250Y-88503125D01*
G75*
G02*
X340476250Y-88653125I0J-150000D01*
G01*
G37*
G36*
G01*
X334776250Y-88653125D02*
X334776250Y-89803125D01*
G75*
G02*
X334626250Y-89953125I-150000J0D01*
G01*
X334326250Y-89953125D01*
G75*
G02*
X334176250Y-89803125I0J150000D01*
G01*
X334176250Y-88653125D01*
G75*
G02*
X334326250Y-88503125I150000J0D01*
G01*
X334626250Y-88503125D01*
G75*
G02*
X334776250Y-88653125I0J-150000D01*
G01*
G37*
G36*
G01*
X335576250Y-88653125D02*
X335576250Y-89803125D01*
G75*
G02*
X335426250Y-89953125I-150000J0D01*
G01*
X335126250Y-89953125D01*
G75*
G02*
X334976250Y-89803125I0J150000D01*
G01*
X334976250Y-88653125D01*
G75*
G02*
X335126250Y-88503125I150000J0D01*
G01*
X335426250Y-88503125D01*
G75*
G02*
X335576250Y-88653125I0J-150000D01*
G01*
G37*
G36*
G01*
X324226170Y-116353245D02*
X324226170Y-115178245D01*
G75*
G02*
X324376170Y-115028245I150000J0D01*
G01*
X324376170Y-115028245D01*
G75*
G02*
X324526170Y-115178245I0J-150000D01*
G01*
X324526170Y-116353245D01*
G75*
G02*
X324376170Y-116503245I-150000J0D01*
G01*
X324376170Y-116503245D01*
G75*
G02*
X324226170Y-116353245I0J150000D01*
G01*
G37*
G36*
G01*
X324726170Y-116353245D02*
X324726170Y-115178245D01*
G75*
G02*
X324876170Y-115028245I150000J0D01*
G01*
X324876170Y-115028245D01*
G75*
G02*
X325026170Y-115178245I0J-150000D01*
G01*
X325026170Y-116353245D01*
G75*
G02*
X324876170Y-116503245I-150000J0D01*
G01*
X324876170Y-116503245D01*
G75*
G02*
X324726170Y-116353245I0J150000D01*
G01*
G37*
G36*
G01*
X325226170Y-116353245D02*
X325226170Y-115178245D01*
G75*
G02*
X325376170Y-115028245I150000J0D01*
G01*
X325376170Y-115028245D01*
G75*
G02*
X325526170Y-115178245I0J-150000D01*
G01*
X325526170Y-116353245D01*
G75*
G02*
X325376170Y-116503245I-150000J0D01*
G01*
X325376170Y-116503245D01*
G75*
G02*
X325226170Y-116353245I0J150000D01*
G01*
G37*
G36*
G01*
X325726170Y-116353245D02*
X325726170Y-115178245D01*
G75*
G02*
X325876170Y-115028245I150000J0D01*
G01*
X325876170Y-115028245D01*
G75*
G02*
X326026170Y-115178245I0J-150000D01*
G01*
X326026170Y-116353245D01*
G75*
G02*
X325876170Y-116503245I-150000J0D01*
G01*
X325876170Y-116503245D01*
G75*
G02*
X325726170Y-116353245I0J150000D01*
G01*
G37*
G36*
G01*
X326226170Y-116353245D02*
X326226170Y-115178245D01*
G75*
G02*
X326376170Y-115028245I150000J0D01*
G01*
X326376170Y-115028245D01*
G75*
G02*
X326526170Y-115178245I0J-150000D01*
G01*
X326526170Y-116353245D01*
G75*
G02*
X326376170Y-116503245I-150000J0D01*
G01*
X326376170Y-116503245D01*
G75*
G02*
X326226170Y-116353245I0J150000D01*
G01*
G37*
G36*
G01*
X326726170Y-116353245D02*
X326726170Y-115178245D01*
G75*
G02*
X326876170Y-115028245I150000J0D01*
G01*
X326876170Y-115028245D01*
G75*
G02*
X327026170Y-115178245I0J-150000D01*
G01*
X327026170Y-116353245D01*
G75*
G02*
X326876170Y-116503245I-150000J0D01*
G01*
X326876170Y-116503245D01*
G75*
G02*
X326726170Y-116353245I0J150000D01*
G01*
G37*
G36*
G01*
X327226170Y-116353245D02*
X327226170Y-115178245D01*
G75*
G02*
X327376170Y-115028245I150000J0D01*
G01*
X327376170Y-115028245D01*
G75*
G02*
X327526170Y-115178245I0J-150000D01*
G01*
X327526170Y-116353245D01*
G75*
G02*
X327376170Y-116503245I-150000J0D01*
G01*
X327376170Y-116503245D01*
G75*
G02*
X327226170Y-116353245I0J150000D01*
G01*
G37*
G36*
G01*
X327726170Y-116353245D02*
X327726170Y-115178245D01*
G75*
G02*
X327876170Y-115028245I150000J0D01*
G01*
X327876170Y-115028245D01*
G75*
G02*
X328026170Y-115178245I0J-150000D01*
G01*
X328026170Y-116353245D01*
G75*
G02*
X327876170Y-116503245I-150000J0D01*
G01*
X327876170Y-116503245D01*
G75*
G02*
X327726170Y-116353245I0J150000D01*
G01*
G37*
G36*
G01*
X328226170Y-116353245D02*
X328226170Y-115178245D01*
G75*
G02*
X328376170Y-115028245I150000J0D01*
G01*
X328376170Y-115028245D01*
G75*
G02*
X328526170Y-115178245I0J-150000D01*
G01*
X328526170Y-116353245D01*
G75*
G02*
X328376170Y-116503245I-150000J0D01*
G01*
X328376170Y-116503245D01*
G75*
G02*
X328226170Y-116353245I0J150000D01*
G01*
G37*
G36*
G01*
X328726170Y-116353245D02*
X328726170Y-115178245D01*
G75*
G02*
X328876170Y-115028245I150000J0D01*
G01*
X328876170Y-115028245D01*
G75*
G02*
X329026170Y-115178245I0J-150000D01*
G01*
X329026170Y-116353245D01*
G75*
G02*
X328876170Y-116503245I-150000J0D01*
G01*
X328876170Y-116503245D01*
G75*
G02*
X328726170Y-116353245I0J150000D01*
G01*
G37*
G36*
G01*
X329226170Y-116353245D02*
X329226170Y-115178245D01*
G75*
G02*
X329376170Y-115028245I150000J0D01*
G01*
X329376170Y-115028245D01*
G75*
G02*
X329526170Y-115178245I0J-150000D01*
G01*
X329526170Y-116353245D01*
G75*
G02*
X329376170Y-116503245I-150000J0D01*
G01*
X329376170Y-116503245D01*
G75*
G02*
X329226170Y-116353245I0J150000D01*
G01*
G37*
G36*
G01*
X329726170Y-116353245D02*
X329726170Y-115178245D01*
G75*
G02*
X329876170Y-115028245I150000J0D01*
G01*
X329876170Y-115028245D01*
G75*
G02*
X330026170Y-115178245I0J-150000D01*
G01*
X330026170Y-116353245D01*
G75*
G02*
X329876170Y-116503245I-150000J0D01*
G01*
X329876170Y-116503245D01*
G75*
G02*
X329726170Y-116353245I0J150000D01*
G01*
G37*
G36*
G01*
X330551170Y-117178245D02*
X330551170Y-117178245D01*
G75*
G02*
X330701170Y-117028245I150000J0D01*
G01*
X331876170Y-117028245D01*
G75*
G02*
X332026170Y-117178245I0J-150000D01*
G01*
X332026170Y-117178245D01*
G75*
G02*
X331876170Y-117328245I-150000J0D01*
G01*
X330701170Y-117328245D01*
G75*
G02*
X330551170Y-117178245I0J150000D01*
G01*
G37*
G36*
G01*
X330551170Y-117678245D02*
X330551170Y-117678245D01*
G75*
G02*
X330701170Y-117528245I150000J0D01*
G01*
X331876170Y-117528245D01*
G75*
G02*
X332026170Y-117678245I0J-150000D01*
G01*
X332026170Y-117678245D01*
G75*
G02*
X331876170Y-117828245I-150000J0D01*
G01*
X330701170Y-117828245D01*
G75*
G02*
X330551170Y-117678245I0J150000D01*
G01*
G37*
G36*
G01*
X330551170Y-118178245D02*
X330551170Y-118178245D01*
G75*
G02*
X330701170Y-118028245I150000J0D01*
G01*
X331876170Y-118028245D01*
G75*
G02*
X332026170Y-118178245I0J-150000D01*
G01*
X332026170Y-118178245D01*
G75*
G02*
X331876170Y-118328245I-150000J0D01*
G01*
X330701170Y-118328245D01*
G75*
G02*
X330551170Y-118178245I0J150000D01*
G01*
G37*
G36*
G01*
X330551170Y-118678245D02*
X330551170Y-118678245D01*
G75*
G02*
X330701170Y-118528245I150000J0D01*
G01*
X331876170Y-118528245D01*
G75*
G02*
X332026170Y-118678245I0J-150000D01*
G01*
X332026170Y-118678245D01*
G75*
G02*
X331876170Y-118828245I-150000J0D01*
G01*
X330701170Y-118828245D01*
G75*
G02*
X330551170Y-118678245I0J150000D01*
G01*
G37*
G36*
G01*
X330551170Y-119178245D02*
X330551170Y-119178245D01*
G75*
G02*
X330701170Y-119028245I150000J0D01*
G01*
X331876170Y-119028245D01*
G75*
G02*
X332026170Y-119178245I0J-150000D01*
G01*
X332026170Y-119178245D01*
G75*
G02*
X331876170Y-119328245I-150000J0D01*
G01*
X330701170Y-119328245D01*
G75*
G02*
X330551170Y-119178245I0J150000D01*
G01*
G37*
G36*
G01*
X330551170Y-119678245D02*
X330551170Y-119678245D01*
G75*
G02*
X330701170Y-119528245I150000J0D01*
G01*
X331876170Y-119528245D01*
G75*
G02*
X332026170Y-119678245I0J-150000D01*
G01*
X332026170Y-119678245D01*
G75*
G02*
X331876170Y-119828245I-150000J0D01*
G01*
X330701170Y-119828245D01*
G75*
G02*
X330551170Y-119678245I0J150000D01*
G01*
G37*
G36*
G01*
X330551170Y-120178245D02*
X330551170Y-120178245D01*
G75*
G02*
X330701170Y-120028245I150000J0D01*
G01*
X331876170Y-120028245D01*
G75*
G02*
X332026170Y-120178245I0J-150000D01*
G01*
X332026170Y-120178245D01*
G75*
G02*
X331876170Y-120328245I-150000J0D01*
G01*
X330701170Y-120328245D01*
G75*
G02*
X330551170Y-120178245I0J150000D01*
G01*
G37*
G36*
G01*
X330551170Y-120678245D02*
X330551170Y-120678245D01*
G75*
G02*
X330701170Y-120528245I150000J0D01*
G01*
X331876170Y-120528245D01*
G75*
G02*
X332026170Y-120678245I0J-150000D01*
G01*
X332026170Y-120678245D01*
G75*
G02*
X331876170Y-120828245I-150000J0D01*
G01*
X330701170Y-120828245D01*
G75*
G02*
X330551170Y-120678245I0J150000D01*
G01*
G37*
G36*
G01*
X330551170Y-121178245D02*
X330551170Y-121178245D01*
G75*
G02*
X330701170Y-121028245I150000J0D01*
G01*
X331876170Y-121028245D01*
G75*
G02*
X332026170Y-121178245I0J-150000D01*
G01*
X332026170Y-121178245D01*
G75*
G02*
X331876170Y-121328245I-150000J0D01*
G01*
X330701170Y-121328245D01*
G75*
G02*
X330551170Y-121178245I0J150000D01*
G01*
G37*
G36*
G01*
X330551170Y-121678245D02*
X330551170Y-121678245D01*
G75*
G02*
X330701170Y-121528245I150000J0D01*
G01*
X331876170Y-121528245D01*
G75*
G02*
X332026170Y-121678245I0J-150000D01*
G01*
X332026170Y-121678245D01*
G75*
G02*
X331876170Y-121828245I-150000J0D01*
G01*
X330701170Y-121828245D01*
G75*
G02*
X330551170Y-121678245I0J150000D01*
G01*
G37*
G36*
G01*
X330551170Y-122178245D02*
X330551170Y-122178245D01*
G75*
G02*
X330701170Y-122028245I150000J0D01*
G01*
X331876170Y-122028245D01*
G75*
G02*
X332026170Y-122178245I0J-150000D01*
G01*
X332026170Y-122178245D01*
G75*
G02*
X331876170Y-122328245I-150000J0D01*
G01*
X330701170Y-122328245D01*
G75*
G02*
X330551170Y-122178245I0J150000D01*
G01*
G37*
G36*
G01*
X330551170Y-122678245D02*
X330551170Y-122678245D01*
G75*
G02*
X330701170Y-122528245I150000J0D01*
G01*
X331876170Y-122528245D01*
G75*
G02*
X332026170Y-122678245I0J-150000D01*
G01*
X332026170Y-122678245D01*
G75*
G02*
X331876170Y-122828245I-150000J0D01*
G01*
X330701170Y-122828245D01*
G75*
G02*
X330551170Y-122678245I0J150000D01*
G01*
G37*
G36*
G01*
X329726170Y-124678245D02*
X329726170Y-123503245D01*
G75*
G02*
X329876170Y-123353245I150000J0D01*
G01*
X329876170Y-123353245D01*
G75*
G02*
X330026170Y-123503245I0J-150000D01*
G01*
X330026170Y-124678245D01*
G75*
G02*
X329876170Y-124828245I-150000J0D01*
G01*
X329876170Y-124828245D01*
G75*
G02*
X329726170Y-124678245I0J150000D01*
G01*
G37*
G36*
G01*
X329226170Y-124678245D02*
X329226170Y-123503245D01*
G75*
G02*
X329376170Y-123353245I150000J0D01*
G01*
X329376170Y-123353245D01*
G75*
G02*
X329526170Y-123503245I0J-150000D01*
G01*
X329526170Y-124678245D01*
G75*
G02*
X329376170Y-124828245I-150000J0D01*
G01*
X329376170Y-124828245D01*
G75*
G02*
X329226170Y-124678245I0J150000D01*
G01*
G37*
G36*
G01*
X328726170Y-124678245D02*
X328726170Y-123503245D01*
G75*
G02*
X328876170Y-123353245I150000J0D01*
G01*
X328876170Y-123353245D01*
G75*
G02*
X329026170Y-123503245I0J-150000D01*
G01*
X329026170Y-124678245D01*
G75*
G02*
X328876170Y-124828245I-150000J0D01*
G01*
X328876170Y-124828245D01*
G75*
G02*
X328726170Y-124678245I0J150000D01*
G01*
G37*
G36*
G01*
X328226170Y-124678245D02*
X328226170Y-123503245D01*
G75*
G02*
X328376170Y-123353245I150000J0D01*
G01*
X328376170Y-123353245D01*
G75*
G02*
X328526170Y-123503245I0J-150000D01*
G01*
X328526170Y-124678245D01*
G75*
G02*
X328376170Y-124828245I-150000J0D01*
G01*
X328376170Y-124828245D01*
G75*
G02*
X328226170Y-124678245I0J150000D01*
G01*
G37*
G36*
G01*
X327726170Y-124678245D02*
X327726170Y-123503245D01*
G75*
G02*
X327876170Y-123353245I150000J0D01*
G01*
X327876170Y-123353245D01*
G75*
G02*
X328026170Y-123503245I0J-150000D01*
G01*
X328026170Y-124678245D01*
G75*
G02*
X327876170Y-124828245I-150000J0D01*
G01*
X327876170Y-124828245D01*
G75*
G02*
X327726170Y-124678245I0J150000D01*
G01*
G37*
G36*
G01*
X327226170Y-124678245D02*
X327226170Y-123503245D01*
G75*
G02*
X327376170Y-123353245I150000J0D01*
G01*
X327376170Y-123353245D01*
G75*
G02*
X327526170Y-123503245I0J-150000D01*
G01*
X327526170Y-124678245D01*
G75*
G02*
X327376170Y-124828245I-150000J0D01*
G01*
X327376170Y-124828245D01*
G75*
G02*
X327226170Y-124678245I0J150000D01*
G01*
G37*
G36*
G01*
X326726170Y-124678245D02*
X326726170Y-123503245D01*
G75*
G02*
X326876170Y-123353245I150000J0D01*
G01*
X326876170Y-123353245D01*
G75*
G02*
X327026170Y-123503245I0J-150000D01*
G01*
X327026170Y-124678245D01*
G75*
G02*
X326876170Y-124828245I-150000J0D01*
G01*
X326876170Y-124828245D01*
G75*
G02*
X326726170Y-124678245I0J150000D01*
G01*
G37*
G36*
G01*
X326226170Y-124678245D02*
X326226170Y-123503245D01*
G75*
G02*
X326376170Y-123353245I150000J0D01*
G01*
X326376170Y-123353245D01*
G75*
G02*
X326526170Y-123503245I0J-150000D01*
G01*
X326526170Y-124678245D01*
G75*
G02*
X326376170Y-124828245I-150000J0D01*
G01*
X326376170Y-124828245D01*
G75*
G02*
X326226170Y-124678245I0J150000D01*
G01*
G37*
G36*
G01*
X325726170Y-124678245D02*
X325726170Y-123503245D01*
G75*
G02*
X325876170Y-123353245I150000J0D01*
G01*
X325876170Y-123353245D01*
G75*
G02*
X326026170Y-123503245I0J-150000D01*
G01*
X326026170Y-124678245D01*
G75*
G02*
X325876170Y-124828245I-150000J0D01*
G01*
X325876170Y-124828245D01*
G75*
G02*
X325726170Y-124678245I0J150000D01*
G01*
G37*
G36*
G01*
X325226170Y-124678245D02*
X325226170Y-123503245D01*
G75*
G02*
X325376170Y-123353245I150000J0D01*
G01*
X325376170Y-123353245D01*
G75*
G02*
X325526170Y-123503245I0J-150000D01*
G01*
X325526170Y-124678245D01*
G75*
G02*
X325376170Y-124828245I-150000J0D01*
G01*
X325376170Y-124828245D01*
G75*
G02*
X325226170Y-124678245I0J150000D01*
G01*
G37*
G36*
G01*
X324726170Y-124678245D02*
X324726170Y-123503245D01*
G75*
G02*
X324876170Y-123353245I150000J0D01*
G01*
X324876170Y-123353245D01*
G75*
G02*
X325026170Y-123503245I0J-150000D01*
G01*
X325026170Y-124678245D01*
G75*
G02*
X324876170Y-124828245I-150000J0D01*
G01*
X324876170Y-124828245D01*
G75*
G02*
X324726170Y-124678245I0J150000D01*
G01*
G37*
G36*
G01*
X324226170Y-124678245D02*
X324226170Y-123503245D01*
G75*
G02*
X324376170Y-123353245I150000J0D01*
G01*
X324376170Y-123353245D01*
G75*
G02*
X324526170Y-123503245I0J-150000D01*
G01*
X324526170Y-124678245D01*
G75*
G02*
X324376170Y-124828245I-150000J0D01*
G01*
X324376170Y-124828245D01*
G75*
G02*
X324226170Y-124678245I0J150000D01*
G01*
G37*
G36*
G01*
X322226170Y-122678245D02*
X322226170Y-122678245D01*
G75*
G02*
X322376170Y-122528245I150000J0D01*
G01*
X323551170Y-122528245D01*
G75*
G02*
X323701170Y-122678245I0J-150000D01*
G01*
X323701170Y-122678245D01*
G75*
G02*
X323551170Y-122828245I-150000J0D01*
G01*
X322376170Y-122828245D01*
G75*
G02*
X322226170Y-122678245I0J150000D01*
G01*
G37*
G36*
G01*
X322226170Y-122178245D02*
X322226170Y-122178245D01*
G75*
G02*
X322376170Y-122028245I150000J0D01*
G01*
X323551170Y-122028245D01*
G75*
G02*
X323701170Y-122178245I0J-150000D01*
G01*
X323701170Y-122178245D01*
G75*
G02*
X323551170Y-122328245I-150000J0D01*
G01*
X322376170Y-122328245D01*
G75*
G02*
X322226170Y-122178245I0J150000D01*
G01*
G37*
G36*
G01*
X322226170Y-121678245D02*
X322226170Y-121678245D01*
G75*
G02*
X322376170Y-121528245I150000J0D01*
G01*
X323551170Y-121528245D01*
G75*
G02*
X323701170Y-121678245I0J-150000D01*
G01*
X323701170Y-121678245D01*
G75*
G02*
X323551170Y-121828245I-150000J0D01*
G01*
X322376170Y-121828245D01*
G75*
G02*
X322226170Y-121678245I0J150000D01*
G01*
G37*
G36*
G01*
X322226170Y-121178245D02*
X322226170Y-121178245D01*
G75*
G02*
X322376170Y-121028245I150000J0D01*
G01*
X323551170Y-121028245D01*
G75*
G02*
X323701170Y-121178245I0J-150000D01*
G01*
X323701170Y-121178245D01*
G75*
G02*
X323551170Y-121328245I-150000J0D01*
G01*
X322376170Y-121328245D01*
G75*
G02*
X322226170Y-121178245I0J150000D01*
G01*
G37*
G36*
G01*
X322226170Y-120678245D02*
X322226170Y-120678245D01*
G75*
G02*
X322376170Y-120528245I150000J0D01*
G01*
X323551170Y-120528245D01*
G75*
G02*
X323701170Y-120678245I0J-150000D01*
G01*
X323701170Y-120678245D01*
G75*
G02*
X323551170Y-120828245I-150000J0D01*
G01*
X322376170Y-120828245D01*
G75*
G02*
X322226170Y-120678245I0J150000D01*
G01*
G37*
G36*
G01*
X322226170Y-120178245D02*
X322226170Y-120178245D01*
G75*
G02*
X322376170Y-120028245I150000J0D01*
G01*
X323551170Y-120028245D01*
G75*
G02*
X323701170Y-120178245I0J-150000D01*
G01*
X323701170Y-120178245D01*
G75*
G02*
X323551170Y-120328245I-150000J0D01*
G01*
X322376170Y-120328245D01*
G75*
G02*
X322226170Y-120178245I0J150000D01*
G01*
G37*
G36*
G01*
X322226170Y-119678245D02*
X322226170Y-119678245D01*
G75*
G02*
X322376170Y-119528245I150000J0D01*
G01*
X323551170Y-119528245D01*
G75*
G02*
X323701170Y-119678245I0J-150000D01*
G01*
X323701170Y-119678245D01*
G75*
G02*
X323551170Y-119828245I-150000J0D01*
G01*
X322376170Y-119828245D01*
G75*
G02*
X322226170Y-119678245I0J150000D01*
G01*
G37*
G36*
G01*
X322226170Y-119178245D02*
X322226170Y-119178245D01*
G75*
G02*
X322376170Y-119028245I150000J0D01*
G01*
X323551170Y-119028245D01*
G75*
G02*
X323701170Y-119178245I0J-150000D01*
G01*
X323701170Y-119178245D01*
G75*
G02*
X323551170Y-119328245I-150000J0D01*
G01*
X322376170Y-119328245D01*
G75*
G02*
X322226170Y-119178245I0J150000D01*
G01*
G37*
G36*
G01*
X322226170Y-118678245D02*
X322226170Y-118678245D01*
G75*
G02*
X322376170Y-118528245I150000J0D01*
G01*
X323551170Y-118528245D01*
G75*
G02*
X323701170Y-118678245I0J-150000D01*
G01*
X323701170Y-118678245D01*
G75*
G02*
X323551170Y-118828245I-150000J0D01*
G01*
X322376170Y-118828245D01*
G75*
G02*
X322226170Y-118678245I0J150000D01*
G01*
G37*
G36*
G01*
X322226170Y-118178245D02*
X322226170Y-118178245D01*
G75*
G02*
X322376170Y-118028245I150000J0D01*
G01*
X323551170Y-118028245D01*
G75*
G02*
X323701170Y-118178245I0J-150000D01*
G01*
X323701170Y-118178245D01*
G75*
G02*
X323551170Y-118328245I-150000J0D01*
G01*
X322376170Y-118328245D01*
G75*
G02*
X322226170Y-118178245I0J150000D01*
G01*
G37*
G36*
G01*
X322226170Y-117678245D02*
X322226170Y-117678245D01*
G75*
G02*
X322376170Y-117528245I150000J0D01*
G01*
X323551170Y-117528245D01*
G75*
G02*
X323701170Y-117678245I0J-150000D01*
G01*
X323701170Y-117678245D01*
G75*
G02*
X323551170Y-117828245I-150000J0D01*
G01*
X322376170Y-117828245D01*
G75*
G02*
X322226170Y-117678245I0J150000D01*
G01*
G37*
D11*
X322963670Y-117178245D03*
G36*
G01*
X348032500Y-97603125D02*
X347520000Y-97603125D01*
G75*
G02*
X347301250Y-97384375I0J218750D01*
G01*
X347301250Y-96946875D01*
G75*
G02*
X347520000Y-96728125I218750J0D01*
G01*
X348032500Y-96728125D01*
G75*
G02*
X348251250Y-96946875I0J-218750D01*
G01*
X348251250Y-97384375D01*
G75*
G02*
X348032500Y-97603125I-218750J0D01*
G01*
G37*
G36*
G01*
X348032500Y-99178125D02*
X347520000Y-99178125D01*
G75*
G02*
X347301250Y-98959375I0J218750D01*
G01*
X347301250Y-98521875D01*
G75*
G02*
X347520000Y-98303125I218750J0D01*
G01*
X348032500Y-98303125D01*
G75*
G02*
X348251250Y-98521875I0J-218750D01*
G01*
X348251250Y-98959375D01*
G75*
G02*
X348032500Y-99178125I-218750J0D01*
G01*
G37*
G36*
G01*
X346026250Y-95953125D02*
X345326250Y-95953125D01*
G75*
G02*
X345076250Y-95703125I0J250000D01*
G01*
X345076250Y-95203125D01*
G75*
G02*
X345326250Y-94953125I250000J0D01*
G01*
X346026250Y-94953125D01*
G75*
G02*
X346276250Y-95203125I0J-250000D01*
G01*
X346276250Y-95703125D01*
G75*
G02*
X346026250Y-95953125I-250000J0D01*
G01*
G37*
G36*
G01*
X346026250Y-99253125D02*
X345326250Y-99253125D01*
G75*
G02*
X345076250Y-99003125I0J250000D01*
G01*
X345076250Y-98503125D01*
G75*
G02*
X345326250Y-98253125I250000J0D01*
G01*
X346026250Y-98253125D01*
G75*
G02*
X346276250Y-98503125I0J-250000D01*
G01*
X346276250Y-99003125D01*
G75*
G02*
X346026250Y-99253125I-250000J0D01*
G01*
G37*
G36*
G01*
X333362250Y-156875125D02*
X333362250Y-155625125D01*
G75*
G02*
X333612250Y-155375125I250000J0D01*
G01*
X334537250Y-155375125D01*
G75*
G02*
X334787250Y-155625125I0J-250000D01*
G01*
X334787250Y-156875125D01*
G75*
G02*
X334537250Y-157125125I-250000J0D01*
G01*
X333612250Y-157125125D01*
G75*
G02*
X333362250Y-156875125I0J250000D01*
G01*
G37*
G36*
G01*
X330387250Y-156875125D02*
X330387250Y-155625125D01*
G75*
G02*
X330637250Y-155375125I250000J0D01*
G01*
X331562250Y-155375125D01*
G75*
G02*
X331812250Y-155625125I0J-250000D01*
G01*
X331812250Y-156875125D01*
G75*
G02*
X331562250Y-157125125I-250000J0D01*
G01*
X330637250Y-157125125D01*
G75*
G02*
X330387250Y-156875125I0J250000D01*
G01*
G37*
G36*
G01*
X311100500Y-142732600D02*
X311100500Y-143982600D01*
G75*
G02*
X310850500Y-144232600I-250000J0D01*
G01*
X309925500Y-144232600D01*
G75*
G02*
X309675500Y-143982600I0J250000D01*
G01*
X309675500Y-142732600D01*
G75*
G02*
X309925500Y-142482600I250000J0D01*
G01*
X310850500Y-142482600D01*
G75*
G02*
X311100500Y-142732600I0J-250000D01*
G01*
G37*
G36*
G01*
X314075500Y-142732600D02*
X314075500Y-143982600D01*
G75*
G02*
X313825500Y-144232600I-250000J0D01*
G01*
X312900500Y-144232600D01*
G75*
G02*
X312650500Y-143982600I0J250000D01*
G01*
X312650500Y-142732600D01*
G75*
G02*
X312900500Y-142482600I250000J0D01*
G01*
X313825500Y-142482600D01*
G75*
G02*
X314075500Y-142732600I0J-250000D01*
G01*
G37*
G36*
G01*
X331457250Y-100233125D02*
X331457250Y-98983125D01*
G75*
G02*
X331707250Y-98733125I250000J0D01*
G01*
X332632250Y-98733125D01*
G75*
G02*
X332882250Y-98983125I0J-250000D01*
G01*
X332882250Y-100233125D01*
G75*
G02*
X332632250Y-100483125I-250000J0D01*
G01*
X331707250Y-100483125D01*
G75*
G02*
X331457250Y-100233125I0J250000D01*
G01*
G37*
G36*
G01*
X328482250Y-100233125D02*
X328482250Y-98983125D01*
G75*
G02*
X328732250Y-98733125I250000J0D01*
G01*
X329657250Y-98733125D01*
G75*
G02*
X329907250Y-98983125I0J-250000D01*
G01*
X329907250Y-100233125D01*
G75*
G02*
X329657250Y-100483125I-250000J0D01*
G01*
X328732250Y-100483125D01*
G75*
G02*
X328482250Y-100233125I0J250000D01*
G01*
G37*
G36*
G01*
X88650170Y-143700215D02*
X89350170Y-143700215D01*
G75*
G02*
X89600170Y-143950215I0J-250000D01*
G01*
X89600170Y-144450215D01*
G75*
G02*
X89350170Y-144700215I-250000J0D01*
G01*
X88650170Y-144700215D01*
G75*
G02*
X88400170Y-144450215I0J250000D01*
G01*
X88400170Y-143950215D01*
G75*
G02*
X88650170Y-143700215I250000J0D01*
G01*
G37*
G36*
G01*
X88650170Y-140400215D02*
X89350170Y-140400215D01*
G75*
G02*
X89600170Y-140650215I0J-250000D01*
G01*
X89600170Y-141150215D01*
G75*
G02*
X89350170Y-141400215I-250000J0D01*
G01*
X88650170Y-141400215D01*
G75*
G02*
X88400170Y-141150215I0J250000D01*
G01*
X88400170Y-140650215D01*
G75*
G02*
X88650170Y-140400215I250000J0D01*
G01*
G37*
G36*
G01*
X121366800Y-145422000D02*
X122066800Y-145422000D01*
G75*
G02*
X122316800Y-145672000I0J-250000D01*
G01*
X122316800Y-146172000D01*
G75*
G02*
X122066800Y-146422000I-250000J0D01*
G01*
X121366800Y-146422000D01*
G75*
G02*
X121116800Y-146172000I0J250000D01*
G01*
X121116800Y-145672000D01*
G75*
G02*
X121366800Y-145422000I250000J0D01*
G01*
G37*
G36*
G01*
X121366800Y-142122000D02*
X122066800Y-142122000D01*
G75*
G02*
X122316800Y-142372000I0J-250000D01*
G01*
X122316800Y-142872000D01*
G75*
G02*
X122066800Y-143122000I-250000J0D01*
G01*
X121366800Y-143122000D01*
G75*
G02*
X121116800Y-142872000I0J250000D01*
G01*
X121116800Y-142372000D01*
G75*
G02*
X121366800Y-142122000I250000J0D01*
G01*
G37*
G36*
G01*
X318566250Y-119925625D02*
X318566250Y-119580625D01*
G75*
G02*
X318713750Y-119433125I147500J0D01*
G01*
X319008750Y-119433125D01*
G75*
G02*
X319156250Y-119580625I0J-147500D01*
G01*
X319156250Y-119925625D01*
G75*
G02*
X319008750Y-120073125I-147500J0D01*
G01*
X318713750Y-120073125D01*
G75*
G02*
X318566250Y-119925625I0J147500D01*
G01*
G37*
G36*
G01*
X317596250Y-119925625D02*
X317596250Y-119580625D01*
G75*
G02*
X317743750Y-119433125I147500J0D01*
G01*
X318038750Y-119433125D01*
G75*
G02*
X318186250Y-119580625I0J-147500D01*
G01*
X318186250Y-119925625D01*
G75*
G02*
X318038750Y-120073125I-147500J0D01*
G01*
X317743750Y-120073125D01*
G75*
G02*
X317596250Y-119925625I0J147500D01*
G01*
G37*
G36*
G01*
X318566250Y-121125625D02*
X318566250Y-120780625D01*
G75*
G02*
X318713750Y-120633125I147500J0D01*
G01*
X319008750Y-120633125D01*
G75*
G02*
X319156250Y-120780625I0J-147500D01*
G01*
X319156250Y-121125625D01*
G75*
G02*
X319008750Y-121273125I-147500J0D01*
G01*
X318713750Y-121273125D01*
G75*
G02*
X318566250Y-121125625I0J147500D01*
G01*
G37*
G36*
G01*
X317596250Y-121125625D02*
X317596250Y-120780625D01*
G75*
G02*
X317743750Y-120633125I147500J0D01*
G01*
X318038750Y-120633125D01*
G75*
G02*
X318186250Y-120780625I0J-147500D01*
G01*
X318186250Y-121125625D01*
G75*
G02*
X318038750Y-121273125I-147500J0D01*
G01*
X317743750Y-121273125D01*
G75*
G02*
X317596250Y-121125625I0J147500D01*
G01*
G37*
G36*
G01*
X333386250Y-116980625D02*
X333386250Y-117325625D01*
G75*
G02*
X333238750Y-117473125I-147500J0D01*
G01*
X332943750Y-117473125D01*
G75*
G02*
X332796250Y-117325625I0J147500D01*
G01*
X332796250Y-116980625D01*
G75*
G02*
X332943750Y-116833125I147500J0D01*
G01*
X333238750Y-116833125D01*
G75*
G02*
X333386250Y-116980625I0J-147500D01*
G01*
G37*
G36*
G01*
X334356250Y-116980625D02*
X334356250Y-117325625D01*
G75*
G02*
X334208750Y-117473125I-147500J0D01*
G01*
X333913750Y-117473125D01*
G75*
G02*
X333766250Y-117325625I0J147500D01*
G01*
X333766250Y-116980625D01*
G75*
G02*
X333913750Y-116833125I147500J0D01*
G01*
X334208750Y-116833125D01*
G75*
G02*
X334356250Y-116980625I0J-147500D01*
G01*
G37*
G36*
G01*
X333401250Y-115880625D02*
X333401250Y-116225625D01*
G75*
G02*
X333253750Y-116373125I-147500J0D01*
G01*
X332958750Y-116373125D01*
G75*
G02*
X332811250Y-116225625I0J147500D01*
G01*
X332811250Y-115880625D01*
G75*
G02*
X332958750Y-115733125I147500J0D01*
G01*
X333253750Y-115733125D01*
G75*
G02*
X333401250Y-115880625I0J-147500D01*
G01*
G37*
G36*
G01*
X334371250Y-115880625D02*
X334371250Y-116225625D01*
G75*
G02*
X334223750Y-116373125I-147500J0D01*
G01*
X333928750Y-116373125D01*
G75*
G02*
X333781250Y-116225625I0J147500D01*
G01*
X333781250Y-115880625D01*
G75*
G02*
X333928750Y-115733125I147500J0D01*
G01*
X334223750Y-115733125D01*
G75*
G02*
X334371250Y-115880625I0J-147500D01*
G01*
G37*
G36*
G01*
X331186250Y-125080625D02*
X331186250Y-125425625D01*
G75*
G02*
X331038750Y-125573125I-147500J0D01*
G01*
X330743750Y-125573125D01*
G75*
G02*
X330596250Y-125425625I0J147500D01*
G01*
X330596250Y-125080625D01*
G75*
G02*
X330743750Y-124933125I147500J0D01*
G01*
X331038750Y-124933125D01*
G75*
G02*
X331186250Y-125080625I0J-147500D01*
G01*
G37*
G36*
G01*
X332156250Y-125080625D02*
X332156250Y-125425625D01*
G75*
G02*
X332008750Y-125573125I-147500J0D01*
G01*
X331713750Y-125573125D01*
G75*
G02*
X331566250Y-125425625I0J147500D01*
G01*
X331566250Y-125080625D01*
G75*
G02*
X331713750Y-124933125I147500J0D01*
G01*
X332008750Y-124933125D01*
G75*
G02*
X332156250Y-125080625I0J-147500D01*
G01*
G37*
G36*
G01*
X331186250Y-123980625D02*
X331186250Y-124325625D01*
G75*
G02*
X331038750Y-124473125I-147500J0D01*
G01*
X330743750Y-124473125D01*
G75*
G02*
X330596250Y-124325625I0J147500D01*
G01*
X330596250Y-123980625D01*
G75*
G02*
X330743750Y-123833125I147500J0D01*
G01*
X331038750Y-123833125D01*
G75*
G02*
X331186250Y-123980625I0J-147500D01*
G01*
G37*
G36*
G01*
X332156250Y-123980625D02*
X332156250Y-124325625D01*
G75*
G02*
X332008750Y-124473125I-147500J0D01*
G01*
X331713750Y-124473125D01*
G75*
G02*
X331566250Y-124325625I0J147500D01*
G01*
X331566250Y-123980625D01*
G75*
G02*
X331713750Y-123833125I147500J0D01*
G01*
X332008750Y-123833125D01*
G75*
G02*
X332156250Y-123980625I0J-147500D01*
G01*
G37*
G36*
G01*
X321456750Y-116205125D02*
X321111750Y-116205125D01*
G75*
G02*
X320964250Y-116057625I0J147500D01*
G01*
X320964250Y-115762625D01*
G75*
G02*
X321111750Y-115615125I147500J0D01*
G01*
X321456750Y-115615125D01*
G75*
G02*
X321604250Y-115762625I0J-147500D01*
G01*
X321604250Y-116057625D01*
G75*
G02*
X321456750Y-116205125I-147500J0D01*
G01*
G37*
G36*
G01*
X321456750Y-117175125D02*
X321111750Y-117175125D01*
G75*
G02*
X320964250Y-117027625I0J147500D01*
G01*
X320964250Y-116732625D01*
G75*
G02*
X321111750Y-116585125I147500J0D01*
G01*
X321456750Y-116585125D01*
G75*
G02*
X321604250Y-116732625I0J-147500D01*
G01*
X321604250Y-117027625D01*
G75*
G02*
X321456750Y-117175125I-147500J0D01*
G01*
G37*
G36*
G01*
X322139250Y-114744625D02*
X322139250Y-114399625D01*
G75*
G02*
X322286750Y-114252125I147500J0D01*
G01*
X322581750Y-114252125D01*
G75*
G02*
X322729250Y-114399625I0J-147500D01*
G01*
X322729250Y-114744625D01*
G75*
G02*
X322581750Y-114892125I-147500J0D01*
G01*
X322286750Y-114892125D01*
G75*
G02*
X322139250Y-114744625I0J147500D01*
G01*
G37*
G36*
G01*
X321169250Y-114744625D02*
X321169250Y-114399625D01*
G75*
G02*
X321316750Y-114252125I147500J0D01*
G01*
X321611750Y-114252125D01*
G75*
G02*
X321759250Y-114399625I0J-147500D01*
G01*
X321759250Y-114744625D01*
G75*
G02*
X321611750Y-114892125I-147500J0D01*
G01*
X321316750Y-114892125D01*
G75*
G02*
X321169250Y-114744625I0J147500D01*
G01*
G37*
G36*
G01*
X260233231Y-150908085D02*
X259333229Y-150908085D01*
G75*
G02*
X259083230Y-150658086I0J249999D01*
G01*
X259083230Y-150008084D01*
G75*
G02*
X259333229Y-149758085I249999J0D01*
G01*
X260233231Y-149758085D01*
G75*
G02*
X260483230Y-150008084I0J-249999D01*
G01*
X260483230Y-150658086D01*
G75*
G02*
X260233231Y-150908085I-249999J0D01*
G01*
G37*
G36*
G01*
X260233231Y-152958085D02*
X259333229Y-152958085D01*
G75*
G02*
X259083230Y-152708086I0J249999D01*
G01*
X259083230Y-152058084D01*
G75*
G02*
X259333229Y-151808085I249999J0D01*
G01*
X260233231Y-151808085D01*
G75*
G02*
X260483230Y-152058084I0J-249999D01*
G01*
X260483230Y-152708086D01*
G75*
G02*
X260233231Y-152958085I-249999J0D01*
G01*
G37*
G36*
G01*
X238411599Y-150919600D02*
X239311601Y-150919600D01*
G75*
G02*
X239561600Y-151169599I0J-249999D01*
G01*
X239561600Y-151819601D01*
G75*
G02*
X239311601Y-152069600I-249999J0D01*
G01*
X238411599Y-152069600D01*
G75*
G02*
X238161600Y-151819601I0J249999D01*
G01*
X238161600Y-151169599D01*
G75*
G02*
X238411599Y-150919600I249999J0D01*
G01*
G37*
G36*
G01*
X238411599Y-148869600D02*
X239311601Y-148869600D01*
G75*
G02*
X239561600Y-149119599I0J-249999D01*
G01*
X239561600Y-149769601D01*
G75*
G02*
X239311601Y-150019600I-249999J0D01*
G01*
X238411599Y-150019600D01*
G75*
G02*
X238161600Y-149769601I0J249999D01*
G01*
X238161600Y-149119599D01*
G75*
G02*
X238411599Y-148869600I249999J0D01*
G01*
G37*
G36*
G01*
X317132500Y-86603125D02*
X316220000Y-86603125D01*
G75*
G02*
X315976250Y-86359375I0J243750D01*
G01*
X315976250Y-85871875D01*
G75*
G02*
X316220000Y-85628125I243750J0D01*
G01*
X317132500Y-85628125D01*
G75*
G02*
X317376250Y-85871875I0J-243750D01*
G01*
X317376250Y-86359375D01*
G75*
G02*
X317132500Y-86603125I-243750J0D01*
G01*
G37*
G36*
G01*
X317132500Y-88478125D02*
X316220000Y-88478125D01*
G75*
G02*
X315976250Y-88234375I0J243750D01*
G01*
X315976250Y-87746875D01*
G75*
G02*
X316220000Y-87503125I243750J0D01*
G01*
X317132500Y-87503125D01*
G75*
G02*
X317376250Y-87746875I0J-243750D01*
G01*
X317376250Y-88234375D01*
G75*
G02*
X317132500Y-88478125I-243750J0D01*
G01*
G37*
G36*
G01*
X313276400Y-146601601D02*
X313276400Y-145701599D01*
G75*
G02*
X313526399Y-145451600I249999J0D01*
G01*
X314176401Y-145451600D01*
G75*
G02*
X314426400Y-145701599I0J-249999D01*
G01*
X314426400Y-146601601D01*
G75*
G02*
X314176401Y-146851600I-249999J0D01*
G01*
X313526399Y-146851600D01*
G75*
G02*
X313276400Y-146601601I0J249999D01*
G01*
G37*
G36*
G01*
X311226400Y-146601601D02*
X311226400Y-145701599D01*
G75*
G02*
X311476399Y-145451600I249999J0D01*
G01*
X312126401Y-145451600D01*
G75*
G02*
X312376400Y-145701599I0J-249999D01*
G01*
X312376400Y-146601601D01*
G75*
G02*
X312126401Y-146851600I-249999J0D01*
G01*
X311476399Y-146851600D01*
G75*
G02*
X311226400Y-146601601I0J249999D01*
G01*
G37*
G36*
G01*
X312260400Y-154170801D02*
X312260400Y-153270799D01*
G75*
G02*
X312510399Y-153020800I249999J0D01*
G01*
X313160401Y-153020800D01*
G75*
G02*
X313410400Y-153270799I0J-249999D01*
G01*
X313410400Y-154170801D01*
G75*
G02*
X313160401Y-154420800I-249999J0D01*
G01*
X312510399Y-154420800D01*
G75*
G02*
X312260400Y-154170801I0J249999D01*
G01*
G37*
G36*
G01*
X310210400Y-154170801D02*
X310210400Y-153270799D01*
G75*
G02*
X310460399Y-153020800I249999J0D01*
G01*
X311110401Y-153020800D01*
G75*
G02*
X311360400Y-153270799I0J-249999D01*
G01*
X311360400Y-154170801D01*
G75*
G02*
X311110401Y-154420800I-249999J0D01*
G01*
X310460399Y-154420800D01*
G75*
G02*
X310210400Y-154170801I0J249999D01*
G01*
G37*
G36*
G01*
X339426251Y-97503125D02*
X338526249Y-97503125D01*
G75*
G02*
X338276250Y-97253126I0J249999D01*
G01*
X338276250Y-96603124D01*
G75*
G02*
X338526249Y-96353125I249999J0D01*
G01*
X339426251Y-96353125D01*
G75*
G02*
X339676250Y-96603124I0J-249999D01*
G01*
X339676250Y-97253126D01*
G75*
G02*
X339426251Y-97503125I-249999J0D01*
G01*
G37*
G36*
G01*
X339426251Y-99553125D02*
X338526249Y-99553125D01*
G75*
G02*
X338276250Y-99303126I0J249999D01*
G01*
X338276250Y-98653124D01*
G75*
G02*
X338526249Y-98403125I249999J0D01*
G01*
X339426251Y-98403125D01*
G75*
G02*
X339676250Y-98653124I0J-249999D01*
G01*
X339676250Y-99303126D01*
G75*
G02*
X339426251Y-99553125I-249999J0D01*
G01*
G37*
G36*
G01*
X351526250Y-94003125D02*
X350826250Y-94003125D01*
G75*
G02*
X350576250Y-93753125I0J250000D01*
G01*
X350576250Y-93253125D01*
G75*
G02*
X350826250Y-93003125I250000J0D01*
G01*
X351526250Y-93003125D01*
G75*
G02*
X351776250Y-93253125I0J-250000D01*
G01*
X351776250Y-93753125D01*
G75*
G02*
X351526250Y-94003125I-250000J0D01*
G01*
G37*
G36*
G01*
X351526250Y-97303125D02*
X350826250Y-97303125D01*
G75*
G02*
X350576250Y-97053125I0J250000D01*
G01*
X350576250Y-96553125D01*
G75*
G02*
X350826250Y-96303125I250000J0D01*
G01*
X351526250Y-96303125D01*
G75*
G02*
X351776250Y-96553125I0J-250000D01*
G01*
X351776250Y-97053125D01*
G75*
G02*
X351526250Y-97303125I-250000J0D01*
G01*
G37*
G36*
G01*
X320332390Y-93775015D02*
X319632390Y-93775015D01*
G75*
G02*
X319382390Y-93525015I0J250000D01*
G01*
X319382390Y-93025015D01*
G75*
G02*
X319632390Y-92775015I250000J0D01*
G01*
X320332390Y-92775015D01*
G75*
G02*
X320582390Y-93025015I0J-250000D01*
G01*
X320582390Y-93525015D01*
G75*
G02*
X320332390Y-93775015I-250000J0D01*
G01*
G37*
G36*
G01*
X320332390Y-97075015D02*
X319632390Y-97075015D01*
G75*
G02*
X319382390Y-96825015I0J250000D01*
G01*
X319382390Y-96325015D01*
G75*
G02*
X319632390Y-96075015I250000J0D01*
G01*
X320332390Y-96075015D01*
G75*
G02*
X320582390Y-96325015I0J-250000D01*
G01*
X320582390Y-96825015D01*
G75*
G02*
X320332390Y-97075015I-250000J0D01*
G01*
G37*
G36*
G01*
X316760500Y-93775015D02*
X316060500Y-93775015D01*
G75*
G02*
X315810500Y-93525015I0J250000D01*
G01*
X315810500Y-93025015D01*
G75*
G02*
X316060500Y-92775015I250000J0D01*
G01*
X316760500Y-92775015D01*
G75*
G02*
X317010500Y-93025015I0J-250000D01*
G01*
X317010500Y-93525015D01*
G75*
G02*
X316760500Y-93775015I-250000J0D01*
G01*
G37*
G36*
G01*
X316760500Y-97075015D02*
X316060500Y-97075015D01*
G75*
G02*
X315810500Y-96825015I0J250000D01*
G01*
X315810500Y-96325015D01*
G75*
G02*
X316060500Y-96075015I250000J0D01*
G01*
X316760500Y-96075015D01*
G75*
G02*
X317010500Y-96325015I0J-250000D01*
G01*
X317010500Y-96825015D01*
G75*
G02*
X316760500Y-97075015I-250000J0D01*
G01*
G37*
G36*
G01*
X298901050Y-93775015D02*
X298201050Y-93775015D01*
G75*
G02*
X297951050Y-93525015I0J250000D01*
G01*
X297951050Y-93025015D01*
G75*
G02*
X298201050Y-92775015I250000J0D01*
G01*
X298901050Y-92775015D01*
G75*
G02*
X299151050Y-93025015I0J-250000D01*
G01*
X299151050Y-93525015D01*
G75*
G02*
X298901050Y-93775015I-250000J0D01*
G01*
G37*
G36*
G01*
X298901050Y-97075015D02*
X298201050Y-97075015D01*
G75*
G02*
X297951050Y-96825015I0J250000D01*
G01*
X297951050Y-96325015D01*
G75*
G02*
X298201050Y-96075015I250000J0D01*
G01*
X298901050Y-96075015D01*
G75*
G02*
X299151050Y-96325015I0J-250000D01*
G01*
X299151050Y-96825015D01*
G75*
G02*
X298901050Y-97075015I-250000J0D01*
G01*
G37*
G36*
G01*
X273526250Y-93775015D02*
X272826250Y-93775015D01*
G75*
G02*
X272576250Y-93525015I0J250000D01*
G01*
X272576250Y-93025015D01*
G75*
G02*
X272826250Y-92775015I250000J0D01*
G01*
X273526250Y-92775015D01*
G75*
G02*
X273776250Y-93025015I0J-250000D01*
G01*
X273776250Y-93525015D01*
G75*
G02*
X273526250Y-93775015I-250000J0D01*
G01*
G37*
G36*
G01*
X273526250Y-97075015D02*
X272826250Y-97075015D01*
G75*
G02*
X272576250Y-96825015I0J250000D01*
G01*
X272576250Y-96325015D01*
G75*
G02*
X272826250Y-96075015I250000J0D01*
G01*
X273526250Y-96075015D01*
G75*
G02*
X273776250Y-96325015I0J-250000D01*
G01*
X273776250Y-96825015D01*
G75*
G02*
X273526250Y-97075015I-250000J0D01*
G01*
G37*
G36*
G01*
X260800890Y-93775015D02*
X260100890Y-93775015D01*
G75*
G02*
X259850890Y-93525015I0J250000D01*
G01*
X259850890Y-93025015D01*
G75*
G02*
X260100890Y-92775015I250000J0D01*
G01*
X260800890Y-92775015D01*
G75*
G02*
X261050890Y-93025015I0J-250000D01*
G01*
X261050890Y-93525015D01*
G75*
G02*
X260800890Y-93775015I-250000J0D01*
G01*
G37*
G36*
G01*
X260800890Y-97075015D02*
X260100890Y-97075015D01*
G75*
G02*
X259850890Y-96825015I0J250000D01*
G01*
X259850890Y-96325015D01*
G75*
G02*
X260100890Y-96075015I250000J0D01*
G01*
X260800890Y-96075015D01*
G75*
G02*
X261050890Y-96325015I0J-250000D01*
G01*
X261050890Y-96825015D01*
G75*
G02*
X260800890Y-97075015I-250000J0D01*
G01*
G37*
G36*
G01*
X241750810Y-93775015D02*
X241050810Y-93775015D01*
G75*
G02*
X240800810Y-93525015I0J250000D01*
G01*
X240800810Y-93025015D01*
G75*
G02*
X241050810Y-92775015I250000J0D01*
G01*
X241750810Y-92775015D01*
G75*
G02*
X242000810Y-93025015I0J-250000D01*
G01*
X242000810Y-93525015D01*
G75*
G02*
X241750810Y-93775015I-250000J0D01*
G01*
G37*
G36*
G01*
X241750810Y-97075015D02*
X241050810Y-97075015D01*
G75*
G02*
X240800810Y-96825015I0J250000D01*
G01*
X240800810Y-96325015D01*
G75*
G02*
X241050810Y-96075015I250000J0D01*
G01*
X241750810Y-96075015D01*
G75*
G02*
X242000810Y-96325015I0J-250000D01*
G01*
X242000810Y-96825015D01*
G75*
G02*
X241750810Y-97075015I-250000J0D01*
G01*
G37*
G36*
G01*
X222700730Y-93775015D02*
X222000730Y-93775015D01*
G75*
G02*
X221750730Y-93525015I0J250000D01*
G01*
X221750730Y-93025015D01*
G75*
G02*
X222000730Y-92775015I250000J0D01*
G01*
X222700730Y-92775015D01*
G75*
G02*
X222950730Y-93025015I0J-250000D01*
G01*
X222950730Y-93525015D01*
G75*
G02*
X222700730Y-93775015I-250000J0D01*
G01*
G37*
G36*
G01*
X222700730Y-97075015D02*
X222000730Y-97075015D01*
G75*
G02*
X221750730Y-96825015I0J250000D01*
G01*
X221750730Y-96325015D01*
G75*
G02*
X222000730Y-96075015I250000J0D01*
G01*
X222700730Y-96075015D01*
G75*
G02*
X222950730Y-96325015I0J-250000D01*
G01*
X222950730Y-96825015D01*
G75*
G02*
X222700730Y-97075015I-250000J0D01*
G01*
G37*
G36*
G01*
X203650650Y-93775015D02*
X202950650Y-93775015D01*
G75*
G02*
X202700650Y-93525015I0J250000D01*
G01*
X202700650Y-93025015D01*
G75*
G02*
X202950650Y-92775015I250000J0D01*
G01*
X203650650Y-92775015D01*
G75*
G02*
X203900650Y-93025015I0J-250000D01*
G01*
X203900650Y-93525015D01*
G75*
G02*
X203650650Y-93775015I-250000J0D01*
G01*
G37*
G36*
G01*
X203650650Y-97075015D02*
X202950650Y-97075015D01*
G75*
G02*
X202700650Y-96825015I0J250000D01*
G01*
X202700650Y-96325015D01*
G75*
G02*
X202950650Y-96075015I250000J0D01*
G01*
X203650650Y-96075015D01*
G75*
G02*
X203900650Y-96325015I0J-250000D01*
G01*
X203900650Y-96825015D01*
G75*
G02*
X203650650Y-97075015I-250000J0D01*
G01*
G37*
G36*
G01*
X184600570Y-93775015D02*
X183900570Y-93775015D01*
G75*
G02*
X183650570Y-93525015I0J250000D01*
G01*
X183650570Y-93025015D01*
G75*
G02*
X183900570Y-92775015I250000J0D01*
G01*
X184600570Y-92775015D01*
G75*
G02*
X184850570Y-93025015I0J-250000D01*
G01*
X184850570Y-93525015D01*
G75*
G02*
X184600570Y-93775015I-250000J0D01*
G01*
G37*
G36*
G01*
X184600570Y-97075015D02*
X183900570Y-97075015D01*
G75*
G02*
X183650570Y-96825015I0J250000D01*
G01*
X183650570Y-96325015D01*
G75*
G02*
X183900570Y-96075015I250000J0D01*
G01*
X184600570Y-96075015D01*
G75*
G02*
X184850570Y-96325015I0J-250000D01*
G01*
X184850570Y-96825015D01*
G75*
G02*
X184600570Y-97075015I-250000J0D01*
G01*
G37*
G36*
G01*
X165550490Y-93775015D02*
X164850490Y-93775015D01*
G75*
G02*
X164600490Y-93525015I0J250000D01*
G01*
X164600490Y-93025015D01*
G75*
G02*
X164850490Y-92775015I250000J0D01*
G01*
X165550490Y-92775015D01*
G75*
G02*
X165800490Y-93025015I0J-250000D01*
G01*
X165800490Y-93525015D01*
G75*
G02*
X165550490Y-93775015I-250000J0D01*
G01*
G37*
G36*
G01*
X165550490Y-97075015D02*
X164850490Y-97075015D01*
G75*
G02*
X164600490Y-96825015I0J250000D01*
G01*
X164600490Y-96325015D01*
G75*
G02*
X164850490Y-96075015I250000J0D01*
G01*
X165550490Y-96075015D01*
G75*
G02*
X165800490Y-96325015I0J-250000D01*
G01*
X165800490Y-96825015D01*
G75*
G02*
X165550490Y-97075015I-250000J0D01*
G01*
G37*
G36*
G01*
X141737890Y-93775015D02*
X141037890Y-93775015D01*
G75*
G02*
X140787890Y-93525015I0J250000D01*
G01*
X140787890Y-93025015D01*
G75*
G02*
X141037890Y-92775015I250000J0D01*
G01*
X141737890Y-92775015D01*
G75*
G02*
X141987890Y-93025015I0J-250000D01*
G01*
X141987890Y-93525015D01*
G75*
G02*
X141737890Y-93775015I-250000J0D01*
G01*
G37*
G36*
G01*
X141737890Y-97075015D02*
X141037890Y-97075015D01*
G75*
G02*
X140787890Y-96825015I0J250000D01*
G01*
X140787890Y-96325015D01*
G75*
G02*
X141037890Y-96075015I250000J0D01*
G01*
X141737890Y-96075015D01*
G75*
G02*
X141987890Y-96325015I0J-250000D01*
G01*
X141987890Y-96825015D01*
G75*
G02*
X141737890Y-97075015I-250000J0D01*
G01*
G37*
G36*
G01*
X127450330Y-93775015D02*
X126750330Y-93775015D01*
G75*
G02*
X126500330Y-93525015I0J250000D01*
G01*
X126500330Y-93025015D01*
G75*
G02*
X126750330Y-92775015I250000J0D01*
G01*
X127450330Y-92775015D01*
G75*
G02*
X127700330Y-93025015I0J-250000D01*
G01*
X127700330Y-93525015D01*
G75*
G02*
X127450330Y-93775015I-250000J0D01*
G01*
G37*
G36*
G01*
X127450330Y-97075015D02*
X126750330Y-97075015D01*
G75*
G02*
X126500330Y-96825015I0J250000D01*
G01*
X126500330Y-96325015D01*
G75*
G02*
X126750330Y-96075015I250000J0D01*
G01*
X127450330Y-96075015D01*
G75*
G02*
X127700330Y-96325015I0J-250000D01*
G01*
X127700330Y-96825015D01*
G75*
G02*
X127450330Y-97075015I-250000J0D01*
G01*
G37*
G36*
G01*
X254386250Y-153590125D02*
X255086250Y-153590125D01*
G75*
G02*
X255336250Y-153840125I0J-250000D01*
G01*
X255336250Y-154340125D01*
G75*
G02*
X255086250Y-154590125I-250000J0D01*
G01*
X254386250Y-154590125D01*
G75*
G02*
X254136250Y-154340125I0J250000D01*
G01*
X254136250Y-153840125D01*
G75*
G02*
X254386250Y-153590125I250000J0D01*
G01*
G37*
G36*
G01*
X254386250Y-150290125D02*
X255086250Y-150290125D01*
G75*
G02*
X255336250Y-150540125I0J-250000D01*
G01*
X255336250Y-151040125D01*
G75*
G02*
X255086250Y-151290125I-250000J0D01*
G01*
X254386250Y-151290125D01*
G75*
G02*
X254136250Y-151040125I0J250000D01*
G01*
X254136250Y-150540125D01*
G75*
G02*
X254386250Y-150290125I250000J0D01*
G01*
G37*
G36*
G01*
X314813200Y-151314800D02*
X315513200Y-151314800D01*
G75*
G02*
X315763200Y-151564800I0J-250000D01*
G01*
X315763200Y-152064800D01*
G75*
G02*
X315513200Y-152314800I-250000J0D01*
G01*
X314813200Y-152314800D01*
G75*
G02*
X314563200Y-152064800I0J250000D01*
G01*
X314563200Y-151564800D01*
G75*
G02*
X314813200Y-151314800I250000J0D01*
G01*
G37*
G36*
G01*
X314813200Y-148014800D02*
X315513200Y-148014800D01*
G75*
G02*
X315763200Y-148264800I0J-250000D01*
G01*
X315763200Y-148764800D01*
G75*
G02*
X315513200Y-149014800I-250000J0D01*
G01*
X314813200Y-149014800D01*
G75*
G02*
X314563200Y-148764800I0J250000D01*
G01*
X314563200Y-148264800D01*
G75*
G02*
X314813200Y-148014800I250000J0D01*
G01*
G37*
G36*
G01*
X343726251Y-95478125D02*
X340826249Y-95478125D01*
G75*
G02*
X340576250Y-95228126I0J249999D01*
G01*
X340576250Y-94603124D01*
G75*
G02*
X340826249Y-94353125I249999J0D01*
G01*
X343726251Y-94353125D01*
G75*
G02*
X343976250Y-94603124I0J-249999D01*
G01*
X343976250Y-95228126D01*
G75*
G02*
X343726251Y-95478125I-249999J0D01*
G01*
G37*
G36*
G01*
X343726251Y-99753125D02*
X340826249Y-99753125D01*
G75*
G02*
X340576250Y-99503126I0J249999D01*
G01*
X340576250Y-98878124D01*
G75*
G02*
X340826249Y-98628125I249999J0D01*
G01*
X343726251Y-98628125D01*
G75*
G02*
X343976250Y-98878124I0J-249999D01*
G01*
X343976250Y-99503126D01*
G75*
G02*
X343726251Y-99753125I-249999J0D01*
G01*
G37*
D12*
X250944790Y-151398725D03*
X252944790Y-150448725D03*
X252944790Y-152348725D03*
G36*
G01*
X331457250Y-95280125D02*
X331457250Y-94030125D01*
G75*
G02*
X331707250Y-93780125I250000J0D01*
G01*
X332632250Y-93780125D01*
G75*
G02*
X332882250Y-94030125I0J-250000D01*
G01*
X332882250Y-95280125D01*
G75*
G02*
X332632250Y-95530125I-250000J0D01*
G01*
X331707250Y-95530125D01*
G75*
G02*
X331457250Y-95280125I0J250000D01*
G01*
G37*
G36*
G01*
X328482250Y-95280125D02*
X328482250Y-94030125D01*
G75*
G02*
X328732250Y-93780125I250000J0D01*
G01*
X329657250Y-93780125D01*
G75*
G02*
X329907250Y-94030125I0J-250000D01*
G01*
X329907250Y-95280125D01*
G75*
G02*
X329657250Y-95530125I-250000J0D01*
G01*
X328732250Y-95530125D01*
G75*
G02*
X328482250Y-95280125I0J250000D01*
G01*
G37*
G36*
G01*
X256503930Y-150860545D02*
X257753930Y-150860545D01*
G75*
G02*
X258003930Y-151110545I0J-250000D01*
G01*
X258003930Y-152035545D01*
G75*
G02*
X257753930Y-152285545I-250000J0D01*
G01*
X256503930Y-152285545D01*
G75*
G02*
X256253930Y-152035545I0J250000D01*
G01*
X256253930Y-151110545D01*
G75*
G02*
X256503930Y-150860545I250000J0D01*
G01*
G37*
G36*
G01*
X256503930Y-147885545D02*
X257753930Y-147885545D01*
G75*
G02*
X258003930Y-148135545I0J-250000D01*
G01*
X258003930Y-149060545D01*
G75*
G02*
X257753930Y-149310545I-250000J0D01*
G01*
X256503930Y-149310545D01*
G75*
G02*
X256253930Y-149060545I0J250000D01*
G01*
X256253930Y-148135545D01*
G75*
G02*
X256503930Y-147885545I250000J0D01*
G01*
G37*
G36*
G01*
X318151250Y-87828125D02*
X319401250Y-87828125D01*
G75*
G02*
X319651250Y-88078125I0J-250000D01*
G01*
X319651250Y-89003125D01*
G75*
G02*
X319401250Y-89253125I-250000J0D01*
G01*
X318151250Y-89253125D01*
G75*
G02*
X317901250Y-89003125I0J250000D01*
G01*
X317901250Y-88078125D01*
G75*
G02*
X318151250Y-87828125I250000J0D01*
G01*
G37*
G36*
G01*
X318151250Y-84853125D02*
X319401250Y-84853125D01*
G75*
G02*
X319651250Y-85103125I0J-250000D01*
G01*
X319651250Y-86028125D01*
G75*
G02*
X319401250Y-86278125I-250000J0D01*
G01*
X318151250Y-86278125D01*
G75*
G02*
X317901250Y-86028125I0J250000D01*
G01*
X317901250Y-85103125D01*
G75*
G02*
X318151250Y-84853125I250000J0D01*
G01*
G37*
D13*
X248464000Y-170607600D03*
X242264000Y-170607600D03*
X248464000Y-166907600D03*
X242264000Y-166907600D03*
G36*
G01*
X335976250Y-96583125D02*
X335976250Y-96583125D01*
G75*
G02*
X335651250Y-96258125I0J325000D01*
G01*
X335651250Y-95848125D01*
G75*
G02*
X335976250Y-95523125I325000J0D01*
G01*
X335976250Y-95523125D01*
G75*
G02*
X336301250Y-95848125I0J-325000D01*
G01*
X336301250Y-96258125D01*
G75*
G02*
X335976250Y-96583125I-325000J0D01*
G01*
G37*
G36*
G01*
X335026250Y-96583125D02*
X335026250Y-96583125D01*
G75*
G02*
X334701250Y-96258125I0J325000D01*
G01*
X334701250Y-95848125D01*
G75*
G02*
X335026250Y-95523125I325000J0D01*
G01*
X335026250Y-95523125D01*
G75*
G02*
X335351250Y-95848125I0J-325000D01*
G01*
X335351250Y-96258125D01*
G75*
G02*
X335026250Y-96583125I-325000J0D01*
G01*
G37*
G36*
G01*
X336926250Y-96583125D02*
X336926250Y-96583125D01*
G75*
G02*
X336601250Y-96258125I0J325000D01*
G01*
X336601250Y-95848125D01*
G75*
G02*
X336926250Y-95523125I325000J0D01*
G01*
X336926250Y-95523125D01*
G75*
G02*
X337251250Y-95848125I0J-325000D01*
G01*
X337251250Y-96258125D01*
G75*
G02*
X336926250Y-96583125I-325000J0D01*
G01*
G37*
G36*
G01*
X336926250Y-98783125D02*
X336926250Y-98783125D01*
G75*
G02*
X336601250Y-98458125I0J325000D01*
G01*
X336601250Y-98048125D01*
G75*
G02*
X336926250Y-97723125I325000J0D01*
G01*
X336926250Y-97723125D01*
G75*
G02*
X337251250Y-98048125I0J-325000D01*
G01*
X337251250Y-98458125D01*
G75*
G02*
X336926250Y-98783125I-325000J0D01*
G01*
G37*
G36*
G01*
X335976250Y-98783125D02*
X335976250Y-98783125D01*
G75*
G02*
X335651250Y-98458125I0J325000D01*
G01*
X335651250Y-98048125D01*
G75*
G02*
X335976250Y-97723125I325000J0D01*
G01*
X335976250Y-97723125D01*
G75*
G02*
X336301250Y-98048125I0J-325000D01*
G01*
X336301250Y-98458125D01*
G75*
G02*
X335976250Y-98783125I-325000J0D01*
G01*
G37*
D14*
X335026250Y-98253125D03*
D12*
X313267600Y-150977600D03*
X311267600Y-151927600D03*
X311267600Y-150027600D03*
G36*
G01*
X106018990Y-93775015D02*
X105318990Y-93775015D01*
G75*
G02*
X105068990Y-93525015I0J250000D01*
G01*
X105068990Y-93025015D01*
G75*
G02*
X105318990Y-92775015I250000J0D01*
G01*
X106018990Y-92775015D01*
G75*
G02*
X106268990Y-93025015I0J-250000D01*
G01*
X106268990Y-93525015D01*
G75*
G02*
X106018990Y-93775015I-250000J0D01*
G01*
G37*
G36*
G01*
X106018990Y-97075015D02*
X105318990Y-97075015D01*
G75*
G02*
X105068990Y-96825015I0J250000D01*
G01*
X105068990Y-96325015D01*
G75*
G02*
X105318990Y-96075015I250000J0D01*
G01*
X106018990Y-96075015D01*
G75*
G02*
X106268990Y-96325015I0J-250000D01*
G01*
X106268990Y-96825015D01*
G75*
G02*
X106018990Y-97075015I-250000J0D01*
G01*
G37*
G36*
G01*
X333038762Y-105395301D02*
X333038762Y-104695301D01*
G75*
G02*
X333288762Y-104445301I250000J0D01*
G01*
X333788762Y-104445301D01*
G75*
G02*
X334038762Y-104695301I0J-250000D01*
G01*
X334038762Y-105395301D01*
G75*
G02*
X333788762Y-105645301I-250000J0D01*
G01*
X333288762Y-105645301D01*
G75*
G02*
X333038762Y-105395301I0J250000D01*
G01*
G37*
G36*
G01*
X329738762Y-105395301D02*
X329738762Y-104695301D01*
G75*
G02*
X329988762Y-104445301I250000J0D01*
G01*
X330488762Y-104445301D01*
G75*
G02*
X330738762Y-104695301I0J-250000D01*
G01*
X330738762Y-105395301D01*
G75*
G02*
X330488762Y-105645301I-250000J0D01*
G01*
X329988762Y-105645301D01*
G75*
G02*
X329738762Y-105395301I0J250000D01*
G01*
G37*
G36*
G01*
X324394910Y-106790685D02*
X325094910Y-106790685D01*
G75*
G02*
X325344910Y-107040685I0J-250000D01*
G01*
X325344910Y-107540685D01*
G75*
G02*
X325094910Y-107790685I-250000J0D01*
G01*
X324394910Y-107790685D01*
G75*
G02*
X324144910Y-107540685I0J250000D01*
G01*
X324144910Y-107040685D01*
G75*
G02*
X324394910Y-106790685I250000J0D01*
G01*
G37*
G36*
G01*
X324394910Y-103490685D02*
X325094910Y-103490685D01*
G75*
G02*
X325344910Y-103740685I0J-250000D01*
G01*
X325344910Y-104240685D01*
G75*
G02*
X325094910Y-104490685I-250000J0D01*
G01*
X324394910Y-104490685D01*
G75*
G02*
X324144910Y-104240685I0J250000D01*
G01*
X324144910Y-103740685D01*
G75*
G02*
X324394910Y-103490685I250000J0D01*
G01*
G37*
G36*
G01*
X307726090Y-106790685D02*
X308426090Y-106790685D01*
G75*
G02*
X308676090Y-107040685I0J-250000D01*
G01*
X308676090Y-107540685D01*
G75*
G02*
X308426090Y-107790685I-250000J0D01*
G01*
X307726090Y-107790685D01*
G75*
G02*
X307476090Y-107540685I0J250000D01*
G01*
X307476090Y-107040685D01*
G75*
G02*
X307726090Y-106790685I250000J0D01*
G01*
G37*
G36*
G01*
X307726090Y-103490685D02*
X308426090Y-103490685D01*
G75*
G02*
X308676090Y-103740685I0J-250000D01*
G01*
X308676090Y-104240685D01*
G75*
G02*
X308426090Y-104490685I-250000J0D01*
G01*
X307726090Y-104490685D01*
G75*
G02*
X307476090Y-104240685I0J250000D01*
G01*
X307476090Y-103740685D01*
G75*
G02*
X307726090Y-103490685I250000J0D01*
G01*
G37*
G36*
G01*
X288676010Y-106790685D02*
X289376010Y-106790685D01*
G75*
G02*
X289626010Y-107040685I0J-250000D01*
G01*
X289626010Y-107540685D01*
G75*
G02*
X289376010Y-107790685I-250000J0D01*
G01*
X288676010Y-107790685D01*
G75*
G02*
X288426010Y-107540685I0J250000D01*
G01*
X288426010Y-107040685D01*
G75*
G02*
X288676010Y-106790685I250000J0D01*
G01*
G37*
G36*
G01*
X288676010Y-103490685D02*
X289376010Y-103490685D01*
G75*
G02*
X289626010Y-103740685I0J-250000D01*
G01*
X289626010Y-104240685D01*
G75*
G02*
X289376010Y-104490685I-250000J0D01*
G01*
X288676010Y-104490685D01*
G75*
G02*
X288426010Y-104240685I0J250000D01*
G01*
X288426010Y-103740685D01*
G75*
G02*
X288676010Y-103490685I250000J0D01*
G01*
G37*
G36*
G01*
X269625930Y-106790685D02*
X270325930Y-106790685D01*
G75*
G02*
X270575930Y-107040685I0J-250000D01*
G01*
X270575930Y-107540685D01*
G75*
G02*
X270325930Y-107790685I-250000J0D01*
G01*
X269625930Y-107790685D01*
G75*
G02*
X269375930Y-107540685I0J250000D01*
G01*
X269375930Y-107040685D01*
G75*
G02*
X269625930Y-106790685I250000J0D01*
G01*
G37*
G36*
G01*
X269625930Y-103490685D02*
X270325930Y-103490685D01*
G75*
G02*
X270575930Y-103740685I0J-250000D01*
G01*
X270575930Y-104240685D01*
G75*
G02*
X270325930Y-104490685I-250000J0D01*
G01*
X269625930Y-104490685D01*
G75*
G02*
X269375930Y-104240685I0J250000D01*
G01*
X269375930Y-103740685D01*
G75*
G02*
X269625930Y-103490685I250000J0D01*
G01*
G37*
G36*
G01*
X250575850Y-106790685D02*
X251275850Y-106790685D01*
G75*
G02*
X251525850Y-107040685I0J-250000D01*
G01*
X251525850Y-107540685D01*
G75*
G02*
X251275850Y-107790685I-250000J0D01*
G01*
X250575850Y-107790685D01*
G75*
G02*
X250325850Y-107540685I0J250000D01*
G01*
X250325850Y-107040685D01*
G75*
G02*
X250575850Y-106790685I250000J0D01*
G01*
G37*
G36*
G01*
X250575850Y-103490685D02*
X251275850Y-103490685D01*
G75*
G02*
X251525850Y-103740685I0J-250000D01*
G01*
X251525850Y-104240685D01*
G75*
G02*
X251275850Y-104490685I-250000J0D01*
G01*
X250575850Y-104490685D01*
G75*
G02*
X250325850Y-104240685I0J250000D01*
G01*
X250325850Y-103740685D01*
G75*
G02*
X250575850Y-103490685I250000J0D01*
G01*
G37*
G36*
G01*
X231525770Y-106790685D02*
X232225770Y-106790685D01*
G75*
G02*
X232475770Y-107040685I0J-250000D01*
G01*
X232475770Y-107540685D01*
G75*
G02*
X232225770Y-107790685I-250000J0D01*
G01*
X231525770Y-107790685D01*
G75*
G02*
X231275770Y-107540685I0J250000D01*
G01*
X231275770Y-107040685D01*
G75*
G02*
X231525770Y-106790685I250000J0D01*
G01*
G37*
G36*
G01*
X231525770Y-103490685D02*
X232225770Y-103490685D01*
G75*
G02*
X232475770Y-103740685I0J-250000D01*
G01*
X232475770Y-104240685D01*
G75*
G02*
X232225770Y-104490685I-250000J0D01*
G01*
X231525770Y-104490685D01*
G75*
G02*
X231275770Y-104240685I0J250000D01*
G01*
X231275770Y-103740685D01*
G75*
G02*
X231525770Y-103490685I250000J0D01*
G01*
G37*
G36*
G01*
X212475690Y-106790685D02*
X213175690Y-106790685D01*
G75*
G02*
X213425690Y-107040685I0J-250000D01*
G01*
X213425690Y-107540685D01*
G75*
G02*
X213175690Y-107790685I-250000J0D01*
G01*
X212475690Y-107790685D01*
G75*
G02*
X212225690Y-107540685I0J250000D01*
G01*
X212225690Y-107040685D01*
G75*
G02*
X212475690Y-106790685I250000J0D01*
G01*
G37*
G36*
G01*
X212475690Y-103490685D02*
X213175690Y-103490685D01*
G75*
G02*
X213425690Y-103740685I0J-250000D01*
G01*
X213425690Y-104240685D01*
G75*
G02*
X213175690Y-104490685I-250000J0D01*
G01*
X212475690Y-104490685D01*
G75*
G02*
X212225690Y-104240685I0J250000D01*
G01*
X212225690Y-103740685D01*
G75*
G02*
X212475690Y-103490685I250000J0D01*
G01*
G37*
G36*
G01*
X193425610Y-106790685D02*
X194125610Y-106790685D01*
G75*
G02*
X194375610Y-107040685I0J-250000D01*
G01*
X194375610Y-107540685D01*
G75*
G02*
X194125610Y-107790685I-250000J0D01*
G01*
X193425610Y-107790685D01*
G75*
G02*
X193175610Y-107540685I0J250000D01*
G01*
X193175610Y-107040685D01*
G75*
G02*
X193425610Y-106790685I250000J0D01*
G01*
G37*
G36*
G01*
X193425610Y-103490685D02*
X194125610Y-103490685D01*
G75*
G02*
X194375610Y-103740685I0J-250000D01*
G01*
X194375610Y-104240685D01*
G75*
G02*
X194125610Y-104490685I-250000J0D01*
G01*
X193425610Y-104490685D01*
G75*
G02*
X193175610Y-104240685I0J250000D01*
G01*
X193175610Y-103740685D01*
G75*
G02*
X193425610Y-103490685I250000J0D01*
G01*
G37*
G36*
G01*
X174375530Y-106790685D02*
X175075530Y-106790685D01*
G75*
G02*
X175325530Y-107040685I0J-250000D01*
G01*
X175325530Y-107540685D01*
G75*
G02*
X175075530Y-107790685I-250000J0D01*
G01*
X174375530Y-107790685D01*
G75*
G02*
X174125530Y-107540685I0J250000D01*
G01*
X174125530Y-107040685D01*
G75*
G02*
X174375530Y-106790685I250000J0D01*
G01*
G37*
G36*
G01*
X174375530Y-103490685D02*
X175075530Y-103490685D01*
G75*
G02*
X175325530Y-103740685I0J-250000D01*
G01*
X175325530Y-104240685D01*
G75*
G02*
X175075530Y-104490685I-250000J0D01*
G01*
X174375530Y-104490685D01*
G75*
G02*
X174125530Y-104240685I0J250000D01*
G01*
X174125530Y-103740685D01*
G75*
G02*
X174375530Y-103490685I250000J0D01*
G01*
G37*
G36*
G01*
X155325450Y-106790685D02*
X156025450Y-106790685D01*
G75*
G02*
X156275450Y-107040685I0J-250000D01*
G01*
X156275450Y-107540685D01*
G75*
G02*
X156025450Y-107790685I-250000J0D01*
G01*
X155325450Y-107790685D01*
G75*
G02*
X155075450Y-107540685I0J250000D01*
G01*
X155075450Y-107040685D01*
G75*
G02*
X155325450Y-106790685I250000J0D01*
G01*
G37*
G36*
G01*
X155325450Y-103490685D02*
X156025450Y-103490685D01*
G75*
G02*
X156275450Y-103740685I0J-250000D01*
G01*
X156275450Y-104240685D01*
G75*
G02*
X156025450Y-104490685I-250000J0D01*
G01*
X155325450Y-104490685D01*
G75*
G02*
X155075450Y-104240685I0J250000D01*
G01*
X155075450Y-103740685D01*
G75*
G02*
X155325450Y-103490685I250000J0D01*
G01*
G37*
G36*
G01*
X136275370Y-106790685D02*
X136975370Y-106790685D01*
G75*
G02*
X137225370Y-107040685I0J-250000D01*
G01*
X137225370Y-107540685D01*
G75*
G02*
X136975370Y-107790685I-250000J0D01*
G01*
X136275370Y-107790685D01*
G75*
G02*
X136025370Y-107540685I0J250000D01*
G01*
X136025370Y-107040685D01*
G75*
G02*
X136275370Y-106790685I250000J0D01*
G01*
G37*
G36*
G01*
X136275370Y-103490685D02*
X136975370Y-103490685D01*
G75*
G02*
X137225370Y-103740685I0J-250000D01*
G01*
X137225370Y-104240685D01*
G75*
G02*
X136975370Y-104490685I-250000J0D01*
G01*
X136275370Y-104490685D01*
G75*
G02*
X136025370Y-104240685I0J250000D01*
G01*
X136025370Y-103740685D01*
G75*
G02*
X136275370Y-103490685I250000J0D01*
G01*
G37*
G36*
G01*
X117225290Y-106790685D02*
X117925290Y-106790685D01*
G75*
G02*
X118175290Y-107040685I0J-250000D01*
G01*
X118175290Y-107540685D01*
G75*
G02*
X117925290Y-107790685I-250000J0D01*
G01*
X117225290Y-107790685D01*
G75*
G02*
X116975290Y-107540685I0J250000D01*
G01*
X116975290Y-107040685D01*
G75*
G02*
X117225290Y-106790685I250000J0D01*
G01*
G37*
G36*
G01*
X117225290Y-103490685D02*
X117925290Y-103490685D01*
G75*
G02*
X118175290Y-103740685I0J-250000D01*
G01*
X118175290Y-104240685D01*
G75*
G02*
X117925290Y-104490685I-250000J0D01*
G01*
X117225290Y-104490685D01*
G75*
G02*
X116975290Y-104240685I0J250000D01*
G01*
X116975290Y-103740685D01*
G75*
G02*
X117225290Y-103490685I250000J0D01*
G01*
G37*
G36*
G01*
X85779375Y-99728125D02*
X85079375Y-99728125D01*
G75*
G02*
X84829375Y-99478125I0J250000D01*
G01*
X84829375Y-98978125D01*
G75*
G02*
X85079375Y-98728125I250000J0D01*
G01*
X85779375Y-98728125D01*
G75*
G02*
X86029375Y-98978125I0J-250000D01*
G01*
X86029375Y-99478125D01*
G75*
G02*
X85779375Y-99728125I-250000J0D01*
G01*
G37*
G36*
G01*
X85779375Y-103028125D02*
X85079375Y-103028125D01*
G75*
G02*
X84829375Y-102778125I0J250000D01*
G01*
X84829375Y-102278125D01*
G75*
G02*
X85079375Y-102028125I250000J0D01*
G01*
X85779375Y-102028125D01*
G75*
G02*
X86029375Y-102278125I0J-250000D01*
G01*
X86029375Y-102778125D01*
G75*
G02*
X85779375Y-103028125I-250000J0D01*
G01*
G37*
G36*
G01*
X336526250Y-135603125D02*
X336526250Y-134903125D01*
G75*
G02*
X336776250Y-134653125I250000J0D01*
G01*
X337276250Y-134653125D01*
G75*
G02*
X337526250Y-134903125I0J-250000D01*
G01*
X337526250Y-135603125D01*
G75*
G02*
X337276250Y-135853125I-250000J0D01*
G01*
X336776250Y-135853125D01*
G75*
G02*
X336526250Y-135603125I0J250000D01*
G01*
G37*
G36*
G01*
X333226250Y-135603125D02*
X333226250Y-134903125D01*
G75*
G02*
X333476250Y-134653125I250000J0D01*
G01*
X333976250Y-134653125D01*
G75*
G02*
X334226250Y-134903125I0J-250000D01*
G01*
X334226250Y-135603125D01*
G75*
G02*
X333976250Y-135853125I-250000J0D01*
G01*
X333476250Y-135853125D01*
G75*
G02*
X333226250Y-135603125I0J250000D01*
G01*
G37*
G36*
G01*
X306640346Y-133065589D02*
X305940346Y-133065589D01*
G75*
G02*
X305690346Y-132815589I0J250000D01*
G01*
X305690346Y-132315589D01*
G75*
G02*
X305940346Y-132065589I250000J0D01*
G01*
X306640346Y-132065589D01*
G75*
G02*
X306890346Y-132315589I0J-250000D01*
G01*
X306890346Y-132815589D01*
G75*
G02*
X306640346Y-133065589I-250000J0D01*
G01*
G37*
G36*
G01*
X306640346Y-136365589D02*
X305940346Y-136365589D01*
G75*
G02*
X305690346Y-136115589I0J250000D01*
G01*
X305690346Y-135615589D01*
G75*
G02*
X305940346Y-135365589I250000J0D01*
G01*
X306640346Y-135365589D01*
G75*
G02*
X306890346Y-135615589I0J-250000D01*
G01*
X306890346Y-136115589D01*
G75*
G02*
X306640346Y-136365589I-250000J0D01*
G01*
G37*
G36*
G01*
X303663570Y-133065805D02*
X302963570Y-133065805D01*
G75*
G02*
X302713570Y-132815805I0J250000D01*
G01*
X302713570Y-132315805D01*
G75*
G02*
X302963570Y-132065805I250000J0D01*
G01*
X303663570Y-132065805D01*
G75*
G02*
X303913570Y-132315805I0J-250000D01*
G01*
X303913570Y-132815805D01*
G75*
G02*
X303663570Y-133065805I-250000J0D01*
G01*
G37*
G36*
G01*
X303663570Y-136365805D02*
X302963570Y-136365805D01*
G75*
G02*
X302713570Y-136115805I0J250000D01*
G01*
X302713570Y-135615805D01*
G75*
G02*
X302963570Y-135365805I250000J0D01*
G01*
X303663570Y-135365805D01*
G75*
G02*
X303913570Y-135615805I0J-250000D01*
G01*
X303913570Y-136115805D01*
G75*
G02*
X303663570Y-136365805I-250000J0D01*
G01*
G37*
G36*
G01*
X284613490Y-133065805D02*
X283913490Y-133065805D01*
G75*
G02*
X283663490Y-132815805I0J250000D01*
G01*
X283663490Y-132315805D01*
G75*
G02*
X283913490Y-132065805I250000J0D01*
G01*
X284613490Y-132065805D01*
G75*
G02*
X284863490Y-132315805I0J-250000D01*
G01*
X284863490Y-132815805D01*
G75*
G02*
X284613490Y-133065805I-250000J0D01*
G01*
G37*
G36*
G01*
X284613490Y-136365805D02*
X283913490Y-136365805D01*
G75*
G02*
X283663490Y-136115805I0J250000D01*
G01*
X283663490Y-135615805D01*
G75*
G02*
X283913490Y-135365805I250000J0D01*
G01*
X284613490Y-135365805D01*
G75*
G02*
X284863490Y-135615805I0J-250000D01*
G01*
X284863490Y-136115805D01*
G75*
G02*
X284613490Y-136365805I-250000J0D01*
G01*
G37*
G36*
G01*
X265563410Y-133065805D02*
X264863410Y-133065805D01*
G75*
G02*
X264613410Y-132815805I0J250000D01*
G01*
X264613410Y-132315805D01*
G75*
G02*
X264863410Y-132065805I250000J0D01*
G01*
X265563410Y-132065805D01*
G75*
G02*
X265813410Y-132315805I0J-250000D01*
G01*
X265813410Y-132815805D01*
G75*
G02*
X265563410Y-133065805I-250000J0D01*
G01*
G37*
G36*
G01*
X265563410Y-136365805D02*
X264863410Y-136365805D01*
G75*
G02*
X264613410Y-136115805I0J250000D01*
G01*
X264613410Y-135615805D01*
G75*
G02*
X264863410Y-135365805I250000J0D01*
G01*
X265563410Y-135365805D01*
G75*
G02*
X265813410Y-135615805I0J-250000D01*
G01*
X265813410Y-136115805D01*
G75*
G02*
X265563410Y-136365805I-250000J0D01*
G01*
G37*
G36*
G01*
X246513330Y-133065805D02*
X245813330Y-133065805D01*
G75*
G02*
X245563330Y-132815805I0J250000D01*
G01*
X245563330Y-132315805D01*
G75*
G02*
X245813330Y-132065805I250000J0D01*
G01*
X246513330Y-132065805D01*
G75*
G02*
X246763330Y-132315805I0J-250000D01*
G01*
X246763330Y-132815805D01*
G75*
G02*
X246513330Y-133065805I-250000J0D01*
G01*
G37*
G36*
G01*
X246513330Y-136365805D02*
X245813330Y-136365805D01*
G75*
G02*
X245563330Y-136115805I0J250000D01*
G01*
X245563330Y-135615805D01*
G75*
G02*
X245813330Y-135365805I250000J0D01*
G01*
X246513330Y-135365805D01*
G75*
G02*
X246763330Y-135615805I0J-250000D01*
G01*
X246763330Y-136115805D01*
G75*
G02*
X246513330Y-136365805I-250000J0D01*
G01*
G37*
G36*
G01*
X223891360Y-133065805D02*
X223191360Y-133065805D01*
G75*
G02*
X222941360Y-132815805I0J250000D01*
G01*
X222941360Y-132315805D01*
G75*
G02*
X223191360Y-132065805I250000J0D01*
G01*
X223891360Y-132065805D01*
G75*
G02*
X224141360Y-132315805I0J-250000D01*
G01*
X224141360Y-132815805D01*
G75*
G02*
X223891360Y-133065805I-250000J0D01*
G01*
G37*
G36*
G01*
X223891360Y-136365805D02*
X223191360Y-136365805D01*
G75*
G02*
X222941360Y-136115805I0J250000D01*
G01*
X222941360Y-135615805D01*
G75*
G02*
X223191360Y-135365805I250000J0D01*
G01*
X223891360Y-135365805D01*
G75*
G02*
X224141360Y-135615805I0J-250000D01*
G01*
X224141360Y-136115805D01*
G75*
G02*
X223891360Y-136365805I-250000J0D01*
G01*
G37*
G36*
G01*
X208413170Y-133065805D02*
X207713170Y-133065805D01*
G75*
G02*
X207463170Y-132815805I0J250000D01*
G01*
X207463170Y-132315805D01*
G75*
G02*
X207713170Y-132065805I250000J0D01*
G01*
X208413170Y-132065805D01*
G75*
G02*
X208663170Y-132315805I0J-250000D01*
G01*
X208663170Y-132815805D01*
G75*
G02*
X208413170Y-133065805I-250000J0D01*
G01*
G37*
G36*
G01*
X208413170Y-136365805D02*
X207713170Y-136365805D01*
G75*
G02*
X207463170Y-136115805I0J250000D01*
G01*
X207463170Y-135615805D01*
G75*
G02*
X207713170Y-135365805I250000J0D01*
G01*
X208413170Y-135365805D01*
G75*
G02*
X208663170Y-135615805I0J-250000D01*
G01*
X208663170Y-136115805D01*
G75*
G02*
X208413170Y-136365805I-250000J0D01*
G01*
G37*
G36*
G01*
X189363090Y-133065805D02*
X188663090Y-133065805D01*
G75*
G02*
X188413090Y-132815805I0J250000D01*
G01*
X188413090Y-132315805D01*
G75*
G02*
X188663090Y-132065805I250000J0D01*
G01*
X189363090Y-132065805D01*
G75*
G02*
X189613090Y-132315805I0J-250000D01*
G01*
X189613090Y-132815805D01*
G75*
G02*
X189363090Y-133065805I-250000J0D01*
G01*
G37*
G36*
G01*
X189363090Y-136365805D02*
X188663090Y-136365805D01*
G75*
G02*
X188413090Y-136115805I0J250000D01*
G01*
X188413090Y-135615805D01*
G75*
G02*
X188663090Y-135365805I250000J0D01*
G01*
X189363090Y-135365805D01*
G75*
G02*
X189613090Y-135615805I0J-250000D01*
G01*
X189613090Y-136115805D01*
G75*
G02*
X189363090Y-136365805I-250000J0D01*
G01*
G37*
G36*
G01*
X170313010Y-133065805D02*
X169613010Y-133065805D01*
G75*
G02*
X169363010Y-132815805I0J250000D01*
G01*
X169363010Y-132315805D01*
G75*
G02*
X169613010Y-132065805I250000J0D01*
G01*
X170313010Y-132065805D01*
G75*
G02*
X170563010Y-132315805I0J-250000D01*
G01*
X170563010Y-132815805D01*
G75*
G02*
X170313010Y-133065805I-250000J0D01*
G01*
G37*
G36*
G01*
X170313010Y-136365805D02*
X169613010Y-136365805D01*
G75*
G02*
X169363010Y-136115805I0J250000D01*
G01*
X169363010Y-135615805D01*
G75*
G02*
X169613010Y-135365805I250000J0D01*
G01*
X170313010Y-135365805D01*
G75*
G02*
X170563010Y-135615805I0J-250000D01*
G01*
X170563010Y-136115805D01*
G75*
G02*
X170313010Y-136365805I-250000J0D01*
G01*
G37*
G36*
G01*
X151262930Y-133065805D02*
X150562930Y-133065805D01*
G75*
G02*
X150312930Y-132815805I0J250000D01*
G01*
X150312930Y-132315805D01*
G75*
G02*
X150562930Y-132065805I250000J0D01*
G01*
X151262930Y-132065805D01*
G75*
G02*
X151512930Y-132315805I0J-250000D01*
G01*
X151512930Y-132815805D01*
G75*
G02*
X151262930Y-133065805I-250000J0D01*
G01*
G37*
G36*
G01*
X151262930Y-136365805D02*
X150562930Y-136365805D01*
G75*
G02*
X150312930Y-136115805I0J250000D01*
G01*
X150312930Y-135615805D01*
G75*
G02*
X150562930Y-135365805I250000J0D01*
G01*
X151262930Y-135365805D01*
G75*
G02*
X151512930Y-135615805I0J-250000D01*
G01*
X151512930Y-136115805D01*
G75*
G02*
X151262930Y-136365805I-250000J0D01*
G01*
G37*
G36*
G01*
X132212850Y-133065805D02*
X131512850Y-133065805D01*
G75*
G02*
X131262850Y-132815805I0J250000D01*
G01*
X131262850Y-132315805D01*
G75*
G02*
X131512850Y-132065805I250000J0D01*
G01*
X132212850Y-132065805D01*
G75*
G02*
X132462850Y-132315805I0J-250000D01*
G01*
X132462850Y-132815805D01*
G75*
G02*
X132212850Y-133065805I-250000J0D01*
G01*
G37*
G36*
G01*
X132212850Y-136365805D02*
X131512850Y-136365805D01*
G75*
G02*
X131262850Y-136115805I0J250000D01*
G01*
X131262850Y-135615805D01*
G75*
G02*
X131512850Y-135365805I250000J0D01*
G01*
X132212850Y-135365805D01*
G75*
G02*
X132462850Y-135615805I0J-250000D01*
G01*
X132462850Y-136115805D01*
G75*
G02*
X132212850Y-136365805I-250000J0D01*
G01*
G37*
G36*
G01*
X113163750Y-133065625D02*
X112463750Y-133065625D01*
G75*
G02*
X112213750Y-132815625I0J250000D01*
G01*
X112213750Y-132315625D01*
G75*
G02*
X112463750Y-132065625I250000J0D01*
G01*
X113163750Y-132065625D01*
G75*
G02*
X113413750Y-132315625I0J-250000D01*
G01*
X113413750Y-132815625D01*
G75*
G02*
X113163750Y-133065625I-250000J0D01*
G01*
G37*
G36*
G01*
X113163750Y-136365625D02*
X112463750Y-136365625D01*
G75*
G02*
X112213750Y-136115625I0J250000D01*
G01*
X112213750Y-135615625D01*
G75*
G02*
X112463750Y-135365625I250000J0D01*
G01*
X113163750Y-135365625D01*
G75*
G02*
X113413750Y-135615625I0J-250000D01*
G01*
X113413750Y-136115625D01*
G75*
G02*
X113163750Y-136365625I-250000J0D01*
G01*
G37*
G36*
G01*
X335110580Y-142509585D02*
X335810580Y-142509585D01*
G75*
G02*
X336060580Y-142759585I0J-250000D01*
G01*
X336060580Y-143259585D01*
G75*
G02*
X335810580Y-143509585I-250000J0D01*
G01*
X335110580Y-143509585D01*
G75*
G02*
X334860580Y-143259585I0J250000D01*
G01*
X334860580Y-142759585D01*
G75*
G02*
X335110580Y-142509585I250000J0D01*
G01*
G37*
G36*
G01*
X335110580Y-139209585D02*
X335810580Y-139209585D01*
G75*
G02*
X336060580Y-139459585I0J-250000D01*
G01*
X336060580Y-139959585D01*
G75*
G02*
X335810580Y-140209585I-250000J0D01*
G01*
X335110580Y-140209585D01*
G75*
G02*
X334860580Y-139959585I0J250000D01*
G01*
X334860580Y-139459585D01*
G75*
G02*
X335110580Y-139209585I250000J0D01*
G01*
G37*
G36*
G01*
X327538250Y-142509375D02*
X328238250Y-142509375D01*
G75*
G02*
X328488250Y-142759375I0J-250000D01*
G01*
X328488250Y-143259375D01*
G75*
G02*
X328238250Y-143509375I-250000J0D01*
G01*
X327538250Y-143509375D01*
G75*
G02*
X327288250Y-143259375I0J250000D01*
G01*
X327288250Y-142759375D01*
G75*
G02*
X327538250Y-142509375I250000J0D01*
G01*
G37*
G36*
G01*
X327538250Y-139209375D02*
X328238250Y-139209375D01*
G75*
G02*
X328488250Y-139459375I0J-250000D01*
G01*
X328488250Y-139959375D01*
G75*
G02*
X328238250Y-140209375I-250000J0D01*
G01*
X327538250Y-140209375D01*
G75*
G02*
X327288250Y-139959375I0J250000D01*
G01*
X327288250Y-139459375D01*
G75*
G02*
X327538250Y-139209375I250000J0D01*
G01*
G37*
G36*
G01*
X305262800Y-141713600D02*
X305962800Y-141713600D01*
G75*
G02*
X306212800Y-141963600I0J-250000D01*
G01*
X306212800Y-142463600D01*
G75*
G02*
X305962800Y-142713600I-250000J0D01*
G01*
X305262800Y-142713600D01*
G75*
G02*
X305012800Y-142463600I0J250000D01*
G01*
X305012800Y-141963600D01*
G75*
G02*
X305262800Y-141713600I250000J0D01*
G01*
G37*
G36*
G01*
X305262800Y-138413600D02*
X305962800Y-138413600D01*
G75*
G02*
X306212800Y-138663600I0J-250000D01*
G01*
X306212800Y-139163600D01*
G75*
G02*
X305962800Y-139413600I-250000J0D01*
G01*
X305262800Y-139413600D01*
G75*
G02*
X305012800Y-139163600I0J250000D01*
G01*
X305012800Y-138663600D01*
G75*
G02*
X305262800Y-138413600I250000J0D01*
G01*
G37*
G36*
G01*
X293438450Y-143700215D02*
X294138450Y-143700215D01*
G75*
G02*
X294388450Y-143950215I0J-250000D01*
G01*
X294388450Y-144450215D01*
G75*
G02*
X294138450Y-144700215I-250000J0D01*
G01*
X293438450Y-144700215D01*
G75*
G02*
X293188450Y-144450215I0J250000D01*
G01*
X293188450Y-143950215D01*
G75*
G02*
X293438450Y-143700215I250000J0D01*
G01*
G37*
G36*
G01*
X293438450Y-140400215D02*
X294138450Y-140400215D01*
G75*
G02*
X294388450Y-140650215I0J-250000D01*
G01*
X294388450Y-141150215D01*
G75*
G02*
X294138450Y-141400215I-250000J0D01*
G01*
X293438450Y-141400215D01*
G75*
G02*
X293188450Y-141150215I0J250000D01*
G01*
X293188450Y-140650215D01*
G75*
G02*
X293438450Y-140400215I250000J0D01*
G01*
G37*
G36*
G01*
X274388370Y-143700215D02*
X275088370Y-143700215D01*
G75*
G02*
X275338370Y-143950215I0J-250000D01*
G01*
X275338370Y-144450215D01*
G75*
G02*
X275088370Y-144700215I-250000J0D01*
G01*
X274388370Y-144700215D01*
G75*
G02*
X274138370Y-144450215I0J250000D01*
G01*
X274138370Y-143950215D01*
G75*
G02*
X274388370Y-143700215I250000J0D01*
G01*
G37*
G36*
G01*
X274388370Y-140400215D02*
X275088370Y-140400215D01*
G75*
G02*
X275338370Y-140650215I0J-250000D01*
G01*
X275338370Y-141150215D01*
G75*
G02*
X275088370Y-141400215I-250000J0D01*
G01*
X274388370Y-141400215D01*
G75*
G02*
X274138370Y-141150215I0J250000D01*
G01*
X274138370Y-140650215D01*
G75*
G02*
X274388370Y-140400215I250000J0D01*
G01*
G37*
G36*
G01*
X255338290Y-143700215D02*
X256038290Y-143700215D01*
G75*
G02*
X256288290Y-143950215I0J-250000D01*
G01*
X256288290Y-144450215D01*
G75*
G02*
X256038290Y-144700215I-250000J0D01*
G01*
X255338290Y-144700215D01*
G75*
G02*
X255088290Y-144450215I0J250000D01*
G01*
X255088290Y-143950215D01*
G75*
G02*
X255338290Y-143700215I250000J0D01*
G01*
G37*
G36*
G01*
X255338290Y-140400215D02*
X256038290Y-140400215D01*
G75*
G02*
X256288290Y-140650215I0J-250000D01*
G01*
X256288290Y-141150215D01*
G75*
G02*
X256038290Y-141400215I-250000J0D01*
G01*
X255338290Y-141400215D01*
G75*
G02*
X255088290Y-141150215I0J250000D01*
G01*
X255088290Y-140650215D01*
G75*
G02*
X255338290Y-140400215I250000J0D01*
G01*
G37*
G36*
G01*
X236288210Y-143700215D02*
X236988210Y-143700215D01*
G75*
G02*
X237238210Y-143950215I0J-250000D01*
G01*
X237238210Y-144450215D01*
G75*
G02*
X236988210Y-144700215I-250000J0D01*
G01*
X236288210Y-144700215D01*
G75*
G02*
X236038210Y-144450215I0J250000D01*
G01*
X236038210Y-143950215D01*
G75*
G02*
X236288210Y-143700215I250000J0D01*
G01*
G37*
G36*
G01*
X236288210Y-140400215D02*
X236988210Y-140400215D01*
G75*
G02*
X237238210Y-140650215I0J-250000D01*
G01*
X237238210Y-141150215D01*
G75*
G02*
X236988210Y-141400215I-250000J0D01*
G01*
X236288210Y-141400215D01*
G75*
G02*
X236038210Y-141150215I0J250000D01*
G01*
X236038210Y-140650215D01*
G75*
G02*
X236288210Y-140400215I250000J0D01*
G01*
G37*
G36*
G01*
X217238130Y-143700215D02*
X217938130Y-143700215D01*
G75*
G02*
X218188130Y-143950215I0J-250000D01*
G01*
X218188130Y-144450215D01*
G75*
G02*
X217938130Y-144700215I-250000J0D01*
G01*
X217238130Y-144700215D01*
G75*
G02*
X216988130Y-144450215I0J250000D01*
G01*
X216988130Y-143950215D01*
G75*
G02*
X217238130Y-143700215I250000J0D01*
G01*
G37*
G36*
G01*
X217238130Y-140400215D02*
X217938130Y-140400215D01*
G75*
G02*
X218188130Y-140650215I0J-250000D01*
G01*
X218188130Y-141150215D01*
G75*
G02*
X217938130Y-141400215I-250000J0D01*
G01*
X217238130Y-141400215D01*
G75*
G02*
X216988130Y-141150215I0J250000D01*
G01*
X216988130Y-140650215D01*
G75*
G02*
X217238130Y-140400215I250000J0D01*
G01*
G37*
G36*
G01*
X198188050Y-143700215D02*
X198888050Y-143700215D01*
G75*
G02*
X199138050Y-143950215I0J-250000D01*
G01*
X199138050Y-144450215D01*
G75*
G02*
X198888050Y-144700215I-250000J0D01*
G01*
X198188050Y-144700215D01*
G75*
G02*
X197938050Y-144450215I0J250000D01*
G01*
X197938050Y-143950215D01*
G75*
G02*
X198188050Y-143700215I250000J0D01*
G01*
G37*
G36*
G01*
X198188050Y-140400215D02*
X198888050Y-140400215D01*
G75*
G02*
X199138050Y-140650215I0J-250000D01*
G01*
X199138050Y-141150215D01*
G75*
G02*
X198888050Y-141400215I-250000J0D01*
G01*
X198188050Y-141400215D01*
G75*
G02*
X197938050Y-141150215I0J250000D01*
G01*
X197938050Y-140650215D01*
G75*
G02*
X198188050Y-140400215I250000J0D01*
G01*
G37*
G36*
G01*
X179137970Y-143700215D02*
X179837970Y-143700215D01*
G75*
G02*
X180087970Y-143950215I0J-250000D01*
G01*
X180087970Y-144450215D01*
G75*
G02*
X179837970Y-144700215I-250000J0D01*
G01*
X179137970Y-144700215D01*
G75*
G02*
X178887970Y-144450215I0J250000D01*
G01*
X178887970Y-143950215D01*
G75*
G02*
X179137970Y-143700215I250000J0D01*
G01*
G37*
G36*
G01*
X179137970Y-140400215D02*
X179837970Y-140400215D01*
G75*
G02*
X180087970Y-140650215I0J-250000D01*
G01*
X180087970Y-141150215D01*
G75*
G02*
X179837970Y-141400215I-250000J0D01*
G01*
X179137970Y-141400215D01*
G75*
G02*
X178887970Y-141150215I0J250000D01*
G01*
X178887970Y-140650215D01*
G75*
G02*
X179137970Y-140400215I250000J0D01*
G01*
G37*
G36*
G01*
X160087890Y-143700215D02*
X160787890Y-143700215D01*
G75*
G02*
X161037890Y-143950215I0J-250000D01*
G01*
X161037890Y-144450215D01*
G75*
G02*
X160787890Y-144700215I-250000J0D01*
G01*
X160087890Y-144700215D01*
G75*
G02*
X159837890Y-144450215I0J250000D01*
G01*
X159837890Y-143950215D01*
G75*
G02*
X160087890Y-143700215I250000J0D01*
G01*
G37*
G36*
G01*
X160087890Y-140400215D02*
X160787890Y-140400215D01*
G75*
G02*
X161037890Y-140650215I0J-250000D01*
G01*
X161037890Y-141150215D01*
G75*
G02*
X160787890Y-141400215I-250000J0D01*
G01*
X160087890Y-141400215D01*
G75*
G02*
X159837890Y-141150215I0J250000D01*
G01*
X159837890Y-140650215D01*
G75*
G02*
X160087890Y-140400215I250000J0D01*
G01*
G37*
G36*
G01*
X141037810Y-143700215D02*
X141737810Y-143700215D01*
G75*
G02*
X141987810Y-143950215I0J-250000D01*
G01*
X141987810Y-144450215D01*
G75*
G02*
X141737810Y-144700215I-250000J0D01*
G01*
X141037810Y-144700215D01*
G75*
G02*
X140787810Y-144450215I0J250000D01*
G01*
X140787810Y-143950215D01*
G75*
G02*
X141037810Y-143700215I250000J0D01*
G01*
G37*
G36*
G01*
X141037810Y-140400215D02*
X141737810Y-140400215D01*
G75*
G02*
X141987810Y-140650215I0J-250000D01*
G01*
X141987810Y-141150215D01*
G75*
G02*
X141737810Y-141400215I-250000J0D01*
G01*
X141037810Y-141400215D01*
G75*
G02*
X140787810Y-141150215I0J250000D01*
G01*
X140787810Y-140650215D01*
G75*
G02*
X141037810Y-140400215I250000J0D01*
G01*
G37*
G36*
G01*
X349182550Y-161559665D02*
X349882550Y-161559665D01*
G75*
G02*
X350132550Y-161809665I0J-250000D01*
G01*
X350132550Y-162309665D01*
G75*
G02*
X349882550Y-162559665I-250000J0D01*
G01*
X349182550Y-162559665D01*
G75*
G02*
X348932550Y-162309665I0J250000D01*
G01*
X348932550Y-161809665D01*
G75*
G02*
X349182550Y-161559665I250000J0D01*
G01*
G37*
G36*
G01*
X349182550Y-158259665D02*
X349882550Y-158259665D01*
G75*
G02*
X350132550Y-158509665I0J-250000D01*
G01*
X350132550Y-159009665D01*
G75*
G02*
X349882550Y-159259665I-250000J0D01*
G01*
X349182550Y-159259665D01*
G75*
G02*
X348932550Y-159009665I0J250000D01*
G01*
X348932550Y-158509665D01*
G75*
G02*
X349182550Y-158259665I250000J0D01*
G01*
G37*
G36*
G01*
X332729320Y-162750295D02*
X333429320Y-162750295D01*
G75*
G02*
X333679320Y-163000295I0J-250000D01*
G01*
X333679320Y-163500295D01*
G75*
G02*
X333429320Y-163750295I-250000J0D01*
G01*
X332729320Y-163750295D01*
G75*
G02*
X332479320Y-163500295I0J250000D01*
G01*
X332479320Y-163000295D01*
G75*
G02*
X332729320Y-162750295I250000J0D01*
G01*
G37*
G36*
G01*
X332729320Y-159450295D02*
X333429320Y-159450295D01*
G75*
G02*
X333679320Y-159700295I0J-250000D01*
G01*
X333679320Y-160200295D01*
G75*
G02*
X333429320Y-160450295I-250000J0D01*
G01*
X332729320Y-160450295D01*
G75*
G02*
X332479320Y-160200295I0J250000D01*
G01*
X332479320Y-159700295D01*
G75*
G02*
X332729320Y-159450295I250000J0D01*
G01*
G37*
G36*
G01*
X290530800Y-162795085D02*
X291230800Y-162795085D01*
G75*
G02*
X291480800Y-163045085I0J-250000D01*
G01*
X291480800Y-163545085D01*
G75*
G02*
X291230800Y-163795085I-250000J0D01*
G01*
X290530800Y-163795085D01*
G75*
G02*
X290280800Y-163545085I0J250000D01*
G01*
X290280800Y-163045085D01*
G75*
G02*
X290530800Y-162795085I250000J0D01*
G01*
G37*
G36*
G01*
X290530800Y-159495085D02*
X291230800Y-159495085D01*
G75*
G02*
X291480800Y-159745085I0J-250000D01*
G01*
X291480800Y-160245085D01*
G75*
G02*
X291230800Y-160495085I-250000J0D01*
G01*
X290530800Y-160495085D01*
G75*
G02*
X290280800Y-160245085I0J250000D01*
G01*
X290280800Y-159745085D01*
G75*
G02*
X290530800Y-159495085I250000J0D01*
G01*
G37*
G36*
G01*
X251935150Y-162073725D02*
X252635150Y-162073725D01*
G75*
G02*
X252885150Y-162323725I0J-250000D01*
G01*
X252885150Y-162823725D01*
G75*
G02*
X252635150Y-163073725I-250000J0D01*
G01*
X251935150Y-163073725D01*
G75*
G02*
X251685150Y-162823725I0J250000D01*
G01*
X251685150Y-162323725D01*
G75*
G02*
X251935150Y-162073725I250000J0D01*
G01*
G37*
G36*
G01*
X251935150Y-158773725D02*
X252635150Y-158773725D01*
G75*
G02*
X252885150Y-159023725I0J-250000D01*
G01*
X252885150Y-159523725D01*
G75*
G02*
X252635150Y-159773725I-250000J0D01*
G01*
X251935150Y-159773725D01*
G75*
G02*
X251685150Y-159523725I0J250000D01*
G01*
X251685150Y-159023725D01*
G75*
G02*
X251935150Y-158773725I250000J0D01*
G01*
G37*
G36*
G01*
X117963200Y-162694000D02*
X118663200Y-162694000D01*
G75*
G02*
X118913200Y-162944000I0J-250000D01*
G01*
X118913200Y-163444000D01*
G75*
G02*
X118663200Y-163694000I-250000J0D01*
G01*
X117963200Y-163694000D01*
G75*
G02*
X117713200Y-163444000I0J250000D01*
G01*
X117713200Y-162944000D01*
G75*
G02*
X117963200Y-162694000I250000J0D01*
G01*
G37*
G36*
G01*
X117963200Y-159394000D02*
X118663200Y-159394000D01*
G75*
G02*
X118913200Y-159644000I0J-250000D01*
G01*
X118913200Y-160144000D01*
G75*
G02*
X118663200Y-160394000I-250000J0D01*
G01*
X117963200Y-160394000D01*
G75*
G02*
X117713200Y-160144000I0J250000D01*
G01*
X117713200Y-159644000D01*
G75*
G02*
X117963200Y-159394000I250000J0D01*
G01*
G37*
G36*
G01*
X111410000Y-162694000D02*
X112110000Y-162694000D01*
G75*
G02*
X112360000Y-162944000I0J-250000D01*
G01*
X112360000Y-163444000D01*
G75*
G02*
X112110000Y-163694000I-250000J0D01*
G01*
X111410000Y-163694000D01*
G75*
G02*
X111160000Y-163444000I0J250000D01*
G01*
X111160000Y-162944000D01*
G75*
G02*
X111410000Y-162694000I250000J0D01*
G01*
G37*
G36*
G01*
X111410000Y-159394000D02*
X112110000Y-159394000D01*
G75*
G02*
X112360000Y-159644000I0J-250000D01*
G01*
X112360000Y-160144000D01*
G75*
G02*
X112110000Y-160394000I-250000J0D01*
G01*
X111410000Y-160394000D01*
G75*
G02*
X111160000Y-160144000I0J250000D01*
G01*
X111160000Y-159644000D01*
G75*
G02*
X111410000Y-159394000I250000J0D01*
G01*
G37*
G36*
G01*
X90937600Y-162744800D02*
X91637600Y-162744800D01*
G75*
G02*
X91887600Y-162994800I0J-250000D01*
G01*
X91887600Y-163494800D01*
G75*
G02*
X91637600Y-163744800I-250000J0D01*
G01*
X90937600Y-163744800D01*
G75*
G02*
X90687600Y-163494800I0J250000D01*
G01*
X90687600Y-162994800D01*
G75*
G02*
X90937600Y-162744800I250000J0D01*
G01*
G37*
G36*
G01*
X90937600Y-159444800D02*
X91637600Y-159444800D01*
G75*
G02*
X91887600Y-159694800I0J-250000D01*
G01*
X91887600Y-160194800D01*
G75*
G02*
X91637600Y-160444800I-250000J0D01*
G01*
X90937600Y-160444800D01*
G75*
G02*
X90687600Y-160194800I0J250000D01*
G01*
X90687600Y-159694800D01*
G75*
G02*
X90937600Y-159444800I250000J0D01*
G01*
G37*
G36*
G01*
X85779375Y-133065625D02*
X85079375Y-133065625D01*
G75*
G02*
X84829375Y-132815625I0J250000D01*
G01*
X84829375Y-132315625D01*
G75*
G02*
X85079375Y-132065625I250000J0D01*
G01*
X85779375Y-132065625D01*
G75*
G02*
X86029375Y-132315625I0J-250000D01*
G01*
X86029375Y-132815625D01*
G75*
G02*
X85779375Y-133065625I-250000J0D01*
G01*
G37*
G36*
G01*
X85779375Y-136365625D02*
X85079375Y-136365625D01*
G75*
G02*
X84829375Y-136115625I0J250000D01*
G01*
X84829375Y-135615625D01*
G75*
G02*
X85079375Y-135365625I250000J0D01*
G01*
X85779375Y-135365625D01*
G75*
G02*
X86029375Y-135615625I0J-250000D01*
G01*
X86029375Y-136115625D01*
G75*
G02*
X85779375Y-136365625I-250000J0D01*
G01*
G37*
G36*
G01*
X301382500Y-85653125D02*
X300470000Y-85653125D01*
G75*
G02*
X300226250Y-85409375I0J243750D01*
G01*
X300226250Y-84921875D01*
G75*
G02*
X300470000Y-84678125I243750J0D01*
G01*
X301382500Y-84678125D01*
G75*
G02*
X301626250Y-84921875I0J-243750D01*
G01*
X301626250Y-85409375D01*
G75*
G02*
X301382500Y-85653125I-243750J0D01*
G01*
G37*
G36*
G01*
X301382500Y-87528125D02*
X300470000Y-87528125D01*
G75*
G02*
X300226250Y-87284375I0J243750D01*
G01*
X300226250Y-86796875D01*
G75*
G02*
X300470000Y-86553125I243750J0D01*
G01*
X301382500Y-86553125D01*
G75*
G02*
X301626250Y-86796875I0J-243750D01*
G01*
X301626250Y-87284375D01*
G75*
G02*
X301382500Y-87528125I-243750J0D01*
G01*
G37*
G36*
G01*
X289776250Y-84503125D02*
X289776250Y-85203125D01*
G75*
G02*
X289526250Y-85453125I-250000J0D01*
G01*
X289026250Y-85453125D01*
G75*
G02*
X288776250Y-85203125I0J250000D01*
G01*
X288776250Y-84503125D01*
G75*
G02*
X289026250Y-84253125I250000J0D01*
G01*
X289526250Y-84253125D01*
G75*
G02*
X289776250Y-84503125I0J-250000D01*
G01*
G37*
G36*
G01*
X293076250Y-84503125D02*
X293076250Y-85203125D01*
G75*
G02*
X292826250Y-85453125I-250000J0D01*
G01*
X292326250Y-85453125D01*
G75*
G02*
X292076250Y-85203125I0J250000D01*
G01*
X292076250Y-84503125D01*
G75*
G02*
X292326250Y-84253125I250000J0D01*
G01*
X292826250Y-84253125D01*
G75*
G02*
X293076250Y-84503125I0J-250000D01*
G01*
G37*
G36*
G01*
X297801250Y-86878125D02*
X299051250Y-86878125D01*
G75*
G02*
X299301250Y-87128125I0J-250000D01*
G01*
X299301250Y-88053125D01*
G75*
G02*
X299051250Y-88303125I-250000J0D01*
G01*
X297801250Y-88303125D01*
G75*
G02*
X297551250Y-88053125I0J250000D01*
G01*
X297551250Y-87128125D01*
G75*
G02*
X297801250Y-86878125I250000J0D01*
G01*
G37*
G36*
G01*
X297801250Y-83903125D02*
X299051250Y-83903125D01*
G75*
G02*
X299301250Y-84153125I0J-250000D01*
G01*
X299301250Y-85078125D01*
G75*
G02*
X299051250Y-85328125I-250000J0D01*
G01*
X297801250Y-85328125D01*
G75*
G02*
X297551250Y-85078125I0J250000D01*
G01*
X297551250Y-84153125D01*
G75*
G02*
X297801250Y-83903125I250000J0D01*
G01*
G37*
G36*
G01*
X331457250Y-97693125D02*
X331457250Y-96443125D01*
G75*
G02*
X331707250Y-96193125I250000J0D01*
G01*
X332632250Y-96193125D01*
G75*
G02*
X332882250Y-96443125I0J-250000D01*
G01*
X332882250Y-97693125D01*
G75*
G02*
X332632250Y-97943125I-250000J0D01*
G01*
X331707250Y-97943125D01*
G75*
G02*
X331457250Y-97693125I0J250000D01*
G01*
G37*
G36*
G01*
X328482250Y-97693125D02*
X328482250Y-96443125D01*
G75*
G02*
X328732250Y-96193125I250000J0D01*
G01*
X329657250Y-96193125D01*
G75*
G02*
X329907250Y-96443125I0J-250000D01*
G01*
X329907250Y-97693125D01*
G75*
G02*
X329657250Y-97943125I-250000J0D01*
G01*
X328732250Y-97943125D01*
G75*
G02*
X328482250Y-97693125I0J250000D01*
G01*
G37*
G36*
G01*
X142194800Y-162744800D02*
X142894800Y-162744800D01*
G75*
G02*
X143144800Y-162994800I0J-250000D01*
G01*
X143144800Y-163494800D01*
G75*
G02*
X142894800Y-163744800I-250000J0D01*
G01*
X142194800Y-163744800D01*
G75*
G02*
X141944800Y-163494800I0J250000D01*
G01*
X141944800Y-162994800D01*
G75*
G02*
X142194800Y-162744800I250000J0D01*
G01*
G37*
G36*
G01*
X142194800Y-159444800D02*
X142894800Y-159444800D01*
G75*
G02*
X143144800Y-159694800I0J-250000D01*
G01*
X143144800Y-160194800D01*
G75*
G02*
X142894800Y-160444800I-250000J0D01*
G01*
X142194800Y-160444800D01*
G75*
G02*
X141944800Y-160194800I0J250000D01*
G01*
X141944800Y-159694800D01*
G75*
G02*
X142194800Y-159444800I250000J0D01*
G01*
G37*
M02*
