M48
; DRILL file {KiCad (5.1.6)-1} date 02/08/21 15:22:06
; FORMAT={-:-/ absolute / inch / decimal}
; #@! TF.CreationDate,2021-02-08T15:22:06+09:00
; #@! TF.GenerationSoftware,Kicad,Pcbnew,(5.1.6)-1
; #@! TF.FileFunction,Plated,1,2,PTH
FMAT,2
INCH
T1C0.0118
T2C0.0157
T3C0.0197
T4C0.0236
T5C0.0300
T6C0.0600
T7C0.0984
%
G90
G05
T1
X12.444Y-5.6073
X12.5023Y-5.5285
X12.569Y-5.3066
X12.584Y-4.7266
X12.614Y-4.5816
X12.674Y-5.0166
X12.724Y-4.5116
X12.724Y-5.0516
X12.779Y-4.7466
X12.849Y-6.0516
X12.8495Y-4.6104
X12.854Y-4.7266
X12.899Y-6.0716
X12.944Y-4.6866
X12.9873Y-4.6066
X13.0306Y-4.9745
X13.0765Y-3.8241
X13.0778Y-4.5651
X13.134Y-3.7016
X13.1565Y-3.6753
X13.2156Y-3.6753
X13.2768Y-3.6753
X13.329Y-4.003
X13.329Y-4.0428
X13.3455Y-3.6753
X13.3967Y-3.6753
X13.429Y-4.6116
X13.442Y-3.6753
X13.449Y-4.6466
X13.692Y-3.8249
T2
X3.158Y-5.118
X3.3758Y-4.4915
X3.56Y-4.93
X4.0Y-4.638
X4.0088Y-5.2955
X4.262Y-4.638
X5.5299Y-5.881
X6.204Y-5.634
X6.35Y-5.772
X6.466Y-5.9988
X7.832Y-5.804
X8.322Y-6.654
X8.3994Y-5.9535
X9.1025Y-5.9645
X9.536Y-5.8854
X9.86Y-6.5779
X9.904Y-6.48
X9.9162Y-5.936
X10.0942Y-6.0615
X10.122Y-6.344
X11.6533Y-5.8339
X12.39Y-6.478
X12.4482Y-4.4586
X12.8347Y-4.3003
X12.848Y-6.276
X12.989Y-3.9216
T3
X12.138Y-5.944
X12.208Y-5.908
X13.0Y-5.512
T5
X12.1708Y-6.3976
X12.1708Y-6.5976
X12.1708Y-6.7976
X12.1758Y-6.4976
X12.1758Y-6.6976
X12.2708Y-6.3976
X12.2708Y-6.5976
X12.2708Y-6.7976
X12.2758Y-6.4976
X12.2758Y-6.6976
X13.879Y-3.9466
X13.879Y-4.0466
X13.879Y-4.1466
X13.879Y-4.2466
X13.879Y-4.3466
X13.879Y-4.4466
X13.879Y-4.5466
X13.879Y-4.6466
X13.879Y-4.7466
X13.879Y-4.8466
X13.879Y-4.9466
X13.879Y-5.0466
X13.879Y-5.1466
X13.879Y-5.2466
T6
X4.8062Y-6.3937
X5.0562Y-6.4937
X11.7438Y-6.3937
X11.9938Y-6.4937
X6.1187Y-6.3937
X6.3687Y-6.4937
X8.9352Y-5.6466
X9.1852Y-5.7466
X12.5875Y-6.3937
X12.8375Y-6.4937
X13.2477Y-4.8966
X13.4977Y-4.9966
X3.7789Y-3.3966
X4.0289Y-3.4966
X7.3415Y-5.6466
X7.5915Y-5.7466
X8.4665Y-4.8966
X8.7165Y-4.9966
X10.7165Y-4.8966
X10.9665Y-4.9966
X13.0602Y-5.6466
X13.3102Y-5.7466
X5.279Y-3.3966
X5.529Y-3.4966
X5.9312Y-6.3937
X6.1812Y-6.4937
X5.654Y-4.1466
X5.904Y-4.2466
X6.6812Y-5.6466
X6.9312Y-5.7466
X11.1852Y-5.6466
X11.4352Y-5.7466
X3.6852Y-5.6466
X3.9352Y-5.7466
X4.4352Y-5.6466
X4.6852Y-5.7466
X6.775Y-6.3937
X7.025Y-6.4937
X9.779Y-3.3966
X10.029Y-3.4966
X5.275Y-6.3937
X5.525Y-6.4937
X3.775Y-6.3937
X4.025Y-6.4937
X4.0602Y-5.6466
X4.3102Y-5.7466
X4.9937Y-6.3937
X5.2437Y-6.4937
X11.0875Y-6.3937
X11.3375Y-6.4937
X8.0915Y-5.6466
X8.3415Y-5.7466
X9.1188Y-6.3937
X9.3688Y-6.4937
X10.3415Y-5.6466
X10.5915Y-5.7466
X13.3415Y-4.1466
X13.5915Y-4.2466
X9.2165Y-4.8966
X9.4665Y-4.9966
X13.4352Y-5.6466
X13.6852Y-5.7466
X6.404Y-4.1466
X6.654Y-4.2466
X3.2162Y-4.1477
X3.4662Y-4.2477
X10.904Y-4.1466
X11.154Y-4.2466
X10.4352Y-5.6466
X10.6852Y-5.7466
X6.5915Y-5.6466
X6.8415Y-5.7466
X4.344Y-4.8946
X4.594Y-4.9946
X9.6852Y-5.6466
X9.9352Y-5.7466
X8.7438Y-6.3937
X8.9938Y-6.4937
X11.279Y-3.3966
X11.529Y-3.4966
X4.525Y-6.3937
X4.775Y-6.4937
X8.8415Y-5.6466
X9.0915Y-5.7466
X4.1539Y-4.1466
X4.4039Y-4.2466
X11.0915Y-5.6466
X11.3415Y-5.7466
X8.654Y-4.1466
X8.904Y-4.2466
X3.6852Y-5.6466
X3.9352Y-5.7466
X11.654Y-4.1466
X11.904Y-4.2466
X4.3423Y-5.6453
X4.5923Y-5.7453
X7.154Y-4.1466
X7.404Y-4.2466
X8.279Y-3.3966
X8.529Y-3.4966
X3.1187Y-6.3937
X3.3687Y-6.4937
X5.9312Y-5.6466
X6.1812Y-5.7466
X10.9Y-6.3937
X11.15Y-6.4937
X12.5875Y-6.3937
X12.8375Y-6.4937
X7.0562Y-6.3937
X7.3062Y-6.4937
X10.529Y-3.3966
X10.779Y-3.4966
X3.775Y-6.3937
X4.025Y-6.4937
X8.8375Y-6.3937
X9.0875Y-6.4937
X5.0915Y-5.6466
X5.3415Y-5.7466
X3.1227Y-4.5216
X3.3727Y-4.6216
X12.4938Y-6.3937
X12.7438Y-6.4937
X6.779Y-3.3966
X7.029Y-3.4966
X4.7164Y-4.8966
X4.9664Y-4.9966
X4.904Y-4.1466
X5.154Y-4.2466
X7.529Y-3.3966
X7.779Y-3.4966
X3.3104Y-5.6463
X3.5604Y-5.7463
X4.5289Y-3.3966
X4.7789Y-3.4966
X7.4352Y-5.6466
X7.6852Y-5.7466
X8.1852Y-5.6466
X8.4352Y-5.7466
X4.0602Y-5.6466
X4.3102Y-5.7466
X9.029Y-3.3966
X9.279Y-3.4966
X6.025Y-6.3937
X6.275Y-6.4937
X12.029Y-3.3966
X12.279Y-3.4966
X10.2438Y-6.3937
X10.4938Y-6.4937
X4.525Y-6.3937
X4.775Y-6.4937
X9.5915Y-5.6466
X9.8415Y-5.7466
X5.1812Y-5.6466
X5.4312Y-5.7466
X3.029Y-3.3966
X3.279Y-3.4966
X3.4039Y-3.3966
X3.6539Y-3.4966
X5.4665Y-4.8966
X5.7165Y-4.9966
X12.5915Y-5.6466
X12.8415Y-5.7466
X12.2165Y-4.8966
X12.4665Y-4.9966
X11.4665Y-4.8966
X11.7165Y-4.9966
X10.6188Y-6.3937
X10.8688Y-6.4937
X10.154Y-4.1466
X10.404Y-4.2466
X11.5563Y-6.3937
X11.8063Y-6.4937
X12.779Y-3.3966
X13.029Y-3.4966
X13.4313Y-6.3937
X13.6813Y-6.4937
X13.0602Y-5.6466
X13.3102Y-5.7466
X4.0562Y-6.3937
X4.3062Y-6.4937
X5.7437Y-6.3937
X5.9937Y-6.4937
X3.1187Y-6.3937
X3.3687Y-6.4937
X6.6812Y-6.3937
X6.9312Y-6.4937
X6.9665Y-4.8966
X7.2165Y-4.9966
X3.9665Y-4.8966
X4.2165Y-4.9966
X6.2165Y-4.8966
X6.4665Y-4.9966
X13.529Y-3.3966
X13.779Y-3.4966
X7.6187Y-6.3937
X7.8687Y-6.4937
X6.029Y-3.3966
X6.279Y-3.4966
X11.9352Y-5.6466
X12.1852Y-5.7466
X13.4352Y-5.6466
X13.6852Y-5.7466
X8.65Y-6.3937
X8.9Y-6.4937
X3.025Y-6.3937
X3.275Y-6.4937
X3.0289Y-5.6466
X3.2789Y-5.7466
X3.025Y-6.3937
X3.275Y-6.4937
X5.275Y-6.3937
X5.525Y-6.4937
X3.9625Y-6.3937
X4.2125Y-6.4937
X13.4352Y-4.8966
X13.6852Y-4.9966
X7.7165Y-4.8966
X7.9665Y-4.9966
X9.404Y-4.1466
X9.654Y-4.2466
X12.404Y-4.1466
X12.654Y-4.2466
X9.9665Y-4.8966
X10.2165Y-4.9966
X7.904Y-4.1466
X8.154Y-4.2466
X5.8415Y-5.6466
X6.0915Y-5.7466
X11.8415Y-5.6466
X12.0915Y-5.7466
X12.7165Y-5.6466
X12.9665Y-5.7466
X11.8375Y-6.3937
X12.0875Y-6.4937
T4
G00X13.127Y-3.3289
M15
G01X13.127Y-3.3052
M16
G05
G00X13.127Y-3.5041
M15
G01X13.127Y-3.4608
M16
G05
G00X13.4656Y-3.3289
M15
G01X13.4656Y-3.3052
M16
G05
G00X13.4656Y-3.5041
M15
G01X13.4656Y-3.4608
M16
G05
T7
G00X10.9548Y-3.5966
M15
G01X11.0532Y-3.5966
M16
G05
G00X13.0688Y-4.3466
M15
G01X12.9704Y-4.3466
M16
G05
G00X5.7047Y-3.5966
M15
G01X5.8032Y-3.5966
M16
G05
G00X3.7254Y-6.7293
M15
G01X3.8239Y-6.7293
M16
G05
G00X12.9932Y-6.5887
M15
G01X13.0916Y-6.5887
M16
G05
G00X3.8022Y-4.3466
M15
G01X3.7038Y-4.3466
M16
G05
G00X6.5392Y-6.5879
M15
G01X6.4408Y-6.5879
M16
G05
G00X8.9907Y-5.0966
M15
G01X8.8923Y-5.0966
M16
G05
G00X14.0577Y-5.4714
M15
G01X13.8412Y-5.4714
M16
G05
G00X2.6999Y-5.4716
M15
G01X2.9164Y-5.4716
M16
G05
T0
M30
