M48
; DRILL file {KiCad (5.1.6)-1} date 02/08/21 15:22:06
; FORMAT={-:-/ absolute / inch / decimal}
; #@! TF.CreationDate,2021-02-08T15:22:06+09:00
; #@! TF.GenerationSoftware,Kicad,Pcbnew,(5.1.6)-1
; #@! TF.FileFunction,NonPlated,1,2,NPTH
FMAT,2
INCH
T1C0.0256
T2C0.0670
T3C0.1200
T4C0.1570
%
G90
G05
T1
X13.1825Y-3.4607
X13.4101Y-3.4607
T2
X3.8625Y-6.5938
X4.2625Y-6.5938
X13.3352Y-5.0966
X13.7352Y-5.0966
X7.6165Y-5.0966
X8.0165Y-5.0966
X9.304Y-4.3466
X9.704Y-4.3466
X12.304Y-4.3466
X12.704Y-4.3466
X9.8665Y-5.0966
X10.2665Y-5.0966
X7.804Y-4.3466
X8.204Y-4.3466
X5.7415Y-5.8466
X6.1415Y-5.8466
X11.7415Y-5.8466
X12.1415Y-5.8466
X12.6165Y-5.8466
X13.0165Y-5.8466
X11.7375Y-6.5938
X12.1375Y-6.5938
X4.7062Y-6.5938
X5.1063Y-6.5938
X11.6437Y-6.5938
X12.0437Y-6.5938
X6.0187Y-6.5938
X6.4188Y-6.5938
X8.8352Y-5.8466
X9.2352Y-5.8466
X12.4875Y-6.5938
X12.8875Y-6.5938
X13.1477Y-5.0966
X13.5477Y-5.0966
X3.6789Y-3.5966
X4.0789Y-3.5966
X7.2415Y-5.8466
X7.6415Y-5.8466
X8.3665Y-5.0966
X8.7665Y-5.0966
X10.6165Y-5.0966
X11.0165Y-5.0966
X12.9602Y-5.8466
X13.3602Y-5.8466
X5.179Y-3.5966
X5.579Y-3.5966
X5.8312Y-6.5938
X6.2313Y-6.5938
X5.554Y-4.3466
X5.954Y-4.3466
X6.5812Y-5.8466
X6.9813Y-5.8466
X11.0852Y-5.8466
X11.4852Y-5.8466
X3.5852Y-5.8466
X3.9852Y-5.8466
X4.3352Y-5.8466
X4.7352Y-5.8466
X6.675Y-6.5938
X7.075Y-6.5938
X9.679Y-3.5966
X10.079Y-3.5966
X5.175Y-6.5938
X5.575Y-6.5938
X3.675Y-6.5938
X4.075Y-6.5938
X3.9602Y-5.8466
X4.3602Y-5.8466
X4.8937Y-6.5938
X5.2938Y-6.5938
X10.9875Y-6.5938
X11.3875Y-6.5938
X7.9915Y-5.8466
X8.3915Y-5.8466
X9.0187Y-6.5938
X9.4187Y-6.5938
X10.2415Y-5.8466
X10.6415Y-5.8466
X13.2415Y-4.3466
X13.6415Y-4.3466
X9.1165Y-5.0966
X9.5165Y-5.0966
X13.3352Y-5.8466
X13.7352Y-5.8466
X6.304Y-4.3466
X6.704Y-4.3466
X3.1162Y-4.3477
X3.5162Y-4.3477
X10.804Y-4.3466
X11.204Y-4.3466
X10.3352Y-5.8466
X10.7352Y-5.8466
X6.4915Y-5.8466
X6.8915Y-5.8466
X4.244Y-5.0946
X4.644Y-5.0946
X9.5852Y-5.8466
X9.9852Y-5.8466
X8.6437Y-6.5938
X9.0437Y-6.5938
X11.179Y-3.5966
X11.579Y-3.5966
X4.425Y-6.5938
X4.825Y-6.5938
X8.7415Y-5.8466
X9.1415Y-5.8466
X4.0539Y-4.3466
X4.4539Y-4.3466
X10.9915Y-5.8466
X11.3915Y-5.8466
X8.554Y-4.3466
X8.954Y-4.3466
X3.5852Y-5.8466
X3.9852Y-5.8466
X11.554Y-4.3466
X11.954Y-4.3466
X4.2423Y-5.8453
X4.6423Y-5.8453
X7.054Y-4.3466
X7.454Y-4.3466
X8.179Y-3.5966
X8.579Y-3.5966
X3.0187Y-6.5938
X3.4187Y-6.5938
X5.8312Y-5.8466
X6.2313Y-5.8466
X10.8Y-6.5938
X11.2Y-6.5938
X12.4875Y-6.5938
X12.8875Y-6.5938
X6.9562Y-6.5938
X7.3563Y-6.5938
X10.429Y-3.5966
X10.829Y-3.5966
X3.675Y-6.5938
X4.075Y-6.5938
X8.7375Y-6.5938
X9.1375Y-6.5938
X4.9915Y-5.8466
X5.3915Y-5.8466
X3.0227Y-4.7216
X3.4227Y-4.7216
X12.3937Y-6.5938
X12.7937Y-6.5938
X6.679Y-3.5966
X7.079Y-3.5966
X4.6164Y-5.0966
X5.0164Y-5.0966
X4.8039Y-4.3466
X5.2039Y-4.3466
X7.429Y-3.5966
X7.829Y-3.5966
X3.2104Y-5.8463
X3.6104Y-5.8463
X4.4289Y-3.5966
X4.8289Y-3.5966
X7.3352Y-5.8466
X7.7352Y-5.8466
X8.0852Y-5.8466
X8.4852Y-5.8466
X3.9602Y-5.8466
X4.3602Y-5.8466
X8.929Y-3.5966
X9.329Y-3.5966
X5.925Y-6.5938
X6.325Y-6.5938
X11.929Y-3.5966
X12.329Y-3.5966
X10.1437Y-6.5938
X10.5437Y-6.5938
X4.425Y-6.5938
X4.825Y-6.5938
X9.4915Y-5.8466
X9.8915Y-5.8466
X5.0812Y-5.8466
X5.4813Y-5.8466
X2.929Y-3.5966
X3.329Y-3.5966
X3.3039Y-3.5966
X3.7039Y-3.5966
X5.3665Y-5.0966
X5.7665Y-5.0966
X12.4915Y-5.8466
X12.8915Y-5.8466
X12.1165Y-5.0966
X12.5165Y-5.0966
X11.3665Y-5.0966
X11.7665Y-5.0966
X10.5187Y-6.5938
X10.9187Y-6.5938
X10.054Y-4.3466
X10.454Y-4.3466
X11.4562Y-6.5938
X11.8562Y-6.5938
X12.679Y-3.5966
X13.079Y-3.5966
X13.3312Y-6.5938
X13.7312Y-6.5938
X12.9602Y-5.8466
X13.3602Y-5.8466
X3.9562Y-6.5938
X4.3563Y-6.5938
X5.6437Y-6.5938
X6.0438Y-6.5938
X3.0187Y-6.5938
X3.4187Y-6.5938
X6.5812Y-6.5938
X6.9813Y-6.5938
X6.8665Y-5.0966
X7.2665Y-5.0966
X3.8665Y-5.0966
X4.2665Y-5.0966
X6.1165Y-5.0966
X6.5165Y-5.0966
X13.429Y-3.5966
X13.829Y-3.5966
X7.5187Y-6.5938
X7.9188Y-6.5938
X5.929Y-3.5966
X6.329Y-3.5966
X11.8352Y-5.8466
X12.2352Y-5.8466
X13.3352Y-5.8466
X13.7352Y-5.8466
X8.55Y-6.5938
X8.95Y-6.5938
X2.925Y-6.5938
X3.325Y-6.5938
X2.9289Y-5.8466
X3.3289Y-5.8466
X2.925Y-6.5938
X3.325Y-6.5938
X5.175Y-6.5938
X5.575Y-6.5938
T3
X12.6902Y-6.1216
X13.6302Y-6.1216
X8.7487Y-6.8687
X9.6888Y-6.8687
X3.974Y-4.8196
X4.914Y-4.8196
X6.8738Y-6.8687
X10.8138Y-6.8687
X3.3152Y-6.1216
X4.2552Y-6.1216
X7.5677Y-6.87
X10.3016Y-6.87
X2.9477Y-4.2516
X2.9477Y-5.1916
X3.6902Y-6.1216
X4.6302Y-6.1216
X3.0339Y-3.3216
X3.9739Y-3.3216
X12.6902Y-6.1216
X13.6302Y-6.1216
X8.28Y-6.8687
X9.22Y-6.8687
T4
X4.9062Y-6.5938
X11.8438Y-6.5938
X6.2188Y-6.5938
X9.0352Y-5.8466
X12.6875Y-6.5938
X13.3477Y-5.0966
X3.8789Y-3.5966
X7.4415Y-5.8466
X8.5665Y-5.0966
X10.8165Y-5.0966
X12.6902Y-5.5216
X13.1602Y-5.8466
X13.6302Y-5.5216
X5.379Y-3.5966
X6.0312Y-6.5938
X5.754Y-4.3466
X6.7812Y-5.8466
X11.2852Y-5.8466
X3.7852Y-5.8466
X4.5352Y-5.8466
X6.875Y-6.5938
X9.879Y-3.5966
X5.375Y-6.5938
X3.875Y-6.5938
X4.1602Y-5.8466
X5.0938Y-6.5938
X11.1875Y-6.5938
X8.1915Y-5.8466
X8.7487Y-6.2687
X9.2188Y-6.5938
X9.6888Y-6.2687
X10.4415Y-5.8466
X13.4415Y-4.3466
X9.3165Y-5.0966
X13.5352Y-5.8466
X6.504Y-4.3466
X3.3162Y-4.3477
X11.004Y-4.3466
X10.5352Y-5.8466
X6.6915Y-5.8466
X3.974Y-5.4196
X4.444Y-5.0946
X4.914Y-5.4196
X9.7852Y-5.8466
X6.8738Y-6.2687
X8.8438Y-6.5938
X10.8138Y-6.2687
X11.379Y-3.5966
X4.625Y-6.5938
X8.9415Y-5.8466
X4.2539Y-4.3466
X11.1915Y-5.8466
X8.754Y-4.3466
X3.3152Y-5.5216
X3.7852Y-5.8466
X4.2552Y-5.5216
X11.754Y-4.3466
X4.4423Y-5.8453
X7.254Y-4.3466
X8.379Y-3.5966
X3.2188Y-6.5938
X6.0312Y-5.8466
X11.0Y-6.5938
X12.6875Y-6.5938
X7.1562Y-6.5938
X10.629Y-3.5966
X3.875Y-6.5938
X7.5677Y-6.2699
X8.9375Y-6.5938
X10.3016Y-6.2699
X5.1915Y-5.8466
X3.2227Y-4.7216
X3.5477Y-4.2516
X3.5477Y-5.1916
X12.5938Y-6.5938
X6.879Y-3.5966
X4.8164Y-5.0966
X5.0039Y-4.3466
X7.629Y-3.5966
X3.4104Y-5.8463
X4.6289Y-3.5966
X7.5352Y-5.8466
X8.2852Y-5.8466
X3.6902Y-5.5216
X4.1602Y-5.8466
X4.6302Y-5.5216
X9.129Y-3.5966
X6.125Y-6.5938
X12.129Y-3.5966
X10.3438Y-6.5938
X4.625Y-6.5938
X9.6915Y-5.8466
X5.2812Y-5.8466
X3.129Y-3.5966
X3.0339Y-3.9216
X3.5039Y-3.5966
X3.9739Y-3.9216
X5.5665Y-5.0966
X12.6915Y-5.8466
X12.3165Y-5.0966
X11.5665Y-5.0966
X10.7188Y-6.5938
X10.254Y-4.3466
X11.6562Y-6.5938
X12.879Y-3.5966
X13.5312Y-6.5938
X12.6902Y-5.5216
X13.1602Y-5.8466
X13.6302Y-5.5216
X4.1562Y-6.5938
X5.8438Y-6.5938
X3.2188Y-6.5938
X6.7812Y-6.5938
X7.0665Y-5.0966
X4.0665Y-5.0966
X6.3165Y-5.0966
X13.629Y-3.5966
X7.7188Y-6.5938
X6.129Y-3.5966
X12.0352Y-5.8466
X13.5352Y-5.8466
X8.28Y-6.2687
X8.75Y-6.5938
X9.22Y-6.2687
X3.125Y-6.5938
X3.1289Y-5.8466
X3.125Y-6.5938
X5.375Y-6.5938
X4.0625Y-6.5938
X13.5352Y-5.0966
X7.8165Y-5.0966
X9.504Y-4.3466
X12.504Y-4.3466
X10.0665Y-5.0966
X8.004Y-4.3466
X5.9415Y-5.8466
X11.9415Y-5.8466
X12.8165Y-5.8466
X11.9375Y-6.5938
T0
M30
