G04 #@! TF.GenerationSoftware,KiCad,Pcbnew,(5.1.10)-1*
G04 #@! TF.CreationDate,2021-10-12T23:34:01+09:00*
G04 #@! TF.ProjectId,Joker60-NoArrows,4a6f6b65-7236-4302-9d4e-6f4172726f77,pre-Alpha*
G04 #@! TF.SameCoordinates,Original*
G04 #@! TF.FileFunction,Paste,Top*
G04 #@! TF.FilePolarity,Positive*
%FSLAX46Y46*%
G04 Gerber Fmt 4.6, Leading zero omitted, Abs format (unit mm)*
G04 Created by KiCad (PCBNEW (5.1.10)-1) date 2021-10-12 23:34:01*
%MOMM*%
%LPD*%
G01*
G04 APERTURE LIST*
%ADD10R,1.060000X0.650000*%
%ADD11R,1.100000X1.800000*%
G04 APERTURE END LIST*
G36*
G01*
X316760500Y-93775015D02*
X316060500Y-93775015D01*
G75*
G02*
X315810500Y-93525015I0J250000D01*
G01*
X315810500Y-93025015D01*
G75*
G02*
X316060500Y-92775015I250000J0D01*
G01*
X316760500Y-92775015D01*
G75*
G02*
X317010500Y-93025015I0J-250000D01*
G01*
X317010500Y-93525015D01*
G75*
G02*
X316760500Y-93775015I-250000J0D01*
G01*
G37*
G36*
G01*
X316760500Y-97075015D02*
X316060500Y-97075015D01*
G75*
G02*
X315810500Y-96825015I0J250000D01*
G01*
X315810500Y-96325015D01*
G75*
G02*
X316060500Y-96075015I250000J0D01*
G01*
X316760500Y-96075015D01*
G75*
G02*
X317010500Y-96325015I0J-250000D01*
G01*
X317010500Y-96825015D01*
G75*
G02*
X316760500Y-97075015I-250000J0D01*
G01*
G37*
G36*
G01*
X273526250Y-93775015D02*
X272826250Y-93775015D01*
G75*
G02*
X272576250Y-93525015I0J250000D01*
G01*
X272576250Y-93025015D01*
G75*
G02*
X272826250Y-92775015I250000J0D01*
G01*
X273526250Y-92775015D01*
G75*
G02*
X273776250Y-93025015I0J-250000D01*
G01*
X273776250Y-93525015D01*
G75*
G02*
X273526250Y-93775015I-250000J0D01*
G01*
G37*
G36*
G01*
X273526250Y-97075015D02*
X272826250Y-97075015D01*
G75*
G02*
X272576250Y-96825015I0J250000D01*
G01*
X272576250Y-96325015D01*
G75*
G02*
X272826250Y-96075015I250000J0D01*
G01*
X273526250Y-96075015D01*
G75*
G02*
X273776250Y-96325015I0J-250000D01*
G01*
X273776250Y-96825015D01*
G75*
G02*
X273526250Y-97075015I-250000J0D01*
G01*
G37*
G36*
G01*
X121366800Y-145422000D02*
X122066800Y-145422000D01*
G75*
G02*
X122316800Y-145672000I0J-250000D01*
G01*
X122316800Y-146172000D01*
G75*
G02*
X122066800Y-146422000I-250000J0D01*
G01*
X121366800Y-146422000D01*
G75*
G02*
X121116800Y-146172000I0J250000D01*
G01*
X121116800Y-145672000D01*
G75*
G02*
X121366800Y-145422000I250000J0D01*
G01*
G37*
G36*
G01*
X121366800Y-142122000D02*
X122066800Y-142122000D01*
G75*
G02*
X122316800Y-142372000I0J-250000D01*
G01*
X122316800Y-142872000D01*
G75*
G02*
X122066800Y-143122000I-250000J0D01*
G01*
X121366800Y-143122000D01*
G75*
G02*
X121116800Y-142872000I0J250000D01*
G01*
X121116800Y-142372000D01*
G75*
G02*
X121366800Y-142122000I250000J0D01*
G01*
G37*
G36*
G01*
X298901050Y-93775015D02*
X298201050Y-93775015D01*
G75*
G02*
X297951050Y-93525015I0J250000D01*
G01*
X297951050Y-93025015D01*
G75*
G02*
X298201050Y-92775015I250000J0D01*
G01*
X298901050Y-92775015D01*
G75*
G02*
X299151050Y-93025015I0J-250000D01*
G01*
X299151050Y-93525015D01*
G75*
G02*
X298901050Y-93775015I-250000J0D01*
G01*
G37*
G36*
G01*
X298901050Y-97075015D02*
X298201050Y-97075015D01*
G75*
G02*
X297951050Y-96825015I0J250000D01*
G01*
X297951050Y-96325015D01*
G75*
G02*
X298201050Y-96075015I250000J0D01*
G01*
X298901050Y-96075015D01*
G75*
G02*
X299151050Y-96325015I0J-250000D01*
G01*
X299151050Y-96825015D01*
G75*
G02*
X298901050Y-97075015I-250000J0D01*
G01*
G37*
G36*
G01*
X260800890Y-93775015D02*
X260100890Y-93775015D01*
G75*
G02*
X259850890Y-93525015I0J250000D01*
G01*
X259850890Y-93025015D01*
G75*
G02*
X260100890Y-92775015I250000J0D01*
G01*
X260800890Y-92775015D01*
G75*
G02*
X261050890Y-93025015I0J-250000D01*
G01*
X261050890Y-93525015D01*
G75*
G02*
X260800890Y-93775015I-250000J0D01*
G01*
G37*
G36*
G01*
X260800890Y-97075015D02*
X260100890Y-97075015D01*
G75*
G02*
X259850890Y-96825015I0J250000D01*
G01*
X259850890Y-96325015D01*
G75*
G02*
X260100890Y-96075015I250000J0D01*
G01*
X260800890Y-96075015D01*
G75*
G02*
X261050890Y-96325015I0J-250000D01*
G01*
X261050890Y-96825015D01*
G75*
G02*
X260800890Y-97075015I-250000J0D01*
G01*
G37*
G36*
G01*
X241750810Y-93775015D02*
X241050810Y-93775015D01*
G75*
G02*
X240800810Y-93525015I0J250000D01*
G01*
X240800810Y-93025015D01*
G75*
G02*
X241050810Y-92775015I250000J0D01*
G01*
X241750810Y-92775015D01*
G75*
G02*
X242000810Y-93025015I0J-250000D01*
G01*
X242000810Y-93525015D01*
G75*
G02*
X241750810Y-93775015I-250000J0D01*
G01*
G37*
G36*
G01*
X241750810Y-97075015D02*
X241050810Y-97075015D01*
G75*
G02*
X240800810Y-96825015I0J250000D01*
G01*
X240800810Y-96325015D01*
G75*
G02*
X241050810Y-96075015I250000J0D01*
G01*
X241750810Y-96075015D01*
G75*
G02*
X242000810Y-96325015I0J-250000D01*
G01*
X242000810Y-96825015D01*
G75*
G02*
X241750810Y-97075015I-250000J0D01*
G01*
G37*
G36*
G01*
X222700730Y-93775015D02*
X222000730Y-93775015D01*
G75*
G02*
X221750730Y-93525015I0J250000D01*
G01*
X221750730Y-93025015D01*
G75*
G02*
X222000730Y-92775015I250000J0D01*
G01*
X222700730Y-92775015D01*
G75*
G02*
X222950730Y-93025015I0J-250000D01*
G01*
X222950730Y-93525015D01*
G75*
G02*
X222700730Y-93775015I-250000J0D01*
G01*
G37*
G36*
G01*
X222700730Y-97075015D02*
X222000730Y-97075015D01*
G75*
G02*
X221750730Y-96825015I0J250000D01*
G01*
X221750730Y-96325015D01*
G75*
G02*
X222000730Y-96075015I250000J0D01*
G01*
X222700730Y-96075015D01*
G75*
G02*
X222950730Y-96325015I0J-250000D01*
G01*
X222950730Y-96825015D01*
G75*
G02*
X222700730Y-97075015I-250000J0D01*
G01*
G37*
G36*
G01*
X88650170Y-143700215D02*
X89350170Y-143700215D01*
G75*
G02*
X89600170Y-143950215I0J-250000D01*
G01*
X89600170Y-144450215D01*
G75*
G02*
X89350170Y-144700215I-250000J0D01*
G01*
X88650170Y-144700215D01*
G75*
G02*
X88400170Y-144450215I0J250000D01*
G01*
X88400170Y-143950215D01*
G75*
G02*
X88650170Y-143700215I250000J0D01*
G01*
G37*
G36*
G01*
X88650170Y-140400215D02*
X89350170Y-140400215D01*
G75*
G02*
X89600170Y-140650215I0J-250000D01*
G01*
X89600170Y-141150215D01*
G75*
G02*
X89350170Y-141400215I-250000J0D01*
G01*
X88650170Y-141400215D01*
G75*
G02*
X88400170Y-141150215I0J250000D01*
G01*
X88400170Y-140650215D01*
G75*
G02*
X88650170Y-140400215I250000J0D01*
G01*
G37*
G36*
G01*
X203650650Y-93775015D02*
X202950650Y-93775015D01*
G75*
G02*
X202700650Y-93525015I0J250000D01*
G01*
X202700650Y-93025015D01*
G75*
G02*
X202950650Y-92775015I250000J0D01*
G01*
X203650650Y-92775015D01*
G75*
G02*
X203900650Y-93025015I0J-250000D01*
G01*
X203900650Y-93525015D01*
G75*
G02*
X203650650Y-93775015I-250000J0D01*
G01*
G37*
G36*
G01*
X203650650Y-97075015D02*
X202950650Y-97075015D01*
G75*
G02*
X202700650Y-96825015I0J250000D01*
G01*
X202700650Y-96325015D01*
G75*
G02*
X202950650Y-96075015I250000J0D01*
G01*
X203650650Y-96075015D01*
G75*
G02*
X203900650Y-96325015I0J-250000D01*
G01*
X203900650Y-96825015D01*
G75*
G02*
X203650650Y-97075015I-250000J0D01*
G01*
G37*
G36*
G01*
X184600570Y-93775015D02*
X183900570Y-93775015D01*
G75*
G02*
X183650570Y-93525015I0J250000D01*
G01*
X183650570Y-93025015D01*
G75*
G02*
X183900570Y-92775015I250000J0D01*
G01*
X184600570Y-92775015D01*
G75*
G02*
X184850570Y-93025015I0J-250000D01*
G01*
X184850570Y-93525015D01*
G75*
G02*
X184600570Y-93775015I-250000J0D01*
G01*
G37*
G36*
G01*
X184600570Y-97075015D02*
X183900570Y-97075015D01*
G75*
G02*
X183650570Y-96825015I0J250000D01*
G01*
X183650570Y-96325015D01*
G75*
G02*
X183900570Y-96075015I250000J0D01*
G01*
X184600570Y-96075015D01*
G75*
G02*
X184850570Y-96325015I0J-250000D01*
G01*
X184850570Y-96825015D01*
G75*
G02*
X184600570Y-97075015I-250000J0D01*
G01*
G37*
G36*
G01*
X320332390Y-93775015D02*
X319632390Y-93775015D01*
G75*
G02*
X319382390Y-93525015I0J250000D01*
G01*
X319382390Y-93025015D01*
G75*
G02*
X319632390Y-92775015I250000J0D01*
G01*
X320332390Y-92775015D01*
G75*
G02*
X320582390Y-93025015I0J-250000D01*
G01*
X320582390Y-93525015D01*
G75*
G02*
X320332390Y-93775015I-250000J0D01*
G01*
G37*
G36*
G01*
X320332390Y-97075015D02*
X319632390Y-97075015D01*
G75*
G02*
X319382390Y-96825015I0J250000D01*
G01*
X319382390Y-96325015D01*
G75*
G02*
X319632390Y-96075015I250000J0D01*
G01*
X320332390Y-96075015D01*
G75*
G02*
X320582390Y-96325015I0J-250000D01*
G01*
X320582390Y-96825015D01*
G75*
G02*
X320332390Y-97075015I-250000J0D01*
G01*
G37*
G36*
G01*
X327655600Y-115881600D02*
X327105600Y-115881600D01*
G75*
G02*
X326905600Y-115681600I0J200000D01*
G01*
X326905600Y-115281600D01*
G75*
G02*
X327105600Y-115081600I200000J0D01*
G01*
X327655600Y-115081600D01*
G75*
G02*
X327855600Y-115281600I0J-200000D01*
G01*
X327855600Y-115681600D01*
G75*
G02*
X327655600Y-115881600I-200000J0D01*
G01*
G37*
G36*
G01*
X327655600Y-117531600D02*
X327105600Y-117531600D01*
G75*
G02*
X326905600Y-117331600I0J200000D01*
G01*
X326905600Y-116931600D01*
G75*
G02*
X327105600Y-116731600I200000J0D01*
G01*
X327655600Y-116731600D01*
G75*
G02*
X327855600Y-116931600I0J-200000D01*
G01*
X327855600Y-117331600D01*
G75*
G02*
X327655600Y-117531600I-200000J0D01*
G01*
G37*
G36*
G01*
X330068600Y-129064200D02*
X329518600Y-129064200D01*
G75*
G02*
X329318600Y-128864200I0J200000D01*
G01*
X329318600Y-128464200D01*
G75*
G02*
X329518600Y-128264200I200000J0D01*
G01*
X330068600Y-128264200D01*
G75*
G02*
X330268600Y-128464200I0J-200000D01*
G01*
X330268600Y-128864200D01*
G75*
G02*
X330068600Y-129064200I-200000J0D01*
G01*
G37*
G36*
G01*
X330068600Y-130714200D02*
X329518600Y-130714200D01*
G75*
G02*
X329318600Y-130514200I0J200000D01*
G01*
X329318600Y-130114200D01*
G75*
G02*
X329518600Y-129914200I200000J0D01*
G01*
X330068600Y-129914200D01*
G75*
G02*
X330268600Y-130114200I0J-200000D01*
G01*
X330268600Y-130514200D01*
G75*
G02*
X330068600Y-130714200I-200000J0D01*
G01*
G37*
G36*
G01*
X321785800Y-117419800D02*
X321785800Y-116869800D01*
G75*
G02*
X321985800Y-116669800I200000J0D01*
G01*
X322385800Y-116669800D01*
G75*
G02*
X322585800Y-116869800I0J-200000D01*
G01*
X322585800Y-117419800D01*
G75*
G02*
X322385800Y-117619800I-200000J0D01*
G01*
X321985800Y-117619800D01*
G75*
G02*
X321785800Y-117419800I0J200000D01*
G01*
G37*
G36*
G01*
X320135800Y-117419800D02*
X320135800Y-116869800D01*
G75*
G02*
X320335800Y-116669800I200000J0D01*
G01*
X320735800Y-116669800D01*
G75*
G02*
X320935800Y-116869800I0J-200000D01*
G01*
X320935800Y-117419800D01*
G75*
G02*
X320735800Y-117619800I-200000J0D01*
G01*
X320335800Y-117619800D01*
G75*
G02*
X320135800Y-117419800I0J200000D01*
G01*
G37*
G36*
G01*
X331516800Y-116032400D02*
X331016800Y-116032400D01*
G75*
G02*
X330791800Y-115807400I0J225000D01*
G01*
X330791800Y-115357400D01*
G75*
G02*
X331016800Y-115132400I225000J0D01*
G01*
X331516800Y-115132400D01*
G75*
G02*
X331741800Y-115357400I0J-225000D01*
G01*
X331741800Y-115807400D01*
G75*
G02*
X331516800Y-116032400I-225000J0D01*
G01*
G37*
G36*
G01*
X331516800Y-117582400D02*
X331016800Y-117582400D01*
G75*
G02*
X330791800Y-117357400I0J225000D01*
G01*
X330791800Y-116907400D01*
G75*
G02*
X331016800Y-116682400I225000J0D01*
G01*
X331516800Y-116682400D01*
G75*
G02*
X331741800Y-116907400I0J-225000D01*
G01*
X331741800Y-117357400D01*
G75*
G02*
X331516800Y-117582400I-225000J0D01*
G01*
G37*
G36*
G01*
X320070600Y-118469600D02*
X320070600Y-118969600D01*
G75*
G02*
X319845600Y-119194600I-225000J0D01*
G01*
X319395600Y-119194600D01*
G75*
G02*
X319170600Y-118969600I0J225000D01*
G01*
X319170600Y-118469600D01*
G75*
G02*
X319395600Y-118244600I225000J0D01*
G01*
X319845600Y-118244600D01*
G75*
G02*
X320070600Y-118469600I0J-225000D01*
G01*
G37*
G36*
G01*
X321620600Y-118469600D02*
X321620600Y-118969600D01*
G75*
G02*
X321395600Y-119194600I-225000J0D01*
G01*
X320945600Y-119194600D01*
G75*
G02*
X320720600Y-118969600I0J225000D01*
G01*
X320720600Y-118469600D01*
G75*
G02*
X320945600Y-118244600I225000J0D01*
G01*
X321395600Y-118244600D01*
G75*
G02*
X321620600Y-118469600I0J-225000D01*
G01*
G37*
G36*
G01*
X329560600Y-115856200D02*
X329010600Y-115856200D01*
G75*
G02*
X328810600Y-115656200I0J200000D01*
G01*
X328810600Y-115256200D01*
G75*
G02*
X329010600Y-115056200I200000J0D01*
G01*
X329560600Y-115056200D01*
G75*
G02*
X329760600Y-115256200I0J-200000D01*
G01*
X329760600Y-115656200D01*
G75*
G02*
X329560600Y-115856200I-200000J0D01*
G01*
G37*
G36*
G01*
X329560600Y-117506200D02*
X329010600Y-117506200D01*
G75*
G02*
X328810600Y-117306200I0J200000D01*
G01*
X328810600Y-116906200D01*
G75*
G02*
X329010600Y-116706200I200000J0D01*
G01*
X329560600Y-116706200D01*
G75*
G02*
X329760600Y-116906200I0J-200000D01*
G01*
X329760600Y-117306200D01*
G75*
G02*
X329560600Y-117506200I-200000J0D01*
G01*
G37*
G36*
G01*
X284613490Y-133065805D02*
X283913490Y-133065805D01*
G75*
G02*
X283663490Y-132815805I0J250000D01*
G01*
X283663490Y-132315805D01*
G75*
G02*
X283913490Y-132065805I250000J0D01*
G01*
X284613490Y-132065805D01*
G75*
G02*
X284863490Y-132315805I0J-250000D01*
G01*
X284863490Y-132815805D01*
G75*
G02*
X284613490Y-133065805I-250000J0D01*
G01*
G37*
G36*
G01*
X284613490Y-136365805D02*
X283913490Y-136365805D01*
G75*
G02*
X283663490Y-136115805I0J250000D01*
G01*
X283663490Y-135615805D01*
G75*
G02*
X283913490Y-135365805I250000J0D01*
G01*
X284613490Y-135365805D01*
G75*
G02*
X284863490Y-135615805I0J-250000D01*
G01*
X284863490Y-136115805D01*
G75*
G02*
X284613490Y-136365805I-250000J0D01*
G01*
G37*
G36*
G01*
X306640346Y-133065589D02*
X305940346Y-133065589D01*
G75*
G02*
X305690346Y-132815589I0J250000D01*
G01*
X305690346Y-132315589D01*
G75*
G02*
X305940346Y-132065589I250000J0D01*
G01*
X306640346Y-132065589D01*
G75*
G02*
X306890346Y-132315589I0J-250000D01*
G01*
X306890346Y-132815589D01*
G75*
G02*
X306640346Y-133065589I-250000J0D01*
G01*
G37*
G36*
G01*
X306640346Y-136365589D02*
X305940346Y-136365589D01*
G75*
G02*
X305690346Y-136115589I0J250000D01*
G01*
X305690346Y-135615589D01*
G75*
G02*
X305940346Y-135365589I250000J0D01*
G01*
X306640346Y-135365589D01*
G75*
G02*
X306890346Y-135615589I0J-250000D01*
G01*
X306890346Y-136115589D01*
G75*
G02*
X306640346Y-136365589I-250000J0D01*
G01*
G37*
G36*
G01*
X246513330Y-133065805D02*
X245813330Y-133065805D01*
G75*
G02*
X245563330Y-132815805I0J250000D01*
G01*
X245563330Y-132315805D01*
G75*
G02*
X245813330Y-132065805I250000J0D01*
G01*
X246513330Y-132065805D01*
G75*
G02*
X246763330Y-132315805I0J-250000D01*
G01*
X246763330Y-132815805D01*
G75*
G02*
X246513330Y-133065805I-250000J0D01*
G01*
G37*
G36*
G01*
X246513330Y-136365805D02*
X245813330Y-136365805D01*
G75*
G02*
X245563330Y-136115805I0J250000D01*
G01*
X245563330Y-135615805D01*
G75*
G02*
X245813330Y-135365805I250000J0D01*
G01*
X246513330Y-135365805D01*
G75*
G02*
X246763330Y-135615805I0J-250000D01*
G01*
X246763330Y-136115805D01*
G75*
G02*
X246513330Y-136365805I-250000J0D01*
G01*
G37*
G36*
G01*
X303663570Y-133065805D02*
X302963570Y-133065805D01*
G75*
G02*
X302713570Y-132815805I0J250000D01*
G01*
X302713570Y-132315805D01*
G75*
G02*
X302963570Y-132065805I250000J0D01*
G01*
X303663570Y-132065805D01*
G75*
G02*
X303913570Y-132315805I0J-250000D01*
G01*
X303913570Y-132815805D01*
G75*
G02*
X303663570Y-133065805I-250000J0D01*
G01*
G37*
G36*
G01*
X303663570Y-136365805D02*
X302963570Y-136365805D01*
G75*
G02*
X302713570Y-136115805I0J250000D01*
G01*
X302713570Y-135615805D01*
G75*
G02*
X302963570Y-135365805I250000J0D01*
G01*
X303663570Y-135365805D01*
G75*
G02*
X303913570Y-135615805I0J-250000D01*
G01*
X303913570Y-136115805D01*
G75*
G02*
X303663570Y-136365805I-250000J0D01*
G01*
G37*
G36*
G01*
X255338290Y-143700215D02*
X256038290Y-143700215D01*
G75*
G02*
X256288290Y-143950215I0J-250000D01*
G01*
X256288290Y-144450215D01*
G75*
G02*
X256038290Y-144700215I-250000J0D01*
G01*
X255338290Y-144700215D01*
G75*
G02*
X255088290Y-144450215I0J250000D01*
G01*
X255088290Y-143950215D01*
G75*
G02*
X255338290Y-143700215I250000J0D01*
G01*
G37*
G36*
G01*
X255338290Y-140400215D02*
X256038290Y-140400215D01*
G75*
G02*
X256288290Y-140650215I0J-250000D01*
G01*
X256288290Y-141150215D01*
G75*
G02*
X256038290Y-141400215I-250000J0D01*
G01*
X255338290Y-141400215D01*
G75*
G02*
X255088290Y-141150215I0J250000D01*
G01*
X255088290Y-140650215D01*
G75*
G02*
X255338290Y-140400215I250000J0D01*
G01*
G37*
G36*
G01*
X217238130Y-143700215D02*
X217938130Y-143700215D01*
G75*
G02*
X218188130Y-143950215I0J-250000D01*
G01*
X218188130Y-144450215D01*
G75*
G02*
X217938130Y-144700215I-250000J0D01*
G01*
X217238130Y-144700215D01*
G75*
G02*
X216988130Y-144450215I0J250000D01*
G01*
X216988130Y-143950215D01*
G75*
G02*
X217238130Y-143700215I250000J0D01*
G01*
G37*
G36*
G01*
X217238130Y-140400215D02*
X217938130Y-140400215D01*
G75*
G02*
X218188130Y-140650215I0J-250000D01*
G01*
X218188130Y-141150215D01*
G75*
G02*
X217938130Y-141400215I-250000J0D01*
G01*
X217238130Y-141400215D01*
G75*
G02*
X216988130Y-141150215I0J250000D01*
G01*
X216988130Y-140650215D01*
G75*
G02*
X217238130Y-140400215I250000J0D01*
G01*
G37*
G36*
G01*
X179137970Y-143700215D02*
X179837970Y-143700215D01*
G75*
G02*
X180087970Y-143950215I0J-250000D01*
G01*
X180087970Y-144450215D01*
G75*
G02*
X179837970Y-144700215I-250000J0D01*
G01*
X179137970Y-144700215D01*
G75*
G02*
X178887970Y-144450215I0J250000D01*
G01*
X178887970Y-143950215D01*
G75*
G02*
X179137970Y-143700215I250000J0D01*
G01*
G37*
G36*
G01*
X179137970Y-140400215D02*
X179837970Y-140400215D01*
G75*
G02*
X180087970Y-140650215I0J-250000D01*
G01*
X180087970Y-141150215D01*
G75*
G02*
X179837970Y-141400215I-250000J0D01*
G01*
X179137970Y-141400215D01*
G75*
G02*
X178887970Y-141150215I0J250000D01*
G01*
X178887970Y-140650215D01*
G75*
G02*
X179137970Y-140400215I250000J0D01*
G01*
G37*
G36*
G01*
X265563410Y-133065805D02*
X264863410Y-133065805D01*
G75*
G02*
X264613410Y-132815805I0J250000D01*
G01*
X264613410Y-132315805D01*
G75*
G02*
X264863410Y-132065805I250000J0D01*
G01*
X265563410Y-132065805D01*
G75*
G02*
X265813410Y-132315805I0J-250000D01*
G01*
X265813410Y-132815805D01*
G75*
G02*
X265563410Y-133065805I-250000J0D01*
G01*
G37*
G36*
G01*
X265563410Y-136365805D02*
X264863410Y-136365805D01*
G75*
G02*
X264613410Y-136115805I0J250000D01*
G01*
X264613410Y-135615805D01*
G75*
G02*
X264863410Y-135365805I250000J0D01*
G01*
X265563410Y-135365805D01*
G75*
G02*
X265813410Y-135615805I0J-250000D01*
G01*
X265813410Y-136115805D01*
G75*
G02*
X265563410Y-136365805I-250000J0D01*
G01*
G37*
G36*
G01*
X223891360Y-133065805D02*
X223191360Y-133065805D01*
G75*
G02*
X222941360Y-132815805I0J250000D01*
G01*
X222941360Y-132315805D01*
G75*
G02*
X223191360Y-132065805I250000J0D01*
G01*
X223891360Y-132065805D01*
G75*
G02*
X224141360Y-132315805I0J-250000D01*
G01*
X224141360Y-132815805D01*
G75*
G02*
X223891360Y-133065805I-250000J0D01*
G01*
G37*
G36*
G01*
X223891360Y-136365805D02*
X223191360Y-136365805D01*
G75*
G02*
X222941360Y-136115805I0J250000D01*
G01*
X222941360Y-135615805D01*
G75*
G02*
X223191360Y-135365805I250000J0D01*
G01*
X223891360Y-135365805D01*
G75*
G02*
X224141360Y-135615805I0J-250000D01*
G01*
X224141360Y-136115805D01*
G75*
G02*
X223891360Y-136365805I-250000J0D01*
G01*
G37*
G36*
G01*
X189363090Y-133065805D02*
X188663090Y-133065805D01*
G75*
G02*
X188413090Y-132815805I0J250000D01*
G01*
X188413090Y-132315805D01*
G75*
G02*
X188663090Y-132065805I250000J0D01*
G01*
X189363090Y-132065805D01*
G75*
G02*
X189613090Y-132315805I0J-250000D01*
G01*
X189613090Y-132815805D01*
G75*
G02*
X189363090Y-133065805I-250000J0D01*
G01*
G37*
G36*
G01*
X189363090Y-136365805D02*
X188663090Y-136365805D01*
G75*
G02*
X188413090Y-136115805I0J250000D01*
G01*
X188413090Y-135615805D01*
G75*
G02*
X188663090Y-135365805I250000J0D01*
G01*
X189363090Y-135365805D01*
G75*
G02*
X189613090Y-135615805I0J-250000D01*
G01*
X189613090Y-136115805D01*
G75*
G02*
X189363090Y-136365805I-250000J0D01*
G01*
G37*
G36*
G01*
X170313010Y-133065805D02*
X169613010Y-133065805D01*
G75*
G02*
X169363010Y-132815805I0J250000D01*
G01*
X169363010Y-132315805D01*
G75*
G02*
X169613010Y-132065805I250000J0D01*
G01*
X170313010Y-132065805D01*
G75*
G02*
X170563010Y-132315805I0J-250000D01*
G01*
X170563010Y-132815805D01*
G75*
G02*
X170313010Y-133065805I-250000J0D01*
G01*
G37*
G36*
G01*
X170313010Y-136365805D02*
X169613010Y-136365805D01*
G75*
G02*
X169363010Y-136115805I0J250000D01*
G01*
X169363010Y-135615805D01*
G75*
G02*
X169613010Y-135365805I250000J0D01*
G01*
X170313010Y-135365805D01*
G75*
G02*
X170563010Y-135615805I0J-250000D01*
G01*
X170563010Y-136115805D01*
G75*
G02*
X170313010Y-136365805I-250000J0D01*
G01*
G37*
G36*
G01*
X251935150Y-162073725D02*
X252635150Y-162073725D01*
G75*
G02*
X252885150Y-162323725I0J-250000D01*
G01*
X252885150Y-162823725D01*
G75*
G02*
X252635150Y-163073725I-250000J0D01*
G01*
X251935150Y-163073725D01*
G75*
G02*
X251685150Y-162823725I0J250000D01*
G01*
X251685150Y-162323725D01*
G75*
G02*
X251935150Y-162073725I250000J0D01*
G01*
G37*
G36*
G01*
X251935150Y-158773725D02*
X252635150Y-158773725D01*
G75*
G02*
X252885150Y-159023725I0J-250000D01*
G01*
X252885150Y-159523725D01*
G75*
G02*
X252635150Y-159773725I-250000J0D01*
G01*
X251935150Y-159773725D01*
G75*
G02*
X251685150Y-159523725I0J250000D01*
G01*
X251685150Y-159023725D01*
G75*
G02*
X251935150Y-158773725I250000J0D01*
G01*
G37*
G36*
G01*
X293438450Y-143700215D02*
X294138450Y-143700215D01*
G75*
G02*
X294388450Y-143950215I0J-250000D01*
G01*
X294388450Y-144450215D01*
G75*
G02*
X294138450Y-144700215I-250000J0D01*
G01*
X293438450Y-144700215D01*
G75*
G02*
X293188450Y-144450215I0J250000D01*
G01*
X293188450Y-143950215D01*
G75*
G02*
X293438450Y-143700215I250000J0D01*
G01*
G37*
G36*
G01*
X293438450Y-140400215D02*
X294138450Y-140400215D01*
G75*
G02*
X294388450Y-140650215I0J-250000D01*
G01*
X294388450Y-141150215D01*
G75*
G02*
X294138450Y-141400215I-250000J0D01*
G01*
X293438450Y-141400215D01*
G75*
G02*
X293188450Y-141150215I0J250000D01*
G01*
X293188450Y-140650215D01*
G75*
G02*
X293438450Y-140400215I250000J0D01*
G01*
G37*
G36*
G01*
X274388370Y-143700215D02*
X275088370Y-143700215D01*
G75*
G02*
X275338370Y-143950215I0J-250000D01*
G01*
X275338370Y-144450215D01*
G75*
G02*
X275088370Y-144700215I-250000J0D01*
G01*
X274388370Y-144700215D01*
G75*
G02*
X274138370Y-144450215I0J250000D01*
G01*
X274138370Y-143950215D01*
G75*
G02*
X274388370Y-143700215I250000J0D01*
G01*
G37*
G36*
G01*
X274388370Y-140400215D02*
X275088370Y-140400215D01*
G75*
G02*
X275338370Y-140650215I0J-250000D01*
G01*
X275338370Y-141150215D01*
G75*
G02*
X275088370Y-141400215I-250000J0D01*
G01*
X274388370Y-141400215D01*
G75*
G02*
X274138370Y-141150215I0J250000D01*
G01*
X274138370Y-140650215D01*
G75*
G02*
X274388370Y-140400215I250000J0D01*
G01*
G37*
G36*
G01*
X160087890Y-143700215D02*
X160787890Y-143700215D01*
G75*
G02*
X161037890Y-143950215I0J-250000D01*
G01*
X161037890Y-144450215D01*
G75*
G02*
X160787890Y-144700215I-250000J0D01*
G01*
X160087890Y-144700215D01*
G75*
G02*
X159837890Y-144450215I0J250000D01*
G01*
X159837890Y-143950215D01*
G75*
G02*
X160087890Y-143700215I250000J0D01*
G01*
G37*
G36*
G01*
X160087890Y-140400215D02*
X160787890Y-140400215D01*
G75*
G02*
X161037890Y-140650215I0J-250000D01*
G01*
X161037890Y-141150215D01*
G75*
G02*
X160787890Y-141400215I-250000J0D01*
G01*
X160087890Y-141400215D01*
G75*
G02*
X159837890Y-141150215I0J250000D01*
G01*
X159837890Y-140650215D01*
G75*
G02*
X160087890Y-140400215I250000J0D01*
G01*
G37*
G36*
G01*
X198188050Y-143700215D02*
X198888050Y-143700215D01*
G75*
G02*
X199138050Y-143950215I0J-250000D01*
G01*
X199138050Y-144450215D01*
G75*
G02*
X198888050Y-144700215I-250000J0D01*
G01*
X198188050Y-144700215D01*
G75*
G02*
X197938050Y-144450215I0J250000D01*
G01*
X197938050Y-143950215D01*
G75*
G02*
X198188050Y-143700215I250000J0D01*
G01*
G37*
G36*
G01*
X198188050Y-140400215D02*
X198888050Y-140400215D01*
G75*
G02*
X199138050Y-140650215I0J-250000D01*
G01*
X199138050Y-141150215D01*
G75*
G02*
X198888050Y-141400215I-250000J0D01*
G01*
X198188050Y-141400215D01*
G75*
G02*
X197938050Y-141150215I0J250000D01*
G01*
X197938050Y-140650215D01*
G75*
G02*
X198188050Y-140400215I250000J0D01*
G01*
G37*
G36*
G01*
X208413170Y-133065805D02*
X207713170Y-133065805D01*
G75*
G02*
X207463170Y-132815805I0J250000D01*
G01*
X207463170Y-132315805D01*
G75*
G02*
X207713170Y-132065805I250000J0D01*
G01*
X208413170Y-132065805D01*
G75*
G02*
X208663170Y-132315805I0J-250000D01*
G01*
X208663170Y-132815805D01*
G75*
G02*
X208413170Y-133065805I-250000J0D01*
G01*
G37*
G36*
G01*
X208413170Y-136365805D02*
X207713170Y-136365805D01*
G75*
G02*
X207463170Y-136115805I0J250000D01*
G01*
X207463170Y-135615805D01*
G75*
G02*
X207713170Y-135365805I250000J0D01*
G01*
X208413170Y-135365805D01*
G75*
G02*
X208663170Y-135615805I0J-250000D01*
G01*
X208663170Y-136115805D01*
G75*
G02*
X208413170Y-136365805I-250000J0D01*
G01*
G37*
G36*
G01*
X141037810Y-143700215D02*
X141737810Y-143700215D01*
G75*
G02*
X141987810Y-143950215I0J-250000D01*
G01*
X141987810Y-144450215D01*
G75*
G02*
X141737810Y-144700215I-250000J0D01*
G01*
X141037810Y-144700215D01*
G75*
G02*
X140787810Y-144450215I0J250000D01*
G01*
X140787810Y-143950215D01*
G75*
G02*
X141037810Y-143700215I250000J0D01*
G01*
G37*
G36*
G01*
X141037810Y-140400215D02*
X141737810Y-140400215D01*
G75*
G02*
X141987810Y-140650215I0J-250000D01*
G01*
X141987810Y-141150215D01*
G75*
G02*
X141737810Y-141400215I-250000J0D01*
G01*
X141037810Y-141400215D01*
G75*
G02*
X140787810Y-141150215I0J250000D01*
G01*
X140787810Y-140650215D01*
G75*
G02*
X141037810Y-140400215I250000J0D01*
G01*
G37*
G36*
G01*
X236288210Y-143700215D02*
X236988210Y-143700215D01*
G75*
G02*
X237238210Y-143950215I0J-250000D01*
G01*
X237238210Y-144450215D01*
G75*
G02*
X236988210Y-144700215I-250000J0D01*
G01*
X236288210Y-144700215D01*
G75*
G02*
X236038210Y-144450215I0J250000D01*
G01*
X236038210Y-143950215D01*
G75*
G02*
X236288210Y-143700215I250000J0D01*
G01*
G37*
G36*
G01*
X236288210Y-140400215D02*
X236988210Y-140400215D01*
G75*
G02*
X237238210Y-140650215I0J-250000D01*
G01*
X237238210Y-141150215D01*
G75*
G02*
X236988210Y-141400215I-250000J0D01*
G01*
X236288210Y-141400215D01*
G75*
G02*
X236038210Y-141150215I0J250000D01*
G01*
X236038210Y-140650215D01*
G75*
G02*
X236288210Y-140400215I250000J0D01*
G01*
G37*
G36*
G01*
X132212850Y-133065805D02*
X131512850Y-133065805D01*
G75*
G02*
X131262850Y-132815805I0J250000D01*
G01*
X131262850Y-132315805D01*
G75*
G02*
X131512850Y-132065805I250000J0D01*
G01*
X132212850Y-132065805D01*
G75*
G02*
X132462850Y-132315805I0J-250000D01*
G01*
X132462850Y-132815805D01*
G75*
G02*
X132212850Y-133065805I-250000J0D01*
G01*
G37*
G36*
G01*
X132212850Y-136365805D02*
X131512850Y-136365805D01*
G75*
G02*
X131262850Y-136115805I0J250000D01*
G01*
X131262850Y-135615805D01*
G75*
G02*
X131512850Y-135365805I250000J0D01*
G01*
X132212850Y-135365805D01*
G75*
G02*
X132462850Y-135615805I0J-250000D01*
G01*
X132462850Y-136115805D01*
G75*
G02*
X132212850Y-136365805I-250000J0D01*
G01*
G37*
G36*
G01*
X305262800Y-141713600D02*
X305962800Y-141713600D01*
G75*
G02*
X306212800Y-141963600I0J-250000D01*
G01*
X306212800Y-142463600D01*
G75*
G02*
X305962800Y-142713600I-250000J0D01*
G01*
X305262800Y-142713600D01*
G75*
G02*
X305012800Y-142463600I0J250000D01*
G01*
X305012800Y-141963600D01*
G75*
G02*
X305262800Y-141713600I250000J0D01*
G01*
G37*
G36*
G01*
X305262800Y-138413600D02*
X305962800Y-138413600D01*
G75*
G02*
X306212800Y-138663600I0J-250000D01*
G01*
X306212800Y-139163600D01*
G75*
G02*
X305962800Y-139413600I-250000J0D01*
G01*
X305262800Y-139413600D01*
G75*
G02*
X305012800Y-139163600I0J250000D01*
G01*
X305012800Y-138663600D01*
G75*
G02*
X305262800Y-138413600I250000J0D01*
G01*
G37*
G36*
G01*
X113163750Y-133065625D02*
X112463750Y-133065625D01*
G75*
G02*
X112213750Y-132815625I0J250000D01*
G01*
X112213750Y-132315625D01*
G75*
G02*
X112463750Y-132065625I250000J0D01*
G01*
X113163750Y-132065625D01*
G75*
G02*
X113413750Y-132315625I0J-250000D01*
G01*
X113413750Y-132815625D01*
G75*
G02*
X113163750Y-133065625I-250000J0D01*
G01*
G37*
G36*
G01*
X113163750Y-136365625D02*
X112463750Y-136365625D01*
G75*
G02*
X112213750Y-136115625I0J250000D01*
G01*
X112213750Y-135615625D01*
G75*
G02*
X112463750Y-135365625I250000J0D01*
G01*
X113163750Y-135365625D01*
G75*
G02*
X113413750Y-135615625I0J-250000D01*
G01*
X113413750Y-136115625D01*
G75*
G02*
X113163750Y-136365625I-250000J0D01*
G01*
G37*
G36*
G01*
X290530800Y-162795085D02*
X291230800Y-162795085D01*
G75*
G02*
X291480800Y-163045085I0J-250000D01*
G01*
X291480800Y-163545085D01*
G75*
G02*
X291230800Y-163795085I-250000J0D01*
G01*
X290530800Y-163795085D01*
G75*
G02*
X290280800Y-163545085I0J250000D01*
G01*
X290280800Y-163045085D01*
G75*
G02*
X290530800Y-162795085I250000J0D01*
G01*
G37*
G36*
G01*
X290530800Y-159495085D02*
X291230800Y-159495085D01*
G75*
G02*
X291480800Y-159745085I0J-250000D01*
G01*
X291480800Y-160245085D01*
G75*
G02*
X291230800Y-160495085I-250000J0D01*
G01*
X290530800Y-160495085D01*
G75*
G02*
X290280800Y-160245085I0J250000D01*
G01*
X290280800Y-159745085D01*
G75*
G02*
X290530800Y-159495085I250000J0D01*
G01*
G37*
G36*
G01*
X117963200Y-162694000D02*
X118663200Y-162694000D01*
G75*
G02*
X118913200Y-162944000I0J-250000D01*
G01*
X118913200Y-163444000D01*
G75*
G02*
X118663200Y-163694000I-250000J0D01*
G01*
X117963200Y-163694000D01*
G75*
G02*
X117713200Y-163444000I0J250000D01*
G01*
X117713200Y-162944000D01*
G75*
G02*
X117963200Y-162694000I250000J0D01*
G01*
G37*
G36*
G01*
X117963200Y-159394000D02*
X118663200Y-159394000D01*
G75*
G02*
X118913200Y-159644000I0J-250000D01*
G01*
X118913200Y-160144000D01*
G75*
G02*
X118663200Y-160394000I-250000J0D01*
G01*
X117963200Y-160394000D01*
G75*
G02*
X117713200Y-160144000I0J250000D01*
G01*
X117713200Y-159644000D01*
G75*
G02*
X117963200Y-159394000I250000J0D01*
G01*
G37*
G36*
G01*
X111410000Y-162694000D02*
X112110000Y-162694000D01*
G75*
G02*
X112360000Y-162944000I0J-250000D01*
G01*
X112360000Y-163444000D01*
G75*
G02*
X112110000Y-163694000I-250000J0D01*
G01*
X111410000Y-163694000D01*
G75*
G02*
X111160000Y-163444000I0J250000D01*
G01*
X111160000Y-162944000D01*
G75*
G02*
X111410000Y-162694000I250000J0D01*
G01*
G37*
G36*
G01*
X111410000Y-159394000D02*
X112110000Y-159394000D01*
G75*
G02*
X112360000Y-159644000I0J-250000D01*
G01*
X112360000Y-160144000D01*
G75*
G02*
X112110000Y-160394000I-250000J0D01*
G01*
X111410000Y-160394000D01*
G75*
G02*
X111160000Y-160144000I0J250000D01*
G01*
X111160000Y-159644000D01*
G75*
G02*
X111410000Y-159394000I250000J0D01*
G01*
G37*
G36*
G01*
X90937600Y-162744800D02*
X91637600Y-162744800D01*
G75*
G02*
X91887600Y-162994800I0J-250000D01*
G01*
X91887600Y-163494800D01*
G75*
G02*
X91637600Y-163744800I-250000J0D01*
G01*
X90937600Y-163744800D01*
G75*
G02*
X90687600Y-163494800I0J250000D01*
G01*
X90687600Y-162994800D01*
G75*
G02*
X90937600Y-162744800I250000J0D01*
G01*
G37*
G36*
G01*
X90937600Y-159444800D02*
X91637600Y-159444800D01*
G75*
G02*
X91887600Y-159694800I0J-250000D01*
G01*
X91887600Y-160194800D01*
G75*
G02*
X91637600Y-160444800I-250000J0D01*
G01*
X90937600Y-160444800D01*
G75*
G02*
X90687600Y-160194800I0J250000D01*
G01*
X90687600Y-159694800D01*
G75*
G02*
X90937600Y-159444800I250000J0D01*
G01*
G37*
G36*
G01*
X85779375Y-133065625D02*
X85079375Y-133065625D01*
G75*
G02*
X84829375Y-132815625I0J250000D01*
G01*
X84829375Y-132315625D01*
G75*
G02*
X85079375Y-132065625I250000J0D01*
G01*
X85779375Y-132065625D01*
G75*
G02*
X86029375Y-132315625I0J-250000D01*
G01*
X86029375Y-132815625D01*
G75*
G02*
X85779375Y-133065625I-250000J0D01*
G01*
G37*
G36*
G01*
X85779375Y-136365625D02*
X85079375Y-136365625D01*
G75*
G02*
X84829375Y-136115625I0J250000D01*
G01*
X84829375Y-135615625D01*
G75*
G02*
X85079375Y-135365625I250000J0D01*
G01*
X85779375Y-135365625D01*
G75*
G02*
X86029375Y-135615625I0J-250000D01*
G01*
X86029375Y-136115625D01*
G75*
G02*
X85779375Y-136365625I-250000J0D01*
G01*
G37*
G36*
G01*
X151262930Y-133065805D02*
X150562930Y-133065805D01*
G75*
G02*
X150312930Y-132815805I0J250000D01*
G01*
X150312930Y-132315805D01*
G75*
G02*
X150562930Y-132065805I250000J0D01*
G01*
X151262930Y-132065805D01*
G75*
G02*
X151512930Y-132315805I0J-250000D01*
G01*
X151512930Y-132815805D01*
G75*
G02*
X151262930Y-133065805I-250000J0D01*
G01*
G37*
G36*
G01*
X151262930Y-136365805D02*
X150562930Y-136365805D01*
G75*
G02*
X150312930Y-136115805I0J250000D01*
G01*
X150312930Y-135615805D01*
G75*
G02*
X150562930Y-135365805I250000J0D01*
G01*
X151262930Y-135365805D01*
G75*
G02*
X151512930Y-135615805I0J-250000D01*
G01*
X151512930Y-136115805D01*
G75*
G02*
X151262930Y-136365805I-250000J0D01*
G01*
G37*
G36*
G01*
X327538250Y-142509375D02*
X328238250Y-142509375D01*
G75*
G02*
X328488250Y-142759375I0J-250000D01*
G01*
X328488250Y-143259375D01*
G75*
G02*
X328238250Y-143509375I-250000J0D01*
G01*
X327538250Y-143509375D01*
G75*
G02*
X327288250Y-143259375I0J250000D01*
G01*
X327288250Y-142759375D01*
G75*
G02*
X327538250Y-142509375I250000J0D01*
G01*
G37*
G36*
G01*
X327538250Y-139209375D02*
X328238250Y-139209375D01*
G75*
G02*
X328488250Y-139459375I0J-250000D01*
G01*
X328488250Y-139959375D01*
G75*
G02*
X328238250Y-140209375I-250000J0D01*
G01*
X327538250Y-140209375D01*
G75*
G02*
X327288250Y-139959375I0J250000D01*
G01*
X327288250Y-139459375D01*
G75*
G02*
X327538250Y-139209375I250000J0D01*
G01*
G37*
G36*
G01*
X231525770Y-106790685D02*
X232225770Y-106790685D01*
G75*
G02*
X232475770Y-107040685I0J-250000D01*
G01*
X232475770Y-107540685D01*
G75*
G02*
X232225770Y-107790685I-250000J0D01*
G01*
X231525770Y-107790685D01*
G75*
G02*
X231275770Y-107540685I0J250000D01*
G01*
X231275770Y-107040685D01*
G75*
G02*
X231525770Y-106790685I250000J0D01*
G01*
G37*
G36*
G01*
X231525770Y-103490685D02*
X232225770Y-103490685D01*
G75*
G02*
X232475770Y-103740685I0J-250000D01*
G01*
X232475770Y-104240685D01*
G75*
G02*
X232225770Y-104490685I-250000J0D01*
G01*
X231525770Y-104490685D01*
G75*
G02*
X231275770Y-104240685I0J250000D01*
G01*
X231275770Y-103740685D01*
G75*
G02*
X231525770Y-103490685I250000J0D01*
G01*
G37*
G36*
G01*
X307726090Y-106790685D02*
X308426090Y-106790685D01*
G75*
G02*
X308676090Y-107040685I0J-250000D01*
G01*
X308676090Y-107540685D01*
G75*
G02*
X308426090Y-107790685I-250000J0D01*
G01*
X307726090Y-107790685D01*
G75*
G02*
X307476090Y-107540685I0J250000D01*
G01*
X307476090Y-107040685D01*
G75*
G02*
X307726090Y-106790685I250000J0D01*
G01*
G37*
G36*
G01*
X307726090Y-103490685D02*
X308426090Y-103490685D01*
G75*
G02*
X308676090Y-103740685I0J-250000D01*
G01*
X308676090Y-104240685D01*
G75*
G02*
X308426090Y-104490685I-250000J0D01*
G01*
X307726090Y-104490685D01*
G75*
G02*
X307476090Y-104240685I0J250000D01*
G01*
X307476090Y-103740685D01*
G75*
G02*
X307726090Y-103490685I250000J0D01*
G01*
G37*
G36*
G01*
X269625930Y-106790685D02*
X270325930Y-106790685D01*
G75*
G02*
X270575930Y-107040685I0J-250000D01*
G01*
X270575930Y-107540685D01*
G75*
G02*
X270325930Y-107790685I-250000J0D01*
G01*
X269625930Y-107790685D01*
G75*
G02*
X269375930Y-107540685I0J250000D01*
G01*
X269375930Y-107040685D01*
G75*
G02*
X269625930Y-106790685I250000J0D01*
G01*
G37*
G36*
G01*
X269625930Y-103490685D02*
X270325930Y-103490685D01*
G75*
G02*
X270575930Y-103740685I0J-250000D01*
G01*
X270575930Y-104240685D01*
G75*
G02*
X270325930Y-104490685I-250000J0D01*
G01*
X269625930Y-104490685D01*
G75*
G02*
X269375930Y-104240685I0J250000D01*
G01*
X269375930Y-103740685D01*
G75*
G02*
X269625930Y-103490685I250000J0D01*
G01*
G37*
G36*
G01*
X250575850Y-106790685D02*
X251275850Y-106790685D01*
G75*
G02*
X251525850Y-107040685I0J-250000D01*
G01*
X251525850Y-107540685D01*
G75*
G02*
X251275850Y-107790685I-250000J0D01*
G01*
X250575850Y-107790685D01*
G75*
G02*
X250325850Y-107540685I0J250000D01*
G01*
X250325850Y-107040685D01*
G75*
G02*
X250575850Y-106790685I250000J0D01*
G01*
G37*
G36*
G01*
X250575850Y-103490685D02*
X251275850Y-103490685D01*
G75*
G02*
X251525850Y-103740685I0J-250000D01*
G01*
X251525850Y-104240685D01*
G75*
G02*
X251275850Y-104490685I-250000J0D01*
G01*
X250575850Y-104490685D01*
G75*
G02*
X250325850Y-104240685I0J250000D01*
G01*
X250325850Y-103740685D01*
G75*
G02*
X250575850Y-103490685I250000J0D01*
G01*
G37*
G36*
G01*
X324394910Y-106790685D02*
X325094910Y-106790685D01*
G75*
G02*
X325344910Y-107040685I0J-250000D01*
G01*
X325344910Y-107540685D01*
G75*
G02*
X325094910Y-107790685I-250000J0D01*
G01*
X324394910Y-107790685D01*
G75*
G02*
X324144910Y-107540685I0J250000D01*
G01*
X324144910Y-107040685D01*
G75*
G02*
X324394910Y-106790685I250000J0D01*
G01*
G37*
G36*
G01*
X324394910Y-103490685D02*
X325094910Y-103490685D01*
G75*
G02*
X325344910Y-103740685I0J-250000D01*
G01*
X325344910Y-104240685D01*
G75*
G02*
X325094910Y-104490685I-250000J0D01*
G01*
X324394910Y-104490685D01*
G75*
G02*
X324144910Y-104240685I0J250000D01*
G01*
X324144910Y-103740685D01*
G75*
G02*
X324394910Y-103490685I250000J0D01*
G01*
G37*
G36*
G01*
X174375530Y-106790685D02*
X175075530Y-106790685D01*
G75*
G02*
X175325530Y-107040685I0J-250000D01*
G01*
X175325530Y-107540685D01*
G75*
G02*
X175075530Y-107790685I-250000J0D01*
G01*
X174375530Y-107790685D01*
G75*
G02*
X174125530Y-107540685I0J250000D01*
G01*
X174125530Y-107040685D01*
G75*
G02*
X174375530Y-106790685I250000J0D01*
G01*
G37*
G36*
G01*
X174375530Y-103490685D02*
X175075530Y-103490685D01*
G75*
G02*
X175325530Y-103740685I0J-250000D01*
G01*
X175325530Y-104240685D01*
G75*
G02*
X175075530Y-104490685I-250000J0D01*
G01*
X174375530Y-104490685D01*
G75*
G02*
X174125530Y-104240685I0J250000D01*
G01*
X174125530Y-103740685D01*
G75*
G02*
X174375530Y-103490685I250000J0D01*
G01*
G37*
G36*
G01*
X106018990Y-93775015D02*
X105318990Y-93775015D01*
G75*
G02*
X105068990Y-93525015I0J250000D01*
G01*
X105068990Y-93025015D01*
G75*
G02*
X105318990Y-92775015I250000J0D01*
G01*
X106018990Y-92775015D01*
G75*
G02*
X106268990Y-93025015I0J-250000D01*
G01*
X106268990Y-93525015D01*
G75*
G02*
X106018990Y-93775015I-250000J0D01*
G01*
G37*
G36*
G01*
X106018990Y-97075015D02*
X105318990Y-97075015D01*
G75*
G02*
X105068990Y-96825015I0J250000D01*
G01*
X105068990Y-96325015D01*
G75*
G02*
X105318990Y-96075015I250000J0D01*
G01*
X106018990Y-96075015D01*
G75*
G02*
X106268990Y-96325015I0J-250000D01*
G01*
X106268990Y-96825015D01*
G75*
G02*
X106018990Y-97075015I-250000J0D01*
G01*
G37*
G36*
G01*
X127450330Y-93775015D02*
X126750330Y-93775015D01*
G75*
G02*
X126500330Y-93525015I0J250000D01*
G01*
X126500330Y-93025015D01*
G75*
G02*
X126750330Y-92775015I250000J0D01*
G01*
X127450330Y-92775015D01*
G75*
G02*
X127700330Y-93025015I0J-250000D01*
G01*
X127700330Y-93525015D01*
G75*
G02*
X127450330Y-93775015I-250000J0D01*
G01*
G37*
G36*
G01*
X127450330Y-97075015D02*
X126750330Y-97075015D01*
G75*
G02*
X126500330Y-96825015I0J250000D01*
G01*
X126500330Y-96325015D01*
G75*
G02*
X126750330Y-96075015I250000J0D01*
G01*
X127450330Y-96075015D01*
G75*
G02*
X127700330Y-96325015I0J-250000D01*
G01*
X127700330Y-96825015D01*
G75*
G02*
X127450330Y-97075015I-250000J0D01*
G01*
G37*
G36*
G01*
X193425610Y-106790685D02*
X194125610Y-106790685D01*
G75*
G02*
X194375610Y-107040685I0J-250000D01*
G01*
X194375610Y-107540685D01*
G75*
G02*
X194125610Y-107790685I-250000J0D01*
G01*
X193425610Y-107790685D01*
G75*
G02*
X193175610Y-107540685I0J250000D01*
G01*
X193175610Y-107040685D01*
G75*
G02*
X193425610Y-106790685I250000J0D01*
G01*
G37*
G36*
G01*
X193425610Y-103490685D02*
X194125610Y-103490685D01*
G75*
G02*
X194375610Y-103740685I0J-250000D01*
G01*
X194375610Y-104240685D01*
G75*
G02*
X194125610Y-104490685I-250000J0D01*
G01*
X193425610Y-104490685D01*
G75*
G02*
X193175610Y-104240685I0J250000D01*
G01*
X193175610Y-103740685D01*
G75*
G02*
X193425610Y-103490685I250000J0D01*
G01*
G37*
G36*
G01*
X155325450Y-106790685D02*
X156025450Y-106790685D01*
G75*
G02*
X156275450Y-107040685I0J-250000D01*
G01*
X156275450Y-107540685D01*
G75*
G02*
X156025450Y-107790685I-250000J0D01*
G01*
X155325450Y-107790685D01*
G75*
G02*
X155075450Y-107540685I0J250000D01*
G01*
X155075450Y-107040685D01*
G75*
G02*
X155325450Y-106790685I250000J0D01*
G01*
G37*
G36*
G01*
X155325450Y-103490685D02*
X156025450Y-103490685D01*
G75*
G02*
X156275450Y-103740685I0J-250000D01*
G01*
X156275450Y-104240685D01*
G75*
G02*
X156025450Y-104490685I-250000J0D01*
G01*
X155325450Y-104490685D01*
G75*
G02*
X155075450Y-104240685I0J250000D01*
G01*
X155075450Y-103740685D01*
G75*
G02*
X155325450Y-103490685I250000J0D01*
G01*
G37*
G36*
G01*
X165550490Y-93775015D02*
X164850490Y-93775015D01*
G75*
G02*
X164600490Y-93525015I0J250000D01*
G01*
X164600490Y-93025015D01*
G75*
G02*
X164850490Y-92775015I250000J0D01*
G01*
X165550490Y-92775015D01*
G75*
G02*
X165800490Y-93025015I0J-250000D01*
G01*
X165800490Y-93525015D01*
G75*
G02*
X165550490Y-93775015I-250000J0D01*
G01*
G37*
G36*
G01*
X165550490Y-97075015D02*
X164850490Y-97075015D01*
G75*
G02*
X164600490Y-96825015I0J250000D01*
G01*
X164600490Y-96325015D01*
G75*
G02*
X164850490Y-96075015I250000J0D01*
G01*
X165550490Y-96075015D01*
G75*
G02*
X165800490Y-96325015I0J-250000D01*
G01*
X165800490Y-96825015D01*
G75*
G02*
X165550490Y-97075015I-250000J0D01*
G01*
G37*
G36*
G01*
X288676010Y-106790685D02*
X289376010Y-106790685D01*
G75*
G02*
X289626010Y-107040685I0J-250000D01*
G01*
X289626010Y-107540685D01*
G75*
G02*
X289376010Y-107790685I-250000J0D01*
G01*
X288676010Y-107790685D01*
G75*
G02*
X288426010Y-107540685I0J250000D01*
G01*
X288426010Y-107040685D01*
G75*
G02*
X288676010Y-106790685I250000J0D01*
G01*
G37*
G36*
G01*
X288676010Y-103490685D02*
X289376010Y-103490685D01*
G75*
G02*
X289626010Y-103740685I0J-250000D01*
G01*
X289626010Y-104240685D01*
G75*
G02*
X289376010Y-104490685I-250000J0D01*
G01*
X288676010Y-104490685D01*
G75*
G02*
X288426010Y-104240685I0J250000D01*
G01*
X288426010Y-103740685D01*
G75*
G02*
X288676010Y-103490685I250000J0D01*
G01*
G37*
G36*
G01*
X117225290Y-106790685D02*
X117925290Y-106790685D01*
G75*
G02*
X118175290Y-107040685I0J-250000D01*
G01*
X118175290Y-107540685D01*
G75*
G02*
X117925290Y-107790685I-250000J0D01*
G01*
X117225290Y-107790685D01*
G75*
G02*
X116975290Y-107540685I0J250000D01*
G01*
X116975290Y-107040685D01*
G75*
G02*
X117225290Y-106790685I250000J0D01*
G01*
G37*
G36*
G01*
X117225290Y-103490685D02*
X117925290Y-103490685D01*
G75*
G02*
X118175290Y-103740685I0J-250000D01*
G01*
X118175290Y-104240685D01*
G75*
G02*
X117925290Y-104490685I-250000J0D01*
G01*
X117225290Y-104490685D01*
G75*
G02*
X116975290Y-104240685I0J250000D01*
G01*
X116975290Y-103740685D01*
G75*
G02*
X117225290Y-103490685I250000J0D01*
G01*
G37*
G36*
G01*
X212475690Y-106790685D02*
X213175690Y-106790685D01*
G75*
G02*
X213425690Y-107040685I0J-250000D01*
G01*
X213425690Y-107540685D01*
G75*
G02*
X213175690Y-107790685I-250000J0D01*
G01*
X212475690Y-107790685D01*
G75*
G02*
X212225690Y-107540685I0J250000D01*
G01*
X212225690Y-107040685D01*
G75*
G02*
X212475690Y-106790685I250000J0D01*
G01*
G37*
G36*
G01*
X212475690Y-103490685D02*
X213175690Y-103490685D01*
G75*
G02*
X213425690Y-103740685I0J-250000D01*
G01*
X213425690Y-104240685D01*
G75*
G02*
X213175690Y-104490685I-250000J0D01*
G01*
X212475690Y-104490685D01*
G75*
G02*
X212225690Y-104240685I0J250000D01*
G01*
X212225690Y-103740685D01*
G75*
G02*
X212475690Y-103490685I250000J0D01*
G01*
G37*
G36*
G01*
X136275370Y-106790685D02*
X136975370Y-106790685D01*
G75*
G02*
X137225370Y-107040685I0J-250000D01*
G01*
X137225370Y-107540685D01*
G75*
G02*
X136975370Y-107790685I-250000J0D01*
G01*
X136275370Y-107790685D01*
G75*
G02*
X136025370Y-107540685I0J250000D01*
G01*
X136025370Y-107040685D01*
G75*
G02*
X136275370Y-106790685I250000J0D01*
G01*
G37*
G36*
G01*
X136275370Y-103490685D02*
X136975370Y-103490685D01*
G75*
G02*
X137225370Y-103740685I0J-250000D01*
G01*
X137225370Y-104240685D01*
G75*
G02*
X136975370Y-104490685I-250000J0D01*
G01*
X136275370Y-104490685D01*
G75*
G02*
X136025370Y-104240685I0J250000D01*
G01*
X136025370Y-103740685D01*
G75*
G02*
X136275370Y-103490685I250000J0D01*
G01*
G37*
G36*
G01*
X85779375Y-99728125D02*
X85079375Y-99728125D01*
G75*
G02*
X84829375Y-99478125I0J250000D01*
G01*
X84829375Y-98978125D01*
G75*
G02*
X85079375Y-98728125I250000J0D01*
G01*
X85779375Y-98728125D01*
G75*
G02*
X86029375Y-98978125I0J-250000D01*
G01*
X86029375Y-99478125D01*
G75*
G02*
X85779375Y-99728125I-250000J0D01*
G01*
G37*
G36*
G01*
X85779375Y-103028125D02*
X85079375Y-103028125D01*
G75*
G02*
X84829375Y-102778125I0J250000D01*
G01*
X84829375Y-102278125D01*
G75*
G02*
X85079375Y-102028125I250000J0D01*
G01*
X85779375Y-102028125D01*
G75*
G02*
X86029375Y-102278125I0J-250000D01*
G01*
X86029375Y-102778125D01*
G75*
G02*
X85779375Y-103028125I-250000J0D01*
G01*
G37*
G36*
G01*
X141737890Y-93775015D02*
X141037890Y-93775015D01*
G75*
G02*
X140787890Y-93525015I0J250000D01*
G01*
X140787890Y-93025015D01*
G75*
G02*
X141037890Y-92775015I250000J0D01*
G01*
X141737890Y-92775015D01*
G75*
G02*
X141987890Y-93025015I0J-250000D01*
G01*
X141987890Y-93525015D01*
G75*
G02*
X141737890Y-93775015I-250000J0D01*
G01*
G37*
G36*
G01*
X141737890Y-97075015D02*
X141037890Y-97075015D01*
G75*
G02*
X140787890Y-96825015I0J250000D01*
G01*
X140787890Y-96325015D01*
G75*
G02*
X141037890Y-96075015I250000J0D01*
G01*
X141737890Y-96075015D01*
G75*
G02*
X141987890Y-96325015I0J-250000D01*
G01*
X141987890Y-96825015D01*
G75*
G02*
X141737890Y-97075015I-250000J0D01*
G01*
G37*
G36*
G01*
X203040150Y-162866205D02*
X203740150Y-162866205D01*
G75*
G02*
X203990150Y-163116205I0J-250000D01*
G01*
X203990150Y-163616205D01*
G75*
G02*
X203740150Y-163866205I-250000J0D01*
G01*
X203040150Y-163866205D01*
G75*
G02*
X202790150Y-163616205I0J250000D01*
G01*
X202790150Y-163116205D01*
G75*
G02*
X203040150Y-162866205I250000J0D01*
G01*
G37*
G36*
G01*
X203040150Y-159566205D02*
X203740150Y-159566205D01*
G75*
G02*
X203990150Y-159816205I0J-250000D01*
G01*
X203990150Y-160316205D01*
G75*
G02*
X203740150Y-160566205I-250000J0D01*
G01*
X203040150Y-160566205D01*
G75*
G02*
X202790150Y-160316205I0J250000D01*
G01*
X202790150Y-159816205D01*
G75*
G02*
X203040150Y-159566205I250000J0D01*
G01*
G37*
G36*
G01*
X93007350Y-105934645D02*
X93707350Y-105934645D01*
G75*
G02*
X93957350Y-106184645I0J-250000D01*
G01*
X93957350Y-106684645D01*
G75*
G02*
X93707350Y-106934645I-250000J0D01*
G01*
X93007350Y-106934645D01*
G75*
G02*
X92757350Y-106684645I0J250000D01*
G01*
X92757350Y-106184645D01*
G75*
G02*
X93007350Y-105934645I250000J0D01*
G01*
G37*
G36*
G01*
X93007350Y-102634645D02*
X93707350Y-102634645D01*
G75*
G02*
X93957350Y-102884645I0J-250000D01*
G01*
X93957350Y-103384645D01*
G75*
G02*
X93707350Y-103634645I-250000J0D01*
G01*
X93007350Y-103634645D01*
G75*
G02*
X92757350Y-103384645I0J250000D01*
G01*
X92757350Y-102884645D01*
G75*
G02*
X93007350Y-102634645I250000J0D01*
G01*
G37*
G36*
G01*
X285988930Y-162767145D02*
X286688930Y-162767145D01*
G75*
G02*
X286938930Y-163017145I0J-250000D01*
G01*
X286938930Y-163517145D01*
G75*
G02*
X286688930Y-163767145I-250000J0D01*
G01*
X285988930Y-163767145D01*
G75*
G02*
X285738930Y-163517145I0J250000D01*
G01*
X285738930Y-163017145D01*
G75*
G02*
X285988930Y-162767145I250000J0D01*
G01*
G37*
G36*
G01*
X285988930Y-159467145D02*
X286688930Y-159467145D01*
G75*
G02*
X286938930Y-159717145I0J-250000D01*
G01*
X286938930Y-160217145D01*
G75*
G02*
X286688930Y-160467145I-250000J0D01*
G01*
X285988930Y-160467145D01*
G75*
G02*
X285738930Y-160217145I0J250000D01*
G01*
X285738930Y-159717145D01*
G75*
G02*
X285988930Y-159467145I250000J0D01*
G01*
G37*
G36*
G01*
X182936400Y-162135200D02*
X183636400Y-162135200D01*
G75*
G02*
X183886400Y-162385200I0J-250000D01*
G01*
X183886400Y-162885200D01*
G75*
G02*
X183636400Y-163135200I-250000J0D01*
G01*
X182936400Y-163135200D01*
G75*
G02*
X182686400Y-162885200I0J250000D01*
G01*
X182686400Y-162385200D01*
G75*
G02*
X182936400Y-162135200I250000J0D01*
G01*
G37*
G36*
G01*
X182936400Y-158835200D02*
X183636400Y-158835200D01*
G75*
G02*
X183886400Y-159085200I0J-250000D01*
G01*
X183886400Y-159585200D01*
G75*
G02*
X183636400Y-159835200I-250000J0D01*
G01*
X182936400Y-159835200D01*
G75*
G02*
X182686400Y-159585200I0J250000D01*
G01*
X182686400Y-159085200D01*
G75*
G02*
X182936400Y-158835200I250000J0D01*
G01*
G37*
G36*
G01*
X321763200Y-126624200D02*
X321263200Y-126624200D01*
G75*
G02*
X321038200Y-126399200I0J225000D01*
G01*
X321038200Y-125949200D01*
G75*
G02*
X321263200Y-125724200I225000J0D01*
G01*
X321763200Y-125724200D01*
G75*
G02*
X321988200Y-125949200I0J-225000D01*
G01*
X321988200Y-126399200D01*
G75*
G02*
X321763200Y-126624200I-225000J0D01*
G01*
G37*
G36*
G01*
X321763200Y-128174200D02*
X321263200Y-128174200D01*
G75*
G02*
X321038200Y-127949200I0J225000D01*
G01*
X321038200Y-127499200D01*
G75*
G02*
X321263200Y-127274200I225000J0D01*
G01*
X321763200Y-127274200D01*
G75*
G02*
X321988200Y-127499200I0J-225000D01*
G01*
X321988200Y-127949200D01*
G75*
G02*
X321763200Y-128174200I-225000J0D01*
G01*
G37*
G36*
G01*
X329183100Y-118832400D02*
X329308100Y-118832400D01*
G75*
G02*
X329370600Y-118894900I0J-62500D01*
G01*
X329370600Y-119844900D01*
G75*
G02*
X329308100Y-119907400I-62500J0D01*
G01*
X329183100Y-119907400D01*
G75*
G02*
X329120600Y-119844900I0J62500D01*
G01*
X329120600Y-118894900D01*
G75*
G02*
X329183100Y-118832400I62500J0D01*
G01*
G37*
G36*
G01*
X328683100Y-118832400D02*
X328808100Y-118832400D01*
G75*
G02*
X328870600Y-118894900I0J-62500D01*
G01*
X328870600Y-119844900D01*
G75*
G02*
X328808100Y-119907400I-62500J0D01*
G01*
X328683100Y-119907400D01*
G75*
G02*
X328620600Y-119844900I0J62500D01*
G01*
X328620600Y-118894900D01*
G75*
G02*
X328683100Y-118832400I62500J0D01*
G01*
G37*
G36*
G01*
X328183100Y-118832400D02*
X328308100Y-118832400D01*
G75*
G02*
X328370600Y-118894900I0J-62500D01*
G01*
X328370600Y-119844900D01*
G75*
G02*
X328308100Y-119907400I-62500J0D01*
G01*
X328183100Y-119907400D01*
G75*
G02*
X328120600Y-119844900I0J62500D01*
G01*
X328120600Y-118894900D01*
G75*
G02*
X328183100Y-118832400I62500J0D01*
G01*
G37*
G36*
G01*
X327683100Y-118832400D02*
X327808100Y-118832400D01*
G75*
G02*
X327870600Y-118894900I0J-62500D01*
G01*
X327870600Y-119844900D01*
G75*
G02*
X327808100Y-119907400I-62500J0D01*
G01*
X327683100Y-119907400D01*
G75*
G02*
X327620600Y-119844900I0J62500D01*
G01*
X327620600Y-118894900D01*
G75*
G02*
X327683100Y-118832400I62500J0D01*
G01*
G37*
G36*
G01*
X327183100Y-118832400D02*
X327308100Y-118832400D01*
G75*
G02*
X327370600Y-118894900I0J-62500D01*
G01*
X327370600Y-119844900D01*
G75*
G02*
X327308100Y-119907400I-62500J0D01*
G01*
X327183100Y-119907400D01*
G75*
G02*
X327120600Y-119844900I0J62500D01*
G01*
X327120600Y-118894900D01*
G75*
G02*
X327183100Y-118832400I62500J0D01*
G01*
G37*
G36*
G01*
X326683100Y-118832400D02*
X326808100Y-118832400D01*
G75*
G02*
X326870600Y-118894900I0J-62500D01*
G01*
X326870600Y-119844900D01*
G75*
G02*
X326808100Y-119907400I-62500J0D01*
G01*
X326683100Y-119907400D01*
G75*
G02*
X326620600Y-119844900I0J62500D01*
G01*
X326620600Y-118894900D01*
G75*
G02*
X326683100Y-118832400I62500J0D01*
G01*
G37*
G36*
G01*
X326183100Y-118832400D02*
X326308100Y-118832400D01*
G75*
G02*
X326370600Y-118894900I0J-62500D01*
G01*
X326370600Y-119844900D01*
G75*
G02*
X326308100Y-119907400I-62500J0D01*
G01*
X326183100Y-119907400D01*
G75*
G02*
X326120600Y-119844900I0J62500D01*
G01*
X326120600Y-118894900D01*
G75*
G02*
X326183100Y-118832400I62500J0D01*
G01*
G37*
G36*
G01*
X325683100Y-118832400D02*
X325808100Y-118832400D01*
G75*
G02*
X325870600Y-118894900I0J-62500D01*
G01*
X325870600Y-119844900D01*
G75*
G02*
X325808100Y-119907400I-62500J0D01*
G01*
X325683100Y-119907400D01*
G75*
G02*
X325620600Y-119844900I0J62500D01*
G01*
X325620600Y-118894900D01*
G75*
G02*
X325683100Y-118832400I62500J0D01*
G01*
G37*
G36*
G01*
X325183100Y-118832400D02*
X325308100Y-118832400D01*
G75*
G02*
X325370600Y-118894900I0J-62500D01*
G01*
X325370600Y-119844900D01*
G75*
G02*
X325308100Y-119907400I-62500J0D01*
G01*
X325183100Y-119907400D01*
G75*
G02*
X325120600Y-119844900I0J62500D01*
G01*
X325120600Y-118894900D01*
G75*
G02*
X325183100Y-118832400I62500J0D01*
G01*
G37*
G36*
G01*
X324683100Y-118832400D02*
X324808100Y-118832400D01*
G75*
G02*
X324870600Y-118894900I0J-62500D01*
G01*
X324870600Y-119844900D01*
G75*
G02*
X324808100Y-119907400I-62500J0D01*
G01*
X324683100Y-119907400D01*
G75*
G02*
X324620600Y-119844900I0J62500D01*
G01*
X324620600Y-118894900D01*
G75*
G02*
X324683100Y-118832400I62500J0D01*
G01*
G37*
G36*
G01*
X324183100Y-118832400D02*
X324308100Y-118832400D01*
G75*
G02*
X324370600Y-118894900I0J-62500D01*
G01*
X324370600Y-119844900D01*
G75*
G02*
X324308100Y-119907400I-62500J0D01*
G01*
X324183100Y-119907400D01*
G75*
G02*
X324120600Y-119844900I0J62500D01*
G01*
X324120600Y-118894900D01*
G75*
G02*
X324183100Y-118832400I62500J0D01*
G01*
G37*
G36*
G01*
X322933100Y-120082400D02*
X323883100Y-120082400D01*
G75*
G02*
X323945600Y-120144900I0J-62500D01*
G01*
X323945600Y-120269900D01*
G75*
G02*
X323883100Y-120332400I-62500J0D01*
G01*
X322933100Y-120332400D01*
G75*
G02*
X322870600Y-120269900I0J62500D01*
G01*
X322870600Y-120144900D01*
G75*
G02*
X322933100Y-120082400I62500J0D01*
G01*
G37*
G36*
G01*
X322933100Y-120582400D02*
X323883100Y-120582400D01*
G75*
G02*
X323945600Y-120644900I0J-62500D01*
G01*
X323945600Y-120769900D01*
G75*
G02*
X323883100Y-120832400I-62500J0D01*
G01*
X322933100Y-120832400D01*
G75*
G02*
X322870600Y-120769900I0J62500D01*
G01*
X322870600Y-120644900D01*
G75*
G02*
X322933100Y-120582400I62500J0D01*
G01*
G37*
G36*
G01*
X322933100Y-121082400D02*
X323883100Y-121082400D01*
G75*
G02*
X323945600Y-121144900I0J-62500D01*
G01*
X323945600Y-121269900D01*
G75*
G02*
X323883100Y-121332400I-62500J0D01*
G01*
X322933100Y-121332400D01*
G75*
G02*
X322870600Y-121269900I0J62500D01*
G01*
X322870600Y-121144900D01*
G75*
G02*
X322933100Y-121082400I62500J0D01*
G01*
G37*
G36*
G01*
X322933100Y-121582400D02*
X323883100Y-121582400D01*
G75*
G02*
X323945600Y-121644900I0J-62500D01*
G01*
X323945600Y-121769900D01*
G75*
G02*
X323883100Y-121832400I-62500J0D01*
G01*
X322933100Y-121832400D01*
G75*
G02*
X322870600Y-121769900I0J62500D01*
G01*
X322870600Y-121644900D01*
G75*
G02*
X322933100Y-121582400I62500J0D01*
G01*
G37*
G36*
G01*
X322933100Y-122082400D02*
X323883100Y-122082400D01*
G75*
G02*
X323945600Y-122144900I0J-62500D01*
G01*
X323945600Y-122269900D01*
G75*
G02*
X323883100Y-122332400I-62500J0D01*
G01*
X322933100Y-122332400D01*
G75*
G02*
X322870600Y-122269900I0J62500D01*
G01*
X322870600Y-122144900D01*
G75*
G02*
X322933100Y-122082400I62500J0D01*
G01*
G37*
G36*
G01*
X322933100Y-122582400D02*
X323883100Y-122582400D01*
G75*
G02*
X323945600Y-122644900I0J-62500D01*
G01*
X323945600Y-122769900D01*
G75*
G02*
X323883100Y-122832400I-62500J0D01*
G01*
X322933100Y-122832400D01*
G75*
G02*
X322870600Y-122769900I0J62500D01*
G01*
X322870600Y-122644900D01*
G75*
G02*
X322933100Y-122582400I62500J0D01*
G01*
G37*
G36*
G01*
X322933100Y-123082400D02*
X323883100Y-123082400D01*
G75*
G02*
X323945600Y-123144900I0J-62500D01*
G01*
X323945600Y-123269900D01*
G75*
G02*
X323883100Y-123332400I-62500J0D01*
G01*
X322933100Y-123332400D01*
G75*
G02*
X322870600Y-123269900I0J62500D01*
G01*
X322870600Y-123144900D01*
G75*
G02*
X322933100Y-123082400I62500J0D01*
G01*
G37*
G36*
G01*
X322933100Y-123582400D02*
X323883100Y-123582400D01*
G75*
G02*
X323945600Y-123644900I0J-62500D01*
G01*
X323945600Y-123769900D01*
G75*
G02*
X323883100Y-123832400I-62500J0D01*
G01*
X322933100Y-123832400D01*
G75*
G02*
X322870600Y-123769900I0J62500D01*
G01*
X322870600Y-123644900D01*
G75*
G02*
X322933100Y-123582400I62500J0D01*
G01*
G37*
G36*
G01*
X322933100Y-124082400D02*
X323883100Y-124082400D01*
G75*
G02*
X323945600Y-124144900I0J-62500D01*
G01*
X323945600Y-124269900D01*
G75*
G02*
X323883100Y-124332400I-62500J0D01*
G01*
X322933100Y-124332400D01*
G75*
G02*
X322870600Y-124269900I0J62500D01*
G01*
X322870600Y-124144900D01*
G75*
G02*
X322933100Y-124082400I62500J0D01*
G01*
G37*
G36*
G01*
X322933100Y-124582400D02*
X323883100Y-124582400D01*
G75*
G02*
X323945600Y-124644900I0J-62500D01*
G01*
X323945600Y-124769900D01*
G75*
G02*
X323883100Y-124832400I-62500J0D01*
G01*
X322933100Y-124832400D01*
G75*
G02*
X322870600Y-124769900I0J62500D01*
G01*
X322870600Y-124644900D01*
G75*
G02*
X322933100Y-124582400I62500J0D01*
G01*
G37*
G36*
G01*
X322933100Y-125082400D02*
X323883100Y-125082400D01*
G75*
G02*
X323945600Y-125144900I0J-62500D01*
G01*
X323945600Y-125269900D01*
G75*
G02*
X323883100Y-125332400I-62500J0D01*
G01*
X322933100Y-125332400D01*
G75*
G02*
X322870600Y-125269900I0J62500D01*
G01*
X322870600Y-125144900D01*
G75*
G02*
X322933100Y-125082400I62500J0D01*
G01*
G37*
G36*
G01*
X324183100Y-125507400D02*
X324308100Y-125507400D01*
G75*
G02*
X324370600Y-125569900I0J-62500D01*
G01*
X324370600Y-126519900D01*
G75*
G02*
X324308100Y-126582400I-62500J0D01*
G01*
X324183100Y-126582400D01*
G75*
G02*
X324120600Y-126519900I0J62500D01*
G01*
X324120600Y-125569900D01*
G75*
G02*
X324183100Y-125507400I62500J0D01*
G01*
G37*
G36*
G01*
X324683100Y-125507400D02*
X324808100Y-125507400D01*
G75*
G02*
X324870600Y-125569900I0J-62500D01*
G01*
X324870600Y-126519900D01*
G75*
G02*
X324808100Y-126582400I-62500J0D01*
G01*
X324683100Y-126582400D01*
G75*
G02*
X324620600Y-126519900I0J62500D01*
G01*
X324620600Y-125569900D01*
G75*
G02*
X324683100Y-125507400I62500J0D01*
G01*
G37*
G36*
G01*
X325183100Y-125507400D02*
X325308100Y-125507400D01*
G75*
G02*
X325370600Y-125569900I0J-62500D01*
G01*
X325370600Y-126519900D01*
G75*
G02*
X325308100Y-126582400I-62500J0D01*
G01*
X325183100Y-126582400D01*
G75*
G02*
X325120600Y-126519900I0J62500D01*
G01*
X325120600Y-125569900D01*
G75*
G02*
X325183100Y-125507400I62500J0D01*
G01*
G37*
G36*
G01*
X325683100Y-125507400D02*
X325808100Y-125507400D01*
G75*
G02*
X325870600Y-125569900I0J-62500D01*
G01*
X325870600Y-126519900D01*
G75*
G02*
X325808100Y-126582400I-62500J0D01*
G01*
X325683100Y-126582400D01*
G75*
G02*
X325620600Y-126519900I0J62500D01*
G01*
X325620600Y-125569900D01*
G75*
G02*
X325683100Y-125507400I62500J0D01*
G01*
G37*
G36*
G01*
X326183100Y-125507400D02*
X326308100Y-125507400D01*
G75*
G02*
X326370600Y-125569900I0J-62500D01*
G01*
X326370600Y-126519900D01*
G75*
G02*
X326308100Y-126582400I-62500J0D01*
G01*
X326183100Y-126582400D01*
G75*
G02*
X326120600Y-126519900I0J62500D01*
G01*
X326120600Y-125569900D01*
G75*
G02*
X326183100Y-125507400I62500J0D01*
G01*
G37*
G36*
G01*
X326683100Y-125507400D02*
X326808100Y-125507400D01*
G75*
G02*
X326870600Y-125569900I0J-62500D01*
G01*
X326870600Y-126519900D01*
G75*
G02*
X326808100Y-126582400I-62500J0D01*
G01*
X326683100Y-126582400D01*
G75*
G02*
X326620600Y-126519900I0J62500D01*
G01*
X326620600Y-125569900D01*
G75*
G02*
X326683100Y-125507400I62500J0D01*
G01*
G37*
G36*
G01*
X327183100Y-125507400D02*
X327308100Y-125507400D01*
G75*
G02*
X327370600Y-125569900I0J-62500D01*
G01*
X327370600Y-126519900D01*
G75*
G02*
X327308100Y-126582400I-62500J0D01*
G01*
X327183100Y-126582400D01*
G75*
G02*
X327120600Y-126519900I0J62500D01*
G01*
X327120600Y-125569900D01*
G75*
G02*
X327183100Y-125507400I62500J0D01*
G01*
G37*
G36*
G01*
X327683100Y-125507400D02*
X327808100Y-125507400D01*
G75*
G02*
X327870600Y-125569900I0J-62500D01*
G01*
X327870600Y-126519900D01*
G75*
G02*
X327808100Y-126582400I-62500J0D01*
G01*
X327683100Y-126582400D01*
G75*
G02*
X327620600Y-126519900I0J62500D01*
G01*
X327620600Y-125569900D01*
G75*
G02*
X327683100Y-125507400I62500J0D01*
G01*
G37*
G36*
G01*
X328183100Y-125507400D02*
X328308100Y-125507400D01*
G75*
G02*
X328370600Y-125569900I0J-62500D01*
G01*
X328370600Y-126519900D01*
G75*
G02*
X328308100Y-126582400I-62500J0D01*
G01*
X328183100Y-126582400D01*
G75*
G02*
X328120600Y-126519900I0J62500D01*
G01*
X328120600Y-125569900D01*
G75*
G02*
X328183100Y-125507400I62500J0D01*
G01*
G37*
G36*
G01*
X328683100Y-125507400D02*
X328808100Y-125507400D01*
G75*
G02*
X328870600Y-125569900I0J-62500D01*
G01*
X328870600Y-126519900D01*
G75*
G02*
X328808100Y-126582400I-62500J0D01*
G01*
X328683100Y-126582400D01*
G75*
G02*
X328620600Y-126519900I0J62500D01*
G01*
X328620600Y-125569900D01*
G75*
G02*
X328683100Y-125507400I62500J0D01*
G01*
G37*
G36*
G01*
X329183100Y-125507400D02*
X329308100Y-125507400D01*
G75*
G02*
X329370600Y-125569900I0J-62500D01*
G01*
X329370600Y-126519900D01*
G75*
G02*
X329308100Y-126582400I-62500J0D01*
G01*
X329183100Y-126582400D01*
G75*
G02*
X329120600Y-126519900I0J62500D01*
G01*
X329120600Y-125569900D01*
G75*
G02*
X329183100Y-125507400I62500J0D01*
G01*
G37*
G36*
G01*
X329608100Y-125082400D02*
X330558100Y-125082400D01*
G75*
G02*
X330620600Y-125144900I0J-62500D01*
G01*
X330620600Y-125269900D01*
G75*
G02*
X330558100Y-125332400I-62500J0D01*
G01*
X329608100Y-125332400D01*
G75*
G02*
X329545600Y-125269900I0J62500D01*
G01*
X329545600Y-125144900D01*
G75*
G02*
X329608100Y-125082400I62500J0D01*
G01*
G37*
G36*
G01*
X329608100Y-124582400D02*
X330558100Y-124582400D01*
G75*
G02*
X330620600Y-124644900I0J-62500D01*
G01*
X330620600Y-124769900D01*
G75*
G02*
X330558100Y-124832400I-62500J0D01*
G01*
X329608100Y-124832400D01*
G75*
G02*
X329545600Y-124769900I0J62500D01*
G01*
X329545600Y-124644900D01*
G75*
G02*
X329608100Y-124582400I62500J0D01*
G01*
G37*
G36*
G01*
X329608100Y-124082400D02*
X330558100Y-124082400D01*
G75*
G02*
X330620600Y-124144900I0J-62500D01*
G01*
X330620600Y-124269900D01*
G75*
G02*
X330558100Y-124332400I-62500J0D01*
G01*
X329608100Y-124332400D01*
G75*
G02*
X329545600Y-124269900I0J62500D01*
G01*
X329545600Y-124144900D01*
G75*
G02*
X329608100Y-124082400I62500J0D01*
G01*
G37*
G36*
G01*
X329608100Y-123582400D02*
X330558100Y-123582400D01*
G75*
G02*
X330620600Y-123644900I0J-62500D01*
G01*
X330620600Y-123769900D01*
G75*
G02*
X330558100Y-123832400I-62500J0D01*
G01*
X329608100Y-123832400D01*
G75*
G02*
X329545600Y-123769900I0J62500D01*
G01*
X329545600Y-123644900D01*
G75*
G02*
X329608100Y-123582400I62500J0D01*
G01*
G37*
G36*
G01*
X329608100Y-123082400D02*
X330558100Y-123082400D01*
G75*
G02*
X330620600Y-123144900I0J-62500D01*
G01*
X330620600Y-123269900D01*
G75*
G02*
X330558100Y-123332400I-62500J0D01*
G01*
X329608100Y-123332400D01*
G75*
G02*
X329545600Y-123269900I0J62500D01*
G01*
X329545600Y-123144900D01*
G75*
G02*
X329608100Y-123082400I62500J0D01*
G01*
G37*
G36*
G01*
X329608100Y-122582400D02*
X330558100Y-122582400D01*
G75*
G02*
X330620600Y-122644900I0J-62500D01*
G01*
X330620600Y-122769900D01*
G75*
G02*
X330558100Y-122832400I-62500J0D01*
G01*
X329608100Y-122832400D01*
G75*
G02*
X329545600Y-122769900I0J62500D01*
G01*
X329545600Y-122644900D01*
G75*
G02*
X329608100Y-122582400I62500J0D01*
G01*
G37*
G36*
G01*
X329608100Y-122082400D02*
X330558100Y-122082400D01*
G75*
G02*
X330620600Y-122144900I0J-62500D01*
G01*
X330620600Y-122269900D01*
G75*
G02*
X330558100Y-122332400I-62500J0D01*
G01*
X329608100Y-122332400D01*
G75*
G02*
X329545600Y-122269900I0J62500D01*
G01*
X329545600Y-122144900D01*
G75*
G02*
X329608100Y-122082400I62500J0D01*
G01*
G37*
G36*
G01*
X329608100Y-121582400D02*
X330558100Y-121582400D01*
G75*
G02*
X330620600Y-121644900I0J-62500D01*
G01*
X330620600Y-121769900D01*
G75*
G02*
X330558100Y-121832400I-62500J0D01*
G01*
X329608100Y-121832400D01*
G75*
G02*
X329545600Y-121769900I0J62500D01*
G01*
X329545600Y-121644900D01*
G75*
G02*
X329608100Y-121582400I62500J0D01*
G01*
G37*
G36*
G01*
X329608100Y-121082400D02*
X330558100Y-121082400D01*
G75*
G02*
X330620600Y-121144900I0J-62500D01*
G01*
X330620600Y-121269900D01*
G75*
G02*
X330558100Y-121332400I-62500J0D01*
G01*
X329608100Y-121332400D01*
G75*
G02*
X329545600Y-121269900I0J62500D01*
G01*
X329545600Y-121144900D01*
G75*
G02*
X329608100Y-121082400I62500J0D01*
G01*
G37*
G36*
G01*
X329608100Y-120582400D02*
X330558100Y-120582400D01*
G75*
G02*
X330620600Y-120644900I0J-62500D01*
G01*
X330620600Y-120769900D01*
G75*
G02*
X330558100Y-120832400I-62500J0D01*
G01*
X329608100Y-120832400D01*
G75*
G02*
X329545600Y-120769900I0J62500D01*
G01*
X329545600Y-120644900D01*
G75*
G02*
X329608100Y-120582400I62500J0D01*
G01*
G37*
G36*
G01*
X329608100Y-120082400D02*
X330558100Y-120082400D01*
G75*
G02*
X330620600Y-120144900I0J-62500D01*
G01*
X330620600Y-120269900D01*
G75*
G02*
X330558100Y-120332400I-62500J0D01*
G01*
X329608100Y-120332400D01*
G75*
G02*
X329545600Y-120269900I0J62500D01*
G01*
X329545600Y-120144900D01*
G75*
G02*
X329608100Y-120082400I62500J0D01*
G01*
G37*
G36*
G01*
X328420599Y-120232400D02*
X328970601Y-120232400D01*
G75*
G02*
X329220600Y-120482399I0J-249999D01*
G01*
X329220600Y-121032401D01*
G75*
G02*
X328970601Y-121282400I-249999J0D01*
G01*
X328420599Y-121282400D01*
G75*
G02*
X328170600Y-121032401I0J249999D01*
G01*
X328170600Y-120482399D01*
G75*
G02*
X328420599Y-120232400I249999J0D01*
G01*
G37*
G36*
G01*
X327120599Y-120232400D02*
X327670601Y-120232400D01*
G75*
G02*
X327920600Y-120482399I0J-249999D01*
G01*
X327920600Y-121032401D01*
G75*
G02*
X327670601Y-121282400I-249999J0D01*
G01*
X327120599Y-121282400D01*
G75*
G02*
X326870600Y-121032401I0J249999D01*
G01*
X326870600Y-120482399D01*
G75*
G02*
X327120599Y-120232400I249999J0D01*
G01*
G37*
G36*
G01*
X325820599Y-120232400D02*
X326370601Y-120232400D01*
G75*
G02*
X326620600Y-120482399I0J-249999D01*
G01*
X326620600Y-121032401D01*
G75*
G02*
X326370601Y-121282400I-249999J0D01*
G01*
X325820599Y-121282400D01*
G75*
G02*
X325570600Y-121032401I0J249999D01*
G01*
X325570600Y-120482399D01*
G75*
G02*
X325820599Y-120232400I249999J0D01*
G01*
G37*
G36*
G01*
X324520599Y-120232400D02*
X325070601Y-120232400D01*
G75*
G02*
X325320600Y-120482399I0J-249999D01*
G01*
X325320600Y-121032401D01*
G75*
G02*
X325070601Y-121282400I-249999J0D01*
G01*
X324520599Y-121282400D01*
G75*
G02*
X324270600Y-121032401I0J249999D01*
G01*
X324270600Y-120482399D01*
G75*
G02*
X324520599Y-120232400I249999J0D01*
G01*
G37*
G36*
G01*
X328420599Y-121532400D02*
X328970601Y-121532400D01*
G75*
G02*
X329220600Y-121782399I0J-249999D01*
G01*
X329220600Y-122332401D01*
G75*
G02*
X328970601Y-122582400I-249999J0D01*
G01*
X328420599Y-122582400D01*
G75*
G02*
X328170600Y-122332401I0J249999D01*
G01*
X328170600Y-121782399D01*
G75*
G02*
X328420599Y-121532400I249999J0D01*
G01*
G37*
G36*
G01*
X327120599Y-121532400D02*
X327670601Y-121532400D01*
G75*
G02*
X327920600Y-121782399I0J-249999D01*
G01*
X327920600Y-122332401D01*
G75*
G02*
X327670601Y-122582400I-249999J0D01*
G01*
X327120599Y-122582400D01*
G75*
G02*
X326870600Y-122332401I0J249999D01*
G01*
X326870600Y-121782399D01*
G75*
G02*
X327120599Y-121532400I249999J0D01*
G01*
G37*
G36*
G01*
X325820599Y-121532400D02*
X326370601Y-121532400D01*
G75*
G02*
X326620600Y-121782399I0J-249999D01*
G01*
X326620600Y-122332401D01*
G75*
G02*
X326370601Y-122582400I-249999J0D01*
G01*
X325820599Y-122582400D01*
G75*
G02*
X325570600Y-122332401I0J249999D01*
G01*
X325570600Y-121782399D01*
G75*
G02*
X325820599Y-121532400I249999J0D01*
G01*
G37*
G36*
G01*
X324520599Y-121532400D02*
X325070601Y-121532400D01*
G75*
G02*
X325320600Y-121782399I0J-249999D01*
G01*
X325320600Y-122332401D01*
G75*
G02*
X325070601Y-122582400I-249999J0D01*
G01*
X324520599Y-122582400D01*
G75*
G02*
X324270600Y-122332401I0J249999D01*
G01*
X324270600Y-121782399D01*
G75*
G02*
X324520599Y-121532400I249999J0D01*
G01*
G37*
G36*
G01*
X328420599Y-122832400D02*
X328970601Y-122832400D01*
G75*
G02*
X329220600Y-123082399I0J-249999D01*
G01*
X329220600Y-123632401D01*
G75*
G02*
X328970601Y-123882400I-249999J0D01*
G01*
X328420599Y-123882400D01*
G75*
G02*
X328170600Y-123632401I0J249999D01*
G01*
X328170600Y-123082399D01*
G75*
G02*
X328420599Y-122832400I249999J0D01*
G01*
G37*
G36*
G01*
X327120599Y-122832400D02*
X327670601Y-122832400D01*
G75*
G02*
X327920600Y-123082399I0J-249999D01*
G01*
X327920600Y-123632401D01*
G75*
G02*
X327670601Y-123882400I-249999J0D01*
G01*
X327120599Y-123882400D01*
G75*
G02*
X326870600Y-123632401I0J249999D01*
G01*
X326870600Y-123082399D01*
G75*
G02*
X327120599Y-122832400I249999J0D01*
G01*
G37*
G36*
G01*
X325820599Y-122832400D02*
X326370601Y-122832400D01*
G75*
G02*
X326620600Y-123082399I0J-249999D01*
G01*
X326620600Y-123632401D01*
G75*
G02*
X326370601Y-123882400I-249999J0D01*
G01*
X325820599Y-123882400D01*
G75*
G02*
X325570600Y-123632401I0J249999D01*
G01*
X325570600Y-123082399D01*
G75*
G02*
X325820599Y-122832400I249999J0D01*
G01*
G37*
G36*
G01*
X324520599Y-122832400D02*
X325070601Y-122832400D01*
G75*
G02*
X325320600Y-123082399I0J-249999D01*
G01*
X325320600Y-123632401D01*
G75*
G02*
X325070601Y-123882400I-249999J0D01*
G01*
X324520599Y-123882400D01*
G75*
G02*
X324270600Y-123632401I0J249999D01*
G01*
X324270600Y-123082399D01*
G75*
G02*
X324520599Y-122832400I249999J0D01*
G01*
G37*
G36*
G01*
X328420599Y-124132400D02*
X328970601Y-124132400D01*
G75*
G02*
X329220600Y-124382399I0J-249999D01*
G01*
X329220600Y-124932401D01*
G75*
G02*
X328970601Y-125182400I-249999J0D01*
G01*
X328420599Y-125182400D01*
G75*
G02*
X328170600Y-124932401I0J249999D01*
G01*
X328170600Y-124382399D01*
G75*
G02*
X328420599Y-124132400I249999J0D01*
G01*
G37*
G36*
G01*
X327120599Y-124132400D02*
X327670601Y-124132400D01*
G75*
G02*
X327920600Y-124382399I0J-249999D01*
G01*
X327920600Y-124932401D01*
G75*
G02*
X327670601Y-125182400I-249999J0D01*
G01*
X327120599Y-125182400D01*
G75*
G02*
X326870600Y-124932401I0J249999D01*
G01*
X326870600Y-124382399D01*
G75*
G02*
X327120599Y-124132400I249999J0D01*
G01*
G37*
G36*
G01*
X325820599Y-124132400D02*
X326370601Y-124132400D01*
G75*
G02*
X326620600Y-124382399I0J-249999D01*
G01*
X326620600Y-124932401D01*
G75*
G02*
X326370601Y-125182400I-249999J0D01*
G01*
X325820599Y-125182400D01*
G75*
G02*
X325570600Y-124932401I0J249999D01*
G01*
X325570600Y-124382399D01*
G75*
G02*
X325820599Y-124132400I249999J0D01*
G01*
G37*
G36*
G01*
X324520599Y-124132400D02*
X325070601Y-124132400D01*
G75*
G02*
X325320600Y-124382399I0J-249999D01*
G01*
X325320600Y-124932401D01*
G75*
G02*
X325070601Y-125182400I-249999J0D01*
G01*
X324520599Y-125182400D01*
G75*
G02*
X324270600Y-124932401I0J249999D01*
G01*
X324270600Y-124382399D01*
G75*
G02*
X324520599Y-124132400I249999J0D01*
G01*
G37*
G36*
G01*
X325827200Y-114229000D02*
X325327200Y-114229000D01*
G75*
G02*
X325102200Y-114004000I0J225000D01*
G01*
X325102200Y-113554000D01*
G75*
G02*
X325327200Y-113329000I225000J0D01*
G01*
X325827200Y-113329000D01*
G75*
G02*
X326052200Y-113554000I0J-225000D01*
G01*
X326052200Y-114004000D01*
G75*
G02*
X325827200Y-114229000I-225000J0D01*
G01*
G37*
G36*
G01*
X325827200Y-115779000D02*
X325327200Y-115779000D01*
G75*
G02*
X325102200Y-115554000I0J225000D01*
G01*
X325102200Y-115104000D01*
G75*
G02*
X325327200Y-114879000I225000J0D01*
G01*
X325827200Y-114879000D01*
G75*
G02*
X326052200Y-115104000I0J-225000D01*
G01*
X326052200Y-115554000D01*
G75*
G02*
X325827200Y-115779000I-225000J0D01*
G01*
G37*
G36*
G01*
X332304200Y-126852800D02*
X331804200Y-126852800D01*
G75*
G02*
X331579200Y-126627800I0J225000D01*
G01*
X331579200Y-126177800D01*
G75*
G02*
X331804200Y-125952800I225000J0D01*
G01*
X332304200Y-125952800D01*
G75*
G02*
X332529200Y-126177800I0J-225000D01*
G01*
X332529200Y-126627800D01*
G75*
G02*
X332304200Y-126852800I-225000J0D01*
G01*
G37*
G36*
G01*
X332304200Y-128402800D02*
X331804200Y-128402800D01*
G75*
G02*
X331579200Y-128177800I0J225000D01*
G01*
X331579200Y-127727800D01*
G75*
G02*
X331804200Y-127502800I225000J0D01*
G01*
X332304200Y-127502800D01*
G75*
G02*
X332529200Y-127727800I0J-225000D01*
G01*
X332529200Y-128177800D01*
G75*
G02*
X332304200Y-128402800I-225000J0D01*
G01*
G37*
G36*
G01*
X317174400Y-119611600D02*
X314574400Y-119611600D01*
G75*
G02*
X314474400Y-119511600I0J100000D01*
G01*
X314474400Y-119311600D01*
G75*
G02*
X314574400Y-119211600I100000J0D01*
G01*
X317174400Y-119211600D01*
G75*
G02*
X317274400Y-119311600I0J-100000D01*
G01*
X317274400Y-119511600D01*
G75*
G02*
X317174400Y-119611600I-100000J0D01*
G01*
G37*
G36*
G01*
X317174400Y-118411600D02*
X314574400Y-118411600D01*
G75*
G02*
X314474400Y-118311600I0J100000D01*
G01*
X314474400Y-118111600D01*
G75*
G02*
X314574400Y-118011600I100000J0D01*
G01*
X317174400Y-118011600D01*
G75*
G02*
X317274400Y-118111600I0J-100000D01*
G01*
X317274400Y-118311600D01*
G75*
G02*
X317174400Y-118411600I-100000J0D01*
G01*
G37*
G36*
G01*
X317174400Y-117211600D02*
X314574400Y-117211600D01*
G75*
G02*
X314474400Y-117111600I0J100000D01*
G01*
X314474400Y-116911600D01*
G75*
G02*
X314574400Y-116811600I100000J0D01*
G01*
X317174400Y-116811600D01*
G75*
G02*
X317274400Y-116911600I0J-100000D01*
G01*
X317274400Y-117111600D01*
G75*
G02*
X317174400Y-117211600I-100000J0D01*
G01*
G37*
G36*
G01*
X254970800Y-162084400D02*
X255670800Y-162084400D01*
G75*
G02*
X255920800Y-162334400I0J-250000D01*
G01*
X255920800Y-162834400D01*
G75*
G02*
X255670800Y-163084400I-250000J0D01*
G01*
X254970800Y-163084400D01*
G75*
G02*
X254720800Y-162834400I0J250000D01*
G01*
X254720800Y-162334400D01*
G75*
G02*
X254970800Y-162084400I250000J0D01*
G01*
G37*
G36*
G01*
X254970800Y-158784400D02*
X255670800Y-158784400D01*
G75*
G02*
X255920800Y-159034400I0J-250000D01*
G01*
X255920800Y-159534400D01*
G75*
G02*
X255670800Y-159784400I-250000J0D01*
G01*
X254970800Y-159784400D01*
G75*
G02*
X254720800Y-159534400I0J250000D01*
G01*
X254720800Y-159034400D01*
G75*
G02*
X254970800Y-158784400I250000J0D01*
G01*
G37*
G36*
G01*
X142194800Y-162744800D02*
X142894800Y-162744800D01*
G75*
G02*
X143144800Y-162994800I0J-250000D01*
G01*
X143144800Y-163494800D01*
G75*
G02*
X142894800Y-163744800I-250000J0D01*
G01*
X142194800Y-163744800D01*
G75*
G02*
X141944800Y-163494800I0J250000D01*
G01*
X141944800Y-162994800D01*
G75*
G02*
X142194800Y-162744800I250000J0D01*
G01*
G37*
G36*
G01*
X142194800Y-159444800D02*
X142894800Y-159444800D01*
G75*
G02*
X143144800Y-159694800I0J-250000D01*
G01*
X143144800Y-160194800D01*
G75*
G02*
X142894800Y-160444800I-250000J0D01*
G01*
X142194800Y-160444800D01*
G75*
G02*
X141944800Y-160194800I0J250000D01*
G01*
X141944800Y-159694800D01*
G75*
G02*
X142194800Y-159444800I250000J0D01*
G01*
G37*
G36*
G01*
X163784800Y-162846400D02*
X164484800Y-162846400D01*
G75*
G02*
X164734800Y-163096400I0J-250000D01*
G01*
X164734800Y-163596400D01*
G75*
G02*
X164484800Y-163846400I-250000J0D01*
G01*
X163784800Y-163846400D01*
G75*
G02*
X163534800Y-163596400I0J250000D01*
G01*
X163534800Y-163096400D01*
G75*
G02*
X163784800Y-162846400I250000J0D01*
G01*
G37*
G36*
G01*
X163784800Y-159546400D02*
X164484800Y-159546400D01*
G75*
G02*
X164734800Y-159796400I0J-250000D01*
G01*
X164734800Y-160296400D01*
G75*
G02*
X164484800Y-160546400I-250000J0D01*
G01*
X163784800Y-160546400D01*
G75*
G02*
X163534800Y-160296400I0J250000D01*
G01*
X163534800Y-159796400D01*
G75*
G02*
X163784800Y-159546400I250000J0D01*
G01*
G37*
G36*
G01*
X334856100Y-88488760D02*
X334856100Y-89938760D01*
G75*
G02*
X334806100Y-89988760I-50000J0D01*
G01*
X334206100Y-89988760D01*
G75*
G02*
X334156100Y-89938760I0J50000D01*
G01*
X334156100Y-88488760D01*
G75*
G02*
X334206100Y-88438760I50000J0D01*
G01*
X334806100Y-88438760D01*
G75*
G02*
X334856100Y-88488760I0J-50000D01*
G01*
G37*
G36*
G01*
X341306100Y-88488760D02*
X341306100Y-89938760D01*
G75*
G02*
X341256100Y-89988760I-50000J0D01*
G01*
X340656100Y-89988760D01*
G75*
G02*
X340606100Y-89938760I0J50000D01*
G01*
X340606100Y-88488760D01*
G75*
G02*
X340656100Y-88438760I50000J0D01*
G01*
X341256100Y-88438760D01*
G75*
G02*
X341306100Y-88488760I0J-50000D01*
G01*
G37*
G36*
G01*
X335631100Y-88488760D02*
X335631100Y-89938760D01*
G75*
G02*
X335581100Y-89988760I-50000J0D01*
G01*
X334981100Y-89988760D01*
G75*
G02*
X334931100Y-89938760I0J50000D01*
G01*
X334931100Y-88488760D01*
G75*
G02*
X334981100Y-88438760I50000J0D01*
G01*
X335581100Y-88438760D01*
G75*
G02*
X335631100Y-88488760I0J-50000D01*
G01*
G37*
G36*
G01*
X340531100Y-88488760D02*
X340531100Y-89938760D01*
G75*
G02*
X340481100Y-89988760I-50000J0D01*
G01*
X339881100Y-89988760D01*
G75*
G02*
X339831100Y-89938760I0J50000D01*
G01*
X339831100Y-88488760D01*
G75*
G02*
X339881100Y-88438760I50000J0D01*
G01*
X340481100Y-88438760D01*
G75*
G02*
X340531100Y-88488760I0J-50000D01*
G01*
G37*
G36*
G01*
X339681100Y-88488760D02*
X339681100Y-89938760D01*
G75*
G02*
X339631100Y-89988760I-50000J0D01*
G01*
X339331100Y-89988760D01*
G75*
G02*
X339281100Y-89938760I0J50000D01*
G01*
X339281100Y-88488760D01*
G75*
G02*
X339331100Y-88438760I50000J0D01*
G01*
X339631100Y-88438760D01*
G75*
G02*
X339681100Y-88488760I0J-50000D01*
G01*
G37*
G36*
G01*
X336181100Y-88488760D02*
X336181100Y-89938760D01*
G75*
G02*
X336131100Y-89988760I-50000J0D01*
G01*
X335831100Y-89988760D01*
G75*
G02*
X335781100Y-89938760I0J50000D01*
G01*
X335781100Y-88488760D01*
G75*
G02*
X335831100Y-88438760I50000J0D01*
G01*
X336131100Y-88438760D01*
G75*
G02*
X336181100Y-88488760I0J-50000D01*
G01*
G37*
G36*
G01*
X339181100Y-88488760D02*
X339181100Y-89938760D01*
G75*
G02*
X339131100Y-89988760I-50000J0D01*
G01*
X338831100Y-89988760D01*
G75*
G02*
X338781100Y-89938760I0J50000D01*
G01*
X338781100Y-88488760D01*
G75*
G02*
X338831100Y-88438760I50000J0D01*
G01*
X339131100Y-88438760D01*
G75*
G02*
X339181100Y-88488760I0J-50000D01*
G01*
G37*
G36*
G01*
X336681100Y-88488760D02*
X336681100Y-89938760D01*
G75*
G02*
X336631100Y-89988760I-50000J0D01*
G01*
X336331100Y-89988760D01*
G75*
G02*
X336281100Y-89938760I0J50000D01*
G01*
X336281100Y-88488760D01*
G75*
G02*
X336331100Y-88438760I50000J0D01*
G01*
X336631100Y-88438760D01*
G75*
G02*
X336681100Y-88488760I0J-50000D01*
G01*
G37*
G36*
G01*
X338681100Y-88488760D02*
X338681100Y-89938760D01*
G75*
G02*
X338631100Y-89988760I-50000J0D01*
G01*
X338331100Y-89988760D01*
G75*
G02*
X338281100Y-89938760I0J50000D01*
G01*
X338281100Y-88488760D01*
G75*
G02*
X338331100Y-88438760I50000J0D01*
G01*
X338631100Y-88438760D01*
G75*
G02*
X338681100Y-88488760I0J-50000D01*
G01*
G37*
G36*
G01*
X337181100Y-88488760D02*
X337181100Y-89938760D01*
G75*
G02*
X337131100Y-89988760I-50000J0D01*
G01*
X336831100Y-89988760D01*
G75*
G02*
X336781100Y-89938760I0J50000D01*
G01*
X336781100Y-88488760D01*
G75*
G02*
X336831100Y-88438760I50000J0D01*
G01*
X337131100Y-88438760D01*
G75*
G02*
X337181100Y-88488760I0J-50000D01*
G01*
G37*
G36*
G01*
X337681100Y-88488760D02*
X337681100Y-89938760D01*
G75*
G02*
X337631100Y-89988760I-50000J0D01*
G01*
X337331100Y-89988760D01*
G75*
G02*
X337281100Y-89938760I0J50000D01*
G01*
X337281100Y-88488760D01*
G75*
G02*
X337331100Y-88438760I50000J0D01*
G01*
X337631100Y-88438760D01*
G75*
G02*
X337681100Y-88488760I0J-50000D01*
G01*
G37*
G36*
G01*
X338181100Y-88488760D02*
X338181100Y-89938760D01*
G75*
G02*
X338131100Y-89988760I-50000J0D01*
G01*
X337831100Y-89988760D01*
G75*
G02*
X337781100Y-89938760I0J50000D01*
G01*
X337781100Y-88488760D01*
G75*
G02*
X337831100Y-88438760I50000J0D01*
G01*
X338131100Y-88438760D01*
G75*
G02*
X338181100Y-88488760I0J-50000D01*
G01*
G37*
G36*
G01*
X340823600Y-96628799D02*
X340823600Y-97528801D01*
G75*
G02*
X340573601Y-97778800I-249999J0D01*
G01*
X340048599Y-97778800D01*
G75*
G02*
X339798600Y-97528801I0J249999D01*
G01*
X339798600Y-96628799D01*
G75*
G02*
X340048599Y-96378800I249999J0D01*
G01*
X340573601Y-96378800D01*
G75*
G02*
X340823600Y-96628799I0J-249999D01*
G01*
G37*
G36*
G01*
X342648600Y-96628799D02*
X342648600Y-97528801D01*
G75*
G02*
X342398601Y-97778800I-249999J0D01*
G01*
X341873599Y-97778800D01*
G75*
G02*
X341623600Y-97528801I0J249999D01*
G01*
X341623600Y-96628799D01*
G75*
G02*
X341873599Y-96378800I249999J0D01*
G01*
X342398601Y-96378800D01*
G75*
G02*
X342648600Y-96628799I0J-249999D01*
G01*
G37*
G36*
G01*
X332632000Y-95344401D02*
X332632000Y-94444399D01*
G75*
G02*
X332881999Y-94194400I249999J0D01*
G01*
X333407001Y-94194400D01*
G75*
G02*
X333657000Y-94444399I0J-249999D01*
G01*
X333657000Y-95344401D01*
G75*
G02*
X333407001Y-95594400I-249999J0D01*
G01*
X332881999Y-95594400D01*
G75*
G02*
X332632000Y-95344401I0J249999D01*
G01*
G37*
G36*
G01*
X330807000Y-95344401D02*
X330807000Y-94444399D01*
G75*
G02*
X331056999Y-94194400I249999J0D01*
G01*
X331582001Y-94194400D01*
G75*
G02*
X331832000Y-94444399I0J-249999D01*
G01*
X331832000Y-95344401D01*
G75*
G02*
X331582001Y-95594400I-249999J0D01*
G01*
X331056999Y-95594400D01*
G75*
G02*
X330807000Y-95344401I0J249999D01*
G01*
G37*
G36*
G01*
X335947600Y-95581150D02*
X335947600Y-96493650D01*
G75*
G02*
X335703850Y-96737400I-243750J0D01*
G01*
X335216350Y-96737400D01*
G75*
G02*
X334972600Y-96493650I0J243750D01*
G01*
X334972600Y-95581150D01*
G75*
G02*
X335216350Y-95337400I243750J0D01*
G01*
X335703850Y-95337400D01*
G75*
G02*
X335947600Y-95581150I0J-243750D01*
G01*
G37*
G36*
G01*
X337822600Y-95581150D02*
X337822600Y-96493650D01*
G75*
G02*
X337578850Y-96737400I-243750J0D01*
G01*
X337091350Y-96737400D01*
G75*
G02*
X336847600Y-96493650I0J243750D01*
G01*
X336847600Y-95581150D01*
G75*
G02*
X337091350Y-95337400I243750J0D01*
G01*
X337578850Y-95337400D01*
G75*
G02*
X337822600Y-95581150I0J-243750D01*
G01*
G37*
D10*
X335246800Y-98933000D03*
X335246800Y-99883000D03*
X335246800Y-97983000D03*
X337446800Y-97983000D03*
X337446800Y-98933000D03*
X337446800Y-99883000D03*
D11*
X349584400Y-109754600D03*
X353284400Y-103554600D03*
X353284400Y-109754600D03*
X349584400Y-103554600D03*
G36*
G01*
X352038400Y-97198800D02*
X351338400Y-97198800D01*
G75*
G02*
X351088400Y-96948800I0J250000D01*
G01*
X351088400Y-96448800D01*
G75*
G02*
X351338400Y-96198800I250000J0D01*
G01*
X352038400Y-96198800D01*
G75*
G02*
X352288400Y-96448800I0J-250000D01*
G01*
X352288400Y-96948800D01*
G75*
G02*
X352038400Y-97198800I-250000J0D01*
G01*
G37*
G36*
G01*
X352038400Y-100498800D02*
X351338400Y-100498800D01*
G75*
G02*
X351088400Y-100248800I0J250000D01*
G01*
X351088400Y-99748800D01*
G75*
G02*
X351338400Y-99498800I250000J0D01*
G01*
X352038400Y-99498800D01*
G75*
G02*
X352288400Y-99748800I0J-250000D01*
G01*
X352288400Y-100248800D01*
G75*
G02*
X352038400Y-100498800I-250000J0D01*
G01*
G37*
G36*
G01*
X333038762Y-105395301D02*
X333038762Y-104695301D01*
G75*
G02*
X333288762Y-104445301I250000J0D01*
G01*
X333788762Y-104445301D01*
G75*
G02*
X334038762Y-104695301I0J-250000D01*
G01*
X334038762Y-105395301D01*
G75*
G02*
X333788762Y-105645301I-250000J0D01*
G01*
X333288762Y-105645301D01*
G75*
G02*
X333038762Y-105395301I0J250000D01*
G01*
G37*
G36*
G01*
X329738762Y-105395301D02*
X329738762Y-104695301D01*
G75*
G02*
X329988762Y-104445301I250000J0D01*
G01*
X330488762Y-104445301D01*
G75*
G02*
X330738762Y-104695301I0J-250000D01*
G01*
X330738762Y-105395301D01*
G75*
G02*
X330488762Y-105645301I-250000J0D01*
G01*
X329988762Y-105645301D01*
G75*
G02*
X329738762Y-105395301I0J250000D01*
G01*
G37*
G36*
G01*
X336526250Y-135603125D02*
X336526250Y-134903125D01*
G75*
G02*
X336776250Y-134653125I250000J0D01*
G01*
X337276250Y-134653125D01*
G75*
G02*
X337526250Y-134903125I0J-250000D01*
G01*
X337526250Y-135603125D01*
G75*
G02*
X337276250Y-135853125I-250000J0D01*
G01*
X336776250Y-135853125D01*
G75*
G02*
X336526250Y-135603125I0J250000D01*
G01*
G37*
G36*
G01*
X333226250Y-135603125D02*
X333226250Y-134903125D01*
G75*
G02*
X333476250Y-134653125I250000J0D01*
G01*
X333976250Y-134653125D01*
G75*
G02*
X334226250Y-134903125I0J-250000D01*
G01*
X334226250Y-135603125D01*
G75*
G02*
X333976250Y-135853125I-250000J0D01*
G01*
X333476250Y-135853125D01*
G75*
G02*
X333226250Y-135603125I0J250000D01*
G01*
G37*
G36*
G01*
X335110580Y-142509585D02*
X335810580Y-142509585D01*
G75*
G02*
X336060580Y-142759585I0J-250000D01*
G01*
X336060580Y-143259585D01*
G75*
G02*
X335810580Y-143509585I-250000J0D01*
G01*
X335110580Y-143509585D01*
G75*
G02*
X334860580Y-143259585I0J250000D01*
G01*
X334860580Y-142759585D01*
G75*
G02*
X335110580Y-142509585I250000J0D01*
G01*
G37*
G36*
G01*
X335110580Y-139209585D02*
X335810580Y-139209585D01*
G75*
G02*
X336060580Y-139459585I0J-250000D01*
G01*
X336060580Y-139959585D01*
G75*
G02*
X335810580Y-140209585I-250000J0D01*
G01*
X335110580Y-140209585D01*
G75*
G02*
X334860580Y-139959585I0J250000D01*
G01*
X334860580Y-139459585D01*
G75*
G02*
X335110580Y-139209585I250000J0D01*
G01*
G37*
G36*
G01*
X349182550Y-161559665D02*
X349882550Y-161559665D01*
G75*
G02*
X350132550Y-161809665I0J-250000D01*
G01*
X350132550Y-162309665D01*
G75*
G02*
X349882550Y-162559665I-250000J0D01*
G01*
X349182550Y-162559665D01*
G75*
G02*
X348932550Y-162309665I0J250000D01*
G01*
X348932550Y-161809665D01*
G75*
G02*
X349182550Y-161559665I250000J0D01*
G01*
G37*
G36*
G01*
X349182550Y-158259665D02*
X349882550Y-158259665D01*
G75*
G02*
X350132550Y-158509665I0J-250000D01*
G01*
X350132550Y-159009665D01*
G75*
G02*
X349882550Y-159259665I-250000J0D01*
G01*
X349182550Y-159259665D01*
G75*
G02*
X348932550Y-159009665I0J250000D01*
G01*
X348932550Y-158509665D01*
G75*
G02*
X349182550Y-158259665I250000J0D01*
G01*
G37*
G36*
G01*
X332729320Y-162750295D02*
X333429320Y-162750295D01*
G75*
G02*
X333679320Y-163000295I0J-250000D01*
G01*
X333679320Y-163500295D01*
G75*
G02*
X333429320Y-163750295I-250000J0D01*
G01*
X332729320Y-163750295D01*
G75*
G02*
X332479320Y-163500295I0J250000D01*
G01*
X332479320Y-163000295D01*
G75*
G02*
X332729320Y-162750295I250000J0D01*
G01*
G37*
G36*
G01*
X332729320Y-159450295D02*
X333429320Y-159450295D01*
G75*
G02*
X333679320Y-159700295I0J-250000D01*
G01*
X333679320Y-160200295D01*
G75*
G02*
X333429320Y-160450295I-250000J0D01*
G01*
X332729320Y-160450295D01*
G75*
G02*
X332479320Y-160200295I0J250000D01*
G01*
X332479320Y-159700295D01*
G75*
G02*
X332729320Y-159450295I250000J0D01*
G01*
G37*
M02*
