M48
; DRILL file {KiCad (5.1.10)-1} date 10/12/21 23:34:03
; FORMAT={-:-/ absolute / inch / decimal}
; #@! TF.CreationDate,2021-10-12T23:34:03+09:00
; #@! TF.GenerationSoftware,Kicad,Pcbnew,(5.1.10)-1
; #@! TF.FileFunction,Plated,1,2,PTH
FMAT,2
INCH
T1C0.0157
T2C0.0197
T3C0.0236
T4C0.0394
T5C0.0600
T6C0.0984
%
G90
G05
T1
X3.3758Y-4.4915
X4.0197Y-5.2064
X5.59Y-4.461
X6.335Y-4.462
X7.088Y-4.464
X7.84Y-4.462
X8.596Y-4.465
X9.335Y-4.4657
X9.904Y-6.48
X10.073Y-4.4657
X10.5729Y-6.0626
X10.819Y-4.464
X11.4287Y-6.0405
X11.594Y-4.4657
X11.6533Y-5.8339
X12.14Y-4.4657
X12.274Y-4.4657
X12.318Y-4.608
X12.4482Y-4.4586
X12.508Y-4.656
X12.548Y-4.534
X12.55Y-4.718
X12.576Y-4.612
X12.578Y-4.504
X12.6217Y-4.996
X12.7025Y-5.0285
X12.7033Y-4.67
X12.75Y-4.29
X12.814Y-4.586
X12.856Y-4.5097
X12.97Y-4.65
X12.9708Y-6.0133
X12.984Y-5.18
X13.022Y-4.052
X13.042Y-3.998
X13.08Y-4.55
X13.128Y-4.934
X13.1501Y-6.0738
X13.154Y-4.896
X13.194Y-4.224
X13.2019Y-3.568
X13.332Y-3.896
X13.376Y-3.57
X13.464Y-3.884
X13.514Y-3.944
X13.666Y-4.648
X13.756Y-4.456
X13.846Y-3.74
T2
X13.0Y-5.512
T4
X13.767Y-4.547
X13.767Y-4.647
X13.767Y-4.747
X13.867Y-4.547
X13.867Y-4.647
X13.867Y-4.747
T5
X2.9789Y-5.9466
X3.025Y-6.3937
X3.025Y-6.3937
X3.029Y-3.3966
X3.1187Y-6.3937
X3.1187Y-6.3937
X3.1227Y-4.5216
X3.2162Y-4.1477
X3.2289Y-6.0466
X3.275Y-6.4937
X3.275Y-6.4937
X3.279Y-3.4966
X3.3104Y-5.6463
X3.3687Y-6.4937
X3.3687Y-6.4937
X3.3727Y-4.6216
X3.4039Y-3.3966
X3.4662Y-4.2477
X3.5604Y-5.7463
X3.6539Y-3.4966
X3.6852Y-5.6466
X3.6852Y-5.6466
X3.775Y-6.3937
X3.775Y-6.3937
X3.7789Y-3.3966
X3.9352Y-5.7466
X3.9352Y-5.7466
X3.9625Y-6.3937
X3.9665Y-4.8966
X4.0062Y-6.6937
X4.0102Y-5.9466
X4.0102Y-5.9466
X4.025Y-6.4937
X4.025Y-6.4937
X4.0289Y-3.4966
X4.1539Y-4.1466
X4.2125Y-6.4937
X4.2165Y-4.9966
X4.2562Y-6.7938
X4.2602Y-6.0466
X4.2602Y-6.0466
X4.3423Y-5.6453
X4.344Y-4.8946
X4.4039Y-4.2466
X4.4352Y-5.6466
X4.475Y-6.6937
X4.475Y-6.6937
X4.5289Y-3.3966
X4.5923Y-5.7453
X4.594Y-4.9946
X4.6852Y-5.7466
X4.7164Y-4.8966
X4.725Y-6.7938
X4.725Y-6.7938
X4.7789Y-3.4966
X4.8062Y-6.3937
X4.904Y-4.1466
X4.9437Y-6.6937
X4.9664Y-4.9966
X5.0562Y-6.4937
X5.0915Y-5.6466
X5.154Y-4.2466
X5.1812Y-5.6466
X5.1937Y-6.7938
X5.275Y-6.3937
X5.275Y-6.3937
X5.279Y-3.3966
X5.3415Y-5.7466
X5.4312Y-5.7466
X5.4665Y-4.8966
X5.525Y-6.4937
X5.525Y-6.4937
X5.529Y-3.4966
X5.654Y-4.1466
X5.6937Y-6.6937
X5.7165Y-4.9966
X5.8415Y-5.6466
X5.904Y-4.2466
X5.9312Y-5.6466
X5.9312Y-6.3937
X5.9437Y-6.7938
X6.025Y-6.3937
X6.029Y-3.3966
X6.0915Y-5.7466
X6.1187Y-6.3937
X6.1812Y-5.7466
X6.1812Y-6.4937
X6.2165Y-4.8966
X6.275Y-6.4937
X6.279Y-3.4966
X6.3687Y-6.4937
X6.404Y-4.1466
X6.4665Y-4.9966
X6.5915Y-5.6466
X6.654Y-4.2466
X6.6812Y-5.6466
X6.6812Y-6.3937
X6.725Y-6.6937
X6.779Y-3.3966
X6.8415Y-5.7466
X6.9312Y-5.7466
X6.9312Y-6.4937
X6.9665Y-4.8966
X6.975Y-6.7938
X7.029Y-3.4966
X7.0562Y-6.3937
X7.154Y-4.1466
X7.2165Y-4.9966
X7.3062Y-6.4937
X7.3415Y-5.6466
X7.404Y-4.2466
X7.4352Y-5.6466
X7.529Y-3.3966
X7.5915Y-5.7466
X7.6187Y-6.3937
X7.6852Y-5.7466
X7.7165Y-4.8966
X7.779Y-3.4966
X7.8687Y-6.4937
X7.904Y-4.1466
X7.9665Y-4.9966
X8.0915Y-5.6466
X8.154Y-4.2466
X8.1852Y-5.6466
X8.279Y-3.3966
X8.3415Y-5.7466
X8.4352Y-5.7466
X8.4665Y-4.8966
X8.529Y-3.4966
X8.65Y-6.3937
X8.654Y-4.1466
X8.7165Y-4.9966
X8.7438Y-6.3937
X8.8375Y-6.3937
X8.8415Y-5.6466
X8.9Y-6.4937
X8.904Y-4.2466
X8.9352Y-5.6466
X8.9938Y-6.4937
X9.029Y-3.3966
X9.0875Y-6.4937
X9.0915Y-5.7466
X9.1188Y-6.3937
X9.1852Y-5.7466
X9.2165Y-4.8966
X9.279Y-3.4966
X9.3688Y-6.4937
X9.404Y-4.1466
X9.4665Y-4.9966
X9.5915Y-5.6466
X9.654Y-4.2466
X9.6852Y-5.6466
X9.779Y-3.3966
X9.8415Y-5.7466
X9.9352Y-5.7466
X9.9665Y-4.8966
X10.029Y-3.4966
X10.154Y-4.1466
X10.2165Y-4.9966
X10.2438Y-6.3937
X10.3415Y-5.6466
X10.404Y-4.2466
X10.4352Y-5.6466
X10.4938Y-6.4937
X10.529Y-3.3966
X10.5687Y-6.6937
X10.5915Y-5.7466
X10.6852Y-5.7466
X10.7165Y-4.8966
X10.779Y-3.4966
X10.8187Y-6.7938
X10.9Y-6.3937
X10.904Y-4.1466
X10.9665Y-4.9966
X11.0875Y-6.3937
X11.0915Y-5.6466
X11.15Y-6.4937
X11.154Y-4.2466
X11.1852Y-5.6466
X11.279Y-3.3966
X11.3375Y-6.4937
X11.3415Y-5.7466
X11.4352Y-5.7466
X11.4665Y-4.8966
X11.5062Y-6.6937
X11.529Y-3.4966
X11.654Y-4.1466
X11.7165Y-4.9966
X11.7438Y-6.3937
X11.7562Y-6.7938
X11.8375Y-6.3937
X11.8415Y-5.6466
X11.904Y-4.2466
X11.9352Y-5.6466
X11.9938Y-6.4937
X12.029Y-3.3966
X12.0875Y-6.4937
X12.0915Y-5.7466
X12.1852Y-5.7466
X12.2165Y-4.8966
X12.279Y-3.4966
X12.404Y-4.1466
X12.4665Y-4.9966
X12.4938Y-6.3937
X12.5875Y-6.3937
X12.5875Y-6.3937
X12.5915Y-5.6466
X12.654Y-4.2466
X12.7165Y-5.6466
X12.7438Y-6.4937
X12.779Y-3.3966
X12.8375Y-6.4937
X12.8375Y-6.4937
X12.8415Y-5.7466
X12.9665Y-5.7466
X13.029Y-3.4966
X13.0602Y-5.6466
X13.0602Y-5.6466
X13.2477Y-4.8966
X13.3102Y-5.7466
X13.3102Y-5.7466
X13.3415Y-4.1466
X13.4313Y-6.3937
X13.4352Y-4.8966
X13.4352Y-5.6466
X13.4352Y-5.6466
X13.479Y-3.6966
X13.4977Y-4.9966
X13.5915Y-4.2466
X13.6813Y-6.4937
X13.6852Y-4.9966
X13.6852Y-5.7466
X13.6852Y-5.7466
X13.729Y-3.7966
T3
G00X13.1264Y-3.3236
M15
G01X13.1264Y-3.3
M16
G05
G00X13.1264Y-3.498
M15
G01X13.1264Y-3.4547
M16
G05
G00X13.4666Y-3.3236
M15
G01X13.4666Y-3.3
M16
G05
G00X13.4666Y-3.498
M15
G01X13.4666Y-3.4547
M16
G05
T6
G00X2.6999Y-5.4716
M15
G01X2.9164Y-5.4716
M16
G05
G00X3.8022Y-4.3466
M15
G01X3.7038Y-4.3466
M16
G05
G00X3.7254Y-6.7293
M15
G01X3.8239Y-6.7293
M16
G05
G00X5.7047Y-3.5966
M15
G01X5.8032Y-3.5966
M16
G05
G00X8.9907Y-5.0966
M15
G01X8.8923Y-5.0966
M16
G05
G00X10.9548Y-3.5966
M15
G01X11.0532Y-3.5966
M16
G05
G00X13.0688Y-4.3466
M15
G01X12.9704Y-4.3466
M16
G05
G00X12.9932Y-6.5887
M15
G01X13.0916Y-6.5887
M16
G05
G00X14.0577Y-5.4714
M15
G01X13.8412Y-5.4714
M16
G05
T0
M30
