G04 #@! TF.GenerationSoftware,KiCad,Pcbnew,(5.99.0-12762-g961c127ebe)*
G04 #@! TF.CreationDate,2021-11-23T00:09:19+09:00*
G04 #@! TF.ProjectId,plate3,706c6174-6533-42e6-9b69-6361645f7063,rev?*
G04 #@! TF.SameCoordinates,Original*
G04 #@! TF.FileFunction,Soldermask,Bot*
G04 #@! TF.FilePolarity,Negative*
%FSLAX46Y46*%
G04 Gerber Fmt 4.6, Leading zero omitted, Abs format (unit mm)*
G04 Created by KiCad (PCBNEW (5.99.0-12762-g961c127ebe)) date 2021-11-23 00:09:19*
%MOMM*%
%LPD*%
G01*
G04 APERTURE LIST*
G04 APERTURE END LIST*
G36*
X301159925Y-37782602D02*
G01*
X301206418Y-37836258D01*
X301217804Y-37888597D01*
X301218713Y-73372197D01*
X301198713Y-73440318D01*
X301145058Y-73486812D01*
X301092713Y-73498200D01*
X297723465Y-73498200D01*
X297713596Y-73498978D01*
X296955193Y-73619350D01*
X296936602Y-73625389D01*
X296258383Y-73970579D01*
X296242461Y-73982156D01*
X295703883Y-74522011D01*
X295692427Y-74537794D01*
X295345879Y-75217574D01*
X295339825Y-75236185D01*
X295220311Y-75988085D01*
X295220308Y-76007718D01*
X295339826Y-76761401D01*
X295345887Y-76780039D01*
X295692432Y-77459519D01*
X295703870Y-77475280D01*
X296211743Y-77984634D01*
X296245677Y-78046996D01*
X296240509Y-78117804D01*
X296197880Y-78174578D01*
X296131324Y-78199292D01*
X296122518Y-78199600D01*
X277755165Y-78199600D01*
X277739926Y-78204075D01*
X277738721Y-78205465D01*
X277737050Y-78213148D01*
X277737050Y-92181485D01*
X277741525Y-92196724D01*
X277742915Y-92197929D01*
X277750598Y-92199600D01*
X296481435Y-92199600D01*
X296496674Y-92195125D01*
X296497879Y-92193735D01*
X296499550Y-92186052D01*
X296499550Y-78355092D01*
X296519552Y-78286971D01*
X296573208Y-78240478D01*
X296643482Y-78230374D01*
X296682664Y-78242780D01*
X296936619Y-78371924D01*
X296955172Y-78377950D01*
X297712210Y-78498319D01*
X297722095Y-78499100D01*
X301092714Y-78499100D01*
X301160835Y-78519102D01*
X301207328Y-78572758D01*
X301218714Y-78625102D01*
X301217803Y-132510603D01*
X301197800Y-132578724D01*
X301144143Y-132625216D01*
X301091803Y-132636601D01*
X15969800Y-132636601D01*
X15901679Y-132616599D01*
X15855186Y-132562943D01*
X15843800Y-132510601D01*
X15843800Y-130281485D01*
X18180787Y-130281485D01*
X18185262Y-130296724D01*
X18186652Y-130297929D01*
X18194335Y-130299600D01*
X51212674Y-130299600D01*
X51227913Y-130295125D01*
X51229118Y-130293735D01*
X51230789Y-130286052D01*
X51230789Y-130281485D01*
X56280800Y-130281485D01*
X56285275Y-130296724D01*
X56286665Y-130297929D01*
X56294348Y-130299600D01*
X70262685Y-130299600D01*
X70277924Y-130295125D01*
X70279129Y-130293735D01*
X70280800Y-130286052D01*
X70280800Y-130281485D01*
X75330800Y-130281485D01*
X75335275Y-130296724D01*
X75336665Y-130297929D01*
X75344348Y-130299600D01*
X89312685Y-130299600D01*
X89327924Y-130295125D01*
X89329129Y-130293735D01*
X89330800Y-130286052D01*
X89330800Y-130281485D01*
X94380800Y-130281485D01*
X94385275Y-130296724D01*
X94386665Y-130297929D01*
X94394348Y-130299600D01*
X108362685Y-130299600D01*
X108377924Y-130295125D01*
X108379129Y-130293735D01*
X108380800Y-130286052D01*
X108380800Y-130281485D01*
X113430800Y-130281485D01*
X113435275Y-130296724D01*
X113436665Y-130297929D01*
X113444348Y-130299600D01*
X127412685Y-130299600D01*
X127427924Y-130295125D01*
X127429129Y-130293735D01*
X127430800Y-130286052D01*
X127430800Y-130281485D01*
X132480800Y-130281485D01*
X132485275Y-130296724D01*
X132486665Y-130297929D01*
X132494348Y-130299600D01*
X146462685Y-130299600D01*
X146477924Y-130295125D01*
X146479129Y-130293735D01*
X146480800Y-130286052D01*
X146480800Y-130281485D01*
X151530800Y-130281485D01*
X151535275Y-130296724D01*
X151536665Y-130297929D01*
X151544348Y-130299600D01*
X165512685Y-130299600D01*
X165527924Y-130295125D01*
X165529129Y-130293735D01*
X165530800Y-130286052D01*
X165530800Y-130281485D01*
X170580801Y-130281485D01*
X170585276Y-130296724D01*
X170586666Y-130297929D01*
X170594349Y-130299600D01*
X184562685Y-130299600D01*
X184577924Y-130295125D01*
X184579129Y-130293735D01*
X184580800Y-130286052D01*
X184580800Y-130281485D01*
X189630800Y-130281485D01*
X189635275Y-130296724D01*
X189636665Y-130297929D01*
X189644348Y-130299600D01*
X203612685Y-130299600D01*
X203627924Y-130295125D01*
X203629129Y-130293735D01*
X203630800Y-130286052D01*
X203630800Y-130281485D01*
X208680800Y-130281485D01*
X208685275Y-130296724D01*
X208686665Y-130297929D01*
X208694348Y-130299600D01*
X222662685Y-130299600D01*
X222677924Y-130295125D01*
X222679129Y-130293735D01*
X222680800Y-130286052D01*
X222680800Y-130281485D01*
X227730800Y-130281485D01*
X227735275Y-130296724D01*
X227736665Y-130297929D01*
X227744348Y-130299600D01*
X241712685Y-130299600D01*
X241727924Y-130295125D01*
X241729129Y-130293735D01*
X241730800Y-130286052D01*
X241730800Y-130281485D01*
X246780800Y-130281485D01*
X246785275Y-130296724D01*
X246786665Y-130297929D01*
X246794348Y-130299600D01*
X260762685Y-130299600D01*
X260777924Y-130295125D01*
X260779129Y-130293735D01*
X260780800Y-130286052D01*
X260780800Y-130281485D01*
X265830800Y-130281485D01*
X265835275Y-130296724D01*
X265836665Y-130297929D01*
X265844348Y-130299600D01*
X279812685Y-130299600D01*
X279827924Y-130295125D01*
X279829129Y-130293735D01*
X279830800Y-130286052D01*
X279830800Y-130281485D01*
X284880801Y-130281485D01*
X284885276Y-130296724D01*
X284886666Y-130297929D01*
X284894349Y-130299600D01*
X298862685Y-130299600D01*
X298877924Y-130295125D01*
X298879129Y-130293735D01*
X298880800Y-130286052D01*
X298880800Y-116317716D01*
X298876325Y-116302477D01*
X298874935Y-116301272D01*
X298867252Y-116299601D01*
X284898916Y-116299601D01*
X284883677Y-116304076D01*
X284882472Y-116305466D01*
X284880801Y-116313149D01*
X284880801Y-130281485D01*
X279830800Y-130281485D01*
X279830800Y-116317716D01*
X279826325Y-116302477D01*
X279824935Y-116301272D01*
X279817252Y-116299601D01*
X265848915Y-116299601D01*
X265833676Y-116304076D01*
X265832471Y-116305466D01*
X265830800Y-116313149D01*
X265830800Y-130281485D01*
X260780800Y-130281485D01*
X260780800Y-116317716D01*
X260776325Y-116302477D01*
X260774935Y-116301272D01*
X260767252Y-116299601D01*
X246798915Y-116299601D01*
X246783676Y-116304076D01*
X246782471Y-116305466D01*
X246780800Y-116313149D01*
X246780800Y-130281485D01*
X241730800Y-130281485D01*
X241730800Y-116317716D01*
X241726325Y-116302477D01*
X241724935Y-116301272D01*
X241717252Y-116299601D01*
X227748915Y-116299601D01*
X227733676Y-116304076D01*
X227732471Y-116305466D01*
X227730800Y-116313149D01*
X227730800Y-130281485D01*
X222680800Y-130281485D01*
X222680800Y-116317716D01*
X222676325Y-116302477D01*
X222674935Y-116301272D01*
X222667252Y-116299601D01*
X208698915Y-116299601D01*
X208683676Y-116304076D01*
X208682471Y-116305466D01*
X208680800Y-116313149D01*
X208680800Y-130281485D01*
X203630800Y-130281485D01*
X203630800Y-116317716D01*
X203626325Y-116302477D01*
X203624935Y-116301272D01*
X203617252Y-116299601D01*
X189648915Y-116299601D01*
X189633676Y-116304076D01*
X189632471Y-116305466D01*
X189630800Y-116313149D01*
X189630800Y-130281485D01*
X184580800Y-130281485D01*
X184580800Y-116317716D01*
X184576325Y-116302477D01*
X184574935Y-116301272D01*
X184567252Y-116299601D01*
X170598916Y-116299601D01*
X170583677Y-116304076D01*
X170582472Y-116305466D01*
X170580801Y-116313149D01*
X170580801Y-130281485D01*
X165530800Y-130281485D01*
X165530800Y-116317716D01*
X165526325Y-116302477D01*
X165524935Y-116301272D01*
X165517252Y-116299601D01*
X151548915Y-116299601D01*
X151533676Y-116304076D01*
X151532471Y-116305466D01*
X151530800Y-116313149D01*
X151530800Y-130281485D01*
X146480800Y-130281485D01*
X146480800Y-116317716D01*
X146476325Y-116302477D01*
X146474935Y-116301272D01*
X146467252Y-116299601D01*
X132498915Y-116299601D01*
X132483676Y-116304076D01*
X132482471Y-116305466D01*
X132480800Y-116313149D01*
X132480800Y-130281485D01*
X127430800Y-130281485D01*
X127430800Y-116317716D01*
X127426325Y-116302477D01*
X127424935Y-116301272D01*
X127417252Y-116299601D01*
X113448915Y-116299601D01*
X113433676Y-116304076D01*
X113432471Y-116305466D01*
X113430800Y-116313149D01*
X113430800Y-130281485D01*
X108380800Y-130281485D01*
X108380800Y-116317716D01*
X108376325Y-116302477D01*
X108374935Y-116301272D01*
X108367252Y-116299601D01*
X94398915Y-116299601D01*
X94383676Y-116304076D01*
X94382471Y-116305466D01*
X94380800Y-116313149D01*
X94380800Y-130281485D01*
X89330800Y-130281485D01*
X89330800Y-116317716D01*
X89326325Y-116302477D01*
X89324935Y-116301272D01*
X89317252Y-116299601D01*
X75348915Y-116299601D01*
X75333676Y-116304076D01*
X75332471Y-116305466D01*
X75330800Y-116313149D01*
X75330800Y-130281485D01*
X70280800Y-130281485D01*
X70280800Y-116317716D01*
X70276325Y-116302477D01*
X70274935Y-116301272D01*
X70267252Y-116299601D01*
X56298915Y-116299601D01*
X56283676Y-116304076D01*
X56282471Y-116305466D01*
X56280800Y-116313149D01*
X56280800Y-130281485D01*
X51230789Y-130281485D01*
X51230789Y-116317715D01*
X51226314Y-116302476D01*
X51224924Y-116301271D01*
X51217241Y-116299600D01*
X50269880Y-116299600D01*
X50201759Y-116279598D01*
X50155266Y-116225942D01*
X50143880Y-116173605D01*
X50143801Y-114317717D01*
X50139325Y-114302476D01*
X50137933Y-114301270D01*
X50130256Y-114299600D01*
X43161915Y-114299600D01*
X43146676Y-114304075D01*
X43145471Y-114305465D01*
X43143800Y-114313148D01*
X43143800Y-116173600D01*
X43123798Y-116241721D01*
X43070142Y-116288214D01*
X43017800Y-116299600D01*
X41705800Y-116299601D01*
X26393733Y-116299601D01*
X26325612Y-116279599D01*
X26279119Y-116225943D01*
X26267733Y-116173596D01*
X26267799Y-114317715D01*
X26263325Y-114302476D01*
X26261935Y-114301271D01*
X26254253Y-114299600D01*
X19285915Y-114299600D01*
X19270676Y-114304075D01*
X19269471Y-114305465D01*
X19267800Y-114313148D01*
X19267800Y-116173600D01*
X19247798Y-116241721D01*
X19194142Y-116288214D01*
X19141800Y-116299600D01*
X18198902Y-116299600D01*
X18183663Y-116304075D01*
X18182458Y-116305465D01*
X18180787Y-116313148D01*
X18180787Y-130281485D01*
X15843800Y-130281485D01*
X15843800Y-78625100D01*
X15863802Y-78556979D01*
X15917458Y-78510486D01*
X15969800Y-78499100D01*
X19339838Y-78499100D01*
X19349701Y-78498322D01*
X20108044Y-78377949D01*
X20126607Y-78371922D01*
X20804905Y-78027024D01*
X20820847Y-78015439D01*
X21346858Y-77488285D01*
X21409133Y-77454193D01*
X21479954Y-77459181D01*
X21536836Y-77501666D01*
X21561719Y-77568159D01*
X21562050Y-77577284D01*
X21562050Y-87598600D01*
X21542048Y-87666721D01*
X21488392Y-87713214D01*
X21436050Y-87724600D01*
X20580165Y-87724600D01*
X20564926Y-87729075D01*
X20563721Y-87730465D01*
X20562050Y-87738148D01*
X20562050Y-101706485D01*
X20566525Y-101721724D01*
X20567915Y-101722929D01*
X20575598Y-101724600D01*
X21436050Y-101724600D01*
X21504171Y-101744602D01*
X21550664Y-101798258D01*
X21562050Y-101850600D01*
X21562050Y-110144485D01*
X21566525Y-110159724D01*
X21567915Y-110160929D01*
X21575598Y-110162600D01*
X22817300Y-110162600D01*
X22885421Y-110182602D01*
X22931914Y-110236258D01*
X22943300Y-110288600D01*
X22943300Y-111231486D01*
X22947775Y-111246725D01*
X22949165Y-111247930D01*
X22956848Y-111249601D01*
X36925185Y-111249601D01*
X36940424Y-111245126D01*
X36941629Y-111243736D01*
X36943300Y-111236053D01*
X36943300Y-111231486D01*
X46755800Y-111231486D01*
X46760275Y-111246725D01*
X46761665Y-111247930D01*
X46769348Y-111249601D01*
X60737685Y-111249601D01*
X60752924Y-111245126D01*
X60754129Y-111243736D01*
X60755800Y-111236053D01*
X60755800Y-111231486D01*
X65805800Y-111231486D01*
X65810275Y-111246725D01*
X65811665Y-111247930D01*
X65819348Y-111249601D01*
X79787685Y-111249601D01*
X79802924Y-111245126D01*
X79804129Y-111243736D01*
X79805800Y-111236053D01*
X79805800Y-111231486D01*
X84855800Y-111231486D01*
X84860275Y-111246725D01*
X84861665Y-111247930D01*
X84869348Y-111249601D01*
X98837685Y-111249601D01*
X98852924Y-111245126D01*
X98854129Y-111243736D01*
X98855800Y-111236053D01*
X98855800Y-111231486D01*
X103905800Y-111231486D01*
X103910275Y-111246725D01*
X103911665Y-111247930D01*
X103919348Y-111249601D01*
X117887685Y-111249601D01*
X117902924Y-111245126D01*
X117904129Y-111243736D01*
X117905800Y-111236053D01*
X117905800Y-111231486D01*
X122955800Y-111231486D01*
X122960275Y-111246725D01*
X122961665Y-111247930D01*
X122969348Y-111249601D01*
X136937685Y-111249601D01*
X136952924Y-111245126D01*
X136954129Y-111243736D01*
X136955800Y-111236053D01*
X136955800Y-111231486D01*
X142005800Y-111231486D01*
X142010275Y-111246725D01*
X142011665Y-111247930D01*
X142019348Y-111249601D01*
X155987685Y-111249601D01*
X156002924Y-111245126D01*
X156004129Y-111243736D01*
X156005800Y-111236053D01*
X156005800Y-111231486D01*
X161055800Y-111231486D01*
X161060275Y-111246725D01*
X161061665Y-111247930D01*
X161069348Y-111249601D01*
X175037685Y-111249601D01*
X175052924Y-111245126D01*
X175054129Y-111243736D01*
X175055800Y-111236053D01*
X175055800Y-111231486D01*
X180105800Y-111231486D01*
X180110275Y-111246725D01*
X180111665Y-111247930D01*
X180119348Y-111249601D01*
X194087685Y-111249601D01*
X194102924Y-111245126D01*
X194104129Y-111243736D01*
X194105800Y-111236053D01*
X194105800Y-111231486D01*
X199155800Y-111231486D01*
X199160275Y-111246725D01*
X199161665Y-111247930D01*
X199169348Y-111249601D01*
X213137685Y-111249601D01*
X213152924Y-111245126D01*
X213154129Y-111243736D01*
X213155800Y-111236053D01*
X213155800Y-111231486D01*
X218205800Y-111231486D01*
X218210275Y-111246725D01*
X218211665Y-111247930D01*
X218219348Y-111249601D01*
X232187685Y-111249601D01*
X232202924Y-111245126D01*
X232204129Y-111243736D01*
X232205800Y-111236053D01*
X232205800Y-111231486D01*
X237255800Y-111231486D01*
X237260275Y-111246725D01*
X237261665Y-111247930D01*
X237269348Y-111249601D01*
X251237685Y-111249601D01*
X251252924Y-111245126D01*
X251254129Y-111243736D01*
X251255800Y-111236053D01*
X251255800Y-111231486D01*
X256305800Y-111231486D01*
X256310275Y-111246725D01*
X256311665Y-111247930D01*
X256319348Y-111249601D01*
X270287686Y-111249601D01*
X270302925Y-111245126D01*
X270304130Y-111243736D01*
X270305801Y-111236053D01*
X270305801Y-111231486D01*
X280118300Y-111231486D01*
X280122775Y-111246725D01*
X280124165Y-111247930D01*
X280131848Y-111249601D01*
X294100185Y-111249601D01*
X294115424Y-111245126D01*
X294116629Y-111243736D01*
X294118300Y-111236053D01*
X294118300Y-97267715D01*
X294113825Y-97252476D01*
X294112435Y-97251271D01*
X294104752Y-97249600D01*
X280136415Y-97249600D01*
X280121176Y-97254075D01*
X280119971Y-97255465D01*
X280118300Y-97263148D01*
X280118300Y-111231486D01*
X270305801Y-111231486D01*
X270305801Y-104607806D01*
X273332954Y-104607806D01*
X273452436Y-105362426D01*
X273458562Y-105381198D01*
X273806448Y-106059717D01*
X273817787Y-106075320D01*
X274355042Y-106615109D01*
X274371015Y-106626739D01*
X275049175Y-106971909D01*
X275067784Y-106977950D01*
X275821310Y-107097251D01*
X275840890Y-107097251D01*
X276594418Y-106977950D01*
X276613027Y-106971909D01*
X277291255Y-106626703D01*
X277307120Y-106615184D01*
X277847069Y-106075430D01*
X277858608Y-106059540D01*
X278203714Y-105381121D01*
X278209749Y-105362527D01*
X278329346Y-104607815D01*
X278329341Y-104588189D01*
X278209751Y-103835855D01*
X278203720Y-103817296D01*
X277858609Y-103138964D01*
X277847067Y-103123069D01*
X277307124Y-102583223D01*
X277291251Y-102571696D01*
X276612980Y-102226469D01*
X276594474Y-102220443D01*
X275840998Y-102099785D01*
X275821202Y-102099785D01*
X275067728Y-102220443D01*
X275049222Y-102226469D01*
X274371021Y-102571660D01*
X274355038Y-102583296D01*
X273817785Y-103123184D01*
X273806448Y-103138785D01*
X273458557Y-103817214D01*
X273452434Y-103835964D01*
X273332958Y-104588195D01*
X273332954Y-104607806D01*
X270305801Y-104607806D01*
X270305801Y-97267715D01*
X270301326Y-97252476D01*
X270299936Y-97251271D01*
X270292253Y-97249600D01*
X256323915Y-97249600D01*
X256308676Y-97254075D01*
X256307471Y-97255465D01*
X256305800Y-97263148D01*
X256305800Y-111231486D01*
X251255800Y-111231486D01*
X251255800Y-97267715D01*
X251251325Y-97252476D01*
X251249935Y-97251271D01*
X251242252Y-97249600D01*
X237273915Y-97249600D01*
X237258676Y-97254075D01*
X237257471Y-97255465D01*
X237255800Y-97263148D01*
X237255800Y-111231486D01*
X232205800Y-111231486D01*
X232205800Y-97267715D01*
X232201325Y-97252476D01*
X232199935Y-97251271D01*
X232192252Y-97249600D01*
X218223915Y-97249600D01*
X218208676Y-97254075D01*
X218207471Y-97255465D01*
X218205800Y-97263148D01*
X218205800Y-111231486D01*
X213155800Y-111231486D01*
X213155800Y-97267715D01*
X213151325Y-97252476D01*
X213149935Y-97251271D01*
X213142252Y-97249600D01*
X199173915Y-97249600D01*
X199158676Y-97254075D01*
X199157471Y-97255465D01*
X199155800Y-97263148D01*
X199155800Y-111231486D01*
X194105800Y-111231486D01*
X194105800Y-97267715D01*
X194101325Y-97252476D01*
X194099935Y-97251271D01*
X194092252Y-97249600D01*
X180123915Y-97249600D01*
X180108676Y-97254075D01*
X180107471Y-97255465D01*
X180105800Y-97263148D01*
X180105800Y-111231486D01*
X175055800Y-111231486D01*
X175055800Y-97267715D01*
X175051325Y-97252476D01*
X175049935Y-97251271D01*
X175042252Y-97249600D01*
X161073915Y-97249600D01*
X161058676Y-97254075D01*
X161057471Y-97255465D01*
X161055800Y-97263148D01*
X161055800Y-111231486D01*
X156005800Y-111231486D01*
X156005800Y-97267715D01*
X156001325Y-97252476D01*
X155999935Y-97251271D01*
X155992252Y-97249600D01*
X142023915Y-97249600D01*
X142008676Y-97254075D01*
X142007471Y-97255465D01*
X142005800Y-97263148D01*
X142005800Y-111231486D01*
X136955800Y-111231486D01*
X136955800Y-97267715D01*
X136951325Y-97252476D01*
X136949935Y-97251271D01*
X136942252Y-97249600D01*
X122973915Y-97249600D01*
X122958676Y-97254075D01*
X122957471Y-97255465D01*
X122955800Y-97263148D01*
X122955800Y-111231486D01*
X117905800Y-111231486D01*
X117905800Y-97267715D01*
X117901325Y-97252476D01*
X117899935Y-97251271D01*
X117892252Y-97249600D01*
X103923915Y-97249600D01*
X103908676Y-97254075D01*
X103907471Y-97255465D01*
X103905800Y-97263148D01*
X103905800Y-111231486D01*
X98855800Y-111231486D01*
X98855800Y-97267715D01*
X98851325Y-97252476D01*
X98849935Y-97251271D01*
X98842252Y-97249600D01*
X84873915Y-97249600D01*
X84858676Y-97254075D01*
X84857471Y-97255465D01*
X84855800Y-97263148D01*
X84855800Y-111231486D01*
X79805800Y-111231486D01*
X79805800Y-97267715D01*
X79801325Y-97252476D01*
X79799935Y-97251271D01*
X79792252Y-97249600D01*
X65823915Y-97249600D01*
X65808676Y-97254075D01*
X65807471Y-97255465D01*
X65805800Y-97263148D01*
X65805800Y-111231486D01*
X60755800Y-111231486D01*
X60755800Y-97267715D01*
X60751325Y-97252476D01*
X60749935Y-97251271D01*
X60742252Y-97249600D01*
X46773915Y-97249600D01*
X46758676Y-97254075D01*
X46757471Y-97255465D01*
X46755800Y-97263148D01*
X46755800Y-111231486D01*
X36943300Y-111231486D01*
X36943300Y-104607837D01*
X38483364Y-104607837D01*
X38603245Y-105362512D01*
X38609303Y-105381130D01*
X38955311Y-106059600D01*
X38966781Y-106075392D01*
X39505752Y-106615142D01*
X39521693Y-106626720D01*
X40200998Y-106971928D01*
X40219551Y-106977947D01*
X40972006Y-107097248D01*
X40991596Y-107097250D01*
X41745042Y-106977946D01*
X41763608Y-106971925D01*
X42442908Y-106626720D01*
X42458849Y-106615142D01*
X42997819Y-106075392D01*
X43009289Y-106059600D01*
X43355279Y-105381167D01*
X43361349Y-105362468D01*
X43480263Y-104607764D01*
X43480258Y-104588240D01*
X43361352Y-103835923D01*
X43355283Y-103817245D01*
X43009288Y-103138901D01*
X42997821Y-103123110D01*
X42458847Y-102583259D01*
X42442906Y-102571680D01*
X41763566Y-102226455D01*
X41745091Y-102220446D01*
X40991710Y-102099787D01*
X40971892Y-102099789D01*
X40219500Y-102220446D01*
X40201044Y-102226451D01*
X39521691Y-102571682D01*
X39505755Y-102583257D01*
X38966779Y-103123110D01*
X38955312Y-103138901D01*
X38609298Y-103817283D01*
X38603242Y-103835878D01*
X38483368Y-104588164D01*
X38483364Y-104607837D01*
X36943300Y-104607837D01*
X36943300Y-97267715D01*
X36938825Y-97252476D01*
X36937435Y-97251271D01*
X36929752Y-97249600D01*
X34688050Y-97249600D01*
X34619929Y-97229598D01*
X34573436Y-97175942D01*
X34562050Y-97123600D01*
X34562050Y-92331273D01*
X34582052Y-92263152D01*
X34635708Y-92216659D01*
X34687952Y-92205273D01*
X41993300Y-92199600D01*
X55975185Y-92199600D01*
X55990424Y-92195125D01*
X55991629Y-92193735D01*
X55993300Y-92186052D01*
X55993300Y-92181485D01*
X61043300Y-92181485D01*
X61047775Y-92196724D01*
X61049165Y-92197929D01*
X61056848Y-92199600D01*
X75025185Y-92199600D01*
X75040424Y-92195125D01*
X75041629Y-92193735D01*
X75043300Y-92186052D01*
X75043300Y-92181485D01*
X80093300Y-92181485D01*
X80097775Y-92196724D01*
X80099165Y-92197929D01*
X80106848Y-92199600D01*
X94075185Y-92199600D01*
X94090424Y-92195125D01*
X94091629Y-92193735D01*
X94093300Y-92186052D01*
X94093300Y-92181485D01*
X99143300Y-92181485D01*
X99147775Y-92196724D01*
X99149165Y-92197929D01*
X99156848Y-92199600D01*
X113125185Y-92199600D01*
X113140424Y-92195125D01*
X113141629Y-92193735D01*
X113143300Y-92186052D01*
X113143300Y-92181485D01*
X118193300Y-92181485D01*
X118197775Y-92196724D01*
X118199165Y-92197929D01*
X118206848Y-92199600D01*
X132175185Y-92199600D01*
X132190424Y-92195125D01*
X132191629Y-92193735D01*
X132193300Y-92186052D01*
X132193300Y-92181485D01*
X137243300Y-92181485D01*
X137247775Y-92196724D01*
X137249165Y-92197929D01*
X137256848Y-92199600D01*
X151225185Y-92199600D01*
X151240424Y-92195125D01*
X151241629Y-92193735D01*
X151243300Y-92186052D01*
X151243300Y-92181485D01*
X156293300Y-92181485D01*
X156297775Y-92196724D01*
X156299165Y-92197929D01*
X156306848Y-92199600D01*
X170275185Y-92199600D01*
X170290424Y-92195125D01*
X170291629Y-92193735D01*
X170293300Y-92186052D01*
X170293300Y-86182435D01*
X170313302Y-86114314D01*
X170366958Y-86067821D01*
X170437232Y-86057717D01*
X170501812Y-86087211D01*
X170531598Y-86125293D01*
X170803299Y-86659255D01*
X170814819Y-86675122D01*
X171354773Y-87215271D01*
X171370655Y-87226807D01*
X172048925Y-87571985D01*
X172067639Y-87578041D01*
X172821115Y-87695985D01*
X172840485Y-87695985D01*
X173593961Y-87578041D01*
X173612675Y-87571985D01*
X174290945Y-87226807D01*
X174306827Y-87215271D01*
X174846855Y-86675048D01*
X174858284Y-86659363D01*
X175105198Y-86178191D01*
X175154094Y-86126716D01*
X175223058Y-86109848D01*
X175290194Y-86132942D01*
X175334186Y-86188666D01*
X175343300Y-86235716D01*
X175343300Y-92181485D01*
X175347775Y-92196724D01*
X175349165Y-92197929D01*
X175356848Y-92199600D01*
X189325185Y-92199600D01*
X189340424Y-92195125D01*
X189341629Y-92193735D01*
X189343300Y-92186052D01*
X189343300Y-92181485D01*
X194393300Y-92181485D01*
X194397775Y-92196724D01*
X194399165Y-92197929D01*
X194406848Y-92199600D01*
X208375185Y-92199600D01*
X208390424Y-92195125D01*
X208391629Y-92193735D01*
X208393300Y-92186052D01*
X208393300Y-92181485D01*
X213443300Y-92181485D01*
X213447775Y-92196724D01*
X213449165Y-92197929D01*
X213456848Y-92199600D01*
X227425185Y-92199600D01*
X227440424Y-92195125D01*
X227441629Y-92193735D01*
X227443300Y-92186052D01*
X227443300Y-92181485D01*
X232493300Y-92181485D01*
X232497775Y-92196724D01*
X232499165Y-92197929D01*
X232506848Y-92199600D01*
X246475185Y-92199600D01*
X246490424Y-92195125D01*
X246491629Y-92193735D01*
X246493300Y-92186052D01*
X246493300Y-92181485D01*
X251543300Y-92181485D01*
X251547775Y-92196724D01*
X251549165Y-92197929D01*
X251556848Y-92199600D01*
X265525185Y-92199600D01*
X265540424Y-92195125D01*
X265541629Y-92193735D01*
X265543300Y-92186052D01*
X265543300Y-78217715D01*
X265538825Y-78202476D01*
X265537435Y-78201271D01*
X265529752Y-78199600D01*
X251561415Y-78199600D01*
X251546176Y-78204075D01*
X251544971Y-78205465D01*
X251543300Y-78213148D01*
X251543300Y-92181485D01*
X246493300Y-92181485D01*
X246493300Y-78217715D01*
X246488825Y-78202476D01*
X246487435Y-78201271D01*
X246479752Y-78199600D01*
X232511415Y-78199600D01*
X232496176Y-78204075D01*
X232494971Y-78205465D01*
X232493300Y-78213148D01*
X232493300Y-92181485D01*
X227443300Y-92181485D01*
X227443300Y-78217715D01*
X227438825Y-78202476D01*
X227437435Y-78201271D01*
X227429752Y-78199600D01*
X213461415Y-78199600D01*
X213446176Y-78204075D01*
X213444971Y-78205465D01*
X213443300Y-78213148D01*
X213443300Y-92181485D01*
X208393300Y-92181485D01*
X208393300Y-78217715D01*
X208388825Y-78202476D01*
X208387435Y-78201271D01*
X208379752Y-78199600D01*
X194411415Y-78199600D01*
X194396176Y-78204075D01*
X194394971Y-78205465D01*
X194393300Y-78213148D01*
X194393300Y-92181485D01*
X189343300Y-92181485D01*
X189343300Y-78217715D01*
X189338825Y-78202476D01*
X189337435Y-78201271D01*
X189329752Y-78199600D01*
X175361415Y-78199600D01*
X175346176Y-78204075D01*
X175344971Y-78205465D01*
X175343300Y-78213148D01*
X175343300Y-84162352D01*
X175323298Y-84230473D01*
X175269642Y-84276966D01*
X175199368Y-84287070D01*
X175134788Y-84257576D01*
X175105138Y-84219760D01*
X174858312Y-83737515D01*
X174846788Y-83721709D01*
X174306762Y-83183242D01*
X174291046Y-83171827D01*
X173612643Y-82825219D01*
X173593993Y-82819143D01*
X172840620Y-82699460D01*
X172820980Y-82699460D01*
X172067607Y-82819143D01*
X172048957Y-82825219D01*
X171370554Y-83171827D01*
X171354838Y-83183242D01*
X170814889Y-83721631D01*
X170803269Y-83737628D01*
X170531658Y-84272794D01*
X170482991Y-84324487D01*
X170414104Y-84341663D01*
X170346866Y-84318868D01*
X170302625Y-84263341D01*
X170293300Y-84215770D01*
X170293300Y-78217715D01*
X170288825Y-78202476D01*
X170287435Y-78201271D01*
X170279752Y-78199600D01*
X156311415Y-78199600D01*
X156296176Y-78204075D01*
X156294971Y-78205465D01*
X156293300Y-78213148D01*
X156293300Y-92181485D01*
X151243300Y-92181485D01*
X151243300Y-78217715D01*
X151238825Y-78202476D01*
X151237435Y-78201271D01*
X151229752Y-78199600D01*
X137261415Y-78199600D01*
X137246176Y-78204075D01*
X137244971Y-78205465D01*
X137243300Y-78213148D01*
X137243300Y-92181485D01*
X132193300Y-92181485D01*
X132193300Y-78217715D01*
X132188825Y-78202476D01*
X132187435Y-78201271D01*
X132179752Y-78199600D01*
X118211415Y-78199600D01*
X118196176Y-78204075D01*
X118194971Y-78205465D01*
X118193300Y-78213148D01*
X118193300Y-92181485D01*
X113143300Y-92181485D01*
X113143300Y-78217715D01*
X113138825Y-78202476D01*
X113137435Y-78201271D01*
X113129752Y-78199600D01*
X99161415Y-78199600D01*
X99146176Y-78204075D01*
X99144971Y-78205465D01*
X99143300Y-78213148D01*
X99143300Y-92181485D01*
X94093300Y-92181485D01*
X94093300Y-78217715D01*
X94088825Y-78202476D01*
X94087435Y-78201271D01*
X94079752Y-78199600D01*
X80111415Y-78199600D01*
X80096176Y-78204075D01*
X80094971Y-78205465D01*
X80093300Y-78213148D01*
X80093300Y-92181485D01*
X75043300Y-92181485D01*
X75043300Y-78217715D01*
X75038825Y-78202476D01*
X75037435Y-78201271D01*
X75029752Y-78199600D01*
X61061415Y-78199600D01*
X61046176Y-78204075D01*
X61044971Y-78205465D01*
X61043300Y-78213148D01*
X61043300Y-92181485D01*
X55993300Y-92181485D01*
X55993300Y-78217715D01*
X55988825Y-78202476D01*
X55987435Y-78201271D01*
X55979752Y-78199600D01*
X52651050Y-78199600D01*
X52582929Y-78179598D01*
X52536436Y-78125942D01*
X52525050Y-78073600D01*
X52525050Y-76217715D01*
X52520575Y-76202476D01*
X52519185Y-76201271D01*
X52511502Y-76199600D01*
X45543165Y-76199600D01*
X45527926Y-76204075D01*
X45526721Y-76205465D01*
X45525050Y-76213148D01*
X45525050Y-78073600D01*
X45505048Y-78141721D01*
X45451392Y-78188214D01*
X45399050Y-78199600D01*
X28775050Y-78199600D01*
X28706929Y-78179598D01*
X28660436Y-78125942D01*
X28649050Y-78073600D01*
X28649050Y-76217715D01*
X28644575Y-76202476D01*
X28643185Y-76201271D01*
X28635502Y-76199600D01*
X21959565Y-76199600D01*
X21891444Y-76179598D01*
X21844951Y-76125942D01*
X21835135Y-76053769D01*
X21842231Y-76009243D01*
X21842234Y-75989558D01*
X21722346Y-75236119D01*
X21716345Y-75217623D01*
X21371299Y-74537862D01*
X21359779Y-74521967D01*
X20820836Y-73982147D01*
X20804926Y-73970584D01*
X20126611Y-73625385D01*
X20108035Y-73619351D01*
X19349701Y-73498978D01*
X19339838Y-73498200D01*
X15969800Y-73498200D01*
X15901679Y-73478198D01*
X15855186Y-73424542D01*
X15843800Y-73372200D01*
X15843800Y-73131485D01*
X25324550Y-73131485D01*
X25329025Y-73146724D01*
X25330415Y-73147929D01*
X25338098Y-73149600D01*
X65500185Y-73149600D01*
X65515424Y-73145125D01*
X65516629Y-73143735D01*
X65518300Y-73136052D01*
X65518300Y-73131485D01*
X70568300Y-73131485D01*
X70572775Y-73146724D01*
X70574165Y-73147929D01*
X70581848Y-73149600D01*
X84550185Y-73149600D01*
X84565424Y-73145125D01*
X84566629Y-73143735D01*
X84568300Y-73136052D01*
X84568300Y-73131485D01*
X89618300Y-73131485D01*
X89622775Y-73146724D01*
X89624165Y-73147929D01*
X89631848Y-73149600D01*
X103600185Y-73149600D01*
X103615424Y-73145125D01*
X103616629Y-73143735D01*
X103618300Y-73136052D01*
X103618300Y-73131485D01*
X108668300Y-73131485D01*
X108672775Y-73146724D01*
X108674165Y-73147929D01*
X108681848Y-73149600D01*
X122650185Y-73149600D01*
X122665424Y-73145125D01*
X122666629Y-73143735D01*
X122668300Y-73136052D01*
X122668300Y-73131485D01*
X127718300Y-73131485D01*
X127722775Y-73146724D01*
X127724165Y-73147929D01*
X127731848Y-73149600D01*
X141700185Y-73149600D01*
X141715424Y-73145125D01*
X141716629Y-73143735D01*
X141718300Y-73136052D01*
X141718300Y-73131485D01*
X146768300Y-73131485D01*
X146772775Y-73146724D01*
X146774165Y-73147929D01*
X146781848Y-73149600D01*
X160750185Y-73149600D01*
X160765424Y-73145125D01*
X160766629Y-73143735D01*
X160768300Y-73136052D01*
X160768300Y-73131485D01*
X165818300Y-73131485D01*
X165822775Y-73146724D01*
X165824165Y-73147929D01*
X165831848Y-73149600D01*
X179800185Y-73149600D01*
X179815424Y-73145125D01*
X179816629Y-73143735D01*
X179818300Y-73136052D01*
X179818300Y-73131485D01*
X184868300Y-73131485D01*
X184872775Y-73146724D01*
X184874165Y-73147929D01*
X184881848Y-73149600D01*
X198850185Y-73149600D01*
X198865424Y-73145125D01*
X198866629Y-73143735D01*
X198868300Y-73136052D01*
X198868300Y-73131485D01*
X203918300Y-73131485D01*
X203922775Y-73146724D01*
X203924165Y-73147929D01*
X203931848Y-73149600D01*
X217900185Y-73149600D01*
X217915424Y-73145125D01*
X217916629Y-73143735D01*
X217918300Y-73136052D01*
X217918300Y-73131485D01*
X222968300Y-73131485D01*
X222972775Y-73146724D01*
X222974165Y-73147929D01*
X222981848Y-73149600D01*
X236950185Y-73149600D01*
X236965424Y-73145125D01*
X236966629Y-73143735D01*
X236968300Y-73136052D01*
X236968300Y-73131485D01*
X242018300Y-73131485D01*
X242022775Y-73146724D01*
X242024165Y-73147929D01*
X242031848Y-73149600D01*
X256000185Y-73149600D01*
X256015424Y-73145125D01*
X256016629Y-73143735D01*
X256018300Y-73136052D01*
X256018300Y-73131485D01*
X261068301Y-73131485D01*
X261072776Y-73146724D01*
X261074166Y-73147929D01*
X261081849Y-73149600D01*
X296481435Y-73149600D01*
X296496674Y-73145125D01*
X296497879Y-73143735D01*
X296499550Y-73136052D01*
X296499550Y-57167715D01*
X296495075Y-57152476D01*
X296493685Y-57151271D01*
X296486002Y-57149600D01*
X288430666Y-57149600D01*
X288415427Y-57154075D01*
X288414222Y-57155465D01*
X288412551Y-57163148D01*
X288412551Y-59023600D01*
X288392549Y-59091721D01*
X288338893Y-59138214D01*
X288286551Y-59149600D01*
X271621494Y-59149600D01*
X271553373Y-59129598D01*
X271506880Y-59075942D01*
X271495494Y-59023600D01*
X271495494Y-57167715D01*
X271491019Y-57152476D01*
X271489629Y-57151271D01*
X271481946Y-57149600D01*
X264554665Y-57149600D01*
X264539426Y-57154075D01*
X264538221Y-57155465D01*
X264536550Y-57163148D01*
X264536550Y-59023501D01*
X264516548Y-59091622D01*
X264462892Y-59138115D01*
X264440877Y-59142904D01*
X264441314Y-59144392D01*
X264440977Y-59144491D01*
X264419140Y-59147633D01*
X264410550Y-59149501D01*
X264406151Y-59149501D01*
X264405463Y-59149600D01*
X261086416Y-59149600D01*
X261071177Y-59154075D01*
X261069972Y-59155465D01*
X261068301Y-59163148D01*
X261068301Y-73131485D01*
X256018300Y-73131485D01*
X256018300Y-59167715D01*
X256013825Y-59152476D01*
X256012435Y-59151271D01*
X256004752Y-59149600D01*
X242036415Y-59149600D01*
X242021176Y-59154075D01*
X242019971Y-59155465D01*
X242018300Y-59163148D01*
X242018300Y-73131485D01*
X236968300Y-73131485D01*
X236968300Y-59167715D01*
X236963825Y-59152476D01*
X236962435Y-59151271D01*
X236954752Y-59149600D01*
X222986415Y-59149600D01*
X222971176Y-59154075D01*
X222969971Y-59155465D01*
X222968300Y-59163148D01*
X222968300Y-73131485D01*
X217918300Y-73131485D01*
X217918300Y-59167715D01*
X217913825Y-59152476D01*
X217912435Y-59151271D01*
X217904752Y-59149600D01*
X203936415Y-59149600D01*
X203921176Y-59154075D01*
X203919971Y-59155465D01*
X203918300Y-59163148D01*
X203918300Y-73131485D01*
X198868300Y-73131485D01*
X198868300Y-59167715D01*
X198863825Y-59152476D01*
X198862435Y-59151271D01*
X198854752Y-59149600D01*
X184886415Y-59149600D01*
X184871176Y-59154075D01*
X184869971Y-59155465D01*
X184868300Y-59163148D01*
X184868300Y-73131485D01*
X179818300Y-73131485D01*
X179818300Y-59167715D01*
X179813825Y-59152476D01*
X179812435Y-59151271D01*
X179804752Y-59149600D01*
X165836415Y-59149600D01*
X165821176Y-59154075D01*
X165819971Y-59155465D01*
X165818300Y-59163148D01*
X165818300Y-73131485D01*
X160768300Y-73131485D01*
X160768300Y-59167715D01*
X160763825Y-59152476D01*
X160762435Y-59151271D01*
X160754752Y-59149600D01*
X146786415Y-59149600D01*
X146771176Y-59154075D01*
X146769971Y-59155465D01*
X146768300Y-59163148D01*
X146768300Y-73131485D01*
X141718300Y-73131485D01*
X141718300Y-59167715D01*
X141713825Y-59152476D01*
X141712435Y-59151271D01*
X141704752Y-59149600D01*
X127736415Y-59149600D01*
X127721176Y-59154075D01*
X127719971Y-59155465D01*
X127718300Y-59163148D01*
X127718300Y-73131485D01*
X122668300Y-73131485D01*
X122668300Y-59167715D01*
X122663825Y-59152476D01*
X122662435Y-59151271D01*
X122654752Y-59149600D01*
X108686415Y-59149600D01*
X108671176Y-59154075D01*
X108669971Y-59155465D01*
X108668300Y-59163148D01*
X108668300Y-73131485D01*
X103618300Y-73131485D01*
X103618300Y-59167715D01*
X103613825Y-59152476D01*
X103612435Y-59151271D01*
X103604752Y-59149600D01*
X89636415Y-59149600D01*
X89621176Y-59154075D01*
X89619971Y-59155465D01*
X89618300Y-59163148D01*
X89618300Y-73131485D01*
X84568300Y-73131485D01*
X84568300Y-59167715D01*
X84563825Y-59152476D01*
X84562435Y-59151271D01*
X84554752Y-59149600D01*
X70586415Y-59149600D01*
X70571176Y-59154075D01*
X70569971Y-59155465D01*
X70568300Y-59163148D01*
X70568300Y-73131485D01*
X65518300Y-73131485D01*
X65518300Y-59167715D01*
X65513825Y-59152476D01*
X65512435Y-59151271D01*
X65504752Y-59149600D01*
X62176050Y-59149600D01*
X62107929Y-59129598D01*
X62061436Y-59075942D01*
X62050050Y-59023600D01*
X62050050Y-57167715D01*
X62045575Y-57152476D01*
X62044185Y-57151271D01*
X62036502Y-57149600D01*
X55068165Y-57149600D01*
X55052926Y-57154075D01*
X55051721Y-57155465D01*
X55050050Y-57163148D01*
X55050050Y-59023600D01*
X55030048Y-59091721D01*
X54976392Y-59138214D01*
X54924050Y-59149600D01*
X38569463Y-59149600D01*
X38501342Y-59129598D01*
X38454849Y-59075942D01*
X38443463Y-59023600D01*
X38443463Y-57167715D01*
X38438988Y-57152476D01*
X38437598Y-57151271D01*
X38429915Y-57149600D01*
X31192165Y-57149600D01*
X31176926Y-57154075D01*
X31175721Y-57155465D01*
X31174050Y-57163148D01*
X31174050Y-59023600D01*
X31154048Y-59091721D01*
X31100392Y-59138214D01*
X31048050Y-59149600D01*
X25342665Y-59149600D01*
X25327426Y-59154075D01*
X25326221Y-59155465D01*
X25324550Y-59163148D01*
X25324550Y-73131485D01*
X15843800Y-73131485D01*
X15843800Y-56081485D01*
X150268300Y-56081485D01*
X150272775Y-56096724D01*
X150274165Y-56097929D01*
X150281848Y-56099600D01*
X157250185Y-56099600D01*
X157265424Y-56095125D01*
X157266629Y-56093735D01*
X157268300Y-56086052D01*
X157268300Y-56081485D01*
X164524050Y-56081485D01*
X164528525Y-56096724D01*
X164529915Y-56097929D01*
X164537598Y-56099600D01*
X171505935Y-56099600D01*
X171521174Y-56095125D01*
X171522379Y-56093735D01*
X171524050Y-56086052D01*
X171524050Y-56081485D01*
X188368300Y-56081485D01*
X188372775Y-56096724D01*
X188374165Y-56097929D01*
X188381848Y-56099600D01*
X195381935Y-56099600D01*
X195397174Y-56095125D01*
X195398379Y-56093735D01*
X195400050Y-56086052D01*
X195400050Y-54081485D01*
X211062050Y-54081485D01*
X211066525Y-54096724D01*
X211067915Y-54097929D01*
X211075598Y-54099600D01*
X232187685Y-54099600D01*
X232202924Y-54095125D01*
X232204129Y-54093735D01*
X232205800Y-54086052D01*
X232205800Y-54081485D01*
X234874550Y-54081485D01*
X234879025Y-54096724D01*
X234880415Y-54097929D01*
X234888098Y-54099600D01*
X253618935Y-54099600D01*
X253634174Y-54095125D01*
X253635379Y-54093735D01*
X253637050Y-54086052D01*
X253637050Y-54081485D01*
X258687050Y-54081485D01*
X258691525Y-54096724D01*
X258692915Y-54097929D01*
X258700598Y-54099600D01*
X275050186Y-54099600D01*
X275065425Y-54095125D01*
X275066630Y-54093735D01*
X275068301Y-54086052D01*
X275068301Y-54081485D01*
X282499550Y-54081485D01*
X282504025Y-54096724D01*
X282505415Y-54097929D01*
X282513098Y-54099600D01*
X296481435Y-54099600D01*
X296496674Y-54095125D01*
X296497879Y-54093735D01*
X296499550Y-54086052D01*
X296499550Y-40117715D01*
X296495075Y-40102476D01*
X296493685Y-40101271D01*
X296486002Y-40099600D01*
X282517665Y-40099600D01*
X282502426Y-40104075D01*
X282501221Y-40105465D01*
X282499550Y-40113148D01*
X282499550Y-54081485D01*
X275068301Y-54081485D01*
X275068301Y-40117715D01*
X275063826Y-40102476D01*
X275062436Y-40101271D01*
X275054753Y-40099600D01*
X258705165Y-40099600D01*
X258689926Y-40104075D01*
X258688721Y-40105465D01*
X258687050Y-40113148D01*
X258687050Y-54081485D01*
X253637050Y-54081485D01*
X253637050Y-40117715D01*
X253632575Y-40102476D01*
X253631185Y-40101271D01*
X253623502Y-40099600D01*
X234892665Y-40099600D01*
X234877426Y-40104075D01*
X234876221Y-40105465D01*
X234874550Y-40113148D01*
X234874550Y-54081485D01*
X232205800Y-54081485D01*
X232205800Y-40117715D01*
X232201325Y-40102476D01*
X232199935Y-40101271D01*
X232192252Y-40099600D01*
X211080165Y-40099600D01*
X211064926Y-40104075D01*
X211063721Y-40105465D01*
X211062050Y-40113148D01*
X211062050Y-54081485D01*
X195400050Y-54081485D01*
X195400050Y-41117715D01*
X195395575Y-41102476D01*
X195394185Y-41101271D01*
X195386502Y-41099600D01*
X188386415Y-41099600D01*
X188371176Y-41104075D01*
X188369971Y-41105465D01*
X188368300Y-41113148D01*
X188368300Y-56081485D01*
X171524050Y-56081485D01*
X171524050Y-54225600D01*
X171544052Y-54157479D01*
X171597708Y-54110986D01*
X171650050Y-54099600D01*
X186943935Y-54099600D01*
X186959174Y-54095125D01*
X186960379Y-54093735D01*
X186962050Y-54086052D01*
X186962050Y-40117715D01*
X186957575Y-40102476D01*
X186956185Y-40101271D01*
X186948502Y-40099600D01*
X165836415Y-40099600D01*
X165821176Y-40104075D01*
X165819971Y-40105465D01*
X165818300Y-40113148D01*
X165818300Y-40973600D01*
X165798298Y-41041721D01*
X165744642Y-41088214D01*
X165692300Y-41099600D01*
X164542165Y-41099600D01*
X164526926Y-41104075D01*
X164525721Y-41105465D01*
X164524050Y-41113148D01*
X164524050Y-56081485D01*
X157268300Y-56081485D01*
X157268300Y-41117715D01*
X157263825Y-41102476D01*
X157262435Y-41101271D01*
X157254752Y-41099600D01*
X150286415Y-41099600D01*
X150271176Y-41104075D01*
X150269971Y-41105465D01*
X150268300Y-41113148D01*
X150268300Y-56081485D01*
X15843800Y-56081485D01*
X15843800Y-54081485D01*
X20562050Y-54081485D01*
X20566525Y-54096724D01*
X20567915Y-54097929D01*
X20575598Y-54099600D01*
X34543935Y-54099600D01*
X34559174Y-54095125D01*
X34560379Y-54093735D01*
X34562050Y-54086052D01*
X34562050Y-54081485D01*
X41993300Y-54081485D01*
X41997775Y-54096724D01*
X41999165Y-54097929D01*
X42006848Y-54099600D01*
X58356435Y-54099600D01*
X58371674Y-54095125D01*
X58372879Y-54093735D01*
X58374550Y-54086052D01*
X58374550Y-54081485D01*
X63424550Y-54081485D01*
X63429025Y-54096724D01*
X63430415Y-54097929D01*
X63438098Y-54099600D01*
X82168935Y-54099600D01*
X82184174Y-54095125D01*
X82185379Y-54093735D01*
X82187050Y-54086052D01*
X82187050Y-54081485D01*
X87237050Y-54081485D01*
X87241525Y-54096724D01*
X87242915Y-54097929D01*
X87250598Y-54099600D01*
X105981435Y-54099600D01*
X105996674Y-54095125D01*
X105997879Y-54093735D01*
X105999550Y-54086052D01*
X105999550Y-47289252D01*
X108033342Y-47289252D01*
X108033344Y-47308789D01*
X108152252Y-48060907D01*
X108158298Y-48079535D01*
X108504303Y-48759167D01*
X108515804Y-48775012D01*
X109053790Y-49313582D01*
X109069637Y-49325107D01*
X109748964Y-49671593D01*
X109767595Y-49677655D01*
X110520991Y-49797244D01*
X110540609Y-49797246D01*
X110903822Y-49739667D01*
X110974234Y-49748757D01*
X111028555Y-49794471D01*
X111049550Y-49864113D01*
X111049550Y-54081485D01*
X111054025Y-54096724D01*
X111055415Y-54097929D01*
X111063098Y-54099600D01*
X127412685Y-54099600D01*
X127427924Y-54095125D01*
X127429129Y-54093735D01*
X127430800Y-54086052D01*
X127430800Y-54081485D01*
X134862050Y-54081485D01*
X134866525Y-54096724D01*
X134867915Y-54097929D01*
X134875598Y-54099600D01*
X148843935Y-54099600D01*
X148859174Y-54095125D01*
X148860379Y-54093735D01*
X148862050Y-54086052D01*
X148862050Y-40117715D01*
X148857575Y-40102476D01*
X148856185Y-40101271D01*
X148848502Y-40099600D01*
X134880165Y-40099600D01*
X134864926Y-40104075D01*
X134863721Y-40105465D01*
X134862050Y-40113148D01*
X134862050Y-54081485D01*
X127430800Y-54081485D01*
X127430800Y-40117715D01*
X127426325Y-40102476D01*
X127424935Y-40101271D01*
X127417252Y-40099600D01*
X111067665Y-40099600D01*
X111052426Y-40104075D01*
X111051221Y-40105465D01*
X111049550Y-40113148D01*
X111049550Y-44733925D01*
X111029548Y-44802046D01*
X110975892Y-44848539D01*
X110903833Y-44858373D01*
X110540602Y-44800823D01*
X110520998Y-44800825D01*
X109767552Y-44920353D01*
X109748996Y-44926373D01*
X109069727Y-45271515D01*
X109053732Y-45283145D01*
X108515751Y-45823074D01*
X108504325Y-45838821D01*
X108158321Y-46517078D01*
X108152249Y-46535766D01*
X108033342Y-47289252D01*
X105999550Y-47289252D01*
X105999550Y-40117715D01*
X105995075Y-40102476D01*
X105993685Y-40101271D01*
X105986002Y-40099600D01*
X87255165Y-40099600D01*
X87239926Y-40104075D01*
X87238721Y-40105465D01*
X87237050Y-40113148D01*
X87237050Y-54081485D01*
X82187050Y-54081485D01*
X82187050Y-40117715D01*
X82182575Y-40102476D01*
X82181185Y-40101271D01*
X82173502Y-40099600D01*
X63442665Y-40099600D01*
X63427426Y-40104075D01*
X63426221Y-40105465D01*
X63424550Y-40113148D01*
X63424550Y-54081485D01*
X58374550Y-54081485D01*
X58374550Y-40117715D01*
X58370075Y-40102476D01*
X58368685Y-40101271D01*
X58361002Y-40099600D01*
X42011415Y-40099600D01*
X41996176Y-40104075D01*
X41994971Y-40105465D01*
X41993300Y-40113148D01*
X41993300Y-54081485D01*
X34562050Y-54081485D01*
X34562050Y-40117715D01*
X34557575Y-40102476D01*
X34556185Y-40101271D01*
X34548502Y-40099600D01*
X20580165Y-40099600D01*
X20564926Y-40104075D01*
X20563721Y-40105465D01*
X20562050Y-40113148D01*
X20562050Y-54081485D01*
X15843800Y-54081485D01*
X15843800Y-37888600D01*
X15863802Y-37820479D01*
X15917458Y-37773986D01*
X15969800Y-37762600D01*
X301091804Y-37762600D01*
X301159925Y-37782602D01*
G37*
M02*
